<?xml version="1.0" encoding="utf-8" standalone="no"?>
<!DOCTYPE svg PUBLIC "-//W3C//DTD SVG 1.1//EN"
  "http://www.w3.org/Graphics/SVG/1.1/DTD/svg11.dtd">
<svg xmlns:xlink="http://www.w3.org/1999/xlink" width="720pt" height="576pt" viewBox="0 0 720 576" xmlns="http://www.w3.org/2000/svg" version="1.1">
 <metadata>
  <rdf:RDF xmlns:dc="http://purl.org/dc/elements/1.1/" xmlns:cc="http://creativecommons.org/ns#" xmlns:rdf="http://www.w3.org/1999/02/22-rdf-syntax-ns#">
   <cc:Work>
    <dc:type rdf:resource="http://purl.org/dc/dcmitype/StillImage"/>
    <dc:date>2026-01-12T23:20:07.812287</dc:date>
    <dc:format>image/svg+xml</dc:format>
    <dc:creator>
     <cc:Agent>
      <dc:title>Matplotlib v3.10.8, https://matplotlib.org/</dc:title>
     </cc:Agent>
    </dc:creator>
   </cc:Work>
  </rdf:RDF>
 </metadata>
 <defs>
  <style type="text/css">*{stroke-linejoin: round; stroke-linecap: butt}</style>
 </defs>
 <g id="figure_1">
  <g id="patch_1">
   <path d="M 0 576 
L 720 576 
L 720 0 
L 0 0 
z
" style="fill: #ffffff"/>
  </g>
  <g id="patch_2">
   <path d="M 98.2 565.2 
L 621.8 565.2 
L 621.8 41.6 
L 98.2 41.6 
z
" style="fill: #ffffff"/>
  </g>
  <g id="pane3d_1">
   <g id="patch_3">
    <path d="M 183.674967 334.943518 
L 493.369491 307.268323 
L 498.804365 96.7813 
L 175.643984 121.972111 
" style="fill: #f2f2f2; opacity: 0.5; stroke: #f2f2f2; stroke-linejoin: miter"/>
   </g>
  </g>
  <g id="pane3d_2">
   <g id="patch_4">
    <path d="M 493.369491 307.268323 
L 566.118952 477.609019 
L 575.613772 252.411881 
L 498.804365 96.7813 
" style="fill: #e6e6e6; opacity: 0.5; stroke: #e6e6e6; stroke-linejoin: miter"/>
   </g>
  </g>
  <g id="pane3d_3">
   <g id="patch_5">
    <path d="M 183.674967 334.943518 
L 225.111995 511.371345 
L 566.118952 477.609019 
L 493.369491 307.268323 
" style="fill: #ececec; opacity: 0.5; stroke: #ececec; stroke-linejoin: miter"/>
   </g>
  </g>
  <g id="grid3d_1">
   <g id="Line3DCollection_1">
    <path d="M 183.674967 334.943518 
L 493.369491 307.268323 
L 498.804365 96.7813 
" style="fill: none; stroke: #b0b0b0; stroke-width: 0.8"/>
    <path d="M 190.023152 361.972399 
L 504.531231 333.403206 
L 510.544524 120.569112 
" style="fill: none; stroke: #b0b0b0; stroke-width: 0.8"/>
    <path d="M 196.579868 389.88915 
L 516.053361 360.381929 
L 522.68061 145.159149 
" style="fill: none; stroke: #b0b0b0; stroke-width: 0.8"/>
    <path d="M 203.355562 418.73825 
L 527.95362 388.24603 
L 535.232996 170.592689 
" style="fill: none; stroke: #b0b0b0; stroke-width: 0.8"/>
    <path d="M 210.36139 448.567198 
L 540.250933 417.039823 
L 548.223475 196.91389 
" style="fill: none; stroke: #b0b0b0; stroke-width: 0.8"/>
    <path d="M 217.609279 479.426779 
L 552.965509 446.810624 
L 561.67539 224.170048 
" style="fill: none; stroke: #b0b0b0; stroke-width: 0.8"/>
    <path d="M 225.111995 511.371345 
L 566.118952 477.609019 
L 575.613772 252.411881 
" style="fill: none; stroke: #b0b0b0; stroke-width: 0.8"/>
   </g>
  </g>
  <g id="grid3d_2">
   <g id="Line3DCollection_2">
    <path d="M 175.643984 121.972111 
L 183.674967 334.943518 
L 225.111995 511.371345 
" style="fill: none; stroke: #b0b0b0; stroke-width: 0.8"/>
    <path d="M 230.289923 117.712382 
L 236.012342 330.2665 
L 282.824621 505.657348 
" style="fill: none; stroke: #b0b0b0; stroke-width: 0.8"/>
    <path d="M 284.617853 113.477443 
L 288.05785 325.615563 
L 340.181666 499.978557 
" style="fill: none; stroke: #b0b0b0; stroke-width: 0.8"/>
    <path d="M 338.630542 109.267077 
L 339.813924 320.990491 
L 397.186405 494.334647 
" style="fill: none; stroke: #b0b0b0; stroke-width: 0.8"/>
    <path d="M 392.330726 105.081072 
L 391.282973 316.391069 
L 453.842074 488.725298 
" style="fill: none; stroke: #b0b0b0; stroke-width: 0.8"/>
    <path d="M 445.72111 100.919215 
L 442.467377 311.817083 
L 510.151871 483.150193 
" style="fill: none; stroke: #b0b0b0; stroke-width: 0.8"/>
    <path d="M 498.804365 96.7813 
L 493.369491 307.268323 
L 566.118952 477.609019 
" style="fill: none; stroke: #b0b0b0; stroke-width: 0.8"/>
   </g>
  </g>
  <g id="grid3d_3">
   <g id="Line3DCollection_3">
    <path d="M 566.118952 477.609019 
L 493.369491 307.268323 
L 183.674967 334.943518 
" style="fill: none; stroke: #b0b0b0; stroke-width: 0.8"/>
    <path d="M 567.64092 441.511123 
L 494.243944 273.401656 
L 182.383593 300.697941 
" style="fill: none; stroke: #b0b0b0; stroke-width: 0.8"/>
    <path d="M 569.186344 404.856934 
L 495.130592 239.062736 
L 181.073905 265.966679 
" style="fill: none; stroke: #b0b0b0; stroke-width: 0.8"/>
    <path d="M 570.755768 367.633492 
L 496.029689 204.241616 
L 179.745509 230.739327 
" style="fill: none; stroke: #b0b0b0; stroke-width: 0.8"/>
    <path d="M 572.349757 329.827434 
L 496.941502 168.928066 
L 178.398003 195.005179 
" style="fill: none; stroke: #b0b0b0; stroke-width: 0.8"/>
    <path d="M 573.968892 291.424972 
L 497.866301 133.111569 
L 177.03097 158.753219 
" style="fill: none; stroke: #b0b0b0; stroke-width: 0.8"/>
    <path d="M 575.613772 252.411881 
L 498.804365 96.7813 
L 175.643984 121.972111 
" style="fill: none; stroke: #b0b0b0; stroke-width: 0.8"/>
   </g>
  </g>
  <g id="axis3d_1">
   <g id="line2d_1">
    <path d="M 183.674967 334.943518 
L 225.111995 511.371345 
" style="fill: none; stroke: #000000; stroke-width: 0.8; stroke-linecap: square"/>
   </g>
   <g id="xtick_1">
    <g id="line2d_2">
     <path d="M 186.193866 334.718422 
L 178.635134 335.393892 
" style="fill: none; stroke: #000000; stroke-width: 0.8; stroke-linecap: square"/>
    </g>
    <g id="text_1">
     <!-- 0 -->
     <g transform="translate(167.552479 352.322426) scale(0.1 -0.1)">
      <defs>
       <path id="DejaVuSans-30" d="M 2034 4250 
Q 1547 4250 1301 3770 
Q 1056 3291 1056 2328 
Q 1056 1369 1301 889 
Q 1547 409 2034 409 
Q 2525 409 2770 889 
Q 3016 1369 3016 2328 
Q 3016 3291 2770 3770 
Q 2525 4250 2034 4250 
z
M 2034 4750 
Q 2819 4750 3233 4129 
Q 3647 3509 3647 2328 
Q 3647 1150 3233 529 
Q 2819 -91 2034 -91 
Q 1250 -91 836 529 
Q 422 1150 422 2328 
Q 422 3509 836 4129 
Q 1250 4750 2034 4750 
z
" transform="scale(0.015625)"/>
      </defs>
      <use xlink:href="#DejaVuSans-30"/>
     </g>
    </g>
   </g>
   <g id="xtick_2">
    <g id="line2d_3">
     <path d="M 192.58188 361.73997 
L 184.903595 362.437448 
" style="fill: none; stroke: #000000; stroke-width: 0.8; stroke-linecap: square"/>
    </g>
    <g id="text_2">
     <!-- 1 -->
     <g transform="translate(173.684943 379.480108) scale(0.1 -0.1)">
      <defs>
       <path id="DejaVuSans-31" d="M 794 531 
L 1825 531 
L 1825 4091 
L 703 3866 
L 703 4441 
L 1819 4666 
L 2450 4666 
L 2450 531 
L 3481 531 
L 3481 0 
L 794 0 
L 794 531 
z
" transform="scale(0.015625)"/>
      </defs>
      <use xlink:href="#DejaVuSans-31"/>
     </g>
    </g>
   </g>
   <g id="xtick_3">
    <g id="line2d_4">
     <path d="M 199.179705 389.649024 
L 191.378025 390.369603 
" style="fill: none; stroke: #000000; stroke-width: 0.8; stroke-linecap: square"/>
    </g>
    <g id="text_3">
     <!-- 2 -->
     <g transform="translate(180.018631 407.528915) scale(0.1 -0.1)">
      <defs>
       <path id="DejaVuSans-32" d="M 1228 531 
L 3431 531 
L 3431 0 
L 469 0 
L 469 531 
Q 828 903 1448 1529 
Q 2069 2156 2228 2338 
Q 2531 2678 2651 2914 
Q 2772 3150 2772 3378 
Q 2772 3750 2511 3984 
Q 2250 4219 1831 4219 
Q 1534 4219 1204 4116 
Q 875 4013 500 3803 
L 500 4441 
Q 881 4594 1212 4672 
Q 1544 4750 1819 4750 
Q 2544 4750 2975 4387 
Q 3406 4025 3406 3419 
Q 3406 3131 3298 2873 
Q 3191 2616 2906 2266 
Q 2828 2175 2409 1742 
Q 1991 1309 1228 531 
z
" transform="scale(0.015625)"/>
      </defs>
      <use xlink:href="#DejaVuSans-32"/>
     </g>
    </g>
   </g>
   <g id="xtick_4">
    <g id="line2d_5">
     <path d="M 205.997849 418.490038 
L 198.068746 419.234885 
" style="fill: none; stroke: #000000; stroke-width: 0.8; stroke-linecap: square"/>
    </g>
    <g id="text_4">
     <!-- 3 -->
     <g transform="translate(186.563613 436.51344) scale(0.1 -0.1)">
      <defs>
       <path id="DejaVuSans-33" d="M 2597 2516 
Q 3050 2419 3304 2112 
Q 3559 1806 3559 1356 
Q 3559 666 3084 287 
Q 2609 -91 1734 -91 
Q 1441 -91 1130 -33 
Q 819 25 488 141 
L 488 750 
Q 750 597 1062 519 
Q 1375 441 1716 441 
Q 2309 441 2620 675 
Q 2931 909 2931 1356 
Q 2931 1769 2642 2001 
Q 2353 2234 1838 2234 
L 1294 2234 
L 1294 2753 
L 1863 2753 
Q 2328 2753 2575 2939 
Q 2822 3125 2822 3475 
Q 2822 3834 2567 4026 
Q 2313 4219 1838 4219 
Q 1578 4219 1281 4162 
Q 984 4106 628 3988 
L 628 4550 
Q 988 4650 1302 4700 
Q 1616 4750 1894 4750 
Q 2613 4750 3031 4423 
Q 3450 4097 3450 3541 
Q 3450 3153 3228 2886 
Q 3006 2619 2597 2516 
z
" transform="scale(0.015625)"/>
      </defs>
      <use xlink:href="#DejaVuSans-33"/>
     </g>
    </g>
   </g>
   <g id="xtick_5">
    <g id="line2d_6">
     <path d="M 213.047536 448.310485 
L 204.98678 449.080847 
" style="fill: none; stroke: #000000; stroke-width: 0.8; stroke-linecap: square"/>
    </g>
    <g id="text_5">
     <!-- 4 -->
     <g transform="translate(193.330642 466.481301) scale(0.1 -0.1)">
      <defs>
       <path id="DejaVuSans-34" d="M 2419 4116 
L 825 1625 
L 2419 1625 
L 2419 4116 
z
M 2253 4666 
L 3047 4666 
L 3047 1625 
L 3713 1625 
L 3713 1100 
L 3047 1100 
L 3047 0 
L 2419 0 
L 2419 1100 
L 313 1100 
L 313 1709 
L 2253 4666 
z
" transform="scale(0.015625)"/>
      </defs>
      <use xlink:href="#DejaVuSans-34"/>
     </g>
    </g>
   </g>
   <g id="xtick_6">
    <g id="line2d_7">
     <path d="M 220.340764 479.161119 
L 212.143912 479.958331 
" style="fill: none; stroke: #000000; stroke-width: 0.8; stroke-linecap: square"/>
    </g>
    <g id="text_6">
     <!-- 5 -->
     <g transform="translate(200.331212 497.483402) scale(0.1 -0.1)">
      <defs>
       <path id="DejaVuSans-35" d="M 691 4666 
L 3169 4666 
L 3169 4134 
L 1269 4134 
L 1269 2991 
Q 1406 3038 1543 3061 
Q 1681 3084 1819 3084 
Q 2600 3084 3056 2656 
Q 3513 2228 3513 1497 
Q 3513 744 3044 326 
Q 2575 -91 1722 -91 
Q 1428 -91 1123 -41 
Q 819 9 494 109 
L 494 744 
Q 775 591 1075 516 
Q 1375 441 1709 441 
Q 2250 441 2565 725 
Q 2881 1009 2881 1497 
Q 2881 1984 2565 2268 
Q 2250 2553 1709 2553 
Q 1456 2553 1204 2497 
Q 953 2441 691 2322 
L 691 4666 
z
" transform="scale(0.015625)"/>
      </defs>
      <use xlink:href="#DejaVuSans-35"/>
     </g>
    </g>
   </g>
   <g id="xtick_7">
    <g id="line2d_8">
     <path d="M 227.890374 511.096264 
L 219.552755 511.921752 
" style="fill: none; stroke: #000000; stroke-width: 0.8; stroke-linecap: square"/>
    </g>
    <g id="text_7">
     <!-- 6 -->
     <g transform="translate(207.577626 529.574225) scale(0.1 -0.1)">
      <defs>
       <path id="DejaVuSans-36" d="M 2113 2584 
Q 1688 2584 1439 2293 
Q 1191 2003 1191 1497 
Q 1191 994 1439 701 
Q 1688 409 2113 409 
Q 2538 409 2786 701 
Q 3034 994 3034 1497 
Q 3034 2003 2786 2293 
Q 2538 2584 2113 2584 
z
M 3366 4563 
L 3366 3988 
Q 3128 4100 2886 4159 
Q 2644 4219 2406 4219 
Q 1781 4219 1451 3797 
Q 1122 3375 1075 2522 
Q 1259 2794 1537 2939 
Q 1816 3084 2150 3084 
Q 2853 3084 3261 2657 
Q 3669 2231 3669 1497 
Q 3669 778 3244 343 
Q 2819 -91 2113 -91 
Q 1303 -91 875 529 
Q 447 1150 447 2328 
Q 447 3434 972 4092 
Q 1497 4750 2381 4750 
Q 2619 4750 2861 4703 
Q 3103 4656 3366 4563 
z
" transform="scale(0.015625)"/>
      </defs>
      <use xlink:href="#DejaVuSans-36"/>
     </g>
    </g>
   </g>
   <g id="text_8">
    <!-- X -->
    <g transform="translate(170.380643 443.592171) scale(0.1 -0.1)">
     <defs>
      <path id="DejaVuSans-58" d="M 403 4666 
L 1081 4666 
L 2241 2931 
L 3406 4666 
L 4084 4666 
L 2584 2425 
L 4184 0 
L 3506 0 
L 2194 1984 
L 872 0 
L 191 0 
L 1856 2491 
L 403 4666 
z
" transform="scale(0.015625)"/>
     </defs>
     <use xlink:href="#DejaVuSans-58"/>
    </g>
   </g>
  </g>
  <g id="axis3d_2">
   <g id="line2d_9">
    <path d="M 566.118952 477.609019 
L 225.111995 511.371345 
" style="fill: none; stroke: #000000; stroke-width: 0.8; stroke-linecap: square"/>
   </g>
   <g id="xtick_8">
    <g id="line2d_10">
     <path d="M 224.745842 509.812366 
L 225.846156 514.497209 
" style="fill: none; stroke: #000000; stroke-width: 0.8; stroke-linecap: square"/>
    </g>
    <g id="text_9">
     <!-- 0 -->
     <g transform="translate(224.145594 536.404497) scale(0.1 -0.1)">
      <use xlink:href="#DejaVuSans-30"/>
     </g>
    </g>
   </g>
   <g id="xtick_9">
    <g id="line2d_11">
     <path d="M 282.411092 504.107986 
L 283.65377 508.763907 
" style="fill: none; stroke: #000000; stroke-width: 0.8; stroke-linecap: square"/>
    </g>
    <g id="text_10">
     <!-- 1 -->
     <g transform="translate(281.995103 530.622259) scale(0.1 -0.1)">
      <use xlink:href="#DejaVuSans-31"/>
     </g>
    </g>
   </g>
   <g id="xtick_10">
    <g id="line2d_12">
     <path d="M 339.721349 498.438722 
L 341.104618 503.065989 
" style="fill: none; stroke: #000000; stroke-width: 0.8; stroke-linecap: square"/>
    </g>
    <g id="text_11">
     <!-- 2 -->
     <g transform="translate(339.487301 524.875735) scale(0.1 -0.1)">
      <use xlink:href="#DejaVuSans-32"/>
     </g>
    </g>
   </g>
   <g id="xtick_11">
    <g id="line2d_13">
     <path d="M 396.679883 492.804252 
L 398.201993 497.403129 
" style="fill: none; stroke: #000000; stroke-width: 0.8; stroke-linecap: square"/>
    </g>
    <g id="text_12">
     <!-- 3 -->
     <g transform="translate(396.62549 519.164596) scale(0.1 -0.1)">
      <use xlink:href="#DejaVuSans-33"/>
     </g>
    </g>
   </g>
   <g id="xtick_12">
    <g id="line2d_14">
     <path d="M 453.28992 487.204255 
L 454.949148 491.775003 
" style="fill: none; stroke: #000000; stroke-width: 0.8; stroke-linecap: square"/>
    </g>
    <g id="text_13">
     <!-- 4 -->
     <g transform="translate(453.412928 513.488515) scale(0.1 -0.1)">
      <use xlink:href="#DejaVuSans-34"/>
     </g>
    </g>
   </g>
   <g id="xtick_13">
    <g id="line2d_15">
     <path d="M 509.55465 481.638418 
L 511.349295 486.181292 
" style="fill: none; stroke: #000000; stroke-width: 0.8; stroke-linecap: square"/>
    </g>
    <g id="text_14">
     <!-- 5 -->
     <g transform="translate(509.852836 507.847171) scale(0.1 -0.1)">
      <use xlink:href="#DejaVuSans-35"/>
     </g>
    </g>
   </g>
   <g id="xtick_14">
    <g id="line2d_16">
     <path d="M 565.477222 476.106427 
L 567.405607 480.621683 
" style="fill: none; stroke: #000000; stroke-width: 0.8; stroke-linecap: square"/>
    </g>
    <g id="text_15">
     <!-- 6 -->
     <g transform="translate(565.948394 502.240246) scale(0.1 -0.1)">
      <use xlink:href="#DejaVuSans-36"/>
     </g>
    </g>
   </g>
   <g id="text_16">
    <!-- Y -->
    <g transform="translate(399.84548 534.662999) scale(0.1 -0.1)">
     <defs>
      <path id="DejaVuSans-59" d="M -13 4666 
L 666 4666 
L 1959 2747 
L 3244 4666 
L 3922 4666 
L 2272 2222 
L 2272 0 
L 1638 0 
L 1638 2222 
L -13 4666 
z
" transform="scale(0.015625)"/>
     </defs>
     <use xlink:href="#DejaVuSans-59"/>
    </g>
   </g>
  </g>
  <g id="axis3d_3">
   <g id="line2d_17">
    <path d="M 566.118952 477.609019 
L 575.613772 252.411881 
" style="fill: none; stroke: #000000; stroke-width: 0.8; stroke-linecap: square"/>
   </g>
   <g id="xtick_15">
    <g id="line2d_18">
     <path d="M 565.477222 476.106427 
L 567.405607 480.621683 
" style="fill: none; stroke: #000000; stroke-width: 0.8; stroke-linecap: square"/>
    </g>
    <g id="text_17">
     <!-- 0 -->
     <g transform="translate(580.503934 491.760299) scale(0.1 -0.1)">
      <use xlink:href="#DejaVuSans-30"/>
     </g>
    </g>
   </g>
   <g id="xtick_16">
    <g id="line2d_19">
     <path d="M 566.993018 440.027159 
L 568.939975 444.486497 
" style="fill: none; stroke: #000000; stroke-width: 0.8; stroke-linecap: square"/>
    </g>
    <g id="text_18">
     <!-- 1 -->
     <g transform="translate(582.166246 455.581389) scale(0.1 -0.1)">
      <use xlink:href="#DejaVuSans-31"/>
     </g>
    </g>
   </g>
   <g id="xtick_17">
    <g id="line2d_20">
     <path d="M 568.532155 403.392351 
L 570.49803 407.793504 
" style="fill: none; stroke: #000000; stroke-width: 0.8; stroke-linecap: square"/>
    </g>
    <g id="text_19">
     <!-- 2 -->
     <g transform="translate(583.85427 418.842893) scale(0.1 -0.1)">
      <use xlink:href="#DejaVuSans-32"/>
     </g>
    </g>
   </g>
   <g id="xtick_18">
    <g id="line2d_21">
     <path d="M 570.095174 366.189074 
L 572.080322 370.529688 
" style="fill: none; stroke: #000000; stroke-width: 0.8; stroke-linecap: square"/>
    </g>
    <g id="text_20">
     <!-- 3 -->
     <g transform="translate(585.568606 381.531728) scale(0.1 -0.1)">
      <use xlink:href="#DejaVuSans-33"/>
     </g>
    </g>
   </g>
   <g id="xtick_19">
    <g id="line2d_22">
     <path d="M 571.682637 328.403993 
L 573.687423 332.681625 
" style="fill: none; stroke: #000000; stroke-width: 0.8; stroke-linecap: square"/>
    </g>
    <g id="text_21">
     <!-- 4 -->
     <g transform="translate(587.309874 343.634398) scale(0.1 -0.1)">
      <use xlink:href="#DejaVuSans-34"/>
     </g>
    </g>
   </g>
   <g id="xtick_20">
    <g id="line2d_23">
     <path d="M 573.295121 290.023352 
L 575.31992 294.235466 
" style="fill: none; stroke: #000000; stroke-width: 0.8; stroke-linecap: square"/>
    </g>
    <g id="text_22">
     <!-- 5 -->
     <g transform="translate(589.078715 305.136982) scale(0.1 -0.1)">
      <use xlink:href="#DejaVuSans-35"/>
     </g>
    </g>
   </g>
   <g id="xtick_21">
    <g id="line2d_24">
     <path d="M 574.933223 251.032959 
L 576.97842 255.17692 
" style="fill: none; stroke: #000000; stroke-width: 0.8; stroke-linecap: square"/>
    </g>
    <g id="text_23">
     <!-- 6 -->
     <g transform="translate(590.875788 266.025112) scale(0.1 -0.1)">
      <use xlink:href="#DejaVuSans-36"/>
     </g>
    </g>
   </g>
   <g id="text_24">
    <!-- Z -->
    <g transform="translate(606.618724 384.147729) scale(0.1 -0.1)">
     <defs>
      <path id="DejaVuSans-5a" d="M 359 4666 
L 4025 4666 
L 4025 4184 
L 1075 531 
L 4097 531 
L 4097 0 
L 288 0 
L 288 481 
L 3238 4134 
L 359 4134 
L 359 4666 
z
" transform="scale(0.015625)"/>
     </defs>
     <use xlink:href="#DejaVuSans-5a"/>
    </g>
   </g>
  </g>
  <g id="axes_1">
   <g id="line2d_25">
    <path d="M 183.674967 334.943518 
L 225.111995 511.371345 
" clip-path="url(#p9814031601)" style="fill: none; stroke-dasharray: 3.7,1.6; stroke-dashoffset: 0; stroke: #000000; stroke-opacity: 0.3"/>
   </g>
   <g id="line2d_26">
    <path d="M 183.674967 334.943518 
L 493.369491 307.268323 
" clip-path="url(#p9814031601)" style="fill: none; stroke-dasharray: 3.7,1.6; stroke-dashoffset: 0; stroke: #000000; stroke-opacity: 0.3"/>
   </g>
   <g id="line2d_27">
    <path d="M 183.674967 334.943518 
L 175.643984 121.972111 
" clip-path="url(#p9814031601)" style="fill: none; stroke-dasharray: 3.7,1.6; stroke-dashoffset: 0; stroke: #000000; stroke-opacity: 0.3"/>
   </g>
   <g id="line2d_28">
    <path d="M 203.355562 418.73825 
L 421.013778 398.291787 
" clip-path="url(#p9814031601)" style="fill: none; stroke-dasharray: 1.5,2.475; stroke-dashoffset: 0; stroke: #000000; stroke-opacity: 0.5; stroke-width: 1.5"/>
   </g>
   <g id="line2d_29">
    <path d="M 391.282973 316.391069 
L 421.013778 398.291787 
" clip-path="url(#p9814031601)" style="fill: none; stroke-dasharray: 1.5,2.475; stroke-dashoffset: 0; stroke: #000000; stroke-opacity: 0.5; stroke-width: 1.5"/>
   </g>
   <g id="line2d_30">
    <path d="M 421.013778 398.291787 
L 423.044564 217.56259 
" clip-path="url(#p9814031601)" style="fill: none; stroke-dasharray: 1.5,2.475; stroke-dashoffset: 0; stroke: #000000; stroke-opacity: 0.5; stroke-width: 1.5"/>
   </g>
   <g id="line2d_31">
    <path d="M 177.03097 158.753219 
L 423.044564 217.56259 
" clip-path="url(#p9814031601)" style="fill: none; stroke-dasharray: 1.5,2.475; stroke-dashoffset: 0; stroke: #000000; stroke-opacity: 0.5; stroke-width: 1.5"/>
   </g>
   <g id="Line3DCollection_4">
    <path d="M 391.282973 316.391069 
L 183.674967 334.943518 
" clip-path="url(#p9814031601)" style="fill: none; stroke: #008000; stroke-width: 2"/>
    <path d="M 391.282973 316.391069 
L 371.427613 321.659901 
" clip-path="url(#p9814031601)" style="fill: none; stroke: #008000; stroke-width: 2"/>
    <path d="M 391.282973 316.391069 
L 371.433855 314.665331 
" clip-path="url(#p9814031601)" style="fill: none; stroke: #008000; stroke-width: 2"/>
   </g>
   <g id="text_25">
    <!-- $V_1$ -->
    <g transform="translate(225.111995 511.371345) scale(0.12 -0.12)">
     <defs>
      <path id="DejaVuSans-Oblique-56" d="M 1319 0 
L 500 4666 
L 1119 4666 
L 1797 653 
L 4063 4666 
L 4750 4666 
L 2053 0 
L 1319 0 
z
" transform="scale(0.015625)"/>
     </defs>
     <use xlink:href="#DejaVuSans-Oblique-56" transform="translate(0 0.09375)"/>
     <use xlink:href="#DejaVuSans-31" transform="translate(68.408203 -16.3125) scale(0.7)"/>
    </g>
   </g>
   <g id="text_26">
    <!-- $V_2$ -->
    <g transform="translate(493.369491 307.268323) scale(0.12 -0.12)">
     <use xlink:href="#DejaVuSans-Oblique-56" transform="translate(0 0.09375)"/>
     <use xlink:href="#DejaVuSans-32" transform="translate(68.408203 -16.3125) scale(0.7)"/>
    </g>
   </g>
   <g id="text_27">
    <!-- $V_3$ -->
    <g transform="translate(175.643984 121.972111) scale(0.12 -0.12)">
     <use xlink:href="#DejaVuSans-Oblique-56" transform="translate(0 0.09375)"/>
     <use xlink:href="#DejaVuSans-33" transform="translate(68.408203 -16.3125) scale(0.7)"/>
    </g>
   </g>
   <g id="text_28">
    <!-- $P_1 y$ -->
    <g style="fill: #ff0000" transform="translate(205.432619 427.581806) scale(0.12 -0.12)">
     <defs>
      <path id="DejaVuSans-Oblique-50" d="M 1081 4666 
L 2541 4666 
Q 3178 4666 3512 4369 
Q 3847 4072 3847 3500 
Q 3847 2731 3353 2303 
Q 2859 1875 1966 1875 
L 1172 1875 
L 806 0 
L 172 0 
L 1081 4666 
z
M 1613 4147 
L 1275 2394 
L 2069 2394 
Q 2606 2394 2893 2669 
Q 3181 2944 3181 3456 
Q 3181 3784 2986 3965 
Q 2791 4147 2438 4147 
L 1613 4147 
z
" transform="scale(0.015625)"/>
      <path id="DejaVuSans-Oblique-79" d="M 1588 -325 
Q 1188 -997 936 -1164 
Q 684 -1331 294 -1331 
L -159 -1331 
L -63 -850 
L 269 -850 
Q 509 -850 678 -719 
Q 847 -588 1056 -206 
L 1234 128 
L 459 3500 
L 1069 3500 
L 1650 819 
L 3256 3500 
L 3859 3500 
L 1588 -325 
z
" transform="scale(0.015625)"/>
     </defs>
     <use xlink:href="#DejaVuSans-Oblique-50" transform="translate(0 0.09375)"/>
     <use xlink:href="#DejaVuSans-31" transform="translate(60.302734 -16.3125) scale(0.7)"/>
     <use xlink:href="#DejaVuSans-Oblique-79" transform="translate(107.573242 0.09375)"/>
    </g>
   </g>
   <g id="text_29">
    <!-- $P_2 y$ -->
    <g style="fill: #008000" transform="translate(411.790759 314.558434) scale(0.12 -0.12)">
     <use xlink:href="#DejaVuSans-Oblique-50" transform="translate(0 0.09375)"/>
     <use xlink:href="#DejaVuSans-32" transform="translate(60.302734 -16.3125) scale(0.7)"/>
     <use xlink:href="#DejaVuSans-Oblique-79" transform="translate(107.573242 0.09375)"/>
    </g>
   </g>
   <g id="text_30">
    <!-- $P_3 y$ -->
    <g style="fill: #0000ff" transform="translate(176.339999 140.42953) scale(0.12 -0.12)">
     <use xlink:href="#DejaVuSans-Oblique-50" transform="translate(0 0.09375)"/>
     <use xlink:href="#DejaVuSans-33" transform="translate(60.302734 -16.3125) scale(0.7)"/>
     <use xlink:href="#DejaVuSans-Oblique-79" transform="translate(107.573242 0.09375)"/>
    </g>
   </g>
   <g id="text_31">
    <!-- $y$ -->
    <g transform="translate(449.023343 204.82324) scale(0.12 -0.12)">
     <use xlink:href="#DejaVuSans-Oblique-79" transform="translate(0 0.3125)"/>
    </g>
   </g>
   <g id="text_32">
    <g id="patch_6">
     <path d="M 124.38 74.26 
L 306.9 74.26 
Q 310.5 74.26 310.5 70.66 
L 310.5 29.984875 
Q 310.5 26.384875 306.9 26.384875 
L 124.38 26.384875 
Q 120.78 26.384875 120.78 29.984875 
L 120.78 70.66 
Q 120.78 74.26 124.38 74.26 
z
" style="fill: #f5deb3; opacity: 0.5; stroke: #000000; stroke-linejoin: miter"/>
    </g>
    <!-- $\mathbb{R}^n = V_1 \oplus V_2 \oplus V_3$ -->
    <g transform="translate(124.38 38.718625) scale(0.12 -0.12)">
     <defs>
      <path id="STIXGeneral-Italic-211d" d="M 1229 4179 
L 3360 4179 
Q 3827 4179 4108 3894 
Q 4390 3610 4390 3142 
Q 4390 2554 4060 2186 
Q 3731 1818 3149 1715 
L 4026 0 
L 2925 0 
L 2125 1690 
L 1549 1690 
L 1094 0 
L 109 0 
L 1229 4179 
z
M 3866 3821 
L 3392 2022 
Q 3770 2144 3962 2438 
Q 4154 2733 4154 3136 
Q 4154 3584 3866 3821 
z
M 3142 1978 
L 3648 3872 
Q 3450 3942 3296 3942 
L 2150 3942 
L 1613 1926 
L 2630 1926 
Q 2957 1926 3142 1978 
z
M 3629 237 
L 2899 1696 
Q 2829 1683 2682 1683 
Q 2630 1683 2531 1686 
Q 2432 1690 2387 1690 
L 3072 237 
L 3629 237 
z
M 1907 3942 
L 1408 3942 
L 416 237 
L 915 237 
L 1907 3942 
z
" transform="scale(0.015625)"/>
      <path id="DejaVuSans-Oblique-6e" d="M 3566 2113 
L 3156 0 
L 2578 0 
L 2988 2091 
Q 3016 2238 3031 2350 
Q 3047 2463 3047 2528 
Q 3047 2791 2881 2937 
Q 2716 3084 2419 3084 
Q 1956 3084 1622 2776 
Q 1288 2469 1184 1941 
L 800 0 
L 225 0 
L 903 3500 
L 1478 3500 
L 1363 2950 
Q 1603 3253 1940 3418 
Q 2278 3584 2650 3584 
Q 3113 3584 3367 3334 
Q 3622 3084 3622 2631 
Q 3622 2519 3608 2391 
Q 3594 2263 3566 2113 
z
" transform="scale(0.015625)"/>
      <path id="DejaVuSans-3d" d="M 678 2906 
L 4684 2906 
L 4684 2381 
L 678 2381 
L 678 2906 
z
M 678 1631 
L 4684 1631 
L 4684 1100 
L 678 1100 
L 678 1631 
z
" transform="scale(0.015625)"/>
      <path id="DejaVuSans-2295" d="M 3306 3522 
Q 3016 3644 2681 3644 
Q 2347 3644 2056 3522 
Q 1769 3400 1531 3163 
Q 1291 2922 1172 2634 
Q 1053 2347 1053 2006 
Q 1053 1675 1172 1387 
Q 1291 1100 1531 859 
Q 1769 622 2056 500 
Q 2347 378 2681 378 
Q 3016 378 3306 500 
Q 3594 622 3831 859 
Q 4072 1100 4190 1387 
Q 4309 1675 4309 2006 
Q 4309 2347 4190 2634 
Q 4072 2922 3831 3163 
Q 3594 3400 3306 3522 
z
M 1878 3956 
Q 2250 4113 2681 4113 
Q 3113 4113 3484 3956 
Q 3856 3800 4163 3494 
Q 4472 3184 4625 2813 
Q 4778 2444 4778 2006 
Q 4778 1578 4625 1206 
Q 4472 838 4163 528 
Q 3856 222 3484 65 
Q 3113 -91 2681 -91 
Q 2250 -91 1878 65 
Q 1506 222 1200 528 
Q 891 838 738 1206 
Q 584 1578 584 2006 
Q 584 2444 738 2813 
Q 891 3184 1200 3494 
Q 1506 3800 1878 3956 
z
M 2947 3388 
L 2947 2272 
L 4059 2272 
L 4059 1741 
L 2947 1741 
L 2947 625 
L 2416 625 
L 2416 1741 
L 1303 1741 
L 1303 2272 
L 2416 2272 
L 2416 3388 
L 2947 3388 
z
" transform="scale(0.015625)"/>
     </defs>
     <use xlink:href="#STIXGeneral-Italic-211d" transform="translate(0 0.51875)"/>
     <use xlink:href="#DejaVuSans-Oblique-6e" transform="translate(74.65144 38.8) scale(0.7)"/>
     <use xlink:href="#DejaVuSans-3d" transform="translate(141.233471 0.51875)"/>
     <use xlink:href="#DejaVuSans-Oblique-56" transform="translate(244.504956 0.51875)"/>
     <use xlink:href="#DejaVuSans-31" transform="translate(312.913159 -15.8875) scale(0.7)"/>
     <use xlink:href="#DejaVuSans-2295" transform="translate(379.666088 0.51875)"/>
     <use xlink:href="#DejaVuSans-Oblique-56" transform="translate(482.937573 0.51875)"/>
     <use xlink:href="#DejaVuSans-32" transform="translate(551.345776 -15.8875) scale(0.7)"/>
     <use xlink:href="#DejaVuSans-2295" transform="translate(618.098706 0.51875)"/>
     <use xlink:href="#DejaVuSans-Oblique-56" transform="translate(721.37019 0.51875)"/>
     <use xlink:href="#DejaVuSans-33" transform="translate(789.778393 -15.8875) scale(0.7)"/>
    </g>
    <!-- $y = P_1 y + P_2 y + P_3 y$ -->
    <g transform="translate(124.38 52.156) scale(0.12 -0.12)">
     <defs>
      <path id="DejaVuSans-2b" d="M 2944 4013 
L 2944 2272 
L 4684 2272 
L 4684 1741 
L 2944 1741 
L 2944 0 
L 2419 0 
L 2419 1741 
L 678 1741 
L 678 2272 
L 2419 2272 
L 2419 4013 
L 2944 4013 
z
" transform="scale(0.015625)"/>
     </defs>
     <use xlink:href="#DejaVuSans-Oblique-79" transform="translate(0 0.09375)"/>
     <use xlink:href="#DejaVuSans-3d" transform="translate(78.662109 0.09375)"/>
     <use xlink:href="#DejaVuSans-Oblique-50" transform="translate(181.933594 0.09375)"/>
     <use xlink:href="#DejaVuSans-31" transform="translate(242.236328 -16.3125) scale(0.7)"/>
     <use xlink:href="#DejaVuSans-Oblique-79" transform="translate(289.506836 0.09375)"/>
     <use xlink:href="#DejaVuSans-2b" transform="translate(368.168945 0.09375)"/>
     <use xlink:href="#DejaVuSans-Oblique-50" transform="translate(471.44043 0.09375)"/>
     <use xlink:href="#DejaVuSans-32" transform="translate(531.743164 -16.3125) scale(0.7)"/>
     <use xlink:href="#DejaVuSans-Oblique-79" transform="translate(579.013672 0.09375)"/>
     <use xlink:href="#DejaVuSans-2b" transform="translate(657.675781 0.09375)"/>
     <use xlink:href="#DejaVuSans-Oblique-50" transform="translate(760.947266 0.09375)"/>
     <use xlink:href="#DejaVuSans-33" transform="translate(821.25 -16.3125) scale(0.7)"/>
     <use xlink:href="#DejaVuSans-Oblique-79" transform="translate(868.520508 0.09375)"/>
    </g>
    <!-- $\|y\|^2 = \|P_1 y\|^2 + \|P_2 y\|^2 + \|P_3 y\|^2$ -->
    <g transform="translate(124.38 67.78) scale(0.12 -0.12)">
     <defs>
      <path id="DejaVuSans-2016" d="M 1344 4891 
L 1344 -1509 
L 813 -1509 
L 813 4891 
L 1344 4891 
z
M 2376 4891 
L 2376 -1509 
L 1845 -1509 
L 1845 4891 
L 2376 4891 
z
" transform="scale(0.015625)"/>
     </defs>
     <use xlink:href="#DejaVuSans-2016" transform="translate(0 0.765625)"/>
     <use xlink:href="#DejaVuSans-Oblique-79" transform="translate(50 0.765625)"/>
     <use xlink:href="#DejaVuSans-2016" transform="translate(109.179688 0.765625)"/>
     <use xlink:href="#DejaVuSans-32" transform="translate(160.136719 39.046875) scale(0.7)"/>
     <use xlink:href="#DejaVuSans-3d" transform="translate(226.889648 0.765625)"/>
     <use xlink:href="#DejaVuSans-2016" transform="translate(330.161133 0.765625)"/>
     <use xlink:href="#DejaVuSans-Oblique-50" transform="translate(380.161133 0.765625)"/>
     <use xlink:href="#DejaVuSans-31" transform="translate(440.463867 -15.640625) scale(0.7)"/>
     <use xlink:href="#DejaVuSans-Oblique-79" transform="translate(487.734375 0.765625)"/>
     <use xlink:href="#DejaVuSans-2016" transform="translate(546.914062 0.765625)"/>
     <use xlink:href="#DejaVuSans-32" transform="translate(597.871094 39.046875) scale(0.7)"/>
     <use xlink:href="#DejaVuSans-2b" transform="translate(664.624023 0.765625)"/>
     <use xlink:href="#DejaVuSans-2016" transform="translate(767.895508 0.765625)"/>
     <use xlink:href="#DejaVuSans-Oblique-50" transform="translate(817.895508 0.765625)"/>
     <use xlink:href="#DejaVuSans-32" transform="translate(878.198242 -15.640625) scale(0.7)"/>
     <use xlink:href="#DejaVuSans-Oblique-79" transform="translate(925.46875 0.765625)"/>
     <use xlink:href="#DejaVuSans-2016" transform="translate(984.648438 0.765625)"/>
     <use xlink:href="#DejaVuSans-32" transform="translate(1035.605469 39.046875) scale(0.7)"/>
     <use xlink:href="#DejaVuSans-2b" transform="translate(1102.358398 0.765625)"/>
     <use xlink:href="#DejaVuSans-2016" transform="translate(1205.629883 0.765625)"/>
     <use xlink:href="#DejaVuSans-Oblique-50" transform="translate(1255.629883 0.765625)"/>
     <use xlink:href="#DejaVuSans-33" transform="translate(1315.932617 -15.640625) scale(0.7)"/>
     <use xlink:href="#DejaVuSans-Oblique-79" transform="translate(1363.203125 0.765625)"/>
     <use xlink:href="#DejaVuSans-2016" transform="translate(1422.382812 0.765625)"/>
     <use xlink:href="#DejaVuSans-32" transform="translate(1473.339844 39.046875) scale(0.7)"/>
    </g>
   </g>
   <g id="text_33">
    <!-- Orthogonal Decomposition of Vector y -->
    <g transform="translate(226.280312 21.6) scale(0.14 -0.14)">
     <defs>
      <path id="DejaVuSans-4f" d="M 2522 4238 
Q 1834 4238 1429 3725 
Q 1025 3213 1025 2328 
Q 1025 1447 1429 934 
Q 1834 422 2522 422 
Q 3209 422 3611 934 
Q 4013 1447 4013 2328 
Q 4013 3213 3611 3725 
Q 3209 4238 2522 4238 
z
M 2522 4750 
Q 3503 4750 4090 4092 
Q 4678 3434 4678 2328 
Q 4678 1225 4090 567 
Q 3503 -91 2522 -91 
Q 1538 -91 948 565 
Q 359 1222 359 2328 
Q 359 3434 948 4092 
Q 1538 4750 2522 4750 
z
" transform="scale(0.015625)"/>
      <path id="DejaVuSans-72" d="M 2631 2963 
Q 2534 3019 2420 3045 
Q 2306 3072 2169 3072 
Q 1681 3072 1420 2755 
Q 1159 2438 1159 1844 
L 1159 0 
L 581 0 
L 581 3500 
L 1159 3500 
L 1159 2956 
Q 1341 3275 1631 3429 
Q 1922 3584 2338 3584 
Q 2397 3584 2469 3576 
Q 2541 3569 2628 3553 
L 2631 2963 
z
" transform="scale(0.015625)"/>
      <path id="DejaVuSans-74" d="M 1172 4494 
L 1172 3500 
L 2356 3500 
L 2356 3053 
L 1172 3053 
L 1172 1153 
Q 1172 725 1289 603 
Q 1406 481 1766 481 
L 2356 481 
L 2356 0 
L 1766 0 
Q 1100 0 847 248 
Q 594 497 594 1153 
L 594 3053 
L 172 3053 
L 172 3500 
L 594 3500 
L 594 4494 
L 1172 4494 
z
" transform="scale(0.015625)"/>
      <path id="DejaVuSans-68" d="M 3513 2113 
L 3513 0 
L 2938 0 
L 2938 2094 
Q 2938 2591 2744 2837 
Q 2550 3084 2163 3084 
Q 1697 3084 1428 2787 
Q 1159 2491 1159 1978 
L 1159 0 
L 581 0 
L 581 4863 
L 1159 4863 
L 1159 2956 
Q 1366 3272 1645 3428 
Q 1925 3584 2291 3584 
Q 2894 3584 3203 3211 
Q 3513 2838 3513 2113 
z
" transform="scale(0.015625)"/>
      <path id="DejaVuSans-6f" d="M 1959 3097 
Q 1497 3097 1228 2736 
Q 959 2375 959 1747 
Q 959 1119 1226 758 
Q 1494 397 1959 397 
Q 2419 397 2687 759 
Q 2956 1122 2956 1747 
Q 2956 2369 2687 2733 
Q 2419 3097 1959 3097 
z
M 1959 3584 
Q 2709 3584 3137 3096 
Q 3566 2609 3566 1747 
Q 3566 888 3137 398 
Q 2709 -91 1959 -91 
Q 1206 -91 779 398 
Q 353 888 353 1747 
Q 353 2609 779 3096 
Q 1206 3584 1959 3584 
z
" transform="scale(0.015625)"/>
      <path id="DejaVuSans-67" d="M 2906 1791 
Q 2906 2416 2648 2759 
Q 2391 3103 1925 3103 
Q 1463 3103 1205 2759 
Q 947 2416 947 1791 
Q 947 1169 1205 825 
Q 1463 481 1925 481 
Q 2391 481 2648 825 
Q 2906 1169 2906 1791 
z
M 3481 434 
Q 3481 -459 3084 -895 
Q 2688 -1331 1869 -1331 
Q 1566 -1331 1297 -1286 
Q 1028 -1241 775 -1147 
L 775 -588 
Q 1028 -725 1275 -790 
Q 1522 -856 1778 -856 
Q 2344 -856 2625 -561 
Q 2906 -266 2906 331 
L 2906 616 
Q 2728 306 2450 153 
Q 2172 0 1784 0 
Q 1141 0 747 490 
Q 353 981 353 1791 
Q 353 2603 747 3093 
Q 1141 3584 1784 3584 
Q 2172 3584 2450 3431 
Q 2728 3278 2906 2969 
L 2906 3500 
L 3481 3500 
L 3481 434 
z
" transform="scale(0.015625)"/>
      <path id="DejaVuSans-6e" d="M 3513 2113 
L 3513 0 
L 2938 0 
L 2938 2094 
Q 2938 2591 2744 2837 
Q 2550 3084 2163 3084 
Q 1697 3084 1428 2787 
Q 1159 2491 1159 1978 
L 1159 0 
L 581 0 
L 581 3500 
L 1159 3500 
L 1159 2956 
Q 1366 3272 1645 3428 
Q 1925 3584 2291 3584 
Q 2894 3584 3203 3211 
Q 3513 2838 3513 2113 
z
" transform="scale(0.015625)"/>
      <path id="DejaVuSans-61" d="M 2194 1759 
Q 1497 1759 1228 1600 
Q 959 1441 959 1056 
Q 959 750 1161 570 
Q 1363 391 1709 391 
Q 2188 391 2477 730 
Q 2766 1069 2766 1631 
L 2766 1759 
L 2194 1759 
z
M 3341 1997 
L 3341 0 
L 2766 0 
L 2766 531 
Q 2569 213 2275 61 
Q 1981 -91 1556 -91 
Q 1019 -91 701 211 
Q 384 513 384 1019 
Q 384 1609 779 1909 
Q 1175 2209 1959 2209 
L 2766 2209 
L 2766 2266 
Q 2766 2663 2505 2880 
Q 2244 3097 1772 3097 
Q 1472 3097 1187 3025 
Q 903 2953 641 2809 
L 641 3341 
Q 956 3463 1253 3523 
Q 1550 3584 1831 3584 
Q 2591 3584 2966 3190 
Q 3341 2797 3341 1997 
z
" transform="scale(0.015625)"/>
      <path id="DejaVuSans-6c" d="M 603 4863 
L 1178 4863 
L 1178 0 
L 603 0 
L 603 4863 
z
" transform="scale(0.015625)"/>
      <path id="DejaVuSans-20" transform="scale(0.015625)"/>
      <path id="DejaVuSans-44" d="M 1259 4147 
L 1259 519 
L 2022 519 
Q 2988 519 3436 956 
Q 3884 1394 3884 2338 
Q 3884 3275 3436 3711 
Q 2988 4147 2022 4147 
L 1259 4147 
z
M 628 4666 
L 1925 4666 
Q 3281 4666 3915 4102 
Q 4550 3538 4550 2338 
Q 4550 1131 3912 565 
Q 3275 0 1925 0 
L 628 0 
L 628 4666 
z
" transform="scale(0.015625)"/>
      <path id="DejaVuSans-65" d="M 3597 1894 
L 3597 1613 
L 953 1613 
Q 991 1019 1311 708 
Q 1631 397 2203 397 
Q 2534 397 2845 478 
Q 3156 559 3463 722 
L 3463 178 
Q 3153 47 2828 -22 
Q 2503 -91 2169 -91 
Q 1331 -91 842 396 
Q 353 884 353 1716 
Q 353 2575 817 3079 
Q 1281 3584 2069 3584 
Q 2775 3584 3186 3129 
Q 3597 2675 3597 1894 
z
M 3022 2063 
Q 3016 2534 2758 2815 
Q 2500 3097 2075 3097 
Q 1594 3097 1305 2825 
Q 1016 2553 972 2059 
L 3022 2063 
z
" transform="scale(0.015625)"/>
      <path id="DejaVuSans-63" d="M 3122 3366 
L 3122 2828 
Q 2878 2963 2633 3030 
Q 2388 3097 2138 3097 
Q 1578 3097 1268 2742 
Q 959 2388 959 1747 
Q 959 1106 1268 751 
Q 1578 397 2138 397 
Q 2388 397 2633 464 
Q 2878 531 3122 666 
L 3122 134 
Q 2881 22 2623 -34 
Q 2366 -91 2075 -91 
Q 1284 -91 818 406 
Q 353 903 353 1747 
Q 353 2603 823 3093 
Q 1294 3584 2113 3584 
Q 2378 3584 2631 3529 
Q 2884 3475 3122 3366 
z
" transform="scale(0.015625)"/>
      <path id="DejaVuSans-6d" d="M 3328 2828 
Q 3544 3216 3844 3400 
Q 4144 3584 4550 3584 
Q 5097 3584 5394 3201 
Q 5691 2819 5691 2113 
L 5691 0 
L 5113 0 
L 5113 2094 
Q 5113 2597 4934 2840 
Q 4756 3084 4391 3084 
Q 3944 3084 3684 2787 
Q 3425 2491 3425 1978 
L 3425 0 
L 2847 0 
L 2847 2094 
Q 2847 2600 2669 2842 
Q 2491 3084 2119 3084 
Q 1678 3084 1418 2786 
Q 1159 2488 1159 1978 
L 1159 0 
L 581 0 
L 581 3500 
L 1159 3500 
L 1159 2956 
Q 1356 3278 1631 3431 
Q 1906 3584 2284 3584 
Q 2666 3584 2933 3390 
Q 3200 3197 3328 2828 
z
" transform="scale(0.015625)"/>
      <path id="DejaVuSans-70" d="M 1159 525 
L 1159 -1331 
L 581 -1331 
L 581 3500 
L 1159 3500 
L 1159 2969 
Q 1341 3281 1617 3432 
Q 1894 3584 2278 3584 
Q 2916 3584 3314 3078 
Q 3713 2572 3713 1747 
Q 3713 922 3314 415 
Q 2916 -91 2278 -91 
Q 1894 -91 1617 61 
Q 1341 213 1159 525 
z
M 3116 1747 
Q 3116 2381 2855 2742 
Q 2594 3103 2138 3103 
Q 1681 3103 1420 2742 
Q 1159 2381 1159 1747 
Q 1159 1113 1420 752 
Q 1681 391 2138 391 
Q 2594 391 2855 752 
Q 3116 1113 3116 1747 
z
" transform="scale(0.015625)"/>
      <path id="DejaVuSans-73" d="M 2834 3397 
L 2834 2853 
Q 2591 2978 2328 3040 
Q 2066 3103 1784 3103 
Q 1356 3103 1142 2972 
Q 928 2841 928 2578 
Q 928 2378 1081 2264 
Q 1234 2150 1697 2047 
L 1894 2003 
Q 2506 1872 2764 1633 
Q 3022 1394 3022 966 
Q 3022 478 2636 193 
Q 2250 -91 1575 -91 
Q 1294 -91 989 -36 
Q 684 19 347 128 
L 347 722 
Q 666 556 975 473 
Q 1284 391 1588 391 
Q 1994 391 2212 530 
Q 2431 669 2431 922 
Q 2431 1156 2273 1281 
Q 2116 1406 1581 1522 
L 1381 1569 
Q 847 1681 609 1914 
Q 372 2147 372 2553 
Q 372 3047 722 3315 
Q 1072 3584 1716 3584 
Q 2034 3584 2315 3537 
Q 2597 3491 2834 3397 
z
" transform="scale(0.015625)"/>
      <path id="DejaVuSans-69" d="M 603 3500 
L 1178 3500 
L 1178 0 
L 603 0 
L 603 3500 
z
M 603 4863 
L 1178 4863 
L 1178 4134 
L 603 4134 
L 603 4863 
z
" transform="scale(0.015625)"/>
      <path id="DejaVuSans-66" d="M 2375 4863 
L 2375 4384 
L 1825 4384 
Q 1516 4384 1395 4259 
Q 1275 4134 1275 3809 
L 1275 3500 
L 2222 3500 
L 2222 3053 
L 1275 3053 
L 1275 0 
L 697 0 
L 697 3053 
L 147 3053 
L 147 3500 
L 697 3500 
L 697 3744 
Q 697 4328 969 4595 
Q 1241 4863 1831 4863 
L 2375 4863 
z
" transform="scale(0.015625)"/>
      <path id="DejaVuSans-56" d="M 1831 0 
L 50 4666 
L 709 4666 
L 2188 738 
L 3669 4666 
L 4325 4666 
L 2547 0 
L 1831 0 
z
" transform="scale(0.015625)"/>
      <path id="DejaVuSans-79" d="M 2059 -325 
Q 1816 -950 1584 -1140 
Q 1353 -1331 966 -1331 
L 506 -1331 
L 506 -850 
L 844 -850 
Q 1081 -850 1212 -737 
Q 1344 -625 1503 -206 
L 1606 56 
L 191 3500 
L 800 3500 
L 1894 763 
L 2988 3500 
L 3597 3500 
L 2059 -325 
z
" transform="scale(0.015625)"/>
     </defs>
     <use xlink:href="#DejaVuSans-4f"/>
     <use xlink:href="#DejaVuSans-72" transform="translate(78.710938 0)"/>
     <use xlink:href="#DejaVuSans-74" transform="translate(119.824219 0)"/>
     <use xlink:href="#DejaVuSans-68" transform="translate(159.033203 0)"/>
     <use xlink:href="#DejaVuSans-6f" transform="translate(222.412109 0)"/>
     <use xlink:href="#DejaVuSans-67" transform="translate(283.59375 0)"/>
     <use xlink:href="#DejaVuSans-6f" transform="translate(347.070312 0)"/>
     <use xlink:href="#DejaVuSans-6e" transform="translate(408.251953 0)"/>
     <use xlink:href="#DejaVuSans-61" transform="translate(471.630859 0)"/>
     <use xlink:href="#DejaVuSans-6c" transform="translate(532.910156 0)"/>
     <use xlink:href="#DejaVuSans-20" transform="translate(560.693359 0)"/>
     <use xlink:href="#DejaVuSans-44" transform="translate(592.480469 0)"/>
     <use xlink:href="#DejaVuSans-65" transform="translate(669.482422 0)"/>
     <use xlink:href="#DejaVuSans-63" transform="translate(731.005859 0)"/>
     <use xlink:href="#DejaVuSans-6f" transform="translate(785.986328 0)"/>
     <use xlink:href="#DejaVuSans-6d" transform="translate(847.167969 0)"/>
     <use xlink:href="#DejaVuSans-70" transform="translate(944.580078 0)"/>
     <use xlink:href="#DejaVuSans-6f" transform="translate(1008.056641 0)"/>
     <use xlink:href="#DejaVuSans-73" transform="translate(1069.238281 0)"/>
     <use xlink:href="#DejaVuSans-69" transform="translate(1121.337891 0)"/>
     <use xlink:href="#DejaVuSans-74" transform="translate(1149.121094 0)"/>
     <use xlink:href="#DejaVuSans-69" transform="translate(1188.330078 0)"/>
     <use xlink:href="#DejaVuSans-6f" transform="translate(1216.113281 0)"/>
     <use xlink:href="#DejaVuSans-6e" transform="translate(1277.294922 0)"/>
     <use xlink:href="#DejaVuSans-20" transform="translate(1340.673828 0)"/>
     <use xlink:href="#DejaVuSans-6f" transform="translate(1372.460938 0)"/>
     <use xlink:href="#DejaVuSans-66" transform="translate(1433.642578 0)"/>
     <use xlink:href="#DejaVuSans-20" transform="translate(1468.847656 0)"/>
     <use xlink:href="#DejaVuSans-56" transform="translate(1500.634766 0)"/>
     <use xlink:href="#DejaVuSans-65" transform="translate(1561.292969 0)"/>
     <use xlink:href="#DejaVuSans-63" transform="translate(1622.816406 0)"/>
     <use xlink:href="#DejaVuSans-74" transform="translate(1677.796875 0)"/>
     <use xlink:href="#DejaVuSans-6f" transform="translate(1717.005859 0)"/>
     <use xlink:href="#DejaVuSans-72" transform="translate(1778.1875 0)"/>
     <use xlink:href="#DejaVuSans-20" transform="translate(1819.300781 0)"/>
     <use xlink:href="#DejaVuSans-79" transform="translate(1851.087891 0)"/>
    </g>
   </g>
   <g id="Line3DCollection_5">
    <path d="M 177.03097 158.753219 
L 183.674967 334.943518 
" clip-path="url(#p9814031601)" style="fill: none; stroke: #0000ff; stroke-width: 2"/>
    <path d="M 177.03097 158.753219 
L 176.873297 173.11638 
" clip-path="url(#p9814031601)" style="fill: none; stroke: #0000ff; stroke-width: 2"/>
    <path d="M 177.03097 158.753219 
L 178.51752 179.551155 
" clip-path="url(#p9814031601)" style="fill: none; stroke: #0000ff; stroke-width: 2"/>
   </g>
   <g id="Line3DCollection_6">
    <path d="M 203.355562 418.73825 
L 183.674967 334.943518 
" clip-path="url(#p9814031601)" style="fill: none; stroke: #ff0000; stroke-width: 2"/>
    <path d="M 203.355562 418.73825 
L 201.462904 412.994825 
" clip-path="url(#p9814031601)" style="fill: none; stroke: #ff0000; stroke-width: 2"/>
    <path d="M 203.355562 418.73825 
L 201.274875 407.561601 
" clip-path="url(#p9814031601)" style="fill: none; stroke: #ff0000; stroke-width: 2"/>
   </g>
   <g id="Line3DCollection_7">
    <path d="M 423.044564 217.56259 
L 183.674967 334.943518 
" clip-path="url(#p9814031601)" style="fill: none; stroke: #000000; stroke-width: 2"/>
    <path d="M 423.044564 217.56259 
L 404.841587 236.072029 
" clip-path="url(#p9814031601)" style="fill: none; stroke: #000000; stroke-width: 2"/>
    <path d="M 423.044564 217.56259 
L 391.814552 223.294677 
" clip-path="url(#p9814031601)" style="fill: none; stroke: #000000; stroke-width: 2"/>
   </g>
  </g>
 </g>
 <defs>
  <clipPath id="p9814031601">
   <rect x="98.2" y="41.6" width="523.6" height="523.6"/>
  </clipPath>
 </defs>
</svg>
