<?xml version="1.0" encoding="utf-8" standalone="no"?>
<!DOCTYPE svg PUBLIC "-//W3C//DTD SVG 1.1//EN"
  "http://www.w3.org/Graphics/SVG/1.1/DTD/svg11.dtd">
<svg xmlns:xlink="http://www.w3.org/1999/xlink" width="720pt" height="576pt" viewBox="0 0 720 576" xmlns="http://www.w3.org/2000/svg" version="1.1">
 <metadata>
  <rdf:RDF xmlns:dc="http://purl.org/dc/elements/1.1/" xmlns:cc="http://creativecommons.org/ns#" xmlns:rdf="http://www.w3.org/1999/02/22-rdf-syntax-ns#">
   <cc:Work>
    <dc:type rdf:resource="http://purl.org/dc/dcmitype/StillImage"/>
    <dc:date>2026-01-12T23:20:06.840377</dc:date>
    <dc:format>image/svg+xml</dc:format>
    <dc:creator>
     <cc:Agent>
      <dc:title>Matplotlib v3.10.8, https://matplotlib.org/</dc:title>
     </cc:Agent>
    </dc:creator>
   </cc:Work>
  </rdf:RDF>
 </metadata>
 <defs>
  <style type="text/css">*{stroke-linejoin: round; stroke-linecap: butt}</style>
 </defs>
 <g id="figure_1">
  <g id="patch_1">
   <path d="M 0 576 
L 720 576 
L 720 0 
L 0 0 
z
" style="fill: #ffffff"/>
  </g>
  <g id="patch_2">
   <path d="M 147.24 512.64 
L 590.76 512.64 
L 590.76 69.12 
L 147.24 69.12 
z
" style="fill: #ffffff"/>
  </g>
  <g id="pane3d_1">
   <g id="patch_3">
    <path d="M 422.79342 280.512492 
L 569.258208 403.282182 
L 578.303304 215.454902 
L 424.829421 103.456652 
" style="fill: #f2f2f2; opacity: 0.5; stroke: #f2f2f2; stroke-linejoin: miter"/>
   </g>
  </g>
  <g id="pane3d_2">
   <g id="patch_4">
    <path d="M 422.79342 280.512492 
L 187.769693 348.82461 
L 179.382524 165.670285 
L 424.829421 103.456652 
" style="fill: #e6e6e6; opacity: 0.5; stroke: #e6e6e6; stroke-linejoin: miter"/>
   </g>
  </g>
  <g id="pane3d_3">
   <g id="patch_5">
    <path d="M 422.79342 280.512492 
L 187.769693 348.82461 
L 320.121579 484.650204 
L 569.258208 403.282182 
" style="fill: #ececec; opacity: 0.5; stroke: #ececec; stroke-linejoin: miter"/>
   </g>
  </g>
  <g id="grid3d_1">
   <g id="Line3DCollection_1">
    <path d="M 569.258208 403.282182 
L 422.79342 280.512492 
L 424.829421 103.456652 
" style="fill: none; stroke: #b0b0b0; stroke-width: 0.8"/>
    <path d="M 535.246021 414.390562 
L 390.585413 289.874088 
L 391.254237 111.966982 
" style="fill: none; stroke: #b0b0b0; stroke-width: 0.8"/>
    <path d="M 500.727178 425.664416 
L 357.937364 299.363586 
L 357.200515 120.598608 
" style="fill: none; stroke: #b0b0b0; stroke-width: 0.8"/>
    <path d="M 465.690274 437.107469 
L 324.840193 308.983627 
L 322.657951 129.354141 
" style="fill: none; stroke: #b0b0b0; stroke-width: 0.8"/>
    <path d="M 430.123559 448.723558 
L 291.284568 318.736923 
L 287.615942 138.236268 
" style="fill: none; stroke: #b0b0b0; stroke-width: 0.8"/>
    <path d="M 394.014923 460.516638 
L 257.260897 328.626261 
L 252.063577 147.247757 
" style="fill: none; stroke: #b0b0b0; stroke-width: 0.8"/>
    <path d="M 357.351885 472.490787 
L 222.759319 338.654507 
L 215.989626 156.391452 
" style="fill: none; stroke: #b0b0b0; stroke-width: 0.8"/>
    <path d="M 320.121579 484.650204 
L 187.769693 348.82461 
L 179.382524 165.670285 
" style="fill: none; stroke: #b0b0b0; stroke-width: 0.8"/>
   </g>
  </g>
  <g id="grid3d_2">
   <g id="Line3DCollection_2">
    <path d="M 424.829421 103.456652 
L 422.79342 280.512492 
L 187.769693 348.82461 
" style="fill: none; stroke: #b0b0b0; stroke-width: 0.8"/>
    <path d="M 445.133615 118.273728 
L 442.234261 296.808191 
L 205.270116 366.78435 
" style="fill: none; stroke: #b0b0b0; stroke-width: 0.8"/>
    <path d="M 465.944333 133.460442 
L 462.139802 313.493409 
L 223.210088 385.195174 
" style="fill: none; stroke: #b0b0b0; stroke-width: 0.8"/>
    <path d="M 487.280768 149.030801 
L 482.526904 330.582283 
L 241.606376 404.074292 
" style="fill: none; stroke: #b0b0b0; stroke-width: 0.8"/>
    <path d="M 509.163097 164.999528 
L 503.413258 348.089639 
L 260.476618 423.439802 
" style="fill: none; stroke: #b0b0b0; stroke-width: 0.8"/>
    <path d="M 531.612541 181.382109 
L 524.817429 366.031039 
L 279.839367 443.310745 
" style="fill: none; stroke: #b0b0b0; stroke-width: 0.8"/>
    <path d="M 554.651435 198.194845 
L 546.758916 384.422829 
L 299.714159 463.707171 
" style="fill: none; stroke: #b0b0b0; stroke-width: 0.8"/>
    <path d="M 578.303304 215.454902 
L 569.258208 403.282182 
L 320.121579 484.650204 
" style="fill: none; stroke: #b0b0b0; stroke-width: 0.8"/>
   </g>
  </g>
  <g id="grid3d_3">
   <g id="Line3DCollection_3">
    <path d="M 187.769693 348.82461 
L 422.79342 280.512492 
L 569.258208 403.282182 
" style="fill: none; stroke: #b0b0b0; stroke-width: 0.8"/>
    <path d="M 186.150295 313.461104 
L 423.187202 246.268211 
L 571.002264 367.065736 
" style="fill: none; stroke: #b0b0b0; stroke-width: 0.8"/>
    <path d="M 184.502639 277.480505 
L 423.587525 211.455026 
L 572.777919 330.193116 
" style="fill: none; stroke: #b0b0b0; stroke-width: 0.8"/>
    <path d="M 182.825978 240.866518 
L 423.994556 176.058641 
L 574.586039 292.646326 
" style="fill: none; stroke: #b0b0b0; stroke-width: 0.8"/>
    <path d="M 181.11954 203.602271 
L 424.408462 140.064277 
L 576.427524 254.406706 
" style="fill: none; stroke: #b0b0b0; stroke-width: 0.8"/>
    <path d="M 179.382524 165.670285 
L 424.829421 103.456652 
L 578.303304 215.454902 
" style="fill: none; stroke: #b0b0b0; stroke-width: 0.8"/>
   </g>
  </g>
  <g id="axis3d_1">
   <g id="line2d_1">
    <path d="M 569.258208 403.282182 
L 320.121579 484.650204 
" style="fill: none; stroke: #000000; stroke-width: 0.8; stroke-linecap: square"/>
   </g>
   <g id="xtick_1">
    <g id="line2d_2">
     <path d="M 567.98314 402.213394 
L 571.813799 405.424328 
" style="fill: none; stroke: #000000; stroke-width: 0.8; stroke-linecap: square"/>
    </g>
    <g id="text_1">
     <!-- −1 -->
     <g transform="translate(569.413848 426.505668) scale(0.1 -0.1)">
      <defs>
       <path id="DejaVuSans-2212" d="M 678 2272 
L 4684 2272 
L 4684 1741 
L 678 1741 
L 678 2272 
z
" transform="scale(0.015625)"/>
       <path id="DejaVuSans-31" d="M 794 531 
L 1825 531 
L 1825 4091 
L 703 3866 
L 703 4441 
L 1819 4666 
L 2450 4666 
L 2450 531 
L 3481 531 
L 3481 0 
L 794 0 
L 794 531 
z
" transform="scale(0.015625)"/>
      </defs>
      <use xlink:href="#DejaVuSans-2212"/>
      <use xlink:href="#DejaVuSans-31" transform="translate(83.789062 0)"/>
     </g>
    </g>
   </g>
   <g id="xtick_2">
    <g id="line2d_3">
     <path d="M 533.985905 413.305919 
L 537.771682 416.564523 
" style="fill: none; stroke: #000000; stroke-width: 0.8; stroke-linecap: square"/>
    </g>
    <g id="text_2">
     <!-- 0 -->
     <g transform="translate(539.571217 437.754665) scale(0.1 -0.1)">
      <defs>
       <path id="DejaVuSans-30" d="M 2034 4250 
Q 1547 4250 1301 3770 
Q 1056 3291 1056 2328 
Q 1056 1369 1301 889 
Q 1547 409 2034 409 
Q 2525 409 2770 889 
Q 3016 1369 3016 2328 
Q 3016 3291 2770 3770 
Q 2525 4250 2034 4250 
z
M 2034 4750 
Q 2819 4750 3233 4129 
Q 3647 3509 3647 2328 
Q 3647 1150 3233 529 
Q 2819 -91 2034 -91 
Q 1250 -91 836 529 
Q 422 1150 422 2328 
Q 422 3509 836 4129 
Q 1250 4750 2034 4750 
z
" transform="scale(0.015625)"/>
      </defs>
      <use xlink:href="#DejaVuSans-30"/>
     </g>
    </g>
   </g>
   <g id="xtick_3">
    <g id="line2d_4">
     <path d="M 499.482603 424.563561 
L 503.221731 427.870905 
" style="fill: none; stroke: #000000; stroke-width: 0.8; stroke-linecap: square"/>
    </g>
    <g id="text_3">
     <!-- 1 -->
     <g transform="translate(505.030642 449.171607) scale(0.1 -0.1)">
      <use xlink:href="#DejaVuSans-31"/>
     </g>
    </g>
   </g>
   <g id="xtick_4">
    <g id="line2d_5">
     <path d="M 464.46185 435.990036 
L 468.152496 439.347221 
" style="fill: none; stroke: #000000; stroke-width: 0.8; stroke-linecap: square"/>
    </g>
    <g id="text_4">
     <!-- 2 -->
     <g transform="translate(469.970503 460.760284) scale(0.1 -0.1)">
      <defs>
       <path id="DejaVuSans-32" d="M 1228 531 
L 3431 531 
L 3431 0 
L 469 0 
L 469 531 
Q 828 903 1448 1529 
Q 2069 2156 2228 2338 
Q 2531 2678 2651 2914 
Q 2772 3150 2772 3378 
Q 2772 3750 2511 3984 
Q 2250 4219 1831 4219 
Q 1534 4219 1204 4116 
Q 875 4013 500 3803 
L 500 4441 
Q 881 4594 1212 4672 
Q 1544 4750 1819 4750 
Q 2544 4750 2975 4387 
Q 3406 4025 3406 3419 
Q 3406 3131 3298 2873 
Q 3191 2616 2906 2266 
Q 2828 2175 2409 1742 
Q 1991 1309 1228 531 
z
" transform="scale(0.015625)"/>
      </defs>
      <use xlink:href="#DejaVuSans-32"/>
     </g>
    </g>
   </g>
   <g id="xtick_5">
    <g id="line2d_6">
     <path d="M 428.911917 447.58917 
L 432.552181 450.997332 
" style="fill: none; stroke: #000000; stroke-width: 0.8; stroke-linecap: square"/>
    </g>
    <g id="text_5">
     <!-- 3 -->
     <g transform="translate(434.378989 472.524601) scale(0.1 -0.1)">
      <defs>
       <path id="DejaVuSans-33" d="M 2597 2516 
Q 3050 2419 3304 2112 
Q 3559 1806 3559 1356 
Q 3559 666 3084 287 
Q 2609 -91 1734 -91 
Q 1441 -91 1130 -33 
Q 819 25 488 141 
L 488 750 
Q 750 597 1062 519 
Q 1375 441 1716 441 
Q 2309 441 2620 675 
Q 2931 909 2931 1356 
Q 2931 1769 2642 2001 
Q 2353 2234 1838 2234 
L 1294 2234 
L 1294 2753 
L 1863 2753 
Q 2328 2753 2575 2939 
Q 2822 3125 2822 3475 
Q 2822 3834 2567 4026 
Q 2313 4219 1838 4219 
Q 1578 4219 1281 4162 
Q 984 4106 628 3988 
L 628 4550 
Q 988 4650 1302 4700 
Q 1616 4750 1894 4750 
Q 2613 4750 3031 4423 
Q 3450 4097 3450 3541 
Q 3450 3153 3228 2886 
Q 3006 2619 2597 2516 
z
" transform="scale(0.015625)"/>
      </defs>
      <use xlink:href="#DejaVuSans-33"/>
     </g>
    </g>
   </g>
   <g id="xtick_6">
    <g id="line2d_7">
     <path d="M 392.820719 459.364907 
L 396.408631 462.825215 
" style="fill: none; stroke: #000000; stroke-width: 0.8; stroke-linecap: square"/>
    </g>
    <g id="text_6">
     <!-- 4 -->
     <g transform="translate(398.243926 484.46858) scale(0.1 -0.1)">
      <defs>
       <path id="DejaVuSans-34" d="M 2419 4116 
L 825 1625 
L 2419 1625 
L 2419 4116 
z
M 2253 4666 
L 3047 4666 
L 3047 1625 
L 3713 1625 
L 3713 1100 
L 3047 1100 
L 3047 0 
L 2419 0 
L 2419 1100 
L 313 1100 
L 313 1709 
L 2253 4666 
z
" transform="scale(0.015625)"/>
      </defs>
      <use xlink:href="#DejaVuSans-34"/>
     </g>
    </g>
   </g>
   <g id="xtick_7">
    <g id="line2d_8">
     <path d="M 356.1758 471.321311 
L 359.709316 474.834971 
" style="fill: none; stroke: #000000; stroke-width: 0.8; stroke-linecap: square"/>
    </g>
    <g id="text_7">
     <!-- 5 -->
     <g transform="translate(361.552768 496.59637) scale(0.1 -0.1)">
      <defs>
       <path id="DejaVuSans-35" d="M 691 4666 
L 3169 4666 
L 3169 4134 
L 1269 4134 
L 1269 2991 
Q 1406 3038 1543 3061 
Q 1681 3084 1819 3084 
Q 2600 3084 3056 2656 
Q 3513 2228 3513 1497 
Q 3513 744 3044 326 
Q 2575 -91 1722 -91 
Q 1428 -91 1123 -41 
Q 819 9 494 109 
L 494 744 
Q 775 591 1075 516 
Q 1375 441 1709 441 
Q 2250 441 2565 725 
Q 2881 1009 2881 1497 
Q 2881 1984 2565 2268 
Q 2250 2553 1709 2553 
Q 1456 2553 1204 2497 
Q 953 2441 691 2322 
L 691 4666 
z
" transform="scale(0.015625)"/>
      </defs>
      <use xlink:href="#DejaVuSans-35"/>
     </g>
    </g>
   </g>
   <g id="xtick_8">
    <g id="line2d_9">
     <path d="M 318.964318 483.462571 
L 322.441318 487.030827 
" style="fill: none; stroke: #000000; stroke-width: 0.8; stroke-linecap: square"/>
    </g>
    <g id="text_8">
     <!-- 6 -->
     <g transform="translate(324.292578 508.912246) scale(0.1 -0.1)">
      <defs>
       <path id="DejaVuSans-36" d="M 2113 2584 
Q 1688 2584 1439 2293 
Q 1191 2003 1191 1497 
Q 1191 994 1439 701 
Q 1688 409 2113 409 
Q 2538 409 2786 701 
Q 3034 994 3034 1497 
Q 3034 2003 2786 2293 
Q 2538 2584 2113 2584 
z
M 3366 4563 
L 3366 3988 
Q 3128 4100 2886 4159 
Q 2644 4219 2406 4219 
Q 1781 4219 1451 3797 
Q 1122 3375 1075 2522 
Q 1259 2794 1537 2939 
Q 1816 3084 2150 3084 
Q 2853 3084 3261 2657 
Q 3669 2231 3669 1497 
Q 3669 778 3244 343 
Q 2819 -91 2113 -91 
Q 1303 -91 875 529 
Q 447 1150 447 2328 
Q 447 3434 972 4092 
Q 1497 4750 2381 4750 
Q 2619 4750 2861 4703 
Q 3103 4656 3366 4563 
z
" transform="scale(0.015625)"/>
      </defs>
      <use xlink:href="#DejaVuSans-36"/>
     </g>
    </g>
   </g>
  </g>
  <g id="axis3d_2">
   <g id="line2d_10">
    <path d="M 187.769693 348.82461 
L 320.121579 484.650204 
" style="fill: none; stroke: #000000; stroke-width: 0.8; stroke-linecap: square"/>
   </g>
   <g id="xtick_9">
    <g id="line2d_11">
     <path d="M 189.742189 348.251283 
L 183.820009 349.972628 
" style="fill: none; stroke: #000000; stroke-width: 0.8; stroke-linecap: square"/>
    </g>
    <g id="text_9">
     <!-- −1 -->
     <g transform="translate(168.514719 368.723422) scale(0.1 -0.1)">
      <use xlink:href="#DejaVuSans-2212"/>
      <use xlink:href="#DejaVuSans-31" transform="translate(83.789062 0)"/>
     </g>
    </g>
   </g>
   <g id="xtick_10">
    <g id="line2d_12">
     <path d="M 207.260052 366.196717 
L 201.285453 367.961032 
" style="fill: none; stroke: #000000; stroke-width: 0.8; stroke-linecap: square"/>
    </g>
    <g id="text_10">
     <!-- 0 -->
     <g transform="translate(190.0634 386.841774) scale(0.1 -0.1)">
      <use xlink:href="#DejaVuSans-30"/>
     </g>
    </g>
   </g>
   <g id="xtick_11">
    <g id="line2d_13">
     <path d="M 225.217722 384.592691 
L 219.189924 386.401607 
" style="fill: none; stroke: #000000; stroke-width: 0.8; stroke-linecap: square"/>
    </g>
    <g id="text_11">
     <!-- 1 -->
     <g transform="translate(207.858377 405.415347) scale(0.1 -0.1)">
      <use xlink:href="#DejaVuSans-31"/>
     </g>
    </g>
   </g>
   <g id="xtick_12">
    <g id="line2d_14">
     <path d="M 243.631972 403.456391 
L 237.550184 405.31162 
" style="fill: none; stroke: #000000; stroke-width: 0.8; stroke-linecap: square"/>
    </g>
    <g id="text_12">
     <!-- 2 -->
     <g transform="translate(226.106139 424.461517) scale(0.1 -0.1)">
      <use xlink:href="#DejaVuSans-32"/>
     </g>
    </g>
   </g>
   <g id="xtick_13">
    <g id="line2d_15">
     <path d="M 262.52044 422.805882 
L 256.383862 424.709226 
" style="fill: none; stroke: #000000; stroke-width: 0.8; stroke-linecap: square"/>
    </g>
    <g id="text_13">
     <!-- 3 -->
     <g transform="translate(244.82419 443.998552) scale(0.1 -0.1)">
      <use xlink:href="#DejaVuSans-33"/>
     </g>
    </g>
   </g>
   <g id="xtick_14">
    <g id="line2d_16">
     <path d="M 281.901683 442.660176 
L 275.709509 444.613532 
" style="fill: none; stroke: #000000; stroke-width: 0.8; stroke-linecap: square"/>
    </g>
    <g id="text_14">
     <!-- 4 -->
     <g transform="translate(264.030948 464.045678) scale(0.1 -0.1)">
      <use xlink:href="#DejaVuSans-34"/>
     </g>
    </g>
   </g>
   <g id="xtick_15">
    <g id="line2d_17">
     <path d="M 301.795239 463.039288 
L 295.546656 465.044653 
" style="fill: none; stroke: #000000; stroke-width: 0.8; stroke-linecap: square"/>
    </g>
    <g id="text_15">
     <!-- 5 -->
     <g transform="translate(283.745806 484.623134) scale(0.1 -0.1)">
      <use xlink:href="#DejaVuSans-35"/>
     </g>
    </g>
   </g>
   <g id="xtick_16">
    <g id="line2d_18">
     <path d="M 322.221695 483.964306 
L 315.915882 486.023785 
" style="fill: none; stroke: #000000; stroke-width: 0.8; stroke-linecap: square"/>
    </g>
    <g id="text_16">
     <!-- 6 -->
     <g transform="translate(303.989195 505.752248) scale(0.1 -0.1)">
      <use xlink:href="#DejaVuSans-36"/>
     </g>
    </g>
   </g>
  </g>
  <g id="axis3d_3">
   <g id="line2d_19">
    <path d="M 187.769693 348.82461 
L 179.382524 165.670285 
" style="fill: none; stroke: #000000; stroke-width: 0.8; stroke-linecap: square"/>
   </g>
   <g id="xtick_17">
    <g id="line2d_20">
     <path d="M 189.742189 348.251283 
L 183.820009 349.972628 
" style="fill: none; stroke: #000000; stroke-width: 0.8; stroke-linecap: square"/>
    </g>
    <g id="text_17">
     <!-- 0 -->
     <g transform="translate(166.317892 353.814923) scale(0.1 -0.1)">
      <use xlink:href="#DejaVuSans-30"/>
     </g>
    </g>
   </g>
   <g id="xtick_18">
    <g id="line2d_21">
     <path d="M 188.140493 312.896942 
L 182.165126 314.590781 
" style="fill: none; stroke: #000000; stroke-width: 0.8; stroke-linecap: square"/>
    </g>
    <g id="text_18">
     <!-- 1 -->
     <g transform="translate(164.543692 318.493141) scale(0.1 -0.1)">
      <use xlink:href="#DejaVuSans-31"/>
     </g>
    </g>
   </g>
   <g id="xtick_19">
    <g id="line2d_22">
     <path d="M 186.510858 276.925917 
L 180.481342 278.591023 
" style="fill: none; stroke: #000000; stroke-width: 0.8; stroke-linecap: square"/>
    </g>
    <g id="text_19">
     <!-- 2 -->
     <g transform="translate(162.738588 282.556124) scale(0.1 -0.1)">
      <use xlink:href="#DejaVuSans-32"/>
     </g>
    </g>
   </g>
   <g id="xtick_20">
    <g id="line2d_23">
     <path d="M 184.852547 240.32193 
L 178.767893 241.957025 
" style="fill: none; stroke: #000000; stroke-width: 0.8; stroke-linecap: square"/>
    </g>
    <g id="text_20">
     <!-- 3 -->
     <g transform="translate(160.901767 245.987656) scale(0.1 -0.1)">
      <use xlink:href="#DejaVuSans-33"/>
     </g>
    </g>
   </g>
   <g id="xtick_21">
    <g id="line2d_24">
     <path d="M 183.164797 203.068126 
L 177.023989 204.671876 
" style="fill: none; stroke: #000000; stroke-width: 0.8; stroke-linecap: square"/>
    </g>
    <g id="text_21">
     <!-- 4 -->
     <g transform="translate(159.032385 208.770948) scale(0.1 -0.1)">
      <use xlink:href="#DejaVuSans-34"/>
     </g>
    </g>
   </g>
   <g id="xtick_22">
    <g id="line2d_25">
     <path d="M 181.446817 165.147047 
L 175.24881 166.718061 
" style="fill: none; stroke: #000000; stroke-width: 0.8; stroke-linecap: square"/>
    </g>
    <g id="text_22">
     <!-- 5 -->
     <g transform="translate(157.129569 170.888607) scale(0.1 -0.1)">
      <use xlink:href="#DejaVuSans-35"/>
     </g>
    </g>
   </g>
  </g>
  <g id="axes_1">
   <g id="line2d_26">
    <path d="M 436.491372 368.846388 
L 439.286147 183.954501 
" clip-path="url(#pd2bab4a612)" style="fill: none; stroke-dasharray: 7.4,3.2; stroke-dashoffset: 0; stroke: #ff0000; stroke-width: 2"/>
   </g>
   <g id="line2d_27">
    <path d="M 277.528832 393.116266 
L 436.491372 368.846388 
" clip-path="url(#pd2bab4a612)" style="fill: none; stroke-dasharray: 7.4,3.2; stroke-dashoffset: 0; stroke: #800080; stroke-width: 2"/>
   </g>
   <g id="line2d_28">
    <path d="M 277.528832 393.116266 
L 439.286147 183.954501 
" clip-path="url(#pd2bab4a612)" style="fill: none; stroke-dasharray: 2,3.3; stroke-dashoffset: 0; stroke: #000000; stroke-width: 2"/>
   </g>
   <g id="Poly3DCollection_1">
    <path d="M 422.79342 280.512492 
L 397.780461 287.782771 
L 412.711348 300.558212 
L 437.874493 293.153747 
z
" clip-path="url(#pd2bab4a612)" style="fill: #626262; fill-opacity: 0.2"/>
    <path d="M 397.780461 287.782771 
L 372.50251 295.130074 
L 387.27915 308.041849 
L 412.711348 300.558212 
z
" clip-path="url(#pd2bab4a612)" style="fill: #626262; fill-opacity: 0.2"/>
    <path d="M 437.874493 293.153747 
L 412.711348 300.558212 
L 427.919836 313.57118 
L 453.234464 306.028778 
z
" clip-path="url(#pd2bab4a612)" style="fill: #626262; fill-opacity: 0.2"/>
    <path d="M 372.50251 295.130074 
L 346.955331 302.55563 
L 361.573561 315.605934 
L 387.27915 308.041849 
z
" clip-path="url(#pd2bab4a612)" style="fill: #626262; fill-opacity: 0.2"/>
    <path d="M 412.711348 300.558212 
L 387.27915 308.041849 
L 402.332006 321.194982 
L 427.919836 313.57118 
z
" clip-path="url(#pd2bab4a612)" style="fill: #626262; fill-opacity: 0.2"/>
    <path d="M 346.955331 302.55563 
L 321.134603 310.060696 
L 335.590149 323.25177 
L 361.573561 315.605934 
z
" clip-path="url(#pd2bab4a612)" style="fill: #626262; fill-opacity: 0.2"/>
    <path d="M 453.234464 306.028778 
L 427.919836 313.57118 
L 443.41374 326.828361 
L 468.88114 319.144132 
z
" clip-path="url(#pd2bab4a612)" style="fill: #626262; fill-opacity: 0.2"/>
    <path d="M 387.27915 308.041849 
L 361.573561 315.605934 
L 376.466527 328.901508 
L 402.332006 321.194982 
z
" clip-path="url(#pd2bab4a612)" style="fill: #626262; fill-opacity: 0.2"/>
    <path d="M 321.134603 310.060696 
L 295.035906 317.646557 
L 309.324385 330.980691 
L 335.590149 323.25177 
z
" clip-path="url(#pd2bab4a612)" style="fill: #626262; fill-opacity: 0.2"/>
    <path d="M 427.919836 313.57118 
L 402.332006 321.194982 
L 417.668896 334.596302 
L 443.41374 326.828361 
z
" clip-path="url(#pd2bab4a612)" style="fill: #626262; fill-opacity: 0.2"/>
    <path d="M 361.573561 315.605934 
L 335.590149 323.25177 
L 350.318856 336.692112 
L 376.466527 328.901508 
z
" clip-path="url(#pd2bab4a612)" style="fill: #626262; fill-opacity: 0.2"/>
    <path d="M 295.035906 317.646557 
L 268.654729 325.314524 
L 282.771642 338.794057 
L 309.324385 330.980691 
z
" clip-path="url(#pd2bab4a612)" style="fill: #626262; fill-opacity: 0.2"/>
    <path d="M 468.88114 319.144132 
L 443.41374 326.828361 
L 459.201171 340.336694 
L 484.822624 332.506601 
z
" clip-path="url(#pd2bab4a612)" style="fill: #626262; fill-opacity: 0.2"/>
    <path d="M 402.332006 321.194982 
L 376.466527 328.901508 
L 391.64205 342.449331 
L 417.668896 334.596302 
z
" clip-path="url(#pd2bab4a612)" style="fill: #626262; fill-opacity: 0.2"/>
    <path d="M 335.590149 323.25177 
L 309.324385 330.980691 
L 323.884349 344.568178 
L 350.318856 336.692112 
z
" clip-path="url(#pd2bab4a612)" style="fill: #626262; fill-opacity: 0.2"/>
    <path d="M 268.654729 325.314524 
L 241.986459 333.065937 
L 255.927191 346.693262 
L 282.771642 338.794057 
z
" clip-path="url(#pd2bab4a612)" style="fill: #626262; fill-opacity: 0.2"/>
    <path d="M 443.41374 326.828361 
L 417.668896 334.596302 
L 433.297936 348.252901 
L 459.201171 340.336694 
z
" clip-path="url(#pd2bab4a612)" style="fill: #626262; fill-opacity: 0.2"/>
    <path d="M 376.466527 328.901508 
L 350.318856 336.692112 
L 365.328543 350.388854 
L 391.64205 342.449331 
z
" clip-path="url(#pd2bab4a612)" style="fill: #626262; fill-opacity: 0.2"/>
    <path d="M 309.324385 330.980691 
L 282.771642 338.794057 
L 297.15826 352.531119 
L 323.884349 344.568178 
z
" clip-path="url(#pd2bab4a612)" style="fill: #626262; fill-opacity: 0.2"/>
    <path d="M 484.822624 332.506601 
L 459.201171 340.336694 
L 475.290548 354.103385 
L 501.067328 346.123234 
z
" clip-path="url(#pd2bab4a612)" style="fill: #626262; fill-opacity: 0.2"/>
    <path d="M 241.986459 333.065937 
L 215.026386 340.902166 
L 228.786198 354.679726 
L 255.927191 346.693262 
z
" clip-path="url(#pd2bab4a612)" style="fill: #626262; fill-opacity: 0.2"/>
    <path d="M 417.668896 334.596302 
L 391.64205 342.449331 
L 407.108247 356.256651 
L 433.297936 348.252901 
z
" clip-path="url(#pd2bab4a612)" style="fill: #626262; fill-opacity: 0.2"/>
    <path d="M 350.318856 336.692112 
L 323.884349 344.568178 
L 338.723611 358.416307 
L 365.328543 350.388854 
z
" clip-path="url(#pd2bab4a612)" style="fill: #626262; fill-opacity: 0.2"/>
    <path d="M 282.771642 338.794057 
L 255.927191 346.693262 
L 270.135739 360.582382 
L 297.15826 352.531119 
z
" clip-path="url(#pd2bab4a612)" style="fill: #626262; fill-opacity: 0.2"/>
    <path d="M 459.201171 340.336694 
L 433.297936 348.252901 
L 449.227554 362.172144 
L 475.290548 354.103385 
z
" clip-path="url(#pd2bab4a612)" style="fill: #626262; fill-opacity: 0.2"/>
    <path d="M 215.026386 340.902166 
L 187.769693 348.82461 
L 201.343722 362.754904 
L 228.786198 354.679726 
z
" clip-path="url(#pd2bab4a612)" style="fill: #626262; fill-opacity: 0.2"/>
    <path d="M 391.64205 342.449331 
L 365.328543 350.388854 
L 380.627325 364.349404 
L 407.108247 356.256651 
z
" clip-path="url(#pd2bab4a612)" style="fill: #626262; fill-opacity: 0.2"/>
    <path d="M 323.884349 344.568178 
L 297.15826 352.531119 
L 311.822388 366.53316 
L 338.723611 358.416307 
z
" clip-path="url(#pd2bab4a612)" style="fill: #626262; fill-opacity: 0.2"/>
    <path d="M 501.067328 346.123234 
L 475.290548 354.103385 
L 491.69062 368.135917 
L 517.623986 360.001353 
z
" clip-path="url(#pd2bab4a612)" style="fill: #626262; fill-opacity: 0.2"/>
    <path d="M 255.927191 346.693262 
L 228.786198 354.679726 
L 242.811825 368.723443 
L 270.135739 360.582382 
z
" clip-path="url(#pd2bab4a612)" style="fill: #626262; fill-opacity: 0.2"/>
    <path d="M 433.297936 348.252901 
L 407.108247 356.256651 
L 422.87355 370.330996 
L 449.227554 362.172144 
z
" clip-path="url(#pd2bab4a612)" style="fill: #626262; fill-opacity: 0.2"/>
    <path d="M 365.328543 350.388854 
L 338.723611 358.416307 
L 353.850285 372.532652 
L 380.627325 364.349404 
z
" clip-path="url(#pd2bab4a612)" style="fill: #626262; fill-opacity: 0.2"/>
    <path d="M 297.15826 352.531119 
L 270.135739 360.582382 
L 284.619895 374.740915 
L 311.822388 366.53316 
z
" clip-path="url(#pd2bab4a612)" style="fill: #626262; fill-opacity: 0.2"/>
    <path d="M 475.290548 354.103385 
L 449.227554 362.172144 
L 465.466504 376.361681 
L 491.69062 368.135917 
z
" clip-path="url(#pd2bab4a612)" style="fill: #626262; fill-opacity: 0.2"/>
    <path d="M 228.786198 354.679726 
L 201.343722 362.754904 
L 215.181448 376.955814 
L 242.811825 368.723443 
z
" clip-path="url(#pd2bab4a612)" style="fill: #626262; fill-opacity: 0.2"/>
    <path d="M 407.108247 356.256651 
L 380.627325 364.349404 
L 396.223637 378.581458 
L 422.87355 370.330996 
z
" clip-path="url(#pd2bab4a612)" style="fill: #626262; fill-opacity: 0.2"/>
    <path d="M 338.723611 358.416307 
L 311.822388 366.53316 
L 326.772132 380.807923 
L 353.850285 372.532652 
z
" clip-path="url(#pd2bab4a612)" style="fill: #626262; fill-opacity: 0.2"/>
    <path d="M 517.623986 360.001353 
L 491.69062 368.135917 
L 508.410472 382.442066 
L 534.501671 374.148563 
z
" clip-path="url(#pd2bab4a612)" style="fill: #626262; fill-opacity: 0.2"/>
    <path d="M 270.135739 360.582382 
L 242.811825 368.723443 
L 257.111044 383.041107 
L 284.619895 374.740915 
z
" clip-path="url(#pd2bab4a612)" style="fill: #626262; fill-opacity: 0.2"/>
    <path d="M 449.227554 362.172144 
L 422.87355 370.330996 
L 438.946722 384.680188 
L 465.466504 376.361681 
z
" clip-path="url(#pd2bab4a612)" style="fill: #626262; fill-opacity: 0.2"/>
    <path d="M 380.627325 364.349404 
L 353.850285 372.532652 
L 369.272802 386.925081 
L 396.223637 378.581458 
z
" clip-path="url(#pd2bab4a612)" style="fill: #626262; fill-opacity: 0.2"/>
    <path d="M 311.822388 366.53316 
L 284.619895 374.740915 
L 299.387758 389.176777 
L 326.772132 380.807923 
z
" clip-path="url(#pd2bab4a612)" style="fill: #626262; fill-opacity: 0.2"/>
    <path d="M 491.69062 368.135917 
L 465.466504 376.361681 
L 482.023886 390.829463 
L 508.410472 382.442066 
z
" clip-path="url(#pd2bab4a612)" style="fill: #626262; fill-opacity: 0.2"/>
    <path d="M 242.811825 368.723443 
L 215.181448 376.955814 
L 229.290629 391.435306 
L 257.111044 383.041107 
z
" clip-path="url(#pd2bab4a612)" style="fill: #626262; fill-opacity: 0.2"/>
    <path d="M 422.87355 370.330996 
L 396.223637 378.581458 
L 412.126244 393.093014 
L 438.946722 384.680188 
z
" clip-path="url(#pd2bab4a612)" style="fill: #626262; fill-opacity: 0.2"/>
    <path d="M 353.850285 372.532652 
L 326.772132 380.807923 
L 342.015919 395.363452 
L 369.272802 386.925081 
z
" clip-path="url(#pd2bab4a612)" style="fill: #626262; fill-opacity: 0.2"/>
    <path d="M 534.501671 374.148563 
L 508.410472 382.442066 
L 525.45955 397.029913 
L 551.709812 388.572768 
z
" clip-path="url(#pd2bab4a612)" style="fill: #626262; fill-opacity: 0.2"/>
    <path d="M 284.619895 374.740915 
L 257.111044 383.041107 
L 271.69194 397.64081 
L 299.387758 389.176777 
z
" clip-path="url(#pd2bab4a612)" style="fill: #626262; fill-opacity: 0.2"/>
    <path d="M 465.466504 376.361681 
L 438.946722 384.680188 
L 455.336868 399.312356 
L 482.023886 390.829463 
z
" clip-path="url(#pd2bab4a612)" style="fill: #626262; fill-opacity: 0.2"/>
    <path d="M 396.223637 378.581458 
L 369.272802 386.925081 
L 384.999928 401.601773 
L 412.126244 393.093014 
z
" clip-path="url(#pd2bab4a612)" style="fill: #626262; fill-opacity: 0.2"/>
    <path d="M 326.772132 380.807923 
L 299.387758 389.176777 
L 314.447746 403.898195 
L 342.015919 395.363452 
z
" clip-path="url(#pd2bab4a612)" style="fill: #626262; fill-opacity: 0.2"/>
    <path d="M 508.410472 382.442066 
L 482.023886 390.829463 
L 498.909158 405.583753 
L 525.45955 397.029913 
z
" clip-path="url(#pd2bab4a612)" style="fill: #626262; fill-opacity: 0.2"/>
    <path d="M 257.111044 383.041107 
L 229.290629 391.435306 
L 243.679334 406.201656 
L 271.69194 397.64081 
z
" clip-path="url(#pd2bab4a612)" style="fill: #626262; fill-opacity: 0.2"/>
    <path d="M 438.946722 384.680188 
L 412.126244 393.093014 
L 428.344258 407.892387 
L 455.336868 399.312356 
z
" clip-path="url(#pd2bab4a612)" style="fill: #626262; fill-opacity: 0.2"/>
    <path d="M 369.272802 386.925081 
L 342.015919 395.363452 
L 357.562511 410.208115 
L 384.999928 401.601773 
z
" clip-path="url(#pd2bab4a612)" style="fill: #626262; fill-opacity: 0.2"/>
    <path d="M 551.709812 388.572768 
L 525.45955 397.029913 
L 542.847675 411.907862 
L 569.258208 403.282182 
z
" clip-path="url(#pd2bab4a612)" style="fill: #626262; fill-opacity: 0.2"/>
    <path d="M 299.387758 389.176777 
L 271.69194 397.64081 
L 286.562919 412.53097 
L 314.447746 403.898195 
z
" clip-path="url(#pd2bab4a612)" style="fill: #626262; fill-opacity: 0.2"/>
    <path d="M 482.023886 390.829463 
L 455.336868 399.312356 
L 472.053459 414.235955 
L 498.909158 405.583753 
z
" clip-path="url(#pd2bab4a612)" style="fill: #626262; fill-opacity: 0.2"/>
    <path d="M 412.126244 393.093014 
L 384.999928 401.601773 
L 401.040776 416.571233 
L 428.344258 407.892387 
z
" clip-path="url(#pd2bab4a612)" style="fill: #626262; fill-opacity: 0.2"/>
    <path d="M 342.015919 395.363452 
L 314.447746 403.898195 
L 329.808613 418.913729 
L 357.562511 410.208115 
z
" clip-path="url(#pd2bab4a612)" style="fill: #626262; fill-opacity: 0.2"/>
    <path d="M 525.45955 397.029913 
L 498.909158 405.583753 
L 516.132158 420.63315 
L 542.847675 411.907862 
z
" clip-path="url(#pd2bab4a612)" style="fill: #626262; fill-opacity: 0.2"/>
    <path d="M 271.69194 397.64081 
L 243.679334 406.201656 
L 258.355951 421.263475 
L 286.562919 412.53097 
z
" clip-path="url(#pd2bab4a612)" style="fill: #626262; fill-opacity: 0.2"/>
    <path d="M 455.336868 399.312356 
L 428.344258 407.892387 
L 444.887156 422.988226 
L 472.053459 414.235955 
z
" clip-path="url(#pd2bab4a612)" style="fill: #626262; fill-opacity: 0.2"/>
    <path d="M 384.999928 401.601773 
L 357.562511 410.208115 
L 373.421021 425.350612 
L 401.040776 416.571233 
z
" clip-path="url(#pd2bab4a612)" style="fill: #626262; fill-opacity: 0.2"/>
    <path d="M 314.447746 403.898195 
L 286.562919 412.53097 
L 301.732724 427.720342 
L 329.808613 418.913729 
z
" clip-path="url(#pd2bab4a612)" style="fill: #626262; fill-opacity: 0.2"/>
    <path d="M 498.909158 405.583753 
L 472.053459 414.235955 
L 489.106346 429.45978 
L 516.132158 420.63315 
z
" clip-path="url(#pd2bab4a612)" style="fill: #626262; fill-opacity: 0.2"/>
    <path d="M 428.344258 407.892387 
L 401.040776 416.571233 
L 417.404828 431.842311 
L 444.887156 422.988226 
z
" clip-path="url(#pd2bab4a612)" style="fill: #626262; fill-opacity: 0.2"/>
    <path d="M 357.562511 410.208115 
L 329.808613 418.913729 
L 345.479466 434.23228 
L 373.421021 425.350612 
z
" clip-path="url(#pd2bab4a612)" style="fill: #626262; fill-opacity: 0.2"/>
    <path d="M 286.562919 412.53097 
L 258.355951 421.263475 
L 273.329209 436.629722 
L 301.732724 427.720342 
z
" clip-path="url(#pd2bab4a612)" style="fill: #626262; fill-opacity: 0.2"/>
    <path d="M 472.053459 414.235955 
L 444.887156 422.988226 
L 461.764799 438.389529 
L 489.106346 429.45978 
z
" clip-path="url(#pd2bab4a612)" style="fill: #626262; fill-opacity: 0.2"/>
    <path d="M 401.040776 416.571233 
L 373.421021 425.350612 
L 389.600931 440.799998 
L 417.404828 431.842311 
z
" clip-path="url(#pd2bab4a612)" style="fill: #626262; fill-opacity: 0.2"/>
    <path d="M 329.808613 418.913729 
L 301.732724 427.720342 
L 317.210454 443.218035 
L 345.479466 434.23228 
z
" clip-path="url(#pd2bab4a612)" style="fill: #626262; fill-opacity: 0.2"/>
    <path d="M 444.887156 422.988226 
L 417.404828 431.842311 
L 434.101953 447.424214 
L 461.764799 438.389529 
z
" clip-path="url(#pd2bab4a612)" style="fill: #626262; fill-opacity: 0.2"/>
    <path d="M 373.421021 425.350612 
L 345.479466 434.23228 
L 361.469785 449.863115 
L 389.600931 440.799998 
z
" clip-path="url(#pd2bab4a612)" style="fill: #626262; fill-opacity: 0.2"/>
    <path d="M 301.732724 427.720342 
L 273.329209 436.629722 
L 288.608194 452.309719 
L 317.210454 443.218035 
z
" clip-path="url(#pd2bab4a612)" style="fill: #626262; fill-opacity: 0.2"/>
    <path d="M 417.404828 431.842311 
L 389.600931 440.799998 
L 406.112111 456.565697 
L 434.101953 447.424214 
z
" clip-path="url(#pd2bab4a612)" style="fill: #626262; fill-opacity: 0.2"/>
    <path d="M 345.479466 434.23228 
L 317.210454 443.218035 
L 333.00558 459.033535 
L 361.469785 449.863115 
z
" clip-path="url(#pd2bab4a612)" style="fill: #626262; fill-opacity: 0.2"/>
    <path d="M 389.600931 440.799998 
L 361.469785 449.863115 
L 377.78944 465.815881 
L 406.112111 456.565697 
z
" clip-path="url(#pd2bab4a612)" style="fill: #626262; fill-opacity: 0.2"/>
    <path d="M 317.210454 443.218035 
L 288.608194 452.309719 
L 304.202366 468.313176 
L 333.00558 459.033535 
z
" clip-path="url(#pd2bab4a612)" style="fill: #626262; fill-opacity: 0.2"/>
    <path d="M 361.469785 449.863115 
L 333.00558 459.033535 
L 349.127967 475.176718 
L 377.78944 465.815881 
z
" clip-path="url(#pd2bab4a612)" style="fill: #626262; fill-opacity: 0.2"/>
    <path d="M 333.00558 459.033535 
L 304.202366 468.313176 
L 320.121579 484.650204 
L 349.127967 475.176718 
z
" clip-path="url(#pd2bab4a612)" style="fill: #626262; fill-opacity: 0.2"/>
   </g>
   <g id="text_23">
    <!--   $y$ -->
    <g style="fill: #0000ff" transform="translate(439.286147 183.954501) scale(0.12 -0.12)">
     <defs>
      <path id="DejaVuSans-20" transform="scale(0.015625)"/>
      <path id="DejaVuSans-Oblique-79" d="M 1588 -325 
Q 1188 -997 936 -1164 
Q 684 -1331 294 -1331 
L -159 -1331 
L -63 -850 
L 269 -850 
Q 509 -850 678 -719 
Q 847 -588 1056 -206 
L 1234 128 
L 459 3500 
L 1069 3500 
L 1650 819 
L 3256 3500 
L 3859 3500 
L 1588 -325 
z
" transform="scale(0.015625)"/>
     </defs>
     <use xlink:href="#DejaVuSans-20" transform="translate(0 0.3125)"/>
     <use xlink:href="#DejaVuSans-20" transform="translate(31.787109 0.3125)"/>
     <use xlink:href="#DejaVuSans-Oblique-79" transform="translate(63.574219 0.3125)"/>
    </g>
   </g>
   <g id="text_24">
    <!--   $\hat{y}$ -->
    <g style="fill: #008000" transform="translate(436.491372 368.846388) scale(0.12 -0.12)">
     <defs>
      <path id="DejaVuSans-302" d="M -1831 5119 
L -1369 5119 
L -603 3944 
L -1038 3944 
L -1600 4709 
L -2163 3944 
L -2597 3944 
L -1831 5119 
z
M -1600 3584 
L -1600 3584 
z
" transform="scale(0.015625)"/>
     </defs>
     <use xlink:href="#DejaVuSans-20" transform="translate(0 0.828125)"/>
     <use xlink:href="#DejaVuSans-20" transform="translate(31.787109 0.828125)"/>
     <use xlink:href="#DejaVuSans-302" transform="translate(125.947266 12.015625)"/>
     <use xlink:href="#DejaVuSans-Oblique-79" transform="translate(63.574219 0.828125)"/>
    </g>
   </g>
   <g id="text_25">
    <!--   $v$ -->
    <g style="fill: #ffa500" transform="translate(277.528832 393.116266) scale(0.12 -0.12)">
     <defs>
      <path id="DejaVuSans-Oblique-76" d="M 459 3500 
L 1069 3500 
L 1581 525 
L 3256 3500 
L 3866 3500 
L 1875 0 
L 1100 0 
L 459 3500 
z
" transform="scale(0.015625)"/>
     </defs>
     <use xlink:href="#DejaVuSans-20" transform="translate(0 0.3125)"/>
     <use xlink:href="#DejaVuSans-20" transform="translate(31.787109 0.3125)"/>
     <use xlink:href="#DejaVuSans-Oblique-76" transform="translate(63.574219 0.3125)"/>
    </g>
   </g>
   <g id="text_26">
    <!-- Visualization of the Best Approximation Theorem Proof -->
    <g transform="translate(204.981562 63.12) scale(0.12 -0.12)">
     <defs>
      <path id="DejaVuSans-56" d="M 1831 0 
L 50 4666 
L 709 4666 
L 2188 738 
L 3669 4666 
L 4325 4666 
L 2547 0 
L 1831 0 
z
" transform="scale(0.015625)"/>
      <path id="DejaVuSans-69" d="M 603 3500 
L 1178 3500 
L 1178 0 
L 603 0 
L 603 3500 
z
M 603 4863 
L 1178 4863 
L 1178 4134 
L 603 4134 
L 603 4863 
z
" transform="scale(0.015625)"/>
      <path id="DejaVuSans-73" d="M 2834 3397 
L 2834 2853 
Q 2591 2978 2328 3040 
Q 2066 3103 1784 3103 
Q 1356 3103 1142 2972 
Q 928 2841 928 2578 
Q 928 2378 1081 2264 
Q 1234 2150 1697 2047 
L 1894 2003 
Q 2506 1872 2764 1633 
Q 3022 1394 3022 966 
Q 3022 478 2636 193 
Q 2250 -91 1575 -91 
Q 1294 -91 989 -36 
Q 684 19 347 128 
L 347 722 
Q 666 556 975 473 
Q 1284 391 1588 391 
Q 1994 391 2212 530 
Q 2431 669 2431 922 
Q 2431 1156 2273 1281 
Q 2116 1406 1581 1522 
L 1381 1569 
Q 847 1681 609 1914 
Q 372 2147 372 2553 
Q 372 3047 722 3315 
Q 1072 3584 1716 3584 
Q 2034 3584 2315 3537 
Q 2597 3491 2834 3397 
z
" transform="scale(0.015625)"/>
      <path id="DejaVuSans-75" d="M 544 1381 
L 544 3500 
L 1119 3500 
L 1119 1403 
Q 1119 906 1312 657 
Q 1506 409 1894 409 
Q 2359 409 2629 706 
Q 2900 1003 2900 1516 
L 2900 3500 
L 3475 3500 
L 3475 0 
L 2900 0 
L 2900 538 
Q 2691 219 2414 64 
Q 2138 -91 1772 -91 
Q 1169 -91 856 284 
Q 544 659 544 1381 
z
M 1991 3584 
L 1991 3584 
z
" transform="scale(0.015625)"/>
      <path id="DejaVuSans-61" d="M 2194 1759 
Q 1497 1759 1228 1600 
Q 959 1441 959 1056 
Q 959 750 1161 570 
Q 1363 391 1709 391 
Q 2188 391 2477 730 
Q 2766 1069 2766 1631 
L 2766 1759 
L 2194 1759 
z
M 3341 1997 
L 3341 0 
L 2766 0 
L 2766 531 
Q 2569 213 2275 61 
Q 1981 -91 1556 -91 
Q 1019 -91 701 211 
Q 384 513 384 1019 
Q 384 1609 779 1909 
Q 1175 2209 1959 2209 
L 2766 2209 
L 2766 2266 
Q 2766 2663 2505 2880 
Q 2244 3097 1772 3097 
Q 1472 3097 1187 3025 
Q 903 2953 641 2809 
L 641 3341 
Q 956 3463 1253 3523 
Q 1550 3584 1831 3584 
Q 2591 3584 2966 3190 
Q 3341 2797 3341 1997 
z
" transform="scale(0.015625)"/>
      <path id="DejaVuSans-6c" d="M 603 4863 
L 1178 4863 
L 1178 0 
L 603 0 
L 603 4863 
z
" transform="scale(0.015625)"/>
      <path id="DejaVuSans-7a" d="M 353 3500 
L 3084 3500 
L 3084 2975 
L 922 459 
L 3084 459 
L 3084 0 
L 275 0 
L 275 525 
L 2438 3041 
L 353 3041 
L 353 3500 
z
" transform="scale(0.015625)"/>
      <path id="DejaVuSans-74" d="M 1172 4494 
L 1172 3500 
L 2356 3500 
L 2356 3053 
L 1172 3053 
L 1172 1153 
Q 1172 725 1289 603 
Q 1406 481 1766 481 
L 2356 481 
L 2356 0 
L 1766 0 
Q 1100 0 847 248 
Q 594 497 594 1153 
L 594 3053 
L 172 3053 
L 172 3500 
L 594 3500 
L 594 4494 
L 1172 4494 
z
" transform="scale(0.015625)"/>
      <path id="DejaVuSans-6f" d="M 1959 3097 
Q 1497 3097 1228 2736 
Q 959 2375 959 1747 
Q 959 1119 1226 758 
Q 1494 397 1959 397 
Q 2419 397 2687 759 
Q 2956 1122 2956 1747 
Q 2956 2369 2687 2733 
Q 2419 3097 1959 3097 
z
M 1959 3584 
Q 2709 3584 3137 3096 
Q 3566 2609 3566 1747 
Q 3566 888 3137 398 
Q 2709 -91 1959 -91 
Q 1206 -91 779 398 
Q 353 888 353 1747 
Q 353 2609 779 3096 
Q 1206 3584 1959 3584 
z
" transform="scale(0.015625)"/>
      <path id="DejaVuSans-6e" d="M 3513 2113 
L 3513 0 
L 2938 0 
L 2938 2094 
Q 2938 2591 2744 2837 
Q 2550 3084 2163 3084 
Q 1697 3084 1428 2787 
Q 1159 2491 1159 1978 
L 1159 0 
L 581 0 
L 581 3500 
L 1159 3500 
L 1159 2956 
Q 1366 3272 1645 3428 
Q 1925 3584 2291 3584 
Q 2894 3584 3203 3211 
Q 3513 2838 3513 2113 
z
" transform="scale(0.015625)"/>
      <path id="DejaVuSans-66" d="M 2375 4863 
L 2375 4384 
L 1825 4384 
Q 1516 4384 1395 4259 
Q 1275 4134 1275 3809 
L 1275 3500 
L 2222 3500 
L 2222 3053 
L 1275 3053 
L 1275 0 
L 697 0 
L 697 3053 
L 147 3053 
L 147 3500 
L 697 3500 
L 697 3744 
Q 697 4328 969 4595 
Q 1241 4863 1831 4863 
L 2375 4863 
z
" transform="scale(0.015625)"/>
      <path id="DejaVuSans-68" d="M 3513 2113 
L 3513 0 
L 2938 0 
L 2938 2094 
Q 2938 2591 2744 2837 
Q 2550 3084 2163 3084 
Q 1697 3084 1428 2787 
Q 1159 2491 1159 1978 
L 1159 0 
L 581 0 
L 581 4863 
L 1159 4863 
L 1159 2956 
Q 1366 3272 1645 3428 
Q 1925 3584 2291 3584 
Q 2894 3584 3203 3211 
Q 3513 2838 3513 2113 
z
" transform="scale(0.015625)"/>
      <path id="DejaVuSans-65" d="M 3597 1894 
L 3597 1613 
L 953 1613 
Q 991 1019 1311 708 
Q 1631 397 2203 397 
Q 2534 397 2845 478 
Q 3156 559 3463 722 
L 3463 178 
Q 3153 47 2828 -22 
Q 2503 -91 2169 -91 
Q 1331 -91 842 396 
Q 353 884 353 1716 
Q 353 2575 817 3079 
Q 1281 3584 2069 3584 
Q 2775 3584 3186 3129 
Q 3597 2675 3597 1894 
z
M 3022 2063 
Q 3016 2534 2758 2815 
Q 2500 3097 2075 3097 
Q 1594 3097 1305 2825 
Q 1016 2553 972 2059 
L 3022 2063 
z
" transform="scale(0.015625)"/>
      <path id="DejaVuSans-42" d="M 1259 2228 
L 1259 519 
L 2272 519 
Q 2781 519 3026 730 
Q 3272 941 3272 1375 
Q 3272 1813 3026 2020 
Q 2781 2228 2272 2228 
L 1259 2228 
z
M 1259 4147 
L 1259 2741 
L 2194 2741 
Q 2656 2741 2882 2914 
Q 3109 3088 3109 3444 
Q 3109 3797 2882 3972 
Q 2656 4147 2194 4147 
L 1259 4147 
z
M 628 4666 
L 2241 4666 
Q 2963 4666 3353 4366 
Q 3744 4066 3744 3513 
Q 3744 3084 3544 2831 
Q 3344 2578 2956 2516 
Q 3422 2416 3680 2098 
Q 3938 1781 3938 1306 
Q 3938 681 3513 340 
Q 3088 0 2303 0 
L 628 0 
L 628 4666 
z
" transform="scale(0.015625)"/>
      <path id="DejaVuSans-41" d="M 2188 4044 
L 1331 1722 
L 3047 1722 
L 2188 4044 
z
M 1831 4666 
L 2547 4666 
L 4325 0 
L 3669 0 
L 3244 1197 
L 1141 1197 
L 716 0 
L 50 0 
L 1831 4666 
z
" transform="scale(0.015625)"/>
      <path id="DejaVuSans-70" d="M 1159 525 
L 1159 -1331 
L 581 -1331 
L 581 3500 
L 1159 3500 
L 1159 2969 
Q 1341 3281 1617 3432 
Q 1894 3584 2278 3584 
Q 2916 3584 3314 3078 
Q 3713 2572 3713 1747 
Q 3713 922 3314 415 
Q 2916 -91 2278 -91 
Q 1894 -91 1617 61 
Q 1341 213 1159 525 
z
M 3116 1747 
Q 3116 2381 2855 2742 
Q 2594 3103 2138 3103 
Q 1681 3103 1420 2742 
Q 1159 2381 1159 1747 
Q 1159 1113 1420 752 
Q 1681 391 2138 391 
Q 2594 391 2855 752 
Q 3116 1113 3116 1747 
z
" transform="scale(0.015625)"/>
      <path id="DejaVuSans-72" d="M 2631 2963 
Q 2534 3019 2420 3045 
Q 2306 3072 2169 3072 
Q 1681 3072 1420 2755 
Q 1159 2438 1159 1844 
L 1159 0 
L 581 0 
L 581 3500 
L 1159 3500 
L 1159 2956 
Q 1341 3275 1631 3429 
Q 1922 3584 2338 3584 
Q 2397 3584 2469 3576 
Q 2541 3569 2628 3553 
L 2631 2963 
z
" transform="scale(0.015625)"/>
      <path id="DejaVuSans-78" d="M 3513 3500 
L 2247 1797 
L 3578 0 
L 2900 0 
L 1881 1375 
L 863 0 
L 184 0 
L 1544 1831 
L 300 3500 
L 978 3500 
L 1906 2253 
L 2834 3500 
L 3513 3500 
z
" transform="scale(0.015625)"/>
      <path id="DejaVuSans-6d" d="M 3328 2828 
Q 3544 3216 3844 3400 
Q 4144 3584 4550 3584 
Q 5097 3584 5394 3201 
Q 5691 2819 5691 2113 
L 5691 0 
L 5113 0 
L 5113 2094 
Q 5113 2597 4934 2840 
Q 4756 3084 4391 3084 
Q 3944 3084 3684 2787 
Q 3425 2491 3425 1978 
L 3425 0 
L 2847 0 
L 2847 2094 
Q 2847 2600 2669 2842 
Q 2491 3084 2119 3084 
Q 1678 3084 1418 2786 
Q 1159 2488 1159 1978 
L 1159 0 
L 581 0 
L 581 3500 
L 1159 3500 
L 1159 2956 
Q 1356 3278 1631 3431 
Q 1906 3584 2284 3584 
Q 2666 3584 2933 3390 
Q 3200 3197 3328 2828 
z
" transform="scale(0.015625)"/>
      <path id="DejaVuSans-54" d="M -19 4666 
L 3928 4666 
L 3928 4134 
L 2272 4134 
L 2272 0 
L 1638 0 
L 1638 4134 
L -19 4134 
L -19 4666 
z
" transform="scale(0.015625)"/>
      <path id="DejaVuSans-50" d="M 1259 4147 
L 1259 2394 
L 2053 2394 
Q 2494 2394 2734 2622 
Q 2975 2850 2975 3272 
Q 2975 3691 2734 3919 
Q 2494 4147 2053 4147 
L 1259 4147 
z
M 628 4666 
L 2053 4666 
Q 2838 4666 3239 4311 
Q 3641 3956 3641 3272 
Q 3641 2581 3239 2228 
Q 2838 1875 2053 1875 
L 1259 1875 
L 1259 0 
L 628 0 
L 628 4666 
z
" transform="scale(0.015625)"/>
     </defs>
     <use xlink:href="#DejaVuSans-56"/>
     <use xlink:href="#DejaVuSans-69" transform="translate(66.158203 0)"/>
     <use xlink:href="#DejaVuSans-73" transform="translate(93.941406 0)"/>
     <use xlink:href="#DejaVuSans-75" transform="translate(146.041016 0)"/>
     <use xlink:href="#DejaVuSans-61" transform="translate(209.419922 0)"/>
     <use xlink:href="#DejaVuSans-6c" transform="translate(270.699219 0)"/>
     <use xlink:href="#DejaVuSans-69" transform="translate(298.482422 0)"/>
     <use xlink:href="#DejaVuSans-7a" transform="translate(326.265625 0)"/>
     <use xlink:href="#DejaVuSans-61" transform="translate(378.755859 0)"/>
     <use xlink:href="#DejaVuSans-74" transform="translate(440.035156 0)"/>
     <use xlink:href="#DejaVuSans-69" transform="translate(479.244141 0)"/>
     <use xlink:href="#DejaVuSans-6f" transform="translate(507.027344 0)"/>
     <use xlink:href="#DejaVuSans-6e" transform="translate(568.208984 0)"/>
     <use xlink:href="#DejaVuSans-20" transform="translate(631.587891 0)"/>
     <use xlink:href="#DejaVuSans-6f" transform="translate(663.375 0)"/>
     <use xlink:href="#DejaVuSans-66" transform="translate(724.556641 0)"/>
     <use xlink:href="#DejaVuSans-20" transform="translate(759.761719 0)"/>
     <use xlink:href="#DejaVuSans-74" transform="translate(791.548828 0)"/>
     <use xlink:href="#DejaVuSans-68" transform="translate(830.757812 0)"/>
     <use xlink:href="#DejaVuSans-65" transform="translate(894.136719 0)"/>
     <use xlink:href="#DejaVuSans-20" transform="translate(955.660156 0)"/>
     <use xlink:href="#DejaVuSans-42" transform="translate(987.447266 0)"/>
     <use xlink:href="#DejaVuSans-65" transform="translate(1056.050781 0)"/>
     <use xlink:href="#DejaVuSans-73" transform="translate(1117.574219 0)"/>
     <use xlink:href="#DejaVuSans-74" transform="translate(1169.673828 0)"/>
     <use xlink:href="#DejaVuSans-20" transform="translate(1208.882812 0)"/>
     <use xlink:href="#DejaVuSans-41" transform="translate(1240.669922 0)"/>
     <use xlink:href="#DejaVuSans-70" transform="translate(1309.078125 0)"/>
     <use xlink:href="#DejaVuSans-70" transform="translate(1372.554688 0)"/>
     <use xlink:href="#DejaVuSans-72" transform="translate(1436.03125 0)"/>
     <use xlink:href="#DejaVuSans-6f" transform="translate(1474.894531 0)"/>
     <use xlink:href="#DejaVuSans-78" transform="translate(1532.951172 0)"/>
     <use xlink:href="#DejaVuSans-69" transform="translate(1592.130859 0)"/>
     <use xlink:href="#DejaVuSans-6d" transform="translate(1619.914062 0)"/>
     <use xlink:href="#DejaVuSans-61" transform="translate(1717.326172 0)"/>
     <use xlink:href="#DejaVuSans-74" transform="translate(1778.605469 0)"/>
     <use xlink:href="#DejaVuSans-69" transform="translate(1817.814453 0)"/>
     <use xlink:href="#DejaVuSans-6f" transform="translate(1845.597656 0)"/>
     <use xlink:href="#DejaVuSans-6e" transform="translate(1906.779297 0)"/>
     <use xlink:href="#DejaVuSans-20" transform="translate(1970.158203 0)"/>
     <use xlink:href="#DejaVuSans-54" transform="translate(2001.945312 0)"/>
     <use xlink:href="#DejaVuSans-68" transform="translate(2063.029297 0)"/>
     <use xlink:href="#DejaVuSans-65" transform="translate(2126.408203 0)"/>
     <use xlink:href="#DejaVuSans-6f" transform="translate(2187.931641 0)"/>
     <use xlink:href="#DejaVuSans-72" transform="translate(2249.113281 0)"/>
     <use xlink:href="#DejaVuSans-65" transform="translate(2287.976562 0)"/>
     <use xlink:href="#DejaVuSans-6d" transform="translate(2349.5 0)"/>
     <use xlink:href="#DejaVuSans-20" transform="translate(2446.912109 0)"/>
     <use xlink:href="#DejaVuSans-50" transform="translate(2478.699219 0)"/>
     <use xlink:href="#DejaVuSans-72" transform="translate(2537.251953 0)"/>
     <use xlink:href="#DejaVuSans-6f" transform="translate(2576.115234 0)"/>
     <use xlink:href="#DejaVuSans-6f" transform="translate(2637.296875 0)"/>
     <use xlink:href="#DejaVuSans-66" transform="translate(2698.478516 0)"/>
    </g>
   </g>
   <g id="legend_1">
    <g id="patch_6">
     <path d="M 154.24 170.096563 
L 245.24 170.096563 
Q 247.24 170.096563 247.24 168.096563 
L 247.24 76.12 
Q 247.24 74.12 245.24 74.12 
L 154.24 74.12 
Q 152.24 74.12 152.24 76.12 
L 152.24 168.096563 
Q 152.24 170.096563 154.24 170.096563 
z
" style="fill: #ffffff; opacity: 0.8; stroke: #cccccc; stroke-linejoin: miter"/>
    </g>
    <g id="line2d_29">
     <path d="M 156.24 82.218437 
L 166.24 82.218437 
L 176.24 82.218437 
" style="fill: none; stroke: #0000ff; stroke-width: 2; stroke-linecap: square"/>
    </g>
    <g id="text_27">
     <!-- Vector $y$ -->
     <g transform="translate(184.24 85.718437) scale(0.1 -0.1)">
      <defs>
       <path id="DejaVuSans-63" d="M 3122 3366 
L 3122 2828 
Q 2878 2963 2633 3030 
Q 2388 3097 2138 3097 
Q 1578 3097 1268 2742 
Q 959 2388 959 1747 
Q 959 1106 1268 751 
Q 1578 397 2138 397 
Q 2388 397 2633 464 
Q 2878 531 3122 666 
L 3122 134 
Q 2881 22 2623 -34 
Q 2366 -91 2075 -91 
Q 1284 -91 818 406 
Q 353 903 353 1747 
Q 353 2603 823 3093 
Q 1294 3584 2113 3584 
Q 2378 3584 2631 3529 
Q 2884 3475 3122 3366 
z
" transform="scale(0.015625)"/>
      </defs>
      <use xlink:href="#DejaVuSans-56" transform="translate(0 0.09375)"/>
      <use xlink:href="#DejaVuSans-65" transform="translate(68.408203 0.09375)"/>
      <use xlink:href="#DejaVuSans-63" transform="translate(129.931641 0.09375)"/>
      <use xlink:href="#DejaVuSans-74" transform="translate(184.912109 0.09375)"/>
      <use xlink:href="#DejaVuSans-6f" transform="translate(224.121094 0.09375)"/>
      <use xlink:href="#DejaVuSans-72" transform="translate(285.302734 0.09375)"/>
      <use xlink:href="#DejaVuSans-20" transform="translate(326.416016 0.09375)"/>
      <use xlink:href="#DejaVuSans-Oblique-79" transform="translate(358.203125 0.09375)"/>
     </g>
    </g>
    <g id="line2d_30">
     <path d="M 156.24 98.518438 
L 166.24 98.518438 
L 176.24 98.518438 
" style="fill: none; stroke: #008000; stroke-width: 2; stroke-linecap: square"/>
    </g>
    <g id="text_28">
     <!-- Projection $\hat{y}$ -->
     <g transform="translate(184.24 102.018438) scale(0.1 -0.1)">
      <defs>
       <path id="DejaVuSans-6a" d="M 603 3500 
L 1178 3500 
L 1178 -63 
Q 1178 -731 923 -1031 
Q 669 -1331 103 -1331 
L -116 -1331 
L -116 -844 
L 38 -844 
Q 366 -844 484 -692 
Q 603 -541 603 -63 
L 603 3500 
z
M 603 4863 
L 1178 4863 
L 1178 4134 
L 603 4134 
L 603 4863 
z
" transform="scale(0.015625)"/>
      </defs>
      <use xlink:href="#DejaVuSans-50" transform="translate(0 0.828125)"/>
      <use xlink:href="#DejaVuSans-72" transform="translate(60.302734 0.828125)"/>
      <use xlink:href="#DejaVuSans-6f" transform="translate(101.416016 0.828125)"/>
      <use xlink:href="#DejaVuSans-6a" transform="translate(162.597656 0.828125)"/>
      <use xlink:href="#DejaVuSans-65" transform="translate(190.380859 0.828125)"/>
      <use xlink:href="#DejaVuSans-63" transform="translate(251.904297 0.828125)"/>
      <use xlink:href="#DejaVuSans-74" transform="translate(306.884766 0.828125)"/>
      <use xlink:href="#DejaVuSans-69" transform="translate(346.09375 0.828125)"/>
      <use xlink:href="#DejaVuSans-6f" transform="translate(373.876953 0.828125)"/>
      <use xlink:href="#DejaVuSans-6e" transform="translate(435.058594 0.828125)"/>
      <use xlink:href="#DejaVuSans-20" transform="translate(498.4375 0.828125)"/>
      <use xlink:href="#DejaVuSans-302" transform="translate(592.597656 12.015625)"/>
      <use xlink:href="#DejaVuSans-Oblique-79" transform="translate(530.224609 0.828125)"/>
     </g>
    </g>
    <g id="line2d_31">
     <path d="M 156.24 113.216875 
L 166.24 113.216875 
L 176.24 113.216875 
" style="fill: none; stroke: #ffa500; stroke-width: 2; stroke-linecap: square"/>
    </g>
    <g id="text_29">
     <!-- Vector $v$ -->
     <g transform="translate(184.24 116.716875) scale(0.1 -0.1)">
      <use xlink:href="#DejaVuSans-56" transform="translate(0 0.09375)"/>
      <use xlink:href="#DejaVuSans-65" transform="translate(68.408203 0.09375)"/>
      <use xlink:href="#DejaVuSans-63" transform="translate(129.931641 0.09375)"/>
      <use xlink:href="#DejaVuSans-74" transform="translate(184.912109 0.09375)"/>
      <use xlink:href="#DejaVuSans-6f" transform="translate(224.121094 0.09375)"/>
      <use xlink:href="#DejaVuSans-72" transform="translate(285.302734 0.09375)"/>
      <use xlink:href="#DejaVuSans-20" transform="translate(326.416016 0.09375)"/>
      <use xlink:href="#DejaVuSans-Oblique-76" transform="translate(358.203125 0.09375)"/>
     </g>
    </g>
    <g id="line2d_32">
     <path d="M 156.24 129.496562 
L 166.24 129.496562 
L 176.24 129.496562 
" style="fill: none; stroke-dasharray: 7.4,3.2; stroke-dashoffset: 0; stroke: #ff0000; stroke-width: 2"/>
    </g>
    <g id="text_30">
     <!-- $(y - \hat{y})$ -->
     <g transform="translate(184.24 132.996562) scale(0.1 -0.1)">
      <defs>
       <path id="DejaVuSans-28" d="M 1984 4856 
Q 1566 4138 1362 3434 
Q 1159 2731 1159 2009 
Q 1159 1288 1364 580 
Q 1569 -128 1984 -844 
L 1484 -844 
Q 1016 -109 783 600 
Q 550 1309 550 2009 
Q 550 2706 781 3412 
Q 1013 4119 1484 4856 
L 1984 4856 
z
" transform="scale(0.015625)"/>
       <path id="DejaVuSans-29" d="M 513 4856 
L 1013 4856 
Q 1481 4119 1714 3412 
Q 1947 2706 1947 2009 
Q 1947 1309 1714 600 
Q 1481 -109 1013 -844 
L 513 -844 
Q 928 -128 1133 580 
Q 1338 1288 1338 2009 
Q 1338 2731 1133 3434 
Q 928 4138 513 4856 
z
" transform="scale(0.015625)"/>
      </defs>
      <use xlink:href="#DejaVuSans-28" transform="translate(0 0.828125)"/>
      <use xlink:href="#DejaVuSans-Oblique-79" transform="translate(39.013672 0.828125)"/>
      <use xlink:href="#DejaVuSans-2212" transform="translate(117.675781 0.828125)"/>
      <use xlink:href="#DejaVuSans-302" transform="translate(283.320312 12.015625)"/>
      <use xlink:href="#DejaVuSans-Oblique-79" transform="translate(220.947266 0.828125)"/>
      <use xlink:href="#DejaVuSans-29" transform="translate(280.126953 0.828125)"/>
     </g>
    </g>
    <g id="line2d_33">
     <path d="M 156.24 145.796562 
L 166.24 145.796562 
L 176.24 145.796562 
" style="fill: none; stroke-dasharray: 7.4,3.2; stroke-dashoffset: 0; stroke: #800080; stroke-width: 2"/>
    </g>
    <g id="text_31">
     <!-- $(\hat{y} - v)$ -->
     <g transform="translate(184.24 149.296562) scale(0.1 -0.1)">
      <use xlink:href="#DejaVuSans-28" transform="translate(0 0.828125)"/>
      <use xlink:href="#DejaVuSans-302" transform="translate(101.386719 12.015625)"/>
      <use xlink:href="#DejaVuSans-Oblique-79" transform="translate(39.013672 0.828125)"/>
      <use xlink:href="#DejaVuSans-2212" transform="translate(117.675781 0.828125)"/>
      <use xlink:href="#DejaVuSans-Oblique-76" transform="translate(220.947266 0.828125)"/>
      <use xlink:href="#DejaVuSans-29" transform="translate(280.126953 0.828125)"/>
     </g>
    </g>
    <g id="line2d_34">
     <path d="M 156.24 160.496562 
L 166.24 160.496562 
L 176.24 160.496562 
" style="fill: none; stroke-dasharray: 2,3.3; stroke-dashoffset: 0; stroke: #000000; stroke-width: 2"/>
    </g>
    <g id="text_32">
     <!-- $(y - v)$ -->
     <g transform="translate(184.24 163.996562) scale(0.1 -0.1)">
      <use xlink:href="#DejaVuSans-28" transform="translate(0 0.125)"/>
      <use xlink:href="#DejaVuSans-Oblique-79" transform="translate(39.013672 0.125)"/>
      <use xlink:href="#DejaVuSans-2212" transform="translate(117.675781 0.125)"/>
      <use xlink:href="#DejaVuSans-Oblique-76" transform="translate(220.947266 0.125)"/>
      <use xlink:href="#DejaVuSans-29" transform="translate(280.126953 0.125)"/>
     </g>
    </g>
   </g>
  </g>
 </g>
 <defs>
  <clipPath id="pd2bab4a612">
   <rect x="147.24" y="69.12" width="443.52" height="443.52"/>
  </clipPath>
 </defs>
</svg>
