<?xml version="1.0" encoding="utf-8" standalone="no"?>
<!DOCTYPE svg PUBLIC "-//W3C//DTD SVG 1.1//EN"
  "http://www.w3.org/Graphics/SVG/1.1/DTD/svg11.dtd">
<svg xmlns:xlink="http://www.w3.org/1999/xlink" width="720pt" height="720pt" viewBox="0 0 720 720" xmlns="http://www.w3.org/2000/svg" version="1.1">
 <metadata>
  <rdf:RDF xmlns:dc="http://purl.org/dc/elements/1.1/" xmlns:cc="http://creativecommons.org/ns#" xmlns:rdf="http://www.w3.org/1999/02/22-rdf-syntax-ns#">
   <cc:Work>
    <dc:type rdf:resource="http://purl.org/dc/dcmitype/StillImage"/>
    <dc:date>2026-01-12T23:20:07.207095</dc:date>
    <dc:format>image/svg+xml</dc:format>
    <dc:creator>
     <cc:Agent>
      <dc:title>Matplotlib v3.10.8, https://matplotlib.org/</dc:title>
     </cc:Agent>
    </dc:creator>
   </cc:Work>
  </rdf:RDF>
 </metadata>
 <defs>
  <style type="text/css">*{stroke-linejoin: round; stroke-linecap: butt}</style>
 </defs>
 <g id="figure_1">
  <g id="patch_1">
   <path d="M 0 720 
L 720 720 
L 720 0 
L 0 0 
z
" style="fill: #ffffff"/>
  </g>
  <g id="patch_2">
   <path d="M 91.8 640.8 
L 646.2 640.8 
L 646.2 86.4 
L 91.8 86.4 
z
" style="fill: #ffffff"/>
  </g>
  <g id="pane3d_1">
   <g id="patch_3">
    <path d="M 149.065688 448.407881 
L 455.676614 397.076487 
L 457.959861 160.848729 
L 142.201558 202.691227 
" style="fill: #f2f2f2; opacity: 0.5; stroke: #f2f2f2; stroke-linejoin: miter"/>
   </g>
  </g>
  <g id="pane3d_2">
   <g id="patch_4">
    <path d="M 455.676614 397.076487 
L 616.370772 513.184454 
L 624.019811 255.650156 
L 457.959861 160.848729 
" style="fill: #e6e6e6; opacity: 0.5; stroke: #e6e6e6; stroke-linejoin: miter"/>
   </g>
  </g>
  <g id="pane3d_3">
   <g id="patch_5">
    <path d="M 149.065688 448.407881 
L 284.796274 575.880732 
L 616.370772 513.184454 
L 455.676614 397.076487 
" style="fill: #ececec; opacity: 0.5; stroke: #ececec; stroke-linejoin: miter"/>
   </g>
  </g>
  <g id="grid3d_1">
   <g id="Line3DCollection_1">
    <path d="M 149.065688 448.407881 
L 455.676614 397.076487 
L 457.959861 160.848729 
" style="fill: none; stroke: #b0b0b0; stroke-width: 0.8"/>
    <path d="M 166.816353 465.078611 
L 476.777333 412.322602 
L 479.709104 173.265084 
" style="fill: none; stroke: #b0b0b0; stroke-width: 0.8"/>
    <path d="M 185.074438 482.225889 
L 498.45435 427.985115 
L 502.069965 186.030604 
" style="fill: none; stroke: #b0b0b0; stroke-width: 0.8"/>
    <path d="M 203.862015 499.870445 
L 520.7316 444.08132 
L 525.068612 199.160227 
" style="fill: none; stroke: #b0b0b0; stroke-width: 0.8"/>
    <path d="M 223.202456 518.03423 
L 543.634363 460.629484 
L 548.732727 212.669757 
" style="fill: none; stroke: #b0b0b0; stroke-width: 0.8"/>
    <path d="M 243.12053 536.740505 
L 567.18936 477.648914 
L 573.091616 226.575924 
" style="fill: none; stroke: #b0b0b0; stroke-width: 0.8"/>
    <path d="M 263.642507 556.013942 
L 591.424856 495.160031 
L 598.176333 240.896457 
" style="fill: none; stroke: #b0b0b0; stroke-width: 0.8"/>
    <path d="M 284.796274 575.880732 
L 616.370772 513.184454 
L 624.019811 255.650156 
" style="fill: none; stroke: #b0b0b0; stroke-width: 0.8"/>
   </g>
  </g>
  <g id="grid3d_2">
   <g id="Line3DCollection_2">
    <path d="M 142.201558 202.691227 
L 149.065688 448.407881 
L 284.796274 575.880732 
" style="fill: none; stroke: #b0b0b0; stroke-width: 0.8"/>
    <path d="M 189.104565 196.475907 
L 194.559208 440.791564 
L 334.189524 566.541133 
" style="fill: none; stroke: #b0b0b0; stroke-width: 0.8"/>
    <path d="M 235.389643 190.342471 
L 239.470704 433.272688 
L 382.883731 557.333713 
" style="fill: none; stroke: #b0b0b0; stroke-width: 0.8"/>
    <path d="M 281.068923 184.289312 
L 283.811273 425.849393 
L 430.893631 548.255687 
" style="fill: none; stroke: #b0b0b0; stroke-width: 0.8"/>
    <path d="M 326.154221 178.314865 
L 327.591732 418.51987 
L 478.233548 539.304345 
" style="fill: none; stroke: #b0b0b0; stroke-width: 0.8"/>
    <path d="M 370.657047 172.417603 
L 370.822629 411.282351 
L 524.91741 530.477055 
" style="fill: none; stroke: #b0b0b0; stroke-width: 0.8"/>
    <path d="M 414.588618 166.59604 
L 413.514247 404.135117 
L 570.95876 521.771255 
" style="fill: none; stroke: #b0b0b0; stroke-width: 0.8"/>
    <path d="M 457.959861 160.848729 
L 455.676614 397.076487 
L 616.370772 513.184454 
" style="fill: none; stroke: #b0b0b0; stroke-width: 0.8"/>
   </g>
  </g>
  <g id="grid3d_3">
   <g id="Line3DCollection_3">
    <path d="M 616.370772 513.184454 
L 455.676614 397.076487 
L 149.065688 448.407881 
" style="fill: none; stroke: #b0b0b0; stroke-width: 0.8"/>
    <path d="M 617.612613 471.373106 
L 456.048225 358.629036 
L 147.949734 408.459858 
" style="fill: none; stroke: #b0b0b0; stroke-width: 0.8"/>
    <path d="M 618.867379 429.126595 
L 456.423342 319.819019 
L 146.822775 368.117861 
" style="fill: none; stroke: #b0b0b0; stroke-width: 0.8"/>
    <path d="M 620.135272 386.438091 
L 456.802012 280.641281 
L 145.684646 327.376033 
" style="fill: none; stroke: #b0b0b0; stroke-width: 0.8"/>
    <path d="M 621.4165 343.300622 
L 457.184288 241.090571 
L 144.535181 286.228401 
" style="fill: none; stroke: #b0b0b0; stroke-width: 0.8"/>
    <path d="M 622.711274 299.707068 
L 457.57022 201.161539 
L 143.374209 244.668871 
" style="fill: none; stroke: #b0b0b0; stroke-width: 0.8"/>
    <path d="M 624.019811 255.650156 
L 457.959861 160.848729 
L 142.201558 202.691227 
" style="fill: none; stroke: #b0b0b0; stroke-width: 0.8"/>
   </g>
  </g>
  <g id="axis3d_1">
   <g id="line2d_1">
    <path d="M 149.065688 448.407881 
L 284.796274 575.880732 
" style="fill: none; stroke: #000000; stroke-width: 0.8; stroke-linecap: square"/>
   </g>
   <g id="xtick_1">
    <g id="line2d_2">
     <path d="M 151.628903 447.978759 
L 143.933673 449.267059 
" style="fill: none; stroke: #000000; stroke-width: 0.8; stroke-linecap: square"/>
    </g>
    <g id="text_1">
     <!-- −1 -->
     <g transform="translate(129.186737 467.65027) scale(0.1 -0.1)">
      <defs>
       <path id="DejaVuSans-2212" d="M 678 2272 
L 4684 2272 
L 4684 1741 
L 678 1741 
L 678 2272 
z
" transform="scale(0.015625)"/>
       <path id="DejaVuSans-31" d="M 794 531 
L 1825 531 
L 1825 4091 
L 703 3866 
L 703 4441 
L 1819 4666 
L 2450 4666 
L 2450 531 
L 3481 531 
L 3481 0 
L 794 0 
L 794 531 
z
" transform="scale(0.015625)"/>
      </defs>
      <use xlink:href="#DejaVuSans-2212"/>
      <use xlink:href="#DejaVuSans-31" transform="translate(83.789062 0)"/>
     </g>
    </g>
   </g>
   <g id="xtick_2">
    <g id="line2d_3">
     <path d="M 169.409145 464.637312 
L 161.625041 465.962183 
" style="fill: none; stroke: #000000; stroke-width: 0.8; stroke-linecap: square"/>
    </g>
    <g id="text_2">
     <!-- 0 -->
     <g transform="translate(150.962398 484.496008) scale(0.1 -0.1)">
      <defs>
       <path id="DejaVuSans-30" d="M 2034 4250 
Q 1547 4250 1301 3770 
Q 1056 3291 1056 2328 
Q 1056 1369 1301 889 
Q 1547 409 2034 409 
Q 2525 409 2770 889 
Q 3016 1369 3016 2328 
Q 3016 3291 2770 3770 
Q 2525 4250 2034 4250 
z
M 2034 4750 
Q 2819 4750 3233 4129 
Q 3647 3509 3647 2328 
Q 3647 1150 3233 529 
Q 2819 -91 2034 -91 
Q 1250 -91 836 529 
Q 422 1150 422 2328 
Q 422 3509 836 4129 
Q 1250 4750 2034 4750 
z
" transform="scale(0.015625)"/>
      </defs>
      <use xlink:href="#DejaVuSans-30"/>
     </g>
    </g>
   </g>
   <g id="xtick_3">
    <g id="line2d_4">
     <path d="M 187.697463 481.771888 
L 179.82251 483.134909 
" style="fill: none; stroke: #000000; stroke-width: 0.8; stroke-linecap: square"/>
    </g>
    <g id="text_3">
     <!-- 1 -->
     <g transform="translate(169.051253 501.823614) scale(0.1 -0.1)">
      <use xlink:href="#DejaVuSans-31"/>
     </g>
    </g>
   </g>
   <g id="xtick_4">
    <g id="line2d_5">
     <path d="M 206.515948 499.403185 
L 198.548113 500.806029 
" style="fill: none; stroke: #000000; stroke-width: 0.8; stroke-linecap: square"/>
    </g>
    <g id="text_4">
     <!-- 2 -->
     <g transform="translate(187.665043 519.654064) scale(0.1 -0.1)">
      <defs>
       <path id="DejaVuSans-32" d="M 1228 531 
L 3431 531 
L 3431 0 
L 469 0 
L 469 531 
Q 828 903 1448 1529 
Q 2069 2156 2228 2338 
Q 2531 2678 2651 2914 
Q 2772 3150 2772 3378 
Q 2772 3750 2511 3984 
Q 2250 4219 1831 4219 
Q 1534 4219 1204 4116 
Q 875 4013 500 3803 
L 500 4441 
Q 881 4594 1212 4672 
Q 1544 4750 1819 4750 
Q 2544 4750 2975 4387 
Q 3406 4025 3406 3419 
Q 3406 3131 3298 2873 
Q 3191 2616 2906 2266 
Q 2828 2175 2409 1742 
Q 1991 1309 1228 531 
z
" transform="scale(0.015625)"/>
      </defs>
      <use xlink:href="#DejaVuSans-32"/>
     </g>
    </g>
   </g>
   <g id="xtick_5">
    <g id="line2d_6">
     <path d="M 225.887995 517.553121 
L 217.825182 518.997558 
" style="fill: none; stroke: #000000; stroke-width: 0.8; stroke-linecap: square"/>
    </g>
    <g id="text_5">
     <!-- 3 -->
     <g transform="translate(206.826954 538.009568) scale(0.1 -0.1)">
      <defs>
       <path id="DejaVuSans-33" d="M 2597 2516 
Q 3050 2419 3304 2112 
Q 3559 1806 3559 1356 
Q 3559 666 3084 287 
Q 2609 -91 1734 -91 
Q 1441 -91 1130 -33 
Q 819 25 488 141 
L 488 750 
Q 750 597 1062 519 
Q 1375 441 1716 441 
Q 2309 441 2620 675 
Q 2931 909 2931 1356 
Q 2931 1769 2642 2001 
Q 2353 2234 1838 2234 
L 1294 2234 
L 1294 2753 
L 1863 2753 
Q 2328 2753 2575 2939 
Q 2822 3125 2822 3475 
Q 2822 3834 2567 4026 
Q 2313 4219 1838 4219 
Q 1578 4219 1281 4162 
Q 984 4106 628 3988 
L 628 4550 
Q 988 4650 1302 4700 
Q 1616 4750 1894 4750 
Q 2613 4750 3031 4423 
Q 3450 4097 3450 3541 
Q 3450 3153 3228 2886 
Q 3006 2619 2597 2516 
z
" transform="scale(0.015625)"/>
      </defs>
      <use xlink:href="#DejaVuSans-33"/>
     </g>
    </g>
   </g>
   <g id="xtick_6">
    <g id="line2d_7">
     <path d="M 245.838393 536.244923 
L 237.678439 537.732831 
" style="fill: none; stroke: #000000; stroke-width: 0.8; stroke-linecap: square"/>
    </g>
    <g id="text_6">
     <!-- 4 -->
     <g transform="translate(226.56156 556.913666) scale(0.1 -0.1)">
      <defs>
       <path id="DejaVuSans-34" d="M 2419 4116 
L 825 1625 
L 2419 1625 
L 2419 4116 
z
M 2253 4666 
L 3047 4666 
L 3047 1625 
L 3713 1625 
L 3713 1100 
L 3047 1100 
L 3047 0 
L 2419 0 
L 2419 1100 
L 313 1100 
L 313 1709 
L 2253 4666 
z
" transform="scale(0.015625)"/>
      </defs>
      <use xlink:href="#DejaVuSans-34"/>
     </g>
    </g>
   </g>
   <g id="xtick_7">
    <g id="line2d_8">
     <path d="M 266.393435 555.503223 
L 258.134111 557.036595 
" style="fill: none; stroke: #000000; stroke-width: 0.8; stroke-linecap: square"/>
    </g>
    <g id="text_7">
     <!-- 5 -->
     <g transform="translate(246.894924 576.391323) scale(0.1 -0.1)">
      <defs>
       <path id="DejaVuSans-35" d="M 691 4666 
L 3169 4666 
L 3169 4134 
L 1269 4134 
L 1269 2991 
Q 1406 3038 1543 3061 
Q 1681 3084 1819 3084 
Q 2600 3084 3056 2656 
Q 3513 2228 3513 1497 
Q 3513 744 3044 326 
Q 2575 -91 1722 -91 
Q 1428 -91 1123 -41 
Q 819 9 494 109 
L 494 744 
Q 775 591 1075 516 
Q 1375 441 1709 441 
Q 2250 441 2565 725 
Q 2881 1009 2881 1497 
Q 2881 1984 2565 2268 
Q 2250 2553 1709 2553 
Q 1456 2553 1204 2497 
Q 953 2441 691 2322 
L 691 4666 
z
" transform="scale(0.015625)"/>
      </defs>
      <use xlink:href="#DejaVuSans-35"/>
     </g>
    </g>
   </g>
   <g id="xtick_8">
    <g id="line2d_9">
     <path d="M 287.581031 575.354172 
L 279.220039 576.935123 
" style="fill: none; stroke: #000000; stroke-width: 0.8; stroke-linecap: square"/>
    </g>
    <g id="text_8">
     <!-- 6 -->
     <g transform="translate(267.854715 596.469045) scale(0.1 -0.1)">
      <defs>
       <path id="DejaVuSans-36" d="M 2113 2584 
Q 1688 2584 1439 2293 
Q 1191 2003 1191 1497 
Q 1191 994 1439 701 
Q 1688 409 2113 409 
Q 2538 409 2786 701 
Q 3034 994 3034 1497 
Q 3034 2003 2786 2293 
Q 2538 2584 2113 2584 
z
M 3366 4563 
L 3366 3988 
Q 3128 4100 2886 4159 
Q 2644 4219 2406 4219 
Q 1781 4219 1451 3797 
Q 1122 3375 1075 2522 
Q 1259 2794 1537 2939 
Q 1816 3084 2150 3084 
Q 2853 3084 3261 2657 
Q 3669 2231 3669 1497 
Q 3669 778 3244 343 
Q 2819 -91 2113 -91 
Q 1303 -91 875 529 
Q 447 1150 447 2328 
Q 447 3434 972 4092 
Q 1497 4750 2381 4750 
Q 2619 4750 2861 4703 
Q 3103 4656 3366 4563 
z
" transform="scale(0.015625)"/>
      </defs>
      <use xlink:href="#DejaVuSans-36"/>
     </g>
    </g>
   </g>
   <g id="text_9">
    <!-- X -->
    <g transform="translate(181.526309 538.362783) scale(0.1 -0.1)">
     <defs>
      <path id="DejaVuSans-58" d="M 403 4666 
L 1081 4666 
L 2241 2931 
L 3406 4666 
L 4084 4666 
L 2584 2425 
L 4184 0 
L 3506 0 
L 2194 1984 
L 872 0 
L 191 0 
L 1856 2491 
L 403 4666 
z
" transform="scale(0.015625)"/>
     </defs>
     <use xlink:href="#DejaVuSans-58"/>
    </g>
   </g>
  </g>
  <g id="axis3d_2">
   <g id="line2d_10">
    <path d="M 616.370772 513.184454 
L 284.796274 575.880732 
" style="fill: none; stroke: #000000; stroke-width: 0.8; stroke-linecap: square"/>
   </g>
   <g id="xtick_9">
    <g id="line2d_11">
     <path d="M 283.594464 574.752039 
L 287.20612 578.143965 
" style="fill: none; stroke: #000000; stroke-width: 0.8; stroke-linecap: square"/>
    </g>
    <g id="text_10">
     <!-- −1 -->
     <g transform="translate(283.550263 599.509333) scale(0.1 -0.1)">
      <use xlink:href="#DejaVuSans-2212"/>
      <use xlink:href="#DejaVuSans-31" transform="translate(83.789062 0)"/>
     </g>
    </g>
   </g>
   <g id="xtick_10">
    <g id="line2d_12">
     <path d="M 332.954034 565.428464 
L 336.666859 568.772194 
" style="fill: none; stroke: #000000; stroke-width: 0.8; stroke-linecap: square"/>
    </g>
    <g id="text_11">
     <!-- 0 -->
     <g transform="translate(337.23708 590.027258) scale(0.1 -0.1)">
      <use xlink:href="#DejaVuSans-30"/>
     </g>
    </g>
   </g>
   <g id="xtick_11">
    <g id="line2d_13">
     <path d="M 381.61563 556.236729 
L 385.426408 559.533285 
" style="fill: none; stroke: #000000; stroke-width: 0.8; stroke-linecap: square"/>
    </g>
    <g id="text_12">
     <!-- 1 -->
     <g transform="translate(386.031465 580.679778) scale(0.1 -0.1)">
      <use xlink:href="#DejaVuSans-31"/>
     </g>
    </g>
   </g>
   <g id="xtick_12">
    <g id="line2d_14">
     <path d="M 429.593955 547.174058 
L 433.499574 550.42443 
" style="fill: none; stroke: #000000; stroke-width: 0.8; stroke-linecap: square"/>
    </g>
    <g id="text_13">
     <!-- 2 -->
     <g transform="translate(434.138117 571.464046) scale(0.1 -0.1)">
      <use xlink:href="#DejaVuSans-32"/>
     </g>
    </g>
   </g>
   <g id="xtick_13">
    <g id="line2d_15">
     <path d="M 476.903298 538.237752 
L 480.900748 541.442904 
" style="fill: none; stroke: #000000; stroke-width: 0.8; stroke-linecap: square"/>
    </g>
    <g id="text_14">
     <!-- 3 -->
     <g transform="translate(481.571473 562.377296) scale(0.1 -0.1)">
      <use xlink:href="#DejaVuSans-33"/>
     </g>
    </g>
   </g>
   <g id="xtick_14">
    <g id="line2d_16">
     <path d="M 523.557554 529.425186 
L 527.643922 532.586055 
" style="fill: none; stroke: #000000; stroke-width: 0.8; stroke-linecap: square"/>
    </g>
    <g id="text_15">
     <!-- 4 -->
     <g transform="translate(528.34557 553.41684) scale(0.1 -0.1)">
      <use xlink:href="#DejaVuSans-34"/>
     </g>
    </g>
   </g>
   <g id="xtick_15">
    <g id="line2d_17">
     <path d="M 569.570236 520.733807 
L 573.742703 523.851304 
" style="fill: none; stroke: #000000; stroke-width: 0.8; stroke-linecap: square"/>
    </g>
    <g id="text_16">
     <!-- 5 -->
     <g transform="translate(574.474057 544.580062) scale(0.1 -0.1)">
      <use xlink:href="#DejaVuSans-35"/>
     </g>
    </g>
   </g>
   <g id="xtick_16">
    <g id="line2d_18">
     <path d="M 614.954489 512.161133 
L 619.210326 515.236145 
" style="fill: none; stroke: #000000; stroke-width: 0.8; stroke-linecap: square"/>
    </g>
    <g id="text_17">
     <!-- 6 -->
     <g transform="translate(619.970211 535.86442) scale(0.1 -0.1)">
      <use xlink:href="#DejaVuSans-36"/>
     </g>
    </g>
   </g>
   <g id="text_18">
    <!-- Y -->
    <g transform="translate(465.712624 580.427304) scale(0.1 -0.1)">
     <defs>
      <path id="DejaVuSans-59" d="M -13 4666 
L 666 4666 
L 1959 2747 
L 3244 4666 
L 3922 4666 
L 2272 2222 
L 2272 0 
L 1638 0 
L 1638 2222 
L -13 4666 
z
" transform="scale(0.015625)"/>
     </defs>
     <use xlink:href="#DejaVuSans-59"/>
    </g>
   </g>
  </g>
  <g id="axis3d_3">
   <g id="line2d_19">
    <path d="M 616.370772 513.184454 
L 624.019811 255.650156 
" style="fill: none; stroke: #000000; stroke-width: 0.8; stroke-linecap: square"/>
   </g>
   <g id="xtick_17">
    <g id="line2d_20">
     <path d="M 614.954489 512.161133 
L 619.210326 515.236145 
" style="fill: none; stroke: #000000; stroke-width: 0.8; stroke-linecap: square"/>
    </g>
    <g id="text_19">
     <!-- 0 -->
     <g transform="translate(632.862766 523.509944) scale(0.1 -0.1)">
      <use xlink:href="#DejaVuSans-30"/>
     </g>
    </g>
   </g>
   <g id="xtick_18">
    <g id="line2d_21">
     <path d="M 616.18798 470.378958 
L 620.468944 473.366332 
" style="fill: none; stroke: #000000; stroke-width: 0.8; stroke-linecap: square"/>
    </g>
    <g id="text_20">
     <!-- 1 -->
     <g transform="translate(634.209406 481.620893) scale(0.1 -0.1)">
      <use xlink:href="#DejaVuSans-31"/>
     </g>
    </g>
   </g>
   <g id="xtick_19">
    <g id="line2d_22">
     <path d="M 617.434298 428.162284 
L 621.740683 431.060023 
" style="fill: none; stroke: #000000; stroke-width: 0.8; stroke-linecap: square"/>
    </g>
    <g id="text_21">
     <!-- 2 -->
     <g transform="translate(635.570093 439.294907) scale(0.1 -0.1)">
      <use xlink:href="#DejaVuSans-32"/>
     </g>
    </g>
   </g>
   <g id="xtick_20">
    <g id="line2d_23">
     <path d="M 618.693645 385.504298 
L 623.025749 388.310357 
" style="fill: none; stroke: #000000; stroke-width: 0.8; stroke-linecap: square"/>
    </g>
    <g id="text_22">
     <!-- 3 -->
     <g transform="translate(636.945046 396.525114) scale(0.1 -0.1)">
      <use xlink:href="#DejaVuSans-33"/>
     </g>
    </g>
   </g>
   <g id="xtick_21">
    <g id="line2d_24">
     <path d="M 619.966226 342.398043 
L 624.324354 345.110327 
" style="fill: none; stroke: #000000; stroke-width: 0.8; stroke-linecap: square"/>
    </g>
    <g id="text_23">
     <!-- 4 -->
     <g transform="translate(638.334493 353.304498) scale(0.1 -0.1)">
      <use xlink:href="#DejaVuSans-34"/>
     </g>
    </g>
   </g>
   <g id="xtick_22">
    <g id="line2d_25">
     <path d="M 621.25225 298.836416 
L 625.636711 301.45278 
" style="fill: none; stroke: #000000; stroke-width: 0.8; stroke-linecap: square"/>
    </g>
    <g id="text_24">
     <!-- 5 -->
     <g transform="translate(639.738664 309.625891) scale(0.1 -0.1)">
      <use xlink:href="#DejaVuSans-35"/>
     </g>
    </g>
   </g>
   <g id="xtick_23">
    <g id="line2d_26">
     <path d="M 622.551931 254.812163 
L 626.963042 257.330408 
" style="fill: none; stroke: #000000; stroke-width: 0.8; stroke-linecap: square"/>
    </g>
    <g id="text_25">
     <!-- 6 -->
     <g transform="translate(641.157793 265.481977) scale(0.1 -0.1)">
      <use xlink:href="#DejaVuSans-36"/>
     </g>
    </g>
   </g>
   <g id="text_26">
    <!-- Z -->
    <g transform="translate(660.282566 394.62157) scale(0.1 -0.1)">
     <defs>
      <path id="DejaVuSans-5a" d="M 359 4666 
L 4025 4666 
L 4025 4184 
L 1075 531 
L 4097 531 
L 4097 0 
L 288 0 
L 288 481 
L 3238 4134 
L 359 4134 
L 359 4666 
z
" transform="scale(0.015625)"/>
     </defs>
     <use xlink:href="#DejaVuSans-5a"/>
    </g>
   </g>
  </g>
  <g id="axes_1">
   <g id="line2d_27">
    <path d="M 194.559208 440.791564 
L 334.189524 566.541133 
" clip-path="url(#p3a63ee253e)" style="fill: none; stroke-dasharray: 5.55,2.4; stroke-dashoffset: 0; stroke: #000000; stroke-opacity: 0.3; stroke-width: 1.5"/>
   </g>
   <g id="line2d_28">
    <path d="M 212.830885 457.246841 
L 432.066436 502.287595 
" clip-path="url(#p3a63ee253e)" style="fill: none; stroke-dasharray: 6,9.9; stroke-dashoffset: 0; stroke: #0000ff; stroke-width: 6"/>
   </g>
   <g id="line2d_29">
    <path d="M 432.066436 502.287595 
L 433.522223 290.437855 
" clip-path="url(#p3a63ee253e)" style="fill: none; stroke-dasharray: 1.5,2.475; stroke-dashoffset: 0; stroke: #000000; stroke-opacity: 0.4; stroke-width: 1.5"/>
   </g>
   <g id="line2d_30">
    <path d="M 291.336977 527.948587 
L 432.066436 502.287595 
" clip-path="url(#p3a63ee253e)" style="fill: none; stroke-dasharray: 1.5,2.475; stroke-dashoffset: 0; stroke: #000000; stroke-opacity: 0.4; stroke-width: 1.5"/>
   </g>
   <g id="Line3DCollection_4">
    <path d="M 450.323267 506.038362 
L 427.519463 501.353444 
" clip-path="url(#p3a63ee253e)" style="fill: none; stroke: #0000ff; stroke-width: 6"/>
    <path d="M 450.323267 506.038362 
L 439.267569 506.444679 
" clip-path="url(#p3a63ee253e)" style="fill: none; stroke: #0000ff; stroke-width: 6"/>
    <path d="M 450.323267 506.038362 
L 439.309106 501.09614 
" clip-path="url(#p3a63ee253e)" style="fill: none; stroke: #0000ff; stroke-width: 6"/>
   </g>
   <g id="text_27">
    <!-- $\text{Col}(P_1)$ -->
    <g style="fill: #0000ff" transform="translate(616.370772 513.184454) scale(0.1 -0.1)">
     <defs>
      <path id="DejaVuSans-43" d="M 4122 4306 
L 4122 3641 
Q 3803 3938 3442 4084 
Q 3081 4231 2675 4231 
Q 1875 4231 1450 3742 
Q 1025 3253 1025 2328 
Q 1025 1406 1450 917 
Q 1875 428 2675 428 
Q 3081 428 3442 575 
Q 3803 722 4122 1019 
L 4122 359 
Q 3791 134 3420 21 
Q 3050 -91 2638 -91 
Q 1578 -91 968 557 
Q 359 1206 359 2328 
Q 359 3453 968 4101 
Q 1578 4750 2638 4750 
Q 3056 4750 3426 4639 
Q 3797 4528 4122 4306 
z
" transform="scale(0.015625)"/>
      <path id="DejaVuSans-6f" d="M 1959 3097 
Q 1497 3097 1228 2736 
Q 959 2375 959 1747 
Q 959 1119 1226 758 
Q 1494 397 1959 397 
Q 2419 397 2687 759 
Q 2956 1122 2956 1747 
Q 2956 2369 2687 2733 
Q 2419 3097 1959 3097 
z
M 1959 3584 
Q 2709 3584 3137 3096 
Q 3566 2609 3566 1747 
Q 3566 888 3137 398 
Q 2709 -91 1959 -91 
Q 1206 -91 779 398 
Q 353 888 353 1747 
Q 353 2609 779 3096 
Q 1206 3584 1959 3584 
z
" transform="scale(0.015625)"/>
      <path id="DejaVuSans-6c" d="M 603 4863 
L 1178 4863 
L 1178 0 
L 603 0 
L 603 4863 
z
" transform="scale(0.015625)"/>
      <path id="DejaVuSans-28" d="M 1984 4856 
Q 1566 4138 1362 3434 
Q 1159 2731 1159 2009 
Q 1159 1288 1364 580 
Q 1569 -128 1984 -844 
L 1484 -844 
Q 1016 -109 783 600 
Q 550 1309 550 2009 
Q 550 2706 781 3412 
Q 1013 4119 1484 4856 
L 1984 4856 
z
" transform="scale(0.015625)"/>
      <path id="DejaVuSans-Oblique-50" d="M 1081 4666 
L 2541 4666 
Q 3178 4666 3512 4369 
Q 3847 4072 3847 3500 
Q 3847 2731 3353 2303 
Q 2859 1875 1966 1875 
L 1172 1875 
L 806 0 
L 172 0 
L 1081 4666 
z
M 1613 4147 
L 1275 2394 
L 2069 2394 
Q 2606 2394 2893 2669 
Q 3181 2944 3181 3456 
Q 3181 3784 2986 3965 
Q 2791 4147 2438 4147 
L 1613 4147 
z
" transform="scale(0.015625)"/>
      <path id="DejaVuSans-29" d="M 513 4856 
L 1013 4856 
Q 1481 4119 1714 3412 
Q 1947 2706 1947 2009 
Q 1947 1309 1714 600 
Q 1481 -109 1013 -844 
L 513 -844 
Q 928 -128 1133 580 
Q 1338 1288 1338 2009 
Q 1338 2731 1133 3434 
Q 928 4138 513 4856 
z
" transform="scale(0.015625)"/>
     </defs>
     <use xlink:href="#DejaVuSans-43" transform="translate(0 0.015625)"/>
     <use xlink:href="#DejaVuSans-6f" transform="translate(69.824219 0.015625)"/>
     <use xlink:href="#DejaVuSans-6c" transform="translate(131.005859 0.015625)"/>
     <use xlink:href="#DejaVuSans-28" transform="translate(158.789062 0.015625)"/>
     <use xlink:href="#DejaVuSans-Oblique-50" transform="translate(197.802734 0.015625)"/>
     <use xlink:href="#DejaVuSans-31" transform="translate(258.105469 -16.390625) scale(0.7)"/>
     <use xlink:href="#DejaVuSans-29" transform="translate(305.375977 0.015625)"/>
    </g>
   </g>
   <g id="text_28">
    <!-- $\text{Col}(P_0)$ -->
    <g transform="translate(334.189524 566.541133) scale(0.1 -0.1)">
     <use xlink:href="#DejaVuSans-43" transform="translate(0 0.015625)"/>
     <use xlink:href="#DejaVuSans-6f" transform="translate(69.824219 0.015625)"/>
     <use xlink:href="#DejaVuSans-6c" transform="translate(131.005859 0.015625)"/>
     <use xlink:href="#DejaVuSans-28" transform="translate(158.789062 0.015625)"/>
     <use xlink:href="#DejaVuSans-Oblique-50" transform="translate(197.802734 0.015625)"/>
     <use xlink:href="#DejaVuSans-30" transform="translate(258.105469 -16.390625) scale(0.7)"/>
     <use xlink:href="#DejaVuSans-29" transform="translate(305.375977 0.015625)"/>
    </g>
   </g>
   <g id="text_29">
    <!-- $\hat{y}_0$ -->
    <g style="fill: #008000" transform="translate(213.331133 498.20328) scale(0.14 -0.14)">
     <defs>
      <path id="DejaVuSans-302" d="M -1831 5119 
L -1369 5119 
L -603 3944 
L -1038 3944 
L -1600 4709 
L -2163 3944 
L -2597 3944 
L -1831 5119 
z
M -1600 3584 
L -1600 3584 
z
" transform="scale(0.015625)"/>
      <path id="DejaVuSans-Oblique-79" d="M 1588 -325 
Q 1188 -997 936 -1164 
Q 684 -1331 294 -1331 
L -159 -1331 
L -63 -850 
L 269 -850 
Q 509 -850 678 -719 
Q 847 -588 1056 -206 
L 1234 128 
L 459 3500 
L 1069 3500 
L 1650 819 
L 3256 3500 
L 3859 3500 
L 1588 -325 
z
" transform="scale(0.015625)"/>
     </defs>
     <use xlink:href="#DejaVuSans-302" transform="translate(62.373047 12.015625)"/>
     <use xlink:href="#DejaVuSans-Oblique-79" transform="translate(0 0.828125)"/>
     <use xlink:href="#DejaVuSans-30" transform="translate(60.136719 -15.578125) scale(0.7)"/>
    </g>
   </g>
   <g id="text_30">
    <!-- $\hat{y}_1 - \hat{y}_0$ -->
    <g style="fill: #ffa500" transform="translate(366.760983 518.665458) scale(0.14 -0.14)">
     <use xlink:href="#DejaVuSans-302" transform="translate(62.373047 12.015625)"/>
     <use xlink:href="#DejaVuSans-Oblique-79" transform="translate(0 0.828125)"/>
     <use xlink:href="#DejaVuSans-31" transform="translate(60.136719 -15.578125) scale(0.7)"/>
     <use xlink:href="#DejaVuSans-2212" transform="translate(126.889648 0.828125)"/>
     <use xlink:href="#DejaVuSans-302" transform="translate(292.53418 12.015625)"/>
     <use xlink:href="#DejaVuSans-Oblique-79" transform="translate(230.161133 0.828125)"/>
     <use xlink:href="#DejaVuSans-30" transform="translate(290.297852 -15.578125) scale(0.7)"/>
    </g>
   </g>
   <g id="text_31">
    <!-- $y - \hat{y}_1$ -->
    <g style="fill: #ff0000" transform="translate(437.340958 401.074834) scale(0.14 -0.14)">
     <use xlink:href="#DejaVuSans-Oblique-79" transform="translate(0 0.828125)"/>
     <use xlink:href="#DejaVuSans-2212" transform="translate(78.662109 0.828125)"/>
     <use xlink:href="#DejaVuSans-302" transform="translate(244.306641 12.015625)"/>
     <use xlink:href="#DejaVuSans-Oblique-79" transform="translate(181.933594 0.828125)"/>
     <use xlink:href="#DejaVuSans-31" transform="translate(242.070312 -15.578125) scale(0.7)"/>
    </g>
   </g>
   <g id="text_32">
    <!-- $y - \hat{y}_0$ -->
    <g style="fill: #800080" transform="translate(364.033923 367.81477) scale(0.14 -0.14)">
     <use xlink:href="#DejaVuSans-Oblique-79" transform="translate(0 0.828125)"/>
     <use xlink:href="#DejaVuSans-2212" transform="translate(78.662109 0.828125)"/>
     <use xlink:href="#DejaVuSans-302" transform="translate(244.306641 12.015625)"/>
     <use xlink:href="#DejaVuSans-Oblique-79" transform="translate(181.933594 0.828125)"/>
     <use xlink:href="#DejaVuSans-30" transform="translate(242.070312 -15.578125) scale(0.7)"/>
    </g>
   </g>
   <g id="text_33">
    <!-- $y$ -->
    <g transform="translate(433.612 277.37337) scale(0.14 -0.14)">
     <use xlink:href="#DejaVuSans-Oblique-79" transform="translate(0 0.3125)"/>
    </g>
   </g>
   <g id="text_34">
    <!-- $\hat{y}_1$ -->
    <g style="fill: #0000ff" transform="translate(287.41557 474.747925) scale(0.14 -0.14)">
     <use xlink:href="#DejaVuSans-302" transform="translate(62.373047 12.015625)"/>
     <use xlink:href="#DejaVuSans-Oblique-79" transform="translate(0 0.828125)"/>
     <use xlink:href="#DejaVuSans-31" transform="translate(60.136719 -15.578125) scale(0.7)"/>
    </g>
   </g>
   <g id="Line3DCollection_5">
    <path d="M 291.336977 527.948587 
L 212.830885 457.246841 
" clip-path="url(#p3a63ee253e)" style="fill: none; stroke: #008000; stroke-width: 6"/>
    <path d="M 291.336977 527.948587 
L 284.979268 525.652063 
" clip-path="url(#p3a63ee253e)" style="fill: none; stroke: #008000; stroke-width: 6"/>
    <path d="M 291.336977 527.948587 
L 284.9006 518.719948 
" clip-path="url(#p3a63ee253e)" style="fill: none; stroke: #008000; stroke-width: 6"/>
   </g>
   <g id="Line3DCollection_6">
    <path d="M 432.066436 502.287595 
L 291.336977 527.948587 
" clip-path="url(#p3a63ee253e)" style="fill: none; stroke: #ffa500; stroke-width: 6"/>
    <path d="M 432.066436 502.287595 
L 421.381704 506.800572 
" clip-path="url(#p3a63ee253e)" style="fill: none; stroke: #ffa500; stroke-width: 6"/>
    <path d="M 432.066436 502.287595 
L 421.410229 501.664353 
" clip-path="url(#p3a63ee253e)" style="fill: none; stroke: #ffa500; stroke-width: 6"/>
   </g>
   <g id="Line3DCollection_7">
    <path d="M 433.522223 290.437855 
L 432.066436 502.287595 
" clip-path="url(#p3a63ee253e)" style="fill: none; stroke: #ff0000; stroke-width: 6"/>
    <path d="M 433.522223 290.437855 
L 431.032291 305.600885 
" clip-path="url(#p3a63ee253e)" style="fill: none; stroke: #ff0000; stroke-width: 6"/>
    <path d="M 433.522223 290.437855 
L 435.789066 308.810536 
" clip-path="url(#p3a63ee253e)" style="fill: none; stroke: #ff0000; stroke-width: 6"/>
   </g>
   <g id="Line3DCollection_8">
    <path d="M 433.522223 290.437855 
L 212.830885 457.246841 
" clip-path="url(#p3a63ee253e)" style="fill: none; stroke: #000000; stroke-width: 6"/>
    <path d="M 433.522223 290.437855 
L 420.228292 309.399576 
" clip-path="url(#p3a63ee253e)" style="fill: none; stroke: #000000; stroke-width: 6"/>
    <path d="M 433.522223 290.437855 
L 410.676526 298.796802 
" clip-path="url(#p3a63ee253e)" style="fill: none; stroke: #000000; stroke-width: 6"/>
   </g>
   <g id="Line3DCollection_9">
    <path d="M 433.522223 290.437855 
L 291.336977 527.948587 
" clip-path="url(#p3a63ee253e)" style="fill: none; stroke: #800080; stroke-width: 6"/>
    <path d="M 433.522223 290.437855 
L 427.348117 310.822569 
" clip-path="url(#p3a63ee253e)" style="fill: none; stroke: #800080; stroke-width: 6"/>
    <path d="M 433.522223 290.437855 
L 417.603485 306.936662 
" clip-path="url(#p3a63ee253e)" style="fill: none; stroke: #800080; stroke-width: 6"/>
   </g>
   <g id="Poly3DCollection_1">
    <path d="M 422.929051 402.558933 
L 439.028053 414.497059 
L 472.039299 408.899182 
L 455.676614 397.076487 
z
" clip-path="url(#p3a63ee253e)" style="fill: #0000c3; fill-opacity: 0.1"/>
    <path d="M 389.862658 408.094757 
L 405.692017 420.150012 
L 439.028053 414.497059 
L 422.929051 402.558933 
z
" clip-path="url(#p3a63ee253e)" style="fill: #0000c3; fill-opacity: 0.1"/>
    <path d="M 356.472753 413.684742 
L 372.026375 425.858858 
L 405.692017 420.150012 
L 389.862658 408.094757 
z
" clip-path="url(#p3a63ee253e)" style="fill: #0000c3; fill-opacity: 0.1"/>
    <path d="M 439.028053 414.497059 
L 455.468655 426.688497 
L 488.74747 420.971506 
L 472.039299 408.899182 
z
" clip-path="url(#p3a63ee253e)" style="fill: #0000c3; fill-opacity: 0.1"/>
    <path d="M 322.754566 419.329686 
L 338.026214 431.62443 
L 372.026375 425.858858 
L 356.472753 413.684742 
z
" clip-path="url(#p3a63ee253e)" style="fill: #0000c3; fill-opacity: 0.1"/>
    <path d="M 405.692017 420.150012 
L 421.858926 432.462336 
L 455.468655 426.688497 
L 439.028053 414.497059 
z
" clip-path="url(#p3a63ee253e)" style="fill: #0000c3; fill-opacity: 0.1"/>
    <path d="M 288.703233 425.030404 
L 303.686522 437.447578 
L 338.026214 431.62443 
L 322.754566 419.329686 
z
" clip-path="url(#p3a63ee253e)" style="fill: #0000c3; fill-opacity: 0.1"/>
    <path d="M 372.026375 425.858858 
L 387.913324 438.293876 
L 421.858926 432.462336 
L 405.692017 420.150012 
z
" clip-path="url(#p3a63ee253e)" style="fill: #0000c3; fill-opacity: 0.1"/>
    <path d="M 455.468655 426.688497 
L 472.261847 439.141396 
L 505.812187 433.301447 
L 488.74747 420.971506 
z
" clip-path="url(#p3a63ee253e)" style="fill: #0000c3; fill-opacity: 0.1"/>
    <path d="M 254.31379 430.787727 
L 269.002189 443.329169 
L 303.686522 437.447578 
L 288.703233 425.030404 
z
" clip-path="url(#p3a63ee253e)" style="fill: #0000c3; fill-opacity: 0.1"/>
    <path d="M 338.026214 431.62443 
L 353.626789 444.183984 
L 387.913324 438.293876 
L 372.026375 425.858858 
z
" clip-path="url(#p3a63ee253e)" style="fill: #0000c3; fill-opacity: 0.1"/>
    <path d="M 421.858926 432.462336 
L 438.374298 445.040041 
L 472.261847 439.141396 
L 455.468655 426.688497 
z
" clip-path="url(#p3a63ee253e)" style="fill: #0000c3; fill-opacity: 0.1"/>
    <path d="M 219.581177 436.602501 
L 233.968 449.270086 
L 269.002189 443.329169 
L 254.31379 430.787727 
z
" clip-path="url(#p3a63ee253e)" style="fill: #0000c3; fill-opacity: 0.1"/>
    <path d="M 303.686522 437.447578 
L 318.994157 450.133549 
L 353.626789 444.183984 
L 338.026214 431.62443 
z
" clip-path="url(#p3a63ee253e)" style="fill: #0000c3; fill-opacity: 0.1"/>
    <path d="M 387.913324 438.293876 
L 404.144431 450.998272 
L 438.374298 445.040041 
L 421.858926 432.462336 
z
" clip-path="url(#p3a63ee253e)" style="fill: #0000c3; fill-opacity: 0.1"/>
    <path d="M 472.261847 439.141396 
L 489.419094 451.864258 
L 523.244986 445.897342 
L 505.812187 433.301447 
z
" clip-path="url(#p3a63ee253e)" style="fill: #0000c3; fill-opacity: 0.1"/>
    <path d="M 184.500232 442.475592 
L 198.578634 455.271232 
L 233.968 449.270086 
L 219.581177 436.602501 
z
" clip-path="url(#p3a63ee253e)" style="fill: #0000c3; fill-opacity: 0.1"/>
    <path d="M 269.002189 443.329169 
L 284.010162 456.143474 
L 318.994157 450.133549 
L 303.686522 437.447578 
z
" clip-path="url(#p3a63ee253e)" style="fill: #0000c3; fill-opacity: 0.1"/>
    <path d="M 353.626789 444.183984 
L 369.567033 457.016996 
L 404.144431 450.998272 
L 387.913324 438.293876 
z
" clip-path="url(#p3a63ee253e)" style="fill: #0000c3; fill-opacity: 0.1"/>
    <path d="M 438.374298 445.040041 
L 455.249521 457.8918 
L 489.419094 451.864258 
L 472.261847 439.141396 
z
" clip-path="url(#p3a63ee253e)" style="fill: #0000c3; fill-opacity: 0.1"/>
    <path d="M 149.065688 448.407881 
L 162.828663 461.333528 
L 198.578634 455.271232 
L 184.500232 442.475592 
z
" clip-path="url(#p3a63ee253e)" style="fill: #0000c3; fill-opacity: 0.1"/>
    <path d="M 233.968 449.270086 
L 248.669431 462.214684 
L 284.010162 456.143474 
L 269.002189 443.329169 
z
" clip-path="url(#p3a63ee253e)" style="fill: #0000c3; fill-opacity: 0.1"/>
    <path d="M 318.994157 450.133549 
L 334.636784 463.097139 
L 369.567033 457.016996 
L 353.626789 444.183984 
z
" clip-path="url(#p3a63ee253e)" style="fill: #0000c3; fill-opacity: 0.1"/>
    <path d="M 404.144431 450.998272 
L 420.731001 463.980896 
L 455.249521 457.8918 
L 438.374298 445.040041 
z
" clip-path="url(#p3a63ee253e)" style="fill: #0000c3; fill-opacity: 0.1"/>
    <path d="M 489.419094 451.864258 
L 506.952365 464.865959 
L 541.057904 458.76789 
L 523.244986 445.897342 
z
" clip-path="url(#p3a63ee253e)" style="fill: #0000c3; fill-opacity: 0.1"/>
    <path d="M 198.578634 455.271232 
L 212.966478 468.34812 
L 248.669431 462.214684 
L 233.968 449.270086 
z
" clip-path="url(#p3a63ee253e)" style="fill: #0000c3; fill-opacity: 0.1"/>
    <path d="M 284.010162 456.143474 
L 299.348255 469.239646 
L 334.636784 463.097139 
L 318.994157 450.133549 
z
" clip-path="url(#p3a63ee253e)" style="fill: #0000c3; fill-opacity: 0.1"/>
    <path d="M 369.567033 457.016996 
L 385.858163 470.132495 
L 420.731001 463.980896 
L 404.144431 450.998272 
z
" clip-path="url(#p3a63ee253e)" style="fill: #0000c3; fill-opacity: 0.1"/>
    <path d="M 455.249521 457.8918 
L 472.496486 471.026669 
L 506.952365 464.865959 
L 489.419094 451.864258 
z
" clip-path="url(#p3a63ee253e)" style="fill: #0000c3; fill-opacity: 0.1"/>
    <path d="M 162.828663 461.333528 
L 176.895705 474.544743 
L 212.966478 468.34812 
L 198.578634 455.271232 
z
" clip-path="url(#p3a63ee253e)" style="fill: #0000c3; fill-opacity: 0.1"/>
    <path d="M 248.669431 462.214684 
L 263.695905 475.445482 
L 299.348255 469.239646 
L 284.010162 456.143474 
z
" clip-path="url(#p3a63ee253e)" style="fill: #0000c3; fill-opacity: 0.1"/>
    <path d="M 334.636784 463.097139 
L 350.625521 476.347563 
L 385.858163 470.132495 
L 369.567033 457.016996 
z
" clip-path="url(#p3a63ee253e)" style="fill: #0000c3; fill-opacity: 0.1"/>
    <path d="M 420.731001 463.980896 
L 437.684842 477.25099 
L 472.496486 471.026669 
L 455.249521 457.8918 
z
" clip-path="url(#p3a63ee253e)" style="fill: #0000c3; fill-opacity: 0.1"/>
    <path d="M 506.952365 464.865959 
L 524.874158 478.155766 
L 559.263512 471.922171 
L 541.057904 458.76789 
z
" clip-path="url(#p3a63ee253e)" style="fill: #0000c3; fill-opacity: 0.1"/>
    <path d="M 212.966478 468.34812 
L 227.67408 481.71563 
L 263.695905 475.445482 
L 248.669431 462.214684 
z
" clip-path="url(#p3a63ee253e)" style="fill: #0000c3; fill-opacity: 0.1"/>
    <path d="M 299.348255 469.239646 
L 315.027479 482.627087 
L 350.625521 476.347563 
L 334.636784 463.097139 
z
" clip-path="url(#p3a63ee253e)" style="fill: #0000c3; fill-opacity: 0.1"/>
    <path d="M 385.858163 470.132495 
L 402.511892 483.539912 
L 437.684842 477.25099 
L 420.731001 463.980896 
z
" clip-path="url(#p3a63ee253e)" style="fill: #0000c3; fill-opacity: 0.1"/>
    <path d="M 472.496486 471.026669 
L 490.127614 484.454106 
L 524.874158 478.155766 
L 506.952365 464.865959 
z
" clip-path="url(#p3a63ee253e)" style="fill: #0000c3; fill-opacity: 0.1"/>
    <path d="M 176.895705 474.544743 
L 191.277004 488.051096 
L 227.67408 481.71563 
L 212.966478 468.34812 
z
" clip-path="url(#p3a63ee253e)" style="fill: #0000c3; fill-opacity: 0.1"/>
    <path d="M 263.695905 475.445482 
L 279.058323 488.972077 
L 315.027479 482.627087 
L 299.348255 469.239646 
z
" clip-path="url(#p3a63ee253e)" style="fill: #0000c3; fill-opacity: 0.1"/>
    <path d="M 350.625521 476.347563 
L 366.971984 489.894446 
L 402.511892 483.539912 
L 385.858163 470.132495 
z
" clip-path="url(#p3a63ee253e)" style="fill: #0000c3; fill-opacity: 0.1"/>
    <path d="M 437.684842 477.25099 
L 455.018286 490.818207 
L 490.127614 484.454106 
L 472.496486 471.026669 
z
" clip-path="url(#p3a63ee253e)" style="fill: #0000c3; fill-opacity: 0.1"/>
    <path d="M 524.874158 478.155766 
L 543.197532 491.743362 
L 577.874941 485.369674 
L 559.263512 471.922171 
z
" clip-path="url(#p3a63ee253e)" style="fill: #0000c3; fill-opacity: 0.1"/>
    <path d="M 227.67408 481.71563 
L 242.712219 495.383561 
L 279.058323 488.972077 
L 263.695905 475.445482 
z
" clip-path="url(#p3a63ee253e)" style="fill: #0000c3; fill-opacity: 0.1"/>
    <path d="M 315.027479 482.627087 
L 331.059343 496.315625 
L 366.971984 489.894446 
L 350.625521 476.347563 
z
" clip-path="url(#p3a63ee253e)" style="fill: #0000c3; fill-opacity: 0.1"/>
    <path d="M 402.511892 483.539912 
L 419.540463 497.249103 
L 455.018286 490.818207 
L 437.684842 477.25099 
z
" clip-path="url(#p3a63ee253e)" style="fill: #0000c3; fill-opacity: 0.1"/>
    <path d="M 490.127614 484.454106 
L 508.155884 498.183998 
L 543.197532 491.743362 
L 524.874158 478.155766 
z
" clip-path="url(#p3a63ee253e)" style="fill: #0000c3; fill-opacity: 0.1"/>
    <path d="M 191.277004 488.051096 
L 205.98321 501.862589 
L 242.712219 495.383561 
L 227.67408 481.71563 
z
" clip-path="url(#p3a63ee253e)" style="fill: #0000c3; fill-opacity: 0.1"/>
    <path d="M 279.058323 488.972077 
L 294.768077 502.804502 
L 331.059343 496.315625 
L 315.027479 482.627087 
z
" clip-path="url(#p3a63ee253e)" style="fill: #0000c3; fill-opacity: 0.1"/>
    <path d="M 366.971984 489.894446 
L 383.688313 503.747851 
L 419.540463 497.249103 
L 402.511892 483.539912 
z
" clip-path="url(#p3a63ee253e)" style="fill: #0000c3; fill-opacity: 0.1"/>
    <path d="M 455.018286 490.818207 
L 472.74423 504.69264 
L 508.155884 498.183998 
L 490.127614 484.454106 
z
" clip-path="url(#p3a63ee253e)" style="fill: #0000c3; fill-opacity: 0.1"/>
    <path d="M 543.197532 491.743362 
L 561.936136 505.638871 
L 596.905912 499.120313 
L 577.874941 485.369674 
z
" clip-path="url(#p3a63ee253e)" style="fill: #0000c3; fill-opacity: 0.1"/>
    <path d="M 242.712219 495.383561 
L 258.092165 509.362154 
L 294.768077 502.804502 
L 279.058323 488.972077 
z
" clip-path="url(#p3a63ee253e)" style="fill: #0000c3; fill-opacity: 0.1"/>
    <path d="M 331.059343 496.315625 
L 347.45588 510.315532 
L 383.688313 503.747851 
L 366.971984 489.894446 
z
" clip-path="url(#p3a63ee253e)" style="fill: #0000c3; fill-opacity: 0.1"/>
    <path d="M 419.540463 497.249103 
L 436.956676 511.270372 
L 472.74423 504.69264 
L 455.018286 490.818207 
z
" clip-path="url(#p3a63ee253e)" style="fill: #0000c3; fill-opacity: 0.1"/>
    <path d="M 508.155884 498.183998 
L 526.594868 512.226679 
L 561.936136 505.638871 
L 543.197532 491.743362 
z
" clip-path="url(#p3a63ee253e)" style="fill: #0000c3; fill-opacity: 0.1"/>
    <path d="M 205.98321 501.862589 
L 221.025459 515.98968 
L 258.092165 509.362154 
L 242.712219 495.383561 
z
" clip-path="url(#p3a63ee253e)" style="fill: #0000c3; fill-opacity: 0.1"/>
    <path d="M 294.768077 502.804502 
L 310.837082 516.953247 
L 347.45588 510.315532 
L 331.059343 496.315625 
z
" clip-path="url(#p3a63ee253e)" style="fill: #0000c3; fill-opacity: 0.1"/>
    <path d="M 383.688313 503.747851 
L 400.787207 517.918301 
L 436.956676 511.270372 
L 419.540463 497.249103 
z
" clip-path="url(#p3a63ee253e)" style="fill: #0000c3; fill-opacity: 0.1"/>
    <path d="M 472.74423 504.69264 
L 490.876156 518.884844 
L 526.594868 512.226679 
L 508.155884 498.183998 
z
" clip-path="url(#p3a63ee253e)" style="fill: #0000c3; fill-opacity: 0.1"/>
    <path d="M 561.936136 505.638871 
L 581.104249 519.852879 
L 616.370772 513.184454 
L 596.905912 499.120313 
z
" clip-path="url(#p3a63ee253e)" style="fill: #0000c3; fill-opacity: 0.1"/>
    <path d="M 258.092165 509.362154 
L 273.825704 523.662123 
L 310.837082 516.953247 
L 294.768077 502.804502 
z
" clip-path="url(#p3a63ee253e)" style="fill: #0000c3; fill-opacity: 0.1"/>
    <path d="M 347.45588 510.315532 
L 364.229676 524.637555 
L 400.787207 517.918301 
L 383.688313 503.747851 
z
" clip-path="url(#p3a63ee253e)" style="fill: #0000c3; fill-opacity: 0.1"/>
    <path d="M 436.956676 511.270372 
L 454.77392 525.6145 
L 490.876156 518.884844 
L 472.74423 504.69264 
z
" clip-path="url(#p3a63ee253e)" style="fill: #0000c3; fill-opacity: 0.1"/>
    <path d="M 526.594868 512.226679 
L 545.458763 526.592961 
L 581.104249 519.852879 
L 561.936136 505.638871 
z
" clip-path="url(#p3a63ee253e)" style="fill: #0000c3; fill-opacity: 0.1"/>
    <path d="M 221.025459 515.98968 
L 236.415401 530.443311 
L 273.825704 523.662123 
L 258.092165 509.362154 
z
" clip-path="url(#p3a63ee253e)" style="fill: #0000c3; fill-opacity: 0.1"/>
    <path d="M 310.837082 516.953247 
L 327.277803 531.429288 
L 364.229676 524.637555 
L 347.45588 510.315532 
z
" clip-path="url(#p3a63ee253e)" style="fill: #0000c3; fill-opacity: 0.1"/>
    <path d="M 400.787207 517.918301 
L 418.28195 532.416804 
L 454.77392 525.6145 
L 436.956676 511.270372 
z
" clip-path="url(#p3a63ee253e)" style="fill: #0000c3; fill-opacity: 0.1"/>
    <path d="M 490.876156 518.884844 
L 509.428174 533.405861 
L 545.458763 526.592961 
L 526.594868 512.226679 
z
" clip-path="url(#p3a63ee253e)" style="fill: #0000c3; fill-opacity: 0.1"/>
    <path d="M 273.825704 523.662123 
L 289.925174 538.294681 
L 327.277803 531.429288 
L 310.837082 516.953247 
z
" clip-path="url(#p3a63ee253e)" style="fill: #0000c3; fill-opacity: 0.1"/>
    <path d="M 364.229676 524.637555 
L 381.393901 539.29294 
L 418.28195 532.416804 
L 400.787207 517.918301 
z
" clip-path="url(#p3a63ee253e)" style="fill: #0000c3; fill-opacity: 0.1"/>
    <path d="M 454.77392 525.6145 
L 473.006206 540.292765 
L 509.428174 533.405861 
L 490.876156 518.884844 
z
" clip-path="url(#p3a63ee253e)" style="fill: #0000c3; fill-opacity: 0.1"/>
    <path d="M 236.415401 530.443311 
L 252.165234 545.234937 
L 289.925174 538.294681 
L 273.825704 523.662123 
z
" clip-path="url(#p3a63ee253e)" style="fill: #0000c3; fill-opacity: 0.1"/>
    <path d="M 327.277803 531.429288 
L 344.10329 546.244115 
L 381.393901 539.29294 
L 364.229676 524.637555 
z
" clip-path="url(#p3a63ee253e)" style="fill: #0000c3; fill-opacity: 0.1"/>
    <path d="M 418.28195 532.416804 
L 436.186449 547.254886 
L 473.006206 540.292765 
L 454.77392 525.6145 
z
" clip-path="url(#p3a63ee253e)" style="fill: #0000c3; fill-opacity: 0.1"/>
    <path d="M 289.925174 538.294681 
L 306.40349 553.271566 
L 344.10329 546.244115 
L 327.277803 531.429288 
z
" clip-path="url(#p3a63ee253e)" style="fill: #0000c3; fill-opacity: 0.1"/>
    <path d="M 381.393901 539.29294 
L 398.962349 554.293463 
L 436.186449 547.254886 
L 418.28195 532.416804 
z
" clip-path="url(#p3a63ee253e)" style="fill: #0000c3; fill-opacity: 0.1"/>
    <path d="M 252.165234 545.234937 
L 268.28773 560.376554 
L 306.40349 553.271566 
L 289.925174 538.294681 
z
" clip-path="url(#p3a63ee253e)" style="fill: #0000c3; fill-opacity: 0.1"/>
    <path d="M 344.10329 546.244115 
L 361.327209 561.409761 
L 398.962349 554.293463 
L 381.393901 539.29294 
z
" clip-path="url(#p3a63ee253e)" style="fill: #0000c3; fill-opacity: 0.1"/>
    <path d="M 306.40349 553.271566 
L 323.274184 568.605077 
L 361.327209 561.409761 
L 344.10329 546.244115 
z
" clip-path="url(#p3a63ee253e)" style="fill: #0000c3; fill-opacity: 0.1"/>
    <path d="M 268.28773 560.376554 
L 284.796274 575.880732 
L 323.274184 568.605077 
L 306.40349 553.271566 
z
" clip-path="url(#p3a63ee253e)" style="fill: #0000c3; fill-opacity: 0.1"/>
   </g>
  </g>
 </g>
 <defs>
  <clipPath id="p3a63ee253e">
   <rect x="91.8" y="86.4" width="554.4" height="554.4"/>
  </clipPath>
 </defs>
</svg>
