<?xml version="1.0" encoding="utf-8" standalone="no"?>
<!DOCTYPE svg PUBLIC "-//W3C//DTD SVG 1.1//EN"
  "http://www.w3.org/Graphics/SVG/1.1/DTD/svg11.dtd">
<svg xmlns:xlink="http://www.w3.org/1999/xlink" width="864pt" height="432pt" viewBox="0 0 864 432" xmlns="http://www.w3.org/2000/svg" version="1.1">
 <metadata>
  <rdf:RDF xmlns:dc="http://purl.org/dc/elements/1.1/" xmlns:cc="http://creativecommons.org/ns#" xmlns:rdf="http://www.w3.org/1999/02/22-rdf-syntax-ns#">
   <cc:Work>
    <dc:type rdf:resource="http://purl.org/dc/dcmitype/StillImage"/>
    <dc:date>2026-01-12T23:20:07.643219</dc:date>
    <dc:format>image/svg+xml</dc:format>
    <dc:creator>
     <cc:Agent>
      <dc:title>Matplotlib v3.10.8, https://matplotlib.org/</dc:title>
     </cc:Agent>
    </dc:creator>
   </cc:Work>
  </rdf:RDF>
 </metadata>
 <defs>
  <style type="text/css">*{stroke-linejoin: round; stroke-linecap: butt}</style>
 </defs>
 <g id="figure_1">
  <g id="patch_1">
   <path d="M 0 432 
L 864 432 
L 864 0 
L 0 0 
z
" style="fill: #ffffff"/>
  </g>
  <g id="axes_1">
   <g id="patch_2">
    <path d="M 52.004 369.88 
L 674.450167 369.88 
L 674.450167 27.6 
L 52.004 27.6 
z
" style="fill: #ffffff"/>
   </g>
   <g id="PathCollection_1">
    <defs>
     <path id="m7eca8ffa41" d="M 0 3.872983 
C 1.027127 3.872983 2.012324 3.464901 2.738613 2.738613 
C 3.464901 2.012324 3.872983 1.027127 3.872983 0 
C 3.872983 -1.027127 3.464901 -2.012324 2.738613 -2.738613 
C 2.012324 -3.464901 1.027127 -3.872983 0 -3.872983 
C -1.027127 -3.872983 -2.012324 -3.464901 -2.738613 -2.738613 
C -3.464901 -2.012324 -3.872983 -1.027127 -3.872983 0 
C -3.872983 1.027127 -3.464901 2.012324 -2.738613 2.738613 
C -2.012324 3.464901 -1.027127 3.872983 0 3.872983 
z
" style="stroke: #1f77b4; stroke-opacity: 0.7"/>
    </defs>
    <g clip-path="url(#p90d9b91ffe)">
     <use xlink:href="#m7eca8ffa41" x="80.297008" y="315.048224" style="fill: #1f77b4; fill-opacity: 0.7; stroke: #1f77b4; stroke-opacity: 0.7"/>
     <use xlink:href="#m7eca8ffa41" x="93.157466" y="340.858803" style="fill: #1f77b4; fill-opacity: 0.7; stroke: #1f77b4; stroke-opacity: 0.7"/>
     <use xlink:href="#m7eca8ffa41" x="106.017924" y="308.911423" style="fill: #1f77b4; fill-opacity: 0.7; stroke: #1f77b4; stroke-opacity: 0.7"/>
     <use xlink:href="#m7eca8ffa41" x="118.878382" y="273.330583" style="fill: #1f77b4; fill-opacity: 0.7; stroke: #1f77b4; stroke-opacity: 0.7"/>
     <use xlink:href="#m7eca8ffa41" x="131.73884" y="344.756499" style="fill: #1f77b4; fill-opacity: 0.7; stroke: #1f77b4; stroke-opacity: 0.7"/>
     <use xlink:href="#m7eca8ffa41" x="144.599298" y="344.755831" style="fill: #1f77b4; fill-opacity: 0.7; stroke: #1f77b4; stroke-opacity: 0.7"/>
     <use xlink:href="#m7eca8ffa41" x="157.459756" y="271.04686" style="fill: #1f77b4; fill-opacity: 0.7; stroke: #1f77b4; stroke-opacity: 0.7"/>
     <use xlink:href="#m7eca8ffa41" x="170.320214" y="304.043984" style="fill: #1f77b4; fill-opacity: 0.7; stroke: #1f77b4; stroke-opacity: 0.7"/>
     <use xlink:href="#m7eca8ffa41" x="183.180672" y="354.321818" style="fill: #1f77b4; fill-opacity: 0.7; stroke: #1f77b4; stroke-opacity: 0.7"/>
     <use xlink:href="#m7eca8ffa41" x="196.04113" y="313.184682" style="fill: #1f77b4; fill-opacity: 0.7; stroke: #1f77b4; stroke-opacity: 0.7"/>
    </g>
   </g>
   <g id="PathCollection_2">
    <defs>
     <path id="m5c5191bc50" d="M -3.872983 3.872983 
L 3.872983 3.872983 
L 3.872983 -3.872983 
L -3.872983 -3.872983 
z
" style="stroke: #ff7f0e; stroke-opacity: 0.7"/>
    </defs>
    <g clip-path="url(#p90d9b91ffe)">
     <use xlink:href="#m5c5191bc50" x="208.901587" y="218.582421" style="fill: #ff7f0e; fill-opacity: 0.7; stroke: #ff7f0e; stroke-opacity: 0.7"/>
     <use xlink:href="#m5c5191bc50" x="221.762045" y="218.676402" style="fill: #ff7f0e; fill-opacity: 0.7; stroke: #ff7f0e; stroke-opacity: 0.7"/>
     <use xlink:href="#m5c5191bc50" x="234.622503" y="189.910164" style="fill: #ff7f0e; fill-opacity: 0.7; stroke: #ff7f0e; stroke-opacity: 0.7"/>
     <use xlink:href="#m5c5191bc50" x="247.482961" y="277.516378" style="fill: #ff7f0e; fill-opacity: 0.7; stroke: #ff7f0e; stroke-opacity: 0.7"/>
     <use xlink:href="#m5c5191bc50" x="260.343419" y="269.85983" style="fill: #ff7f0e; fill-opacity: 0.7; stroke: #ff7f0e; stroke-opacity: 0.7"/>
     <use xlink:href="#m5c5191bc50" x="273.203877" y="222.601279" style="fill: #ff7f0e; fill-opacity: 0.7; stroke: #ff7f0e; stroke-opacity: 0.7"/>
     <use xlink:href="#m5c5191bc50" x="286.064335" y="240.914957" style="fill: #ff7f0e; fill-opacity: 0.7; stroke: #ff7f0e; stroke-opacity: 0.7"/>
     <use xlink:href="#m5c5191bc50" x="298.924793" y="186.971923" style="fill: #ff7f0e; fill-opacity: 0.7; stroke: #ff7f0e; stroke-opacity: 0.7"/>
     <use xlink:href="#m5c5191bc50" x="311.785251" y="236.654764" style="fill: #ff7f0e; fill-opacity: 0.7; stroke: #ff7f0e; stroke-opacity: 0.7"/>
     <use xlink:href="#m5c5191bc50" x="324.645709" y="257.152703" style="fill: #ff7f0e; fill-opacity: 0.7; stroke: #ff7f0e; stroke-opacity: 0.7"/>
     <use xlink:href="#m5c5191bc50" x="337.506167" y="140.169802" style="fill: #ff7f0e; fill-opacity: 0.7; stroke: #ff7f0e; stroke-opacity: 0.7"/>
     <use xlink:href="#m5c5191bc50" x="350.366625" y="208.922783" style="fill: #ff7f0e; fill-opacity: 0.7; stroke: #ff7f0e; stroke-opacity: 0.7"/>
    </g>
   </g>
   <g id="PathCollection_3">
    <defs>
     <path id="mc8e4ff63fa" d="M 0 -3.872983 
L -3.872983 3.872983 
L 3.872983 3.872983 
z
" style="stroke: #2ca02c; stroke-opacity: 0.7"/>
    </defs>
    <g clip-path="url(#p90d9b91ffe)">
     <use xlink:href="#mc8e4ff63fa" x="363.227083" y="278.296476" style="fill: #2ca02c; fill-opacity: 0.7; stroke: #2ca02c; stroke-opacity: 0.7"/>
     <use xlink:href="#mc8e4ff63fa" x="376.087541" y="338.954469" style="fill: #2ca02c; fill-opacity: 0.7; stroke: #2ca02c; stroke-opacity: 0.7"/>
     <use xlink:href="#mc8e4ff63fa" x="388.947999" y="303.169408" style="fill: #2ca02c; fill-opacity: 0.7; stroke: #2ca02c; stroke-opacity: 0.7"/>
     <use xlink:href="#mc8e4ff63fa" x="401.808457" y="276.532582" style="fill: #2ca02c; fill-opacity: 0.7; stroke: #2ca02c; stroke-opacity: 0.7"/>
     <use xlink:href="#mc8e4ff63fa" x="414.668915" y="327.826902" style="fill: #2ca02c; fill-opacity: 0.7; stroke: #2ca02c; stroke-opacity: 0.7"/>
     <use xlink:href="#mc8e4ff63fa" x="427.529373" y="265.770001" style="fill: #2ca02c; fill-opacity: 0.7; stroke: #2ca02c; stroke-opacity: 0.7"/>
     <use xlink:href="#mc8e4ff63fa" x="440.389831" y="305.456098" style="fill: #2ca02c; fill-opacity: 0.7; stroke: #2ca02c; stroke-opacity: 0.7"/>
     <use xlink:href="#mc8e4ff63fa" x="453.250289" y="292.898116" style="fill: #2ca02c; fill-opacity: 0.7; stroke: #2ca02c; stroke-opacity: 0.7"/>
    </g>
   </g>
   <g id="PathCollection_4">
    <defs>
     <path id="mc5bc6f050a" d="M -0 5.477226 
L 5.477226 0 
L 0 -5.477226 
L -5.477226 -0 
z
" style="stroke: #d62728; stroke-opacity: 0.7"/>
    </defs>
    <g clip-path="url(#p90d9b91ffe)">
     <use xlink:href="#mc5bc6f050a" x="466.110747" y="142.907661" style="fill: #d62728; fill-opacity: 0.7; stroke: #d62728; stroke-opacity: 0.7"/>
     <use xlink:href="#mc5bc6f050a" x="478.971205" y="43.158182" style="fill: #d62728; fill-opacity: 0.7; stroke: #d62728; stroke-opacity: 0.7"/>
     <use xlink:href="#mc5bc6f050a" x="491.831663" y="118.998149" style="fill: #d62728; fill-opacity: 0.7; stroke: #d62728; stroke-opacity: 0.7"/>
     <use xlink:href="#mc5bc6f050a" x="504.692121" y="161.443307" style="fill: #d62728; fill-opacity: 0.7; stroke: #d62728; stroke-opacity: 0.7"/>
     <use xlink:href="#mc5bc6f050a" x="517.552579" y="85.01474" style="fill: #d62728; fill-opacity: 0.7; stroke: #d62728; stroke-opacity: 0.7"/>
     <use xlink:href="#mc5bc6f050a" x="530.413037" y="168.07432" style="fill: #d62728; fill-opacity: 0.7; stroke: #d62728; stroke-opacity: 0.7"/>
     <use xlink:href="#mc5bc6f050a" x="543.273495" y="109.959635" style="fill: #d62728; fill-opacity: 0.7; stroke: #d62728; stroke-opacity: 0.7"/>
     <use xlink:href="#mc5bc6f050a" x="556.133953" y="198.10611" style="fill: #d62728; fill-opacity: 0.7; stroke: #d62728; stroke-opacity: 0.7"/>
     <use xlink:href="#mc5bc6f050a" x="568.994411" y="172.437569" style="fill: #d62728; fill-opacity: 0.7; stroke: #d62728; stroke-opacity: 0.7"/>
     <use xlink:href="#mc5bc6f050a" x="581.854869" y="110.447506" style="fill: #d62728; fill-opacity: 0.7; stroke: #d62728; stroke-opacity: 0.7"/>
     <use xlink:href="#mc5bc6f050a" x="594.715327" y="88.432353" style="fill: #d62728; fill-opacity: 0.7; stroke: #d62728; stroke-opacity: 0.7"/>
     <use xlink:href="#mc5bc6f050a" x="607.575785" y="111.483743" style="fill: #d62728; fill-opacity: 0.7; stroke: #d62728; stroke-opacity: 0.7"/>
     <use xlink:href="#mc5bc6f050a" x="620.436243" y="123.150381" style="fill: #d62728; fill-opacity: 0.7; stroke: #d62728; stroke-opacity: 0.7"/>
     <use xlink:href="#mc5bc6f050a" x="633.296701" y="130.688765" style="fill: #d62728; fill-opacity: 0.7; stroke: #d62728; stroke-opacity: 0.7"/>
     <use xlink:href="#mc5bc6f050a" x="646.157159" y="178.548419" style="fill: #d62728; fill-opacity: 0.7; stroke: #d62728; stroke-opacity: 0.7"/>
    </g>
   </g>
   <g id="matplotlib.axis_1">
    <g id="xtick_1">
     <g id="line2d_1">
      <defs>
       <path id="m80122e0b3f" d="M 0 0 
L 0 3.5 
" style="stroke: #000000; stroke-width: 0.8"/>
      </defs>
      <g>
       <use xlink:href="#m80122e0b3f" x="138.169069" y="369.88" style="stroke: #000000; stroke-width: 0.8"/>
      </g>
     </g>
     <g id="text_1">
      <!-- Group A -->
      <g transform="translate(117.940162 384.478437) scale(0.1 -0.1)">
       <defs>
        <path id="DejaVuSans-47" d="M 3809 666 
L 3809 1919 
L 2778 1919 
L 2778 2438 
L 4434 2438 
L 4434 434 
Q 4069 175 3628 42 
Q 3188 -91 2688 -91 
Q 1594 -91 976 548 
Q 359 1188 359 2328 
Q 359 3472 976 4111 
Q 1594 4750 2688 4750 
Q 3144 4750 3555 4637 
Q 3966 4525 4313 4306 
L 4313 3634 
Q 3963 3931 3569 4081 
Q 3175 4231 2741 4231 
Q 1884 4231 1454 3753 
Q 1025 3275 1025 2328 
Q 1025 1384 1454 906 
Q 1884 428 2741 428 
Q 3075 428 3337 486 
Q 3600 544 3809 666 
z
" transform="scale(0.015625)"/>
        <path id="DejaVuSans-72" d="M 2631 2963 
Q 2534 3019 2420 3045 
Q 2306 3072 2169 3072 
Q 1681 3072 1420 2755 
Q 1159 2438 1159 1844 
L 1159 0 
L 581 0 
L 581 3500 
L 1159 3500 
L 1159 2956 
Q 1341 3275 1631 3429 
Q 1922 3584 2338 3584 
Q 2397 3584 2469 3576 
Q 2541 3569 2628 3553 
L 2631 2963 
z
" transform="scale(0.015625)"/>
        <path id="DejaVuSans-6f" d="M 1959 3097 
Q 1497 3097 1228 2736 
Q 959 2375 959 1747 
Q 959 1119 1226 758 
Q 1494 397 1959 397 
Q 2419 397 2687 759 
Q 2956 1122 2956 1747 
Q 2956 2369 2687 2733 
Q 2419 3097 1959 3097 
z
M 1959 3584 
Q 2709 3584 3137 3096 
Q 3566 2609 3566 1747 
Q 3566 888 3137 398 
Q 2709 -91 1959 -91 
Q 1206 -91 779 398 
Q 353 888 353 1747 
Q 353 2609 779 3096 
Q 1206 3584 1959 3584 
z
" transform="scale(0.015625)"/>
        <path id="DejaVuSans-75" d="M 544 1381 
L 544 3500 
L 1119 3500 
L 1119 1403 
Q 1119 906 1312 657 
Q 1506 409 1894 409 
Q 2359 409 2629 706 
Q 2900 1003 2900 1516 
L 2900 3500 
L 3475 3500 
L 3475 0 
L 2900 0 
L 2900 538 
Q 2691 219 2414 64 
Q 2138 -91 1772 -91 
Q 1169 -91 856 284 
Q 544 659 544 1381 
z
M 1991 3584 
L 1991 3584 
z
" transform="scale(0.015625)"/>
        <path id="DejaVuSans-70" d="M 1159 525 
L 1159 -1331 
L 581 -1331 
L 581 3500 
L 1159 3500 
L 1159 2969 
Q 1341 3281 1617 3432 
Q 1894 3584 2278 3584 
Q 2916 3584 3314 3078 
Q 3713 2572 3713 1747 
Q 3713 922 3314 415 
Q 2916 -91 2278 -91 
Q 1894 -91 1617 61 
Q 1341 213 1159 525 
z
M 3116 1747 
Q 3116 2381 2855 2742 
Q 2594 3103 2138 3103 
Q 1681 3103 1420 2742 
Q 1159 2381 1159 1747 
Q 1159 1113 1420 752 
Q 1681 391 2138 391 
Q 2594 391 2855 752 
Q 3116 1113 3116 1747 
z
" transform="scale(0.015625)"/>
        <path id="DejaVuSans-20" transform="scale(0.015625)"/>
        <path id="DejaVuSans-41" d="M 2188 4044 
L 1331 1722 
L 3047 1722 
L 2188 4044 
z
M 1831 4666 
L 2547 4666 
L 4325 0 
L 3669 0 
L 3244 1197 
L 1141 1197 
L 716 0 
L 50 0 
L 1831 4666 
z
" transform="scale(0.015625)"/>
       </defs>
       <use xlink:href="#DejaVuSans-47"/>
       <use xlink:href="#DejaVuSans-72" transform="translate(77.490234 0)"/>
       <use xlink:href="#DejaVuSans-6f" transform="translate(116.353516 0)"/>
       <use xlink:href="#DejaVuSans-75" transform="translate(177.535156 0)"/>
       <use xlink:href="#DejaVuSans-70" transform="translate(240.914062 0)"/>
       <use xlink:href="#DejaVuSans-20" transform="translate(304.390625 0)"/>
       <use xlink:href="#DejaVuSans-41" transform="translate(336.177734 0)"/>
      </g>
      <!-- ($n_{a}=10$) -->
      <g transform="translate(116.269069 395.67625) scale(0.1 -0.1)">
       <defs>
        <path id="DejaVuSans-28" d="M 1984 4856 
Q 1566 4138 1362 3434 
Q 1159 2731 1159 2009 
Q 1159 1288 1364 580 
Q 1569 -128 1984 -844 
L 1484 -844 
Q 1016 -109 783 600 
Q 550 1309 550 2009 
Q 550 2706 781 3412 
Q 1013 4119 1484 4856 
L 1984 4856 
z
" transform="scale(0.015625)"/>
        <path id="DejaVuSans-Oblique-6e" d="M 3566 2113 
L 3156 0 
L 2578 0 
L 2988 2091 
Q 3016 2238 3031 2350 
Q 3047 2463 3047 2528 
Q 3047 2791 2881 2937 
Q 2716 3084 2419 3084 
Q 1956 3084 1622 2776 
Q 1288 2469 1184 1941 
L 800 0 
L 225 0 
L 903 3500 
L 1478 3500 
L 1363 2950 
Q 1603 3253 1940 3418 
Q 2278 3584 2650 3584 
Q 3113 3584 3367 3334 
Q 3622 3084 3622 2631 
Q 3622 2519 3608 2391 
Q 3594 2263 3566 2113 
z
" transform="scale(0.015625)"/>
        <path id="DejaVuSans-Oblique-61" d="M 3438 1997 
L 3047 0 
L 2472 0 
L 2578 531 
Q 2325 219 2001 64 
Q 1678 -91 1281 -91 
Q 834 -91 548 182 
Q 263 456 263 884 
Q 263 1497 752 1853 
Q 1241 2209 2100 2209 
L 2900 2209 
L 2931 2363 
Q 2938 2388 2941 2417 
Q 2944 2447 2944 2509 
Q 2944 2788 2717 2942 
Q 2491 3097 2081 3097 
Q 1800 3097 1504 3025 
Q 1209 2953 897 2809 
L 997 3341 
Q 1322 3463 1633 3523 
Q 1944 3584 2234 3584 
Q 2853 3584 3176 3315 
Q 3500 3047 3500 2534 
Q 3500 2431 3484 2292 
Q 3469 2153 3438 1997 
z
M 2816 1759 
L 2241 1759 
Q 1534 1759 1195 1570 
Q 856 1381 856 984 
Q 856 709 1029 553 
Q 1203 397 1509 397 
Q 1978 397 2328 733 
Q 2678 1069 2791 1631 
L 2816 1759 
z
" transform="scale(0.015625)"/>
        <path id="DejaVuSans-3d" d="M 678 2906 
L 4684 2906 
L 4684 2381 
L 678 2381 
L 678 2906 
z
M 678 1631 
L 4684 1631 
L 4684 1100 
L 678 1100 
L 678 1631 
z
" transform="scale(0.015625)"/>
        <path id="DejaVuSans-31" d="M 794 531 
L 1825 531 
L 1825 4091 
L 703 3866 
L 703 4441 
L 1819 4666 
L 2450 4666 
L 2450 531 
L 3481 531 
L 3481 0 
L 794 0 
L 794 531 
z
" transform="scale(0.015625)"/>
        <path id="DejaVuSans-30" d="M 2034 4250 
Q 1547 4250 1301 3770 
Q 1056 3291 1056 2328 
Q 1056 1369 1301 889 
Q 1547 409 2034 409 
Q 2525 409 2770 889 
Q 3016 1369 3016 2328 
Q 3016 3291 2770 3770 
Q 2525 4250 2034 4250 
z
M 2034 4750 
Q 2819 4750 3233 4129 
Q 3647 3509 3647 2328 
Q 3647 1150 3233 529 
Q 2819 -91 2034 -91 
Q 1250 -91 836 529 
Q 422 1150 422 2328 
Q 422 3509 836 4129 
Q 1250 4750 2034 4750 
z
" transform="scale(0.015625)"/>
        <path id="DejaVuSans-29" d="M 513 4856 
L 1013 4856 
Q 1481 4119 1714 3412 
Q 1947 2706 1947 2009 
Q 1947 1309 1714 600 
Q 1481 -109 1013 -844 
L 513 -844 
Q 928 -128 1133 580 
Q 1338 1288 1338 2009 
Q 1338 2731 1133 3434 
Q 928 4138 513 4856 
z
" transform="scale(0.015625)"/>
       </defs>
       <use xlink:href="#DejaVuSans-28" transform="translate(0 0.125)"/>
       <use xlink:href="#DejaVuSans-Oblique-6e" transform="translate(39.013672 0.125)"/>
       <use xlink:href="#DejaVuSans-Oblique-61" transform="translate(102.392578 -16.28125) scale(0.7)"/>
       <use xlink:href="#DejaVuSans-3d" transform="translate(167.504883 0.125)"/>
       <use xlink:href="#DejaVuSans-31" transform="translate(270.776367 0.125)"/>
       <use xlink:href="#DejaVuSans-30" transform="translate(334.399414 0.125)"/>
       <use xlink:href="#DejaVuSans-29" transform="translate(398.022461 0.125)"/>
      </g>
     </g>
    </g>
    <g id="xtick_2">
     <g id="line2d_2">
      <g>
       <use xlink:href="#m80122e0b3f" x="279.634106" y="369.88" style="stroke: #000000; stroke-width: 0.8"/>
      </g>
     </g>
     <g id="text_2">
      <!-- Group B -->
      <g transform="translate(259.395044 384.478437) scale(0.1 -0.1)">
       <defs>
        <path id="DejaVuSans-42" d="M 1259 2228 
L 1259 519 
L 2272 519 
Q 2781 519 3026 730 
Q 3272 941 3272 1375 
Q 3272 1813 3026 2020 
Q 2781 2228 2272 2228 
L 1259 2228 
z
M 1259 4147 
L 1259 2741 
L 2194 2741 
Q 2656 2741 2882 2914 
Q 3109 3088 3109 3444 
Q 3109 3797 2882 3972 
Q 2656 4147 2194 4147 
L 1259 4147 
z
M 628 4666 
L 2241 4666 
Q 2963 4666 3353 4366 
Q 3744 4066 3744 3513 
Q 3744 3084 3544 2831 
Q 3344 2578 2956 2516 
Q 3422 2416 3680 2098 
Q 3938 1781 3938 1306 
Q 3938 681 3513 340 
Q 3088 0 2303 0 
L 628 0 
L 628 4666 
z
" transform="scale(0.015625)"/>
       </defs>
       <use xlink:href="#DejaVuSans-47"/>
       <use xlink:href="#DejaVuSans-72" transform="translate(77.490234 0)"/>
       <use xlink:href="#DejaVuSans-6f" transform="translate(116.353516 0)"/>
       <use xlink:href="#DejaVuSans-75" transform="translate(177.535156 0)"/>
       <use xlink:href="#DejaVuSans-70" transform="translate(240.914062 0)"/>
       <use xlink:href="#DejaVuSans-20" transform="translate(304.390625 0)"/>
       <use xlink:href="#DejaVuSans-42" transform="translate(336.177734 0)"/>
      </g>
      <!-- ($n_{b}=12$) -->
      <g transform="translate(257.684106 395.67625) scale(0.1 -0.1)">
       <defs>
        <path id="DejaVuSans-Oblique-62" d="M 3169 2138 
Q 3169 2591 2961 2847 
Q 2753 3103 2388 3103 
Q 2122 3103 1889 2973 
Q 1656 2844 1484 2597 
Q 1303 2338 1198 1995 
Q 1094 1653 1094 1313 
Q 1094 881 1298 636 
Q 1503 391 1863 391 
Q 2134 391 2365 517 
Q 2597 644 2772 891 
Q 2950 1147 3059 1487 
Q 3169 1828 3169 2138 
z
M 1381 2969 
Q 1594 3256 1914 3420 
Q 2234 3584 2584 3584 
Q 3122 3584 3439 3221 
Q 3756 2859 3756 2241 
Q 3756 1734 3570 1259 
Q 3384 784 3041 416 
Q 2816 172 2522 40 
Q 2228 -91 1906 -91 
Q 1566 -91 1316 65 
Q 1066 222 909 531 
L 806 0 
L 231 0 
L 1178 4863 
L 1753 4863 
L 1381 2969 
z
" transform="scale(0.015625)"/>
        <path id="DejaVuSans-32" d="M 1228 531 
L 3431 531 
L 3431 0 
L 469 0 
L 469 531 
Q 828 903 1448 1529 
Q 2069 2156 2228 2338 
Q 2531 2678 2651 2914 
Q 2772 3150 2772 3378 
Q 2772 3750 2511 3984 
Q 2250 4219 1831 4219 
Q 1534 4219 1204 4116 
Q 875 4013 500 3803 
L 500 4441 
Q 881 4594 1212 4672 
Q 1544 4750 1819 4750 
Q 2544 4750 2975 4387 
Q 3406 4025 3406 3419 
Q 3406 3131 3298 2873 
Q 3191 2616 2906 2266 
Q 2828 2175 2409 1742 
Q 1991 1309 1228 531 
z
" transform="scale(0.015625)"/>
       </defs>
       <use xlink:href="#DejaVuSans-28" transform="translate(0 0.125)"/>
       <use xlink:href="#DejaVuSans-Oblique-6e" transform="translate(39.013672 0.125)"/>
       <use xlink:href="#DejaVuSans-Oblique-62" transform="translate(102.392578 -16.28125) scale(0.7)"/>
       <use xlink:href="#DejaVuSans-3d" transform="translate(169.042969 0.125)"/>
       <use xlink:href="#DejaVuSans-31" transform="translate(272.314453 0.125)"/>
       <use xlink:href="#DejaVuSans-32" transform="translate(335.9375 0.125)"/>
       <use xlink:href="#DejaVuSans-29" transform="translate(399.560547 0.125)"/>
      </g>
     </g>
    </g>
    <g id="xtick_3">
     <g id="line2d_3">
      <g>
       <use xlink:href="#m80122e0b3f" x="408.238686" y="369.88" style="stroke: #000000; stroke-width: 0.8"/>
      </g>
     </g>
     <g id="text_3">
      <!-- Group C -->
      <g transform="translate(387.938686 384.478437) scale(0.1 -0.1)">
       <defs>
        <path id="DejaVuSans-43" d="M 4122 4306 
L 4122 3641 
Q 3803 3938 3442 4084 
Q 3081 4231 2675 4231 
Q 1875 4231 1450 3742 
Q 1025 3253 1025 2328 
Q 1025 1406 1450 917 
Q 1875 428 2675 428 
Q 3081 428 3442 575 
Q 3803 722 4122 1019 
L 4122 359 
Q 3791 134 3420 21 
Q 3050 -91 2638 -91 
Q 1578 -91 968 557 
Q 359 1206 359 2328 
Q 359 3453 968 4101 
Q 1578 4750 2638 4750 
Q 3056 4750 3426 4639 
Q 3797 4528 4122 4306 
z
" transform="scale(0.015625)"/>
       </defs>
       <use xlink:href="#DejaVuSans-47"/>
       <use xlink:href="#DejaVuSans-72" transform="translate(77.490234 0)"/>
       <use xlink:href="#DejaVuSans-6f" transform="translate(116.353516 0)"/>
       <use xlink:href="#DejaVuSans-75" transform="translate(177.535156 0)"/>
       <use xlink:href="#DejaVuSans-70" transform="translate(240.914062 0)"/>
       <use xlink:href="#DejaVuSans-20" transform="translate(304.390625 0)"/>
       <use xlink:href="#DejaVuSans-43" transform="translate(336.177734 0)"/>
      </g>
      <!-- ($n_{c}=8$) -->
      <g transform="translate(389.738686 395.67625) scale(0.1 -0.1)">
       <defs>
        <path id="DejaVuSans-Oblique-63" d="M 3431 3366 
L 3316 2797 
Q 3109 2947 2876 3022 
Q 2644 3097 2394 3097 
Q 2119 3097 1870 3000 
Q 1622 2903 1453 2725 
Q 1184 2453 1037 2087 
Q 891 1722 891 1331 
Q 891 859 1127 628 
Q 1363 397 1844 397 
Q 2081 397 2348 469 
Q 2616 541 2906 684 
L 2797 116 
Q 2547 13 2283 -39 
Q 2019 -91 1741 -91 
Q 1044 -91 669 257 
Q 294 606 294 1253 
Q 294 1797 489 2255 
Q 684 2713 1069 3078 
Q 1331 3328 1684 3456 
Q 2038 3584 2456 3584 
Q 2700 3584 2940 3529 
Q 3181 3475 3431 3366 
z
" transform="scale(0.015625)"/>
        <path id="DejaVuSans-38" d="M 2034 2216 
Q 1584 2216 1326 1975 
Q 1069 1734 1069 1313 
Q 1069 891 1326 650 
Q 1584 409 2034 409 
Q 2484 409 2743 651 
Q 3003 894 3003 1313 
Q 3003 1734 2745 1975 
Q 2488 2216 2034 2216 
z
M 1403 2484 
Q 997 2584 770 2862 
Q 544 3141 544 3541 
Q 544 4100 942 4425 
Q 1341 4750 2034 4750 
Q 2731 4750 3128 4425 
Q 3525 4100 3525 3541 
Q 3525 3141 3298 2862 
Q 3072 2584 2669 2484 
Q 3125 2378 3379 2068 
Q 3634 1759 3634 1313 
Q 3634 634 3220 271 
Q 2806 -91 2034 -91 
Q 1263 -91 848 271 
Q 434 634 434 1313 
Q 434 1759 690 2068 
Q 947 2378 1403 2484 
z
M 1172 3481 
Q 1172 3119 1398 2916 
Q 1625 2713 2034 2713 
Q 2441 2713 2670 2916 
Q 2900 3119 2900 3481 
Q 2900 3844 2670 4047 
Q 2441 4250 2034 4250 
Q 1625 4250 1398 4047 
Q 1172 3844 1172 3481 
z
" transform="scale(0.015625)"/>
       </defs>
       <use xlink:href="#DejaVuSans-28" transform="translate(0 0.125)"/>
       <use xlink:href="#DejaVuSans-Oblique-6e" transform="translate(39.013672 0.125)"/>
       <use xlink:href="#DejaVuSans-Oblique-63" transform="translate(102.392578 -16.28125) scale(0.7)"/>
       <use xlink:href="#DejaVuSans-3d" transform="translate(163.095703 0.125)"/>
       <use xlink:href="#DejaVuSans-38" transform="translate(266.367188 0.125)"/>
       <use xlink:href="#DejaVuSans-29" transform="translate(329.990234 0.125)"/>
      </g>
     </g>
    </g>
    <g id="xtick_4">
     <g id="line2d_4">
      <g>
       <use xlink:href="#m80122e0b3f" x="556.133953" y="369.88" style="stroke: #000000; stroke-width: 0.8"/>
      </g>
     </g>
     <g id="text_4">
      <!-- Group D -->
      <g transform="translate(535.47536 384.478437) scale(0.1 -0.1)">
       <defs>
        <path id="DejaVuSans-44" d="M 1259 4147 
L 1259 519 
L 2022 519 
Q 2988 519 3436 956 
Q 3884 1394 3884 2338 
Q 3884 3275 3436 3711 
Q 2988 4147 2022 4147 
L 1259 4147 
z
M 628 4666 
L 1925 4666 
Q 3281 4666 3915 4102 
Q 4550 3538 4550 2338 
Q 4550 1131 3912 565 
Q 3275 0 1925 0 
L 628 0 
L 628 4666 
z
" transform="scale(0.015625)"/>
       </defs>
       <use xlink:href="#DejaVuSans-47"/>
       <use xlink:href="#DejaVuSans-72" transform="translate(77.490234 0)"/>
       <use xlink:href="#DejaVuSans-6f" transform="translate(116.353516 0)"/>
       <use xlink:href="#DejaVuSans-75" transform="translate(177.535156 0)"/>
       <use xlink:href="#DejaVuSans-70" transform="translate(240.914062 0)"/>
       <use xlink:href="#DejaVuSans-20" transform="translate(304.390625 0)"/>
       <use xlink:href="#DejaVuSans-44" transform="translate(336.177734 0)"/>
      </g>
      <!-- ($n_{d}=15$) -->
      <g transform="translate(534.183953 395.67625) scale(0.1 -0.1)">
       <defs>
        <path id="DejaVuSans-Oblique-64" d="M 2675 525 
Q 2444 222 2128 65 
Q 1813 -91 1428 -91 
Q 903 -91 598 267 
Q 294 625 294 1247 
Q 294 1766 478 2236 
Q 663 2706 1013 3078 
Q 1244 3325 1534 3454 
Q 1825 3584 2144 3584 
Q 2481 3584 2739 3421 
Q 2997 3259 3138 2956 
L 3513 4863 
L 4091 4863 
L 3144 0 
L 2566 0 
L 2675 525 
z
M 891 1350 
Q 891 897 1095 644 
Q 1300 391 1663 391 
Q 1931 391 2161 520 
Q 2391 650 2566 903 
Q 2750 1166 2856 1509 
Q 2963 1853 2963 2188 
Q 2963 2622 2758 2865 
Q 2553 3109 2194 3109 
Q 1922 3109 1687 2981 
Q 1453 2853 1288 2613 
Q 1106 2353 998 2009 
Q 891 1666 891 1350 
z
" transform="scale(0.015625)"/>
        <path id="DejaVuSans-35" d="M 691 4666 
L 3169 4666 
L 3169 4134 
L 1269 4134 
L 1269 2991 
Q 1406 3038 1543 3061 
Q 1681 3084 1819 3084 
Q 2600 3084 3056 2656 
Q 3513 2228 3513 1497 
Q 3513 744 3044 326 
Q 2575 -91 1722 -91 
Q 1428 -91 1123 -41 
Q 819 9 494 109 
L 494 744 
Q 775 591 1075 516 
Q 1375 441 1709 441 
Q 2250 441 2565 725 
Q 2881 1009 2881 1497 
Q 2881 1984 2565 2268 
Q 2250 2553 1709 2553 
Q 1456 2553 1204 2497 
Q 953 2441 691 2322 
L 691 4666 
z
" transform="scale(0.015625)"/>
       </defs>
       <use xlink:href="#DejaVuSans-28" transform="translate(0 0.125)"/>
       <use xlink:href="#DejaVuSans-Oblique-6e" transform="translate(39.013672 0.125)"/>
       <use xlink:href="#DejaVuSans-Oblique-64" transform="translate(102.392578 -16.28125) scale(0.7)"/>
       <use xlink:href="#DejaVuSans-3d" transform="translate(169.042969 0.125)"/>
       <use xlink:href="#DejaVuSans-31" transform="translate(272.314453 0.125)"/>
       <use xlink:href="#DejaVuSans-35" transform="translate(335.9375 0.125)"/>
       <use xlink:href="#DejaVuSans-29" transform="translate(399.560547 0.125)"/>
      </g>
     </g>
    </g>
    <g id="text_5">
     <!-- Observation Index ($j$ grouped by $i$) -->
     <g transform="translate(260.087083 410.875937) scale(0.12 -0.12)">
      <defs>
       <path id="DejaVuSans-4f" d="M 2522 4238 
Q 1834 4238 1429 3725 
Q 1025 3213 1025 2328 
Q 1025 1447 1429 934 
Q 1834 422 2522 422 
Q 3209 422 3611 934 
Q 4013 1447 4013 2328 
Q 4013 3213 3611 3725 
Q 3209 4238 2522 4238 
z
M 2522 4750 
Q 3503 4750 4090 4092 
Q 4678 3434 4678 2328 
Q 4678 1225 4090 567 
Q 3503 -91 2522 -91 
Q 1538 -91 948 565 
Q 359 1222 359 2328 
Q 359 3434 948 4092 
Q 1538 4750 2522 4750 
z
" transform="scale(0.015625)"/>
       <path id="DejaVuSans-62" d="M 3116 1747 
Q 3116 2381 2855 2742 
Q 2594 3103 2138 3103 
Q 1681 3103 1420 2742 
Q 1159 2381 1159 1747 
Q 1159 1113 1420 752 
Q 1681 391 2138 391 
Q 2594 391 2855 752 
Q 3116 1113 3116 1747 
z
M 1159 2969 
Q 1341 3281 1617 3432 
Q 1894 3584 2278 3584 
Q 2916 3584 3314 3078 
Q 3713 2572 3713 1747 
Q 3713 922 3314 415 
Q 2916 -91 2278 -91 
Q 1894 -91 1617 61 
Q 1341 213 1159 525 
L 1159 0 
L 581 0 
L 581 4863 
L 1159 4863 
L 1159 2969 
z
" transform="scale(0.015625)"/>
       <path id="DejaVuSans-73" d="M 2834 3397 
L 2834 2853 
Q 2591 2978 2328 3040 
Q 2066 3103 1784 3103 
Q 1356 3103 1142 2972 
Q 928 2841 928 2578 
Q 928 2378 1081 2264 
Q 1234 2150 1697 2047 
L 1894 2003 
Q 2506 1872 2764 1633 
Q 3022 1394 3022 966 
Q 3022 478 2636 193 
Q 2250 -91 1575 -91 
Q 1294 -91 989 -36 
Q 684 19 347 128 
L 347 722 
Q 666 556 975 473 
Q 1284 391 1588 391 
Q 1994 391 2212 530 
Q 2431 669 2431 922 
Q 2431 1156 2273 1281 
Q 2116 1406 1581 1522 
L 1381 1569 
Q 847 1681 609 1914 
Q 372 2147 372 2553 
Q 372 3047 722 3315 
Q 1072 3584 1716 3584 
Q 2034 3584 2315 3537 
Q 2597 3491 2834 3397 
z
" transform="scale(0.015625)"/>
       <path id="DejaVuSans-65" d="M 3597 1894 
L 3597 1613 
L 953 1613 
Q 991 1019 1311 708 
Q 1631 397 2203 397 
Q 2534 397 2845 478 
Q 3156 559 3463 722 
L 3463 178 
Q 3153 47 2828 -22 
Q 2503 -91 2169 -91 
Q 1331 -91 842 396 
Q 353 884 353 1716 
Q 353 2575 817 3079 
Q 1281 3584 2069 3584 
Q 2775 3584 3186 3129 
Q 3597 2675 3597 1894 
z
M 3022 2063 
Q 3016 2534 2758 2815 
Q 2500 3097 2075 3097 
Q 1594 3097 1305 2825 
Q 1016 2553 972 2059 
L 3022 2063 
z
" transform="scale(0.015625)"/>
       <path id="DejaVuSans-76" d="M 191 3500 
L 800 3500 
L 1894 563 
L 2988 3500 
L 3597 3500 
L 2284 0 
L 1503 0 
L 191 3500 
z
" transform="scale(0.015625)"/>
       <path id="DejaVuSans-61" d="M 2194 1759 
Q 1497 1759 1228 1600 
Q 959 1441 959 1056 
Q 959 750 1161 570 
Q 1363 391 1709 391 
Q 2188 391 2477 730 
Q 2766 1069 2766 1631 
L 2766 1759 
L 2194 1759 
z
M 3341 1997 
L 3341 0 
L 2766 0 
L 2766 531 
Q 2569 213 2275 61 
Q 1981 -91 1556 -91 
Q 1019 -91 701 211 
Q 384 513 384 1019 
Q 384 1609 779 1909 
Q 1175 2209 1959 2209 
L 2766 2209 
L 2766 2266 
Q 2766 2663 2505 2880 
Q 2244 3097 1772 3097 
Q 1472 3097 1187 3025 
Q 903 2953 641 2809 
L 641 3341 
Q 956 3463 1253 3523 
Q 1550 3584 1831 3584 
Q 2591 3584 2966 3190 
Q 3341 2797 3341 1997 
z
" transform="scale(0.015625)"/>
       <path id="DejaVuSans-74" d="M 1172 4494 
L 1172 3500 
L 2356 3500 
L 2356 3053 
L 1172 3053 
L 1172 1153 
Q 1172 725 1289 603 
Q 1406 481 1766 481 
L 2356 481 
L 2356 0 
L 1766 0 
Q 1100 0 847 248 
Q 594 497 594 1153 
L 594 3053 
L 172 3053 
L 172 3500 
L 594 3500 
L 594 4494 
L 1172 4494 
z
" transform="scale(0.015625)"/>
       <path id="DejaVuSans-69" d="M 603 3500 
L 1178 3500 
L 1178 0 
L 603 0 
L 603 3500 
z
M 603 4863 
L 1178 4863 
L 1178 4134 
L 603 4134 
L 603 4863 
z
" transform="scale(0.015625)"/>
       <path id="DejaVuSans-6e" d="M 3513 2113 
L 3513 0 
L 2938 0 
L 2938 2094 
Q 2938 2591 2744 2837 
Q 2550 3084 2163 3084 
Q 1697 3084 1428 2787 
Q 1159 2491 1159 1978 
L 1159 0 
L 581 0 
L 581 3500 
L 1159 3500 
L 1159 2956 
Q 1366 3272 1645 3428 
Q 1925 3584 2291 3584 
Q 2894 3584 3203 3211 
Q 3513 2838 3513 2113 
z
" transform="scale(0.015625)"/>
       <path id="DejaVuSans-49" d="M 628 4666 
L 1259 4666 
L 1259 0 
L 628 0 
L 628 4666 
z
" transform="scale(0.015625)"/>
       <path id="DejaVuSans-64" d="M 2906 2969 
L 2906 4863 
L 3481 4863 
L 3481 0 
L 2906 0 
L 2906 525 
Q 2725 213 2448 61 
Q 2172 -91 1784 -91 
Q 1150 -91 751 415 
Q 353 922 353 1747 
Q 353 2572 751 3078 
Q 1150 3584 1784 3584 
Q 2172 3584 2448 3432 
Q 2725 3281 2906 2969 
z
M 947 1747 
Q 947 1113 1208 752 
Q 1469 391 1925 391 
Q 2381 391 2643 752 
Q 2906 1113 2906 1747 
Q 2906 2381 2643 2742 
Q 2381 3103 1925 3103 
Q 1469 3103 1208 2742 
Q 947 2381 947 1747 
z
" transform="scale(0.015625)"/>
       <path id="DejaVuSans-78" d="M 3513 3500 
L 2247 1797 
L 3578 0 
L 2900 0 
L 1881 1375 
L 863 0 
L 184 0 
L 1544 1831 
L 300 3500 
L 978 3500 
L 1906 2253 
L 2834 3500 
L 3513 3500 
z
" transform="scale(0.015625)"/>
       <path id="DejaVuSans-Oblique-6a" d="M 928 3500 
L 1503 3500 
L 813 -63 
L 809 -78 
Q 694 -675 544 -897 
Q 403 -1106 132 -1218 
Q -138 -1331 -506 -1331 
L -722 -1331 
L -628 -844 
L -481 -844 
Q -144 -844 -1 -703 
Q 141 -563 238 -63 
L 928 3500 
z
M 1197 4863 
L 1772 4863 
L 1631 4134 
L 1056 4134 
L 1197 4863 
z
" transform="scale(0.015625)"/>
       <path id="DejaVuSans-67" d="M 2906 1791 
Q 2906 2416 2648 2759 
Q 2391 3103 1925 3103 
Q 1463 3103 1205 2759 
Q 947 2416 947 1791 
Q 947 1169 1205 825 
Q 1463 481 1925 481 
Q 2391 481 2648 825 
Q 2906 1169 2906 1791 
z
M 3481 434 
Q 3481 -459 3084 -895 
Q 2688 -1331 1869 -1331 
Q 1566 -1331 1297 -1286 
Q 1028 -1241 775 -1147 
L 775 -588 
Q 1028 -725 1275 -790 
Q 1522 -856 1778 -856 
Q 2344 -856 2625 -561 
Q 2906 -266 2906 331 
L 2906 616 
Q 2728 306 2450 153 
Q 2172 0 1784 0 
Q 1141 0 747 490 
Q 353 981 353 1791 
Q 353 2603 747 3093 
Q 1141 3584 1784 3584 
Q 2172 3584 2450 3431 
Q 2728 3278 2906 2969 
L 2906 3500 
L 3481 3500 
L 3481 434 
z
" transform="scale(0.015625)"/>
       <path id="DejaVuSans-79" d="M 2059 -325 
Q 1816 -950 1584 -1140 
Q 1353 -1331 966 -1331 
L 506 -1331 
L 506 -850 
L 844 -850 
Q 1081 -850 1212 -737 
Q 1344 -625 1503 -206 
L 1606 56 
L 191 3500 
L 800 3500 
L 1894 763 
L 2988 3500 
L 3597 3500 
L 2059 -325 
z
" transform="scale(0.015625)"/>
       <path id="DejaVuSans-Oblique-69" d="M 1172 4863 
L 1747 4863 
L 1606 4134 
L 1031 4134 
L 1172 4863 
z
M 909 3500 
L 1484 3500 
L 800 0 
L 225 0 
L 909 3500 
z
" transform="scale(0.015625)"/>
      </defs>
      <use xlink:href="#DejaVuSans-4f" transform="translate(0 0.015625)"/>
      <use xlink:href="#DejaVuSans-62" transform="translate(78.710938 0.015625)"/>
      <use xlink:href="#DejaVuSans-73" transform="translate(142.1875 0.015625)"/>
      <use xlink:href="#DejaVuSans-65" transform="translate(194.287109 0.015625)"/>
      <use xlink:href="#DejaVuSans-72" transform="translate(255.810547 0.015625)"/>
      <use xlink:href="#DejaVuSans-76" transform="translate(296.923828 0.015625)"/>
      <use xlink:href="#DejaVuSans-61" transform="translate(356.103516 0.015625)"/>
      <use xlink:href="#DejaVuSans-74" transform="translate(417.382812 0.015625)"/>
      <use xlink:href="#DejaVuSans-69" transform="translate(456.591797 0.015625)"/>
      <use xlink:href="#DejaVuSans-6f" transform="translate(484.375 0.015625)"/>
      <use xlink:href="#DejaVuSans-6e" transform="translate(545.556641 0.015625)"/>
      <use xlink:href="#DejaVuSans-20" transform="translate(608.935547 0.015625)"/>
      <use xlink:href="#DejaVuSans-49" transform="translate(640.722656 0.015625)"/>
      <use xlink:href="#DejaVuSans-6e" transform="translate(670.214844 0.015625)"/>
      <use xlink:href="#DejaVuSans-64" transform="translate(733.59375 0.015625)"/>
      <use xlink:href="#DejaVuSans-65" transform="translate(797.070312 0.015625)"/>
      <use xlink:href="#DejaVuSans-78" transform="translate(858.59375 0.015625)"/>
      <use xlink:href="#DejaVuSans-20" transform="translate(917.773438 0.015625)"/>
      <use xlink:href="#DejaVuSans-28" transform="translate(949.560547 0.015625)"/>
      <use xlink:href="#DejaVuSans-Oblique-6a" transform="translate(988.574219 0.015625)"/>
      <use xlink:href="#DejaVuSans-20" transform="translate(1016.357422 0.015625)"/>
      <use xlink:href="#DejaVuSans-67" transform="translate(1048.144531 0.015625)"/>
      <use xlink:href="#DejaVuSans-72" transform="translate(1111.621094 0.015625)"/>
      <use xlink:href="#DejaVuSans-6f" transform="translate(1152.734375 0.015625)"/>
      <use xlink:href="#DejaVuSans-75" transform="translate(1213.916016 0.015625)"/>
      <use xlink:href="#DejaVuSans-70" transform="translate(1277.294922 0.015625)"/>
      <use xlink:href="#DejaVuSans-65" transform="translate(1340.771484 0.015625)"/>
      <use xlink:href="#DejaVuSans-64" transform="translate(1402.294922 0.015625)"/>
      <use xlink:href="#DejaVuSans-20" transform="translate(1465.771484 0.015625)"/>
      <use xlink:href="#DejaVuSans-62" transform="translate(1497.558594 0.015625)"/>
      <use xlink:href="#DejaVuSans-79" transform="translate(1561.035156 0.015625)"/>
      <use xlink:href="#DejaVuSans-20" transform="translate(1620.214844 0.015625)"/>
      <use xlink:href="#DejaVuSans-Oblique-69" transform="translate(1652.001953 0.015625)"/>
      <use xlink:href="#DejaVuSans-29" transform="translate(1679.785156 0.015625)"/>
     </g>
    </g>
   </g>
   <g id="matplotlib.axis_2">
    <g id="ytick_1">
     <g id="line2d_5">
      <path d="M 52.004 335.238641 
L 674.450167 335.238641 
" clip-path="url(#p90d9b91ffe)" style="fill: none; stroke: #b0b0b0; stroke-opacity: 0.3; stroke-width: 0.8; stroke-linecap: square"/>
     </g>
     <g id="line2d_6">
      <defs>
       <path id="m791901ede3" d="M 0 0 
L -3.5 0 
" style="stroke: #000000; stroke-width: 0.8"/>
      </defs>
      <g>
       <use xlink:href="#m791901ede3" x="52.004" y="335.238641" style="stroke: #000000; stroke-width: 0.8"/>
      </g>
     </g>
     <g id="text_6">
      <!-- 10 -->
      <g transform="translate(32.279 339.03786) scale(0.1 -0.1)">
       <use xlink:href="#DejaVuSans-31"/>
       <use xlink:href="#DejaVuSans-30" transform="translate(63.623047 0)"/>
      </g>
     </g>
    </g>
    <g id="ytick_2">
     <g id="line2d_7">
      <path d="M 52.004 281.04136 
L 674.450167 281.04136 
" clip-path="url(#p90d9b91ffe)" style="fill: none; stroke: #b0b0b0; stroke-opacity: 0.3; stroke-width: 0.8; stroke-linecap: square"/>
     </g>
     <g id="line2d_8">
      <g>
       <use xlink:href="#m791901ede3" x="52.004" y="281.04136" style="stroke: #000000; stroke-width: 0.8"/>
      </g>
     </g>
     <g id="text_7">
      <!-- 12 -->
      <g transform="translate(32.279 284.840578) scale(0.1 -0.1)">
       <use xlink:href="#DejaVuSans-31"/>
       <use xlink:href="#DejaVuSans-32" transform="translate(63.623047 0)"/>
      </g>
     </g>
    </g>
    <g id="ytick_3">
     <g id="line2d_9">
      <path d="M 52.004 226.844078 
L 674.450167 226.844078 
" clip-path="url(#p90d9b91ffe)" style="fill: none; stroke: #b0b0b0; stroke-opacity: 0.3; stroke-width: 0.8; stroke-linecap: square"/>
     </g>
     <g id="line2d_10">
      <g>
       <use xlink:href="#m791901ede3" x="52.004" y="226.844078" style="stroke: #000000; stroke-width: 0.8"/>
      </g>
     </g>
     <g id="text_8">
      <!-- 14 -->
      <g transform="translate(32.279 230.643296) scale(0.1 -0.1)">
       <defs>
        <path id="DejaVuSans-34" d="M 2419 4116 
L 825 1625 
L 2419 1625 
L 2419 4116 
z
M 2253 4666 
L 3047 4666 
L 3047 1625 
L 3713 1625 
L 3713 1100 
L 3047 1100 
L 3047 0 
L 2419 0 
L 2419 1100 
L 313 1100 
L 313 1709 
L 2253 4666 
z
" transform="scale(0.015625)"/>
       </defs>
       <use xlink:href="#DejaVuSans-31"/>
       <use xlink:href="#DejaVuSans-34" transform="translate(63.623047 0)"/>
      </g>
     </g>
    </g>
    <g id="ytick_4">
     <g id="line2d_11">
      <path d="M 52.004 172.646796 
L 674.450167 172.646796 
" clip-path="url(#p90d9b91ffe)" style="fill: none; stroke: #b0b0b0; stroke-opacity: 0.3; stroke-width: 0.8; stroke-linecap: square"/>
     </g>
     <g id="line2d_12">
      <g>
       <use xlink:href="#m791901ede3" x="52.004" y="172.646796" style="stroke: #000000; stroke-width: 0.8"/>
      </g>
     </g>
     <g id="text_9">
      <!-- 16 -->
      <g transform="translate(32.279 176.446015) scale(0.1 -0.1)">
       <defs>
        <path id="DejaVuSans-36" d="M 2113 2584 
Q 1688 2584 1439 2293 
Q 1191 2003 1191 1497 
Q 1191 994 1439 701 
Q 1688 409 2113 409 
Q 2538 409 2786 701 
Q 3034 994 3034 1497 
Q 3034 2003 2786 2293 
Q 2538 2584 2113 2584 
z
M 3366 4563 
L 3366 3988 
Q 3128 4100 2886 4159 
Q 2644 4219 2406 4219 
Q 1781 4219 1451 3797 
Q 1122 3375 1075 2522 
Q 1259 2794 1537 2939 
Q 1816 3084 2150 3084 
Q 2853 3084 3261 2657 
Q 3669 2231 3669 1497 
Q 3669 778 3244 343 
Q 2819 -91 2113 -91 
Q 1303 -91 875 529 
Q 447 1150 447 2328 
Q 447 3434 972 4092 
Q 1497 4750 2381 4750 
Q 2619 4750 2861 4703 
Q 3103 4656 3366 4563 
z
" transform="scale(0.015625)"/>
       </defs>
       <use xlink:href="#DejaVuSans-31"/>
       <use xlink:href="#DejaVuSans-36" transform="translate(63.623047 0)"/>
      </g>
     </g>
    </g>
    <g id="ytick_5">
     <g id="line2d_13">
      <path d="M 52.004 118.449514 
L 674.450167 118.449514 
" clip-path="url(#p90d9b91ffe)" style="fill: none; stroke: #b0b0b0; stroke-opacity: 0.3; stroke-width: 0.8; stroke-linecap: square"/>
     </g>
     <g id="line2d_14">
      <g>
       <use xlink:href="#m791901ede3" x="52.004" y="118.449514" style="stroke: #000000; stroke-width: 0.8"/>
      </g>
     </g>
     <g id="text_10">
      <!-- 18 -->
      <g transform="translate(32.279 122.248733) scale(0.1 -0.1)">
       <use xlink:href="#DejaVuSans-31"/>
       <use xlink:href="#DejaVuSans-38" transform="translate(63.623047 0)"/>
      </g>
     </g>
    </g>
    <g id="ytick_6">
     <g id="line2d_15">
      <path d="M 52.004 64.252232 
L 674.450167 64.252232 
" clip-path="url(#p90d9b91ffe)" style="fill: none; stroke: #b0b0b0; stroke-opacity: 0.3; stroke-width: 0.8; stroke-linecap: square"/>
     </g>
     <g id="line2d_16">
      <g>
       <use xlink:href="#m791901ede3" x="52.004" y="64.252232" style="stroke: #000000; stroke-width: 0.8"/>
      </g>
     </g>
     <g id="text_11">
      <!-- 20 -->
      <g transform="translate(32.279 68.051451) scale(0.1 -0.1)">
       <use xlink:href="#DejaVuSans-32"/>
       <use xlink:href="#DejaVuSans-30" transform="translate(63.623047 0)"/>
      </g>
     </g>
    </g>
    <g id="text_12">
     <!-- Value ($y_{ij}$) -->
     <g transform="translate(24.559 228.32) rotate(-90) scale(0.12 -0.12)">
      <defs>
       <path id="DejaVuSans-56" d="M 1831 0 
L 50 4666 
L 709 4666 
L 2188 738 
L 3669 4666 
L 4325 4666 
L 2547 0 
L 1831 0 
z
" transform="scale(0.015625)"/>
       <path id="DejaVuSans-6c" d="M 603 4863 
L 1178 4863 
L 1178 0 
L 603 0 
L 603 4863 
z
" transform="scale(0.015625)"/>
       <path id="DejaVuSans-Oblique-79" d="M 1588 -325 
Q 1188 -997 936 -1164 
Q 684 -1331 294 -1331 
L -159 -1331 
L -63 -850 
L 269 -850 
Q 509 -850 678 -719 
Q 847 -588 1056 -206 
L 1234 128 
L 459 3500 
L 1069 3500 
L 1650 819 
L 3256 3500 
L 3859 3500 
L 1588 -325 
z
" transform="scale(0.015625)"/>
      </defs>
      <use xlink:href="#DejaVuSans-56" transform="translate(0 0.015625)"/>
      <use xlink:href="#DejaVuSans-61" transform="translate(68.408203 0.015625)"/>
      <use xlink:href="#DejaVuSans-6c" transform="translate(129.6875 0.015625)"/>
      <use xlink:href="#DejaVuSans-75" transform="translate(157.470703 0.015625)"/>
      <use xlink:href="#DejaVuSans-65" transform="translate(220.849609 0.015625)"/>
      <use xlink:href="#DejaVuSans-20" transform="translate(282.373047 0.015625)"/>
      <use xlink:href="#DejaVuSans-28" transform="translate(314.160156 0.015625)"/>
      <use xlink:href="#DejaVuSans-Oblique-79" transform="translate(353.173828 0.015625)"/>
      <use xlink:href="#DejaVuSans-Oblique-69" transform="translate(412.353516 -16.390625) scale(0.7)"/>
      <use xlink:href="#DejaVuSans-Oblique-6a" transform="translate(431.801758 -16.390625) scale(0.7)"/>
      <use xlink:href="#DejaVuSans-29" transform="translate(453.984375 0.015625)"/>
     </g>
    </g>
   </g>
   <g id="line2d_17">
    <path d="M 52.004 225.998822 
L 674.450167 225.998822 
" clip-path="url(#p90d9b91ffe)" style="fill: none; stroke-dasharray: 7.4,3.2; stroke-dashoffset: 0; stroke: #ff0000; stroke-width: 2"/>
   </g>
   <g id="LineCollection_1">
    <path d="M 80.297008 317.025871 
L 196.04113 317.025871 
" clip-path="url(#p90d9b91ffe)" style="fill: none; stroke: #1f77b4; stroke-width: 3"/>
   </g>
   <g id="LineCollection_2">
    <path d="M 80.297008 317.025871 
L 80.297008 315.048224 
" clip-path="url(#p90d9b91ffe)" style="fill: none; stroke-dasharray: 1.5,2.475; stroke-dashoffset: 0; stroke: #1f77b4; stroke-opacity: 0.3; stroke-width: 1.5"/>
   </g>
   <g id="LineCollection_3">
    <path d="M 93.157466 340.858803 
L 93.157466 317.025871 
" clip-path="url(#p90d9b91ffe)" style="fill: none; stroke-dasharray: 1.5,2.475; stroke-dashoffset: 0; stroke: #1f77b4; stroke-opacity: 0.3; stroke-width: 1.5"/>
   </g>
   <g id="LineCollection_4">
    <path d="M 106.017924 317.025871 
L 106.017924 308.911423 
" clip-path="url(#p90d9b91ffe)" style="fill: none; stroke-dasharray: 1.5,2.475; stroke-dashoffset: 0; stroke: #1f77b4; stroke-opacity: 0.3; stroke-width: 1.5"/>
   </g>
   <g id="LineCollection_5">
    <path d="M 118.878382 317.025871 
L 118.878382 273.330583 
" clip-path="url(#p90d9b91ffe)" style="fill: none; stroke-dasharray: 1.5,2.475; stroke-dashoffset: 0; stroke: #1f77b4; stroke-opacity: 0.3; stroke-width: 1.5"/>
   </g>
   <g id="LineCollection_6">
    <path d="M 131.73884 344.756499 
L 131.73884 317.025871 
" clip-path="url(#p90d9b91ffe)" style="fill: none; stroke-dasharray: 1.5,2.475; stroke-dashoffset: 0; stroke: #1f77b4; stroke-opacity: 0.3; stroke-width: 1.5"/>
   </g>
   <g id="LineCollection_7">
    <path d="M 144.599298 344.755831 
L 144.599298 317.025871 
" clip-path="url(#p90d9b91ffe)" style="fill: none; stroke-dasharray: 1.5,2.475; stroke-dashoffset: 0; stroke: #1f77b4; stroke-opacity: 0.3; stroke-width: 1.5"/>
   </g>
   <g id="LineCollection_8">
    <path d="M 157.459756 317.025871 
L 157.459756 271.04686 
" clip-path="url(#p90d9b91ffe)" style="fill: none; stroke-dasharray: 1.5,2.475; stroke-dashoffset: 0; stroke: #1f77b4; stroke-opacity: 0.3; stroke-width: 1.5"/>
   </g>
   <g id="LineCollection_9">
    <path d="M 170.320214 317.025871 
L 170.320214 304.043984 
" clip-path="url(#p90d9b91ffe)" style="fill: none; stroke-dasharray: 1.5,2.475; stroke-dashoffset: 0; stroke: #1f77b4; stroke-opacity: 0.3; stroke-width: 1.5"/>
   </g>
   <g id="LineCollection_10">
    <path d="M 183.180672 354.321818 
L 183.180672 317.025871 
" clip-path="url(#p90d9b91ffe)" style="fill: none; stroke-dasharray: 1.5,2.475; stroke-dashoffset: 0; stroke: #1f77b4; stroke-opacity: 0.3; stroke-width: 1.5"/>
   </g>
   <g id="LineCollection_11">
    <path d="M 196.04113 317.025871 
L 196.04113 313.184682 
" clip-path="url(#p90d9b91ffe)" style="fill: none; stroke-dasharray: 1.5,2.475; stroke-dashoffset: 0; stroke: #1f77b4; stroke-opacity: 0.3; stroke-width: 1.5"/>
   </g>
   <g id="LineCollection_12">
    <path d="M 208.901587 222.327784 
L 350.366625 222.327784 
" clip-path="url(#p90d9b91ffe)" style="fill: none; stroke: #ff7f0e; stroke-width: 3"/>
   </g>
   <g id="LineCollection_13">
    <path d="M 208.901587 222.327784 
L 208.901587 218.582421 
" clip-path="url(#p90d9b91ffe)" style="fill: none; stroke-dasharray: 1.5,2.475; stroke-dashoffset: 0; stroke: #ff7f0e; stroke-opacity: 0.3; stroke-width: 1.5"/>
   </g>
   <g id="LineCollection_14">
    <path d="M 221.762045 222.327784 
L 221.762045 218.676402 
" clip-path="url(#p90d9b91ffe)" style="fill: none; stroke-dasharray: 1.5,2.475; stroke-dashoffset: 0; stroke: #ff7f0e; stroke-opacity: 0.3; stroke-width: 1.5"/>
   </g>
   <g id="LineCollection_15">
    <path d="M 234.622503 222.327784 
L 234.622503 189.910164 
" clip-path="url(#p90d9b91ffe)" style="fill: none; stroke-dasharray: 1.5,2.475; stroke-dashoffset: 0; stroke: #ff7f0e; stroke-opacity: 0.3; stroke-width: 1.5"/>
   </g>
   <g id="LineCollection_16">
    <path d="M 247.482961 277.516378 
L 247.482961 222.327784 
" clip-path="url(#p90d9b91ffe)" style="fill: none; stroke-dasharray: 1.5,2.475; stroke-dashoffset: 0; stroke: #ff7f0e; stroke-opacity: 0.3; stroke-width: 1.5"/>
   </g>
   <g id="LineCollection_17">
    <path d="M 260.343419 269.85983 
L 260.343419 222.327784 
" clip-path="url(#p90d9b91ffe)" style="fill: none; stroke-dasharray: 1.5,2.475; stroke-dashoffset: 0; stroke: #ff7f0e; stroke-opacity: 0.3; stroke-width: 1.5"/>
   </g>
   <g id="LineCollection_18">
    <path d="M 273.203877 222.601279 
L 273.203877 222.327784 
" clip-path="url(#p90d9b91ffe)" style="fill: none; stroke-dasharray: 1.5,2.475; stroke-dashoffset: 0; stroke: #ff7f0e; stroke-opacity: 0.3; stroke-width: 1.5"/>
   </g>
   <g id="LineCollection_19">
    <path d="M 286.064335 240.914957 
L 286.064335 222.327784 
" clip-path="url(#p90d9b91ffe)" style="fill: none; stroke-dasharray: 1.5,2.475; stroke-dashoffset: 0; stroke: #ff7f0e; stroke-opacity: 0.3; stroke-width: 1.5"/>
   </g>
   <g id="LineCollection_20">
    <path d="M 298.924793 222.327784 
L 298.924793 186.971923 
" clip-path="url(#p90d9b91ffe)" style="fill: none; stroke-dasharray: 1.5,2.475; stroke-dashoffset: 0; stroke: #ff7f0e; stroke-opacity: 0.3; stroke-width: 1.5"/>
   </g>
   <g id="LineCollection_21">
    <path d="M 311.785251 236.654764 
L 311.785251 222.327784 
" clip-path="url(#p90d9b91ffe)" style="fill: none; stroke-dasharray: 1.5,2.475; stroke-dashoffset: 0; stroke: #ff7f0e; stroke-opacity: 0.3; stroke-width: 1.5"/>
   </g>
   <g id="LineCollection_22">
    <path d="M 324.645709 257.152703 
L 324.645709 222.327784 
" clip-path="url(#p90d9b91ffe)" style="fill: none; stroke-dasharray: 1.5,2.475; stroke-dashoffset: 0; stroke: #ff7f0e; stroke-opacity: 0.3; stroke-width: 1.5"/>
   </g>
   <g id="LineCollection_23">
    <path d="M 337.506167 222.327784 
L 337.506167 140.169802 
" clip-path="url(#p90d9b91ffe)" style="fill: none; stroke-dasharray: 1.5,2.475; stroke-dashoffset: 0; stroke: #ff7f0e; stroke-opacity: 0.3; stroke-width: 1.5"/>
   </g>
   <g id="LineCollection_24">
    <path d="M 350.366625 222.327784 
L 350.366625 208.922783 
" clip-path="url(#p90d9b91ffe)" style="fill: none; stroke-dasharray: 1.5,2.475; stroke-dashoffset: 0; stroke: #ff7f0e; stroke-opacity: 0.3; stroke-width: 1.5"/>
   </g>
   <g id="LineCollection_25">
    <path d="M 363.227083 298.613006 
L 453.250289 298.613006 
" clip-path="url(#p90d9b91ffe)" style="fill: none; stroke: #2ca02c; stroke-width: 3"/>
   </g>
   <g id="LineCollection_26">
    <path d="M 363.227083 298.613006 
L 363.227083 278.296476 
" clip-path="url(#p90d9b91ffe)" style="fill: none; stroke-dasharray: 1.5,2.475; stroke-dashoffset: 0; stroke: #2ca02c; stroke-opacity: 0.3; stroke-width: 1.5"/>
   </g>
   <g id="LineCollection_27">
    <path d="M 376.087541 338.954469 
L 376.087541 298.613006 
" clip-path="url(#p90d9b91ffe)" style="fill: none; stroke-dasharray: 1.5,2.475; stroke-dashoffset: 0; stroke: #2ca02c; stroke-opacity: 0.3; stroke-width: 1.5"/>
   </g>
   <g id="LineCollection_28">
    <path d="M 388.947999 303.169408 
L 388.947999 298.613006 
" clip-path="url(#p90d9b91ffe)" style="fill: none; stroke-dasharray: 1.5,2.475; stroke-dashoffset: 0; stroke: #2ca02c; stroke-opacity: 0.3; stroke-width: 1.5"/>
   </g>
   <g id="LineCollection_29">
    <path d="M 401.808457 298.613006 
L 401.808457 276.532582 
" clip-path="url(#p90d9b91ffe)" style="fill: none; stroke-dasharray: 1.5,2.475; stroke-dashoffset: 0; stroke: #2ca02c; stroke-opacity: 0.3; stroke-width: 1.5"/>
   </g>
   <g id="LineCollection_30">
    <path d="M 414.668915 327.826902 
L 414.668915 298.613006 
" clip-path="url(#p90d9b91ffe)" style="fill: none; stroke-dasharray: 1.5,2.475; stroke-dashoffset: 0; stroke: #2ca02c; stroke-opacity: 0.3; stroke-width: 1.5"/>
   </g>
   <g id="LineCollection_31">
    <path d="M 427.529373 298.613006 
L 427.529373 265.770001 
" clip-path="url(#p90d9b91ffe)" style="fill: none; stroke-dasharray: 1.5,2.475; stroke-dashoffset: 0; stroke: #2ca02c; stroke-opacity: 0.3; stroke-width: 1.5"/>
   </g>
   <g id="LineCollection_32">
    <path d="M 440.389831 305.456098 
L 440.389831 298.613006 
" clip-path="url(#p90d9b91ffe)" style="fill: none; stroke-dasharray: 1.5,2.475; stroke-dashoffset: 0; stroke: #2ca02c; stroke-opacity: 0.3; stroke-width: 1.5"/>
   </g>
   <g id="LineCollection_33">
    <path d="M 453.250289 298.613006 
L 453.250289 292.898116 
" clip-path="url(#p90d9b91ffe)" style="fill: none; stroke-dasharray: 1.5,2.475; stroke-dashoffset: 0; stroke: #2ca02c; stroke-opacity: 0.3; stroke-width: 1.5"/>
   </g>
   <g id="LineCollection_34">
    <path d="M 466.110747 129.523389 
L 646.157159 129.523389 
" clip-path="url(#p90d9b91ffe)" style="fill: none; stroke: #d62728; stroke-width: 3"/>
   </g>
   <g id="LineCollection_35">
    <path d="M 466.110747 142.907661 
L 466.110747 129.523389 
" clip-path="url(#p90d9b91ffe)" style="fill: none; stroke-dasharray: 1.5,2.475; stroke-dashoffset: 0; stroke: #d62728; stroke-opacity: 0.3; stroke-width: 1.5"/>
   </g>
   <g id="LineCollection_36">
    <path d="M 478.971205 129.523389 
L 478.971205 43.158182 
" clip-path="url(#p90d9b91ffe)" style="fill: none; stroke-dasharray: 1.5,2.475; stroke-dashoffset: 0; stroke: #d62728; stroke-opacity: 0.3; stroke-width: 1.5"/>
   </g>
   <g id="LineCollection_37">
    <path d="M 491.831663 129.523389 
L 491.831663 118.998149 
" clip-path="url(#p90d9b91ffe)" style="fill: none; stroke-dasharray: 1.5,2.475; stroke-dashoffset: 0; stroke: #d62728; stroke-opacity: 0.3; stroke-width: 1.5"/>
   </g>
   <g id="LineCollection_38">
    <path d="M 504.692121 161.443307 
L 504.692121 129.523389 
" clip-path="url(#p90d9b91ffe)" style="fill: none; stroke-dasharray: 1.5,2.475; stroke-dashoffset: 0; stroke: #d62728; stroke-opacity: 0.3; stroke-width: 1.5"/>
   </g>
   <g id="LineCollection_39">
    <path d="M 517.552579 129.523389 
L 517.552579 85.01474 
" clip-path="url(#p90d9b91ffe)" style="fill: none; stroke-dasharray: 1.5,2.475; stroke-dashoffset: 0; stroke: #d62728; stroke-opacity: 0.3; stroke-width: 1.5"/>
   </g>
   <g id="LineCollection_40">
    <path d="M 530.413037 168.07432 
L 530.413037 129.523389 
" clip-path="url(#p90d9b91ffe)" style="fill: none; stroke-dasharray: 1.5,2.475; stroke-dashoffset: 0; stroke: #d62728; stroke-opacity: 0.3; stroke-width: 1.5"/>
   </g>
   <g id="LineCollection_41">
    <path d="M 543.273495 129.523389 
L 543.273495 109.959635 
" clip-path="url(#p90d9b91ffe)" style="fill: none; stroke-dasharray: 1.5,2.475; stroke-dashoffset: 0; stroke: #d62728; stroke-opacity: 0.3; stroke-width: 1.5"/>
   </g>
   <g id="LineCollection_42">
    <path d="M 556.133953 198.10611 
L 556.133953 129.523389 
" clip-path="url(#p90d9b91ffe)" style="fill: none; stroke-dasharray: 1.5,2.475; stroke-dashoffset: 0; stroke: #d62728; stroke-opacity: 0.3; stroke-width: 1.5"/>
   </g>
   <g id="LineCollection_43">
    <path d="M 568.994411 172.437569 
L 568.994411 129.523389 
" clip-path="url(#p90d9b91ffe)" style="fill: none; stroke-dasharray: 1.5,2.475; stroke-dashoffset: 0; stroke: #d62728; stroke-opacity: 0.3; stroke-width: 1.5"/>
   </g>
   <g id="LineCollection_44">
    <path d="M 581.854869 129.523389 
L 581.854869 110.447506 
" clip-path="url(#p90d9b91ffe)" style="fill: none; stroke-dasharray: 1.5,2.475; stroke-dashoffset: 0; stroke: #d62728; stroke-opacity: 0.3; stroke-width: 1.5"/>
   </g>
   <g id="LineCollection_45">
    <path d="M 594.715327 129.523389 
L 594.715327 88.432353 
" clip-path="url(#p90d9b91ffe)" style="fill: none; stroke-dasharray: 1.5,2.475; stroke-dashoffset: 0; stroke: #d62728; stroke-opacity: 0.3; stroke-width: 1.5"/>
   </g>
   <g id="LineCollection_46">
    <path d="M 607.575785 129.523389 
L 607.575785 111.483743 
" clip-path="url(#p90d9b91ffe)" style="fill: none; stroke-dasharray: 1.5,2.475; stroke-dashoffset: 0; stroke: #d62728; stroke-opacity: 0.3; stroke-width: 1.5"/>
   </g>
   <g id="LineCollection_47">
    <path d="M 620.436243 129.523389 
L 620.436243 123.150381 
" clip-path="url(#p90d9b91ffe)" style="fill: none; stroke-dasharray: 1.5,2.475; stroke-dashoffset: 0; stroke: #d62728; stroke-opacity: 0.3; stroke-width: 1.5"/>
   </g>
   <g id="LineCollection_48">
    <path d="M 633.296701 130.688765 
L 633.296701 129.523389 
" clip-path="url(#p90d9b91ffe)" style="fill: none; stroke-dasharray: 1.5,2.475; stroke-dashoffset: 0; stroke: #d62728; stroke-opacity: 0.3; stroke-width: 1.5"/>
   </g>
   <g id="LineCollection_49">
    <path d="M 646.157159 178.548419 
L 646.157159 129.523389 
" clip-path="url(#p90d9b91ffe)" style="fill: none; stroke-dasharray: 1.5,2.475; stroke-dashoffset: 0; stroke: #d62728; stroke-opacity: 0.3; stroke-width: 1.5"/>
   </g>
   <g id="patch_3">
    <path d="M 52.004 369.88 
L 52.004 27.6 
" style="fill: none; stroke: #000000; stroke-width: 0.8; stroke-linejoin: miter; stroke-linecap: square"/>
   </g>
   <g id="patch_4">
    <path d="M 674.450167 369.88 
L 674.450167 27.6 
" style="fill: none; stroke: #000000; stroke-width: 0.8; stroke-linejoin: miter; stroke-linecap: square"/>
   </g>
   <g id="patch_5">
    <path d="M 52.004 369.88 
L 674.450167 369.88 
" style="fill: none; stroke: #000000; stroke-width: 0.8; stroke-linejoin: miter; stroke-linecap: square"/>
   </g>
   <g id="patch_6">
    <path d="M 52.004 27.6 
L 674.450167 27.6 
" style="fill: none; stroke: #000000; stroke-width: 0.8; stroke-linejoin: miter; stroke-linecap: square"/>
   </g>
   <g id="text_13">
    <!-- One-Way ANOVA: Data, Group Means, and Grand Mean -->
    <g transform="translate(170.564115 21.6) scale(0.14 -0.14)">
     <defs>
      <path id="DejaVuSans-2d" d="M 313 2009 
L 1997 2009 
L 1997 1497 
L 313 1497 
L 313 2009 
z
" transform="scale(0.015625)"/>
      <path id="DejaVuSans-57" d="M 213 4666 
L 850 4666 
L 1831 722 
L 2809 4666 
L 3519 4666 
L 4500 722 
L 5478 4666 
L 6119 4666 
L 4947 0 
L 4153 0 
L 3169 4050 
L 2175 0 
L 1381 0 
L 213 4666 
z
" transform="scale(0.015625)"/>
      <path id="DejaVuSans-4e" d="M 628 4666 
L 1478 4666 
L 3547 763 
L 3547 4666 
L 4159 4666 
L 4159 0 
L 3309 0 
L 1241 3903 
L 1241 0 
L 628 0 
L 628 4666 
z
" transform="scale(0.015625)"/>
      <path id="DejaVuSans-3a" d="M 750 794 
L 1409 794 
L 1409 0 
L 750 0 
L 750 794 
z
M 750 3309 
L 1409 3309 
L 1409 2516 
L 750 2516 
L 750 3309 
z
" transform="scale(0.015625)"/>
      <path id="DejaVuSans-2c" d="M 750 794 
L 1409 794 
L 1409 256 
L 897 -744 
L 494 -744 
L 750 256 
L 750 794 
z
" transform="scale(0.015625)"/>
      <path id="DejaVuSans-4d" d="M 628 4666 
L 1569 4666 
L 2759 1491 
L 3956 4666 
L 4897 4666 
L 4897 0 
L 4281 0 
L 4281 4097 
L 3078 897 
L 2444 897 
L 1241 4097 
L 1241 0 
L 628 0 
L 628 4666 
z
" transform="scale(0.015625)"/>
     </defs>
     <use xlink:href="#DejaVuSans-4f"/>
     <use xlink:href="#DejaVuSans-6e" transform="translate(78.710938 0)"/>
     <use xlink:href="#DejaVuSans-65" transform="translate(142.089844 0)"/>
     <use xlink:href="#DejaVuSans-2d" transform="translate(203.613281 0)"/>
     <use xlink:href="#DejaVuSans-57" transform="translate(235.697266 0)"/>
     <use xlink:href="#DejaVuSans-61" transform="translate(328.199219 0)"/>
     <use xlink:href="#DejaVuSans-79" transform="translate(389.478516 0)"/>
     <use xlink:href="#DejaVuSans-20" transform="translate(448.658203 0)"/>
     <use xlink:href="#DejaVuSans-41" transform="translate(480.445312 0)"/>
     <use xlink:href="#DejaVuSans-4e" transform="translate(548.853516 0)"/>
     <use xlink:href="#DejaVuSans-4f" transform="translate(623.658203 0)"/>
     <use xlink:href="#DejaVuSans-56" transform="translate(700.619141 0)"/>
     <use xlink:href="#DejaVuSans-41" transform="translate(762.652344 0)"/>
     <use xlink:href="#DejaVuSans-3a" transform="translate(829.310547 0)"/>
     <use xlink:href="#DejaVuSans-20" transform="translate(863.001953 0)"/>
     <use xlink:href="#DejaVuSans-44" transform="translate(894.789062 0)"/>
     <use xlink:href="#DejaVuSans-61" transform="translate(971.791016 0)"/>
     <use xlink:href="#DejaVuSans-74" transform="translate(1033.070312 0)"/>
     <use xlink:href="#DejaVuSans-61" transform="translate(1072.279297 0)"/>
     <use xlink:href="#DejaVuSans-2c" transform="translate(1133.558594 0)"/>
     <use xlink:href="#DejaVuSans-20" transform="translate(1165.345703 0)"/>
     <use xlink:href="#DejaVuSans-47" transform="translate(1197.132812 0)"/>
     <use xlink:href="#DejaVuSans-72" transform="translate(1274.623047 0)"/>
     <use xlink:href="#DejaVuSans-6f" transform="translate(1313.486328 0)"/>
     <use xlink:href="#DejaVuSans-75" transform="translate(1374.667969 0)"/>
     <use xlink:href="#DejaVuSans-70" transform="translate(1438.046875 0)"/>
     <use xlink:href="#DejaVuSans-20" transform="translate(1501.523438 0)"/>
     <use xlink:href="#DejaVuSans-4d" transform="translate(1533.310547 0)"/>
     <use xlink:href="#DejaVuSans-65" transform="translate(1619.589844 0)"/>
     <use xlink:href="#DejaVuSans-61" transform="translate(1681.113281 0)"/>
     <use xlink:href="#DejaVuSans-6e" transform="translate(1742.392578 0)"/>
     <use xlink:href="#DejaVuSans-73" transform="translate(1805.771484 0)"/>
     <use xlink:href="#DejaVuSans-2c" transform="translate(1857.871094 0)"/>
     <use xlink:href="#DejaVuSans-20" transform="translate(1889.658203 0)"/>
     <use xlink:href="#DejaVuSans-61" transform="translate(1921.445312 0)"/>
     <use xlink:href="#DejaVuSans-6e" transform="translate(1982.724609 0)"/>
     <use xlink:href="#DejaVuSans-64" transform="translate(2046.103516 0)"/>
     <use xlink:href="#DejaVuSans-20" transform="translate(2109.580078 0)"/>
     <use xlink:href="#DejaVuSans-47" transform="translate(2141.367188 0)"/>
     <use xlink:href="#DejaVuSans-72" transform="translate(2218.857422 0)"/>
     <use xlink:href="#DejaVuSans-61" transform="translate(2259.970703 0)"/>
     <use xlink:href="#DejaVuSans-6e" transform="translate(2321.25 0)"/>
     <use xlink:href="#DejaVuSans-64" transform="translate(2384.628906 0)"/>
     <use xlink:href="#DejaVuSans-20" transform="translate(2448.105469 0)"/>
     <use xlink:href="#DejaVuSans-4d" transform="translate(2479.892578 0)"/>
     <use xlink:href="#DejaVuSans-65" transform="translate(2566.171875 0)"/>
     <use xlink:href="#DejaVuSans-61" transform="translate(2627.695312 0)"/>
     <use xlink:href="#DejaVuSans-6e" transform="translate(2688.974609 0)"/>
    </g>
   </g>
   <g id="legend_1">
    <g id="patch_7">
     <path d="M 688.89909 104.0125 
L 849.89909 104.0125 
Q 851.89909 104.0125 851.89909 102.0125 
L 851.89909 29.6 
Q 851.89909 27.6 849.89909 27.6 
L 688.89909 27.6 
Q 686.89909 27.6 686.89909 29.6 
L 686.89909 102.0125 
Q 686.89909 104.0125 688.89909 104.0125 
z
" style="fill: #ffffff; opacity: 0.8; stroke: #cccccc; stroke-linejoin: miter"/>
    </g>
    <g id="PathCollection_5">
     <g>
      <use xlink:href="#m7eca8ffa41" x="700.89909" y="36.573438" style="fill: #1f77b4; fill-opacity: 0.7; stroke: #1f77b4; stroke-opacity: 0.7"/>
     </g>
    </g>
    <g id="text_14">
     <!-- Group A -->
     <g transform="translate(718.89909 39.198438) scale(0.1 -0.1)">
      <use xlink:href="#DejaVuSans-47"/>
      <use xlink:href="#DejaVuSans-72" transform="translate(77.490234 0)"/>
      <use xlink:href="#DejaVuSans-6f" transform="translate(116.353516 0)"/>
      <use xlink:href="#DejaVuSans-75" transform="translate(177.535156 0)"/>
      <use xlink:href="#DejaVuSans-70" transform="translate(240.914062 0)"/>
      <use xlink:href="#DejaVuSans-20" transform="translate(304.390625 0)"/>
      <use xlink:href="#DejaVuSans-41" transform="translate(336.177734 0)"/>
     </g>
    </g>
    <g id="PathCollection_6">
     <g>
      <use xlink:href="#m5c5191bc50" x="700.89909" y="51.251563" style="fill: #ff7f0e; fill-opacity: 0.7; stroke: #ff7f0e; stroke-opacity: 0.7"/>
     </g>
    </g>
    <g id="text_15">
     <!-- Group B -->
     <g transform="translate(718.89909 53.876563) scale(0.1 -0.1)">
      <use xlink:href="#DejaVuSans-47"/>
      <use xlink:href="#DejaVuSans-72" transform="translate(77.490234 0)"/>
      <use xlink:href="#DejaVuSans-6f" transform="translate(116.353516 0)"/>
      <use xlink:href="#DejaVuSans-75" transform="translate(177.535156 0)"/>
      <use xlink:href="#DejaVuSans-70" transform="translate(240.914062 0)"/>
      <use xlink:href="#DejaVuSans-20" transform="translate(304.390625 0)"/>
      <use xlink:href="#DejaVuSans-42" transform="translate(336.177734 0)"/>
     </g>
    </g>
    <g id="PathCollection_7">
     <g>
      <use xlink:href="#mc8e4ff63fa" x="700.89909" y="65.929688" style="fill: #2ca02c; fill-opacity: 0.7; stroke: #2ca02c; stroke-opacity: 0.7"/>
     </g>
    </g>
    <g id="text_16">
     <!-- Group C -->
     <g transform="translate(718.89909 68.554688) scale(0.1 -0.1)">
      <use xlink:href="#DejaVuSans-47"/>
      <use xlink:href="#DejaVuSans-72" transform="translate(77.490234 0)"/>
      <use xlink:href="#DejaVuSans-6f" transform="translate(116.353516 0)"/>
      <use xlink:href="#DejaVuSans-75" transform="translate(177.535156 0)"/>
      <use xlink:href="#DejaVuSans-70" transform="translate(240.914062 0)"/>
      <use xlink:href="#DejaVuSans-20" transform="translate(304.390625 0)"/>
      <use xlink:href="#DejaVuSans-43" transform="translate(336.177734 0)"/>
     </g>
    </g>
    <g id="PathCollection_8">
     <g>
      <use xlink:href="#mc5bc6f050a" x="700.89909" y="80.607813" style="fill: #d62728; fill-opacity: 0.7; stroke: #d62728; stroke-opacity: 0.7"/>
     </g>
    </g>
    <g id="text_17">
     <!-- Group D -->
     <g transform="translate(718.89909 83.232813) scale(0.1 -0.1)">
      <use xlink:href="#DejaVuSans-47"/>
      <use xlink:href="#DejaVuSans-72" transform="translate(77.490234 0)"/>
      <use xlink:href="#DejaVuSans-6f" transform="translate(116.353516 0)"/>
      <use xlink:href="#DejaVuSans-75" transform="translate(177.535156 0)"/>
      <use xlink:href="#DejaVuSans-70" transform="translate(240.914062 0)"/>
      <use xlink:href="#DejaVuSans-20" transform="translate(304.390625 0)"/>
      <use xlink:href="#DejaVuSans-44" transform="translate(336.177734 0)"/>
     </g>
    </g>
    <g id="line2d_18">
     <path d="M 690.89909 94.4125 
L 700.89909 94.4125 
L 710.89909 94.4125 
" style="fill: none; stroke-dasharray: 7.4,3.2; stroke-dashoffset: 0; stroke: #ff0000; stroke-width: 2"/>
    </g>
    <g id="text_18">
     <!-- Grand Mean ($\bar{y}_{..}$ = 14.03) -->
     <g transform="translate(718.89909 97.9125) scale(0.1 -0.1)">
      <defs>
       <path id="DejaVuSans-304" d="M -2518 4769 
L -650 4769 
L -650 4306 
L -2518 4306 
L -2518 4769 
z
" transform="scale(0.015625)"/>
       <path id="DejaVuSans-2e" d="M 684 794 
L 1344 794 
L 1344 0 
L 684 0 
L 684 794 
z
" transform="scale(0.015625)"/>
       <path id="DejaVuSans-33" d="M 2597 2516 
Q 3050 2419 3304 2112 
Q 3559 1806 3559 1356 
Q 3559 666 3084 287 
Q 2609 -91 1734 -91 
Q 1441 -91 1130 -33 
Q 819 25 488 141 
L 488 750 
Q 750 597 1062 519 
Q 1375 441 1716 441 
Q 2309 441 2620 675 
Q 2931 909 2931 1356 
Q 2931 1769 2642 2001 
Q 2353 2234 1838 2234 
L 1294 2234 
L 1294 2753 
L 1863 2753 
Q 2328 2753 2575 2939 
Q 2822 3125 2822 3475 
Q 2822 3834 2567 4026 
Q 2313 4219 1838 4219 
Q 1578 4219 1281 4162 
Q 984 4106 628 3988 
L 628 4550 
Q 988 4650 1302 4700 
Q 1616 4750 1894 4750 
Q 2613 4750 3031 4423 
Q 3450 4097 3450 3541 
Q 3450 3153 3228 2886 
Q 3006 2619 2597 2516 
z
" transform="scale(0.015625)"/>
      </defs>
      <use xlink:href="#DejaVuSans-47" transform="translate(0 0.015625)"/>
      <use xlink:href="#DejaVuSans-72" transform="translate(77.490234 0.015625)"/>
      <use xlink:href="#DejaVuSans-61" transform="translate(118.603516 0.015625)"/>
      <use xlink:href="#DejaVuSans-6e" transform="translate(179.882812 0.015625)"/>
      <use xlink:href="#DejaVuSans-64" transform="translate(243.261719 0.015625)"/>
      <use xlink:href="#DejaVuSans-20" transform="translate(306.738281 0.015625)"/>
      <use xlink:href="#DejaVuSans-4d" transform="translate(338.525391 0.015625)"/>
      <use xlink:href="#DejaVuSans-65" transform="translate(424.804688 0.015625)"/>
      <use xlink:href="#DejaVuSans-61" transform="translate(486.328125 0.015625)"/>
      <use xlink:href="#DejaVuSans-6e" transform="translate(547.607422 0.015625)"/>
      <use xlink:href="#DejaVuSans-20" transform="translate(610.986328 0.015625)"/>
      <use xlink:href="#DejaVuSans-28" transform="translate(642.773438 0.015625)"/>
      <use xlink:href="#DejaVuSans-304" transform="translate(743.925781 -0.078125)"/>
      <use xlink:href="#DejaVuSans-Oblique-79" transform="translate(681.787109 0.015625)"/>
      <use xlink:href="#DejaVuSans-2e" transform="translate(741.923828 -16.390625) scale(0.7)"/>
      <use xlink:href="#DejaVuSans-2e" transform="translate(777.8125 -16.390625) scale(0.7)"/>
      <use xlink:href="#DejaVuSans-20" transform="translate(816.435547 0.015625)"/>
      <use xlink:href="#DejaVuSans-3d" transform="translate(848.222656 0.015625)"/>
      <use xlink:href="#DejaVuSans-20" transform="translate(932.011719 0.015625)"/>
      <use xlink:href="#DejaVuSans-31" transform="translate(963.798828 0.015625)"/>
      <use xlink:href="#DejaVuSans-34" transform="translate(1027.421875 0.015625)"/>
      <use xlink:href="#DejaVuSans-2e" transform="translate(1091.044922 0.015625)"/>
      <use xlink:href="#DejaVuSans-30" transform="translate(1122.832031 0.015625)"/>
      <use xlink:href="#DejaVuSans-33" transform="translate(1186.455078 0.015625)"/>
      <use xlink:href="#DejaVuSans-29" transform="translate(1250.078125 0.015625)"/>
     </g>
    </g>
   </g>
  </g>
 </g>
 <defs>
  <clipPath id="p90d9b91ffe">
   <rect x="52.004" y="27.6" width="622.446167" height="342.28"/>
  </clipPath>
 </defs>
</svg>
