<?xml version="1.0" encoding="UTF-8"?>
<svg xmlns="http://www.w3.org/2000/svg" xmlns:xlink="http://www.w3.org/1999/xlink" width="432" height="432" viewBox="0 0 432 432">
<defs>
<g>
<g id="glyph-0-0">
<path d="M 0.359375 0 L 0.359375 -8.03125 L 6.734375 -8.03125 L 6.734375 0 Z M 5.734375 -1 L 5.734375 -7.03125 L 1.375 -7.03125 L 1.375 -1 Z M 5.734375 -1 "/>
</g>
<g id="glyph-0-1">
<path d="M 3.03125 -7.828125 C 4.039062 -7.828125 4.773438 -7.410156 5.234375 -6.578125 C 5.578125 -5.929688 5.75 -5.046875 5.75 -3.921875 C 5.75 -2.859375 5.59375 -1.976562 5.28125 -1.28125 C 4.820312 -0.28125 4.070312 0.21875 3.03125 0.21875 C 2.082031 0.21875 1.378906 -0.191406 0.921875 -1.015625 C 0.535156 -1.691406 0.34375 -2.609375 0.34375 -3.765625 C 0.34375 -4.648438 0.457031 -5.410156 0.6875 -6.046875 C 1.125 -7.234375 1.90625 -7.828125 3.03125 -7.828125 Z M 3.015625 -0.6875 C 3.523438 -0.6875 3.929688 -0.910156 4.234375 -1.359375 C 4.535156 -1.816406 4.6875 -2.660156 4.6875 -3.890625 C 4.6875 -4.773438 4.578125 -5.503906 4.359375 -6.078125 C 4.140625 -6.660156 3.71875 -6.953125 3.09375 -6.953125 C 2.507812 -6.953125 2.082031 -6.675781 1.8125 -6.125 C 1.550781 -5.582031 1.421875 -4.78125 1.421875 -3.71875 C 1.421875 -2.914062 1.503906 -2.273438 1.671875 -1.796875 C 1.929688 -1.054688 2.378906 -0.6875 3.015625 -0.6875 Z M 3.015625 -0.6875 "/>
</g>
<g id="glyph-0-2">
<path d="M 1.390625 -2 C 1.453125 -1.4375 1.710938 -1.046875 2.171875 -0.828125 C 2.398438 -0.722656 2.664062 -0.671875 2.96875 -0.671875 C 3.550781 -0.671875 3.984375 -0.851562 4.265625 -1.21875 C 4.546875 -1.59375 4.6875 -2.007812 4.6875 -2.46875 C 4.6875 -3.007812 4.519531 -3.425781 4.1875 -3.71875 C 3.851562 -4.019531 3.457031 -4.171875 3 -4.171875 C 2.65625 -4.171875 2.359375 -4.101562 2.109375 -3.96875 C 1.867188 -3.84375 1.664062 -3.664062 1.5 -3.4375 L 0.640625 -3.484375 L 1.234375 -7.703125 L 5.3125 -7.703125 L 5.3125 -6.75 L 1.984375 -6.75 L 1.640625 -4.578125 C 1.828125 -4.710938 2.003906 -4.816406 2.171875 -4.890625 C 2.460938 -5.003906 2.796875 -5.0625 3.171875 -5.0625 C 3.890625 -5.0625 4.5 -4.828125 5 -4.359375 C 5.5 -3.898438 5.75 -3.316406 5.75 -2.609375 C 5.75 -1.867188 5.519531 -1.210938 5.0625 -0.640625 C 4.601562 -0.078125 3.875 0.203125 2.875 0.203125 C 2.238281 0.203125 1.675781 0.0234375 1.1875 -0.328125 C 0.695312 -0.691406 0.421875 -1.25 0.359375 -2 Z M 1.390625 -2 "/>
</g>
<g id="glyph-0-3">
<path d="M 1.078125 -5.546875 L 1.078125 -6.296875 C 1.785156 -6.367188 2.28125 -6.484375 2.5625 -6.640625 C 2.84375 -6.804688 3.050781 -7.191406 3.1875 -7.796875 L 3.96875 -7.796875 L 3.96875 0 L 2.921875 0 L 2.921875 -5.546875 Z M 1.078125 -5.546875 "/>
</g>
<g id="glyph-0-4">
<path d="M 0.34375 0 C 0.382812 -0.675781 0.523438 -1.265625 0.765625 -1.765625 C 1.003906 -2.265625 1.476562 -2.71875 2.1875 -3.125 L 3.234375 -3.734375 C 3.703125 -4.003906 4.035156 -4.238281 4.234375 -4.4375 C 4.523438 -4.738281 4.671875 -5.082031 4.671875 -5.46875 C 4.671875 -5.925781 4.535156 -6.285156 4.265625 -6.546875 C 3.992188 -6.816406 3.628906 -6.953125 3.171875 -6.953125 C 2.492188 -6.953125 2.023438 -6.695312 1.765625 -6.1875 C 1.628906 -5.914062 1.554688 -5.535156 1.546875 -5.046875 L 0.546875 -5.046875 C 0.554688 -5.734375 0.679688 -6.289062 0.921875 -6.71875 C 1.347656 -7.476562 2.097656 -7.859375 3.171875 -7.859375 C 4.078125 -7.859375 4.734375 -7.613281 5.140625 -7.125 C 5.554688 -6.644531 5.765625 -6.109375 5.765625 -5.515625 C 5.765625 -4.890625 5.546875 -4.351562 5.109375 -3.90625 C 4.847656 -3.644531 4.390625 -3.332031 3.734375 -2.96875 L 2.984375 -2.546875 C 2.617188 -2.347656 2.335938 -2.160156 2.140625 -1.984375 C 1.773438 -1.671875 1.546875 -1.320312 1.453125 -0.9375 L 5.734375 -0.9375 L 5.734375 0 Z M 0.34375 0 "/>
</g>
<g id="glyph-0-5">
<path d="M 2.90625 0.21875 C 1.976562 0.21875 1.304688 -0.0351562 0.890625 -0.546875 C 0.472656 -1.054688 0.265625 -1.675781 0.265625 -2.40625 L 1.296875 -2.40625 C 1.335938 -1.894531 1.429688 -1.523438 1.578125 -1.296875 C 1.835938 -0.890625 2.300781 -0.6875 2.96875 -0.6875 C 3.476562 -0.6875 3.890625 -0.820312 4.203125 -1.09375 C 4.523438 -1.375 4.6875 -1.734375 4.6875 -2.171875 C 4.6875 -2.710938 4.519531 -3.085938 4.1875 -3.296875 C 3.851562 -3.515625 3.394531 -3.625 2.8125 -3.625 C 2.75 -3.625 2.679688 -3.625 2.609375 -3.625 C 2.546875 -3.625 2.476562 -3.617188 2.40625 -3.609375 L 2.40625 -4.484375 C 2.507812 -4.472656 2.59375 -4.460938 2.65625 -4.453125 C 2.726562 -4.453125 2.804688 -4.453125 2.890625 -4.453125 C 3.253906 -4.453125 3.554688 -4.515625 3.796875 -4.640625 C 4.210938 -4.835938 4.421875 -5.203125 4.421875 -5.734375 C 4.421875 -6.117188 4.28125 -6.414062 4 -6.625 C 3.726562 -6.84375 3.40625 -6.953125 3.03125 -6.953125 C 2.375 -6.953125 1.921875 -6.734375 1.671875 -6.296875 C 1.535156 -6.054688 1.457031 -5.710938 1.4375 -5.265625 L 0.46875 -5.265625 C 0.46875 -5.847656 0.582031 -6.34375 0.8125 -6.75 C 1.21875 -7.476562 1.925781 -7.84375 2.9375 -7.84375 C 3.726562 -7.84375 4.34375 -7.664062 4.78125 -7.3125 C 5.21875 -6.957031 5.4375 -6.441406 5.4375 -5.765625 C 5.4375 -5.285156 5.304688 -4.894531 5.046875 -4.59375 C 4.890625 -4.40625 4.6875 -4.257812 4.4375 -4.15625 C 4.84375 -4.039062 5.160156 -3.820312 5.390625 -3.5 C 5.628906 -3.175781 5.75 -2.78125 5.75 -2.3125 C 5.75 -1.570312 5.5 -0.960938 5 -0.484375 C 4.507812 -0.015625 3.8125 0.21875 2.90625 0.21875 Z M 2.90625 0.21875 "/>
</g>
<g id="glyph-0-6">
<path d="M 3.703125 -2.765625 L 3.703125 -6.328125 L 1.1875 -2.765625 Z M 3.71875 0 L 3.71875 -1.921875 L 0.28125 -1.921875 L 0.28125 -2.875 L 3.875 -7.859375 L 4.703125 -7.859375 L 4.703125 -2.765625 L 5.859375 -2.765625 L 5.859375 -1.921875 L 4.703125 -1.921875 L 4.703125 0 Z M 3.71875 0 "/>
</g>
<g id="glyph-1-0">
<path d="M 0.453125 0 L 0.453125 -10.046875 L 8.421875 -10.046875 L 8.421875 0 Z M 7.171875 -1.265625 L 7.171875 -8.78125 L 1.703125 -8.78125 L 1.703125 -1.265625 Z M 7.171875 -1.265625 "/>
</g>
<g id="glyph-1-1">
<path d="M 1.203125 -10.046875 L 5.71875 -10.046875 C 6.613281 -10.046875 7.332031 -9.789062 7.875 -9.28125 C 8.425781 -8.78125 8.703125 -8.078125 8.703125 -7.171875 C 8.703125 -6.378906 8.457031 -5.691406 7.96875 -5.109375 C 7.476562 -4.535156 6.726562 -4.25 5.71875 -4.25 L 2.5625 -4.25 L 2.5625 0 L 1.203125 0 Z M 7.328125 -7.15625 C 7.328125 -7.894531 7.050781 -8.394531 6.5 -8.65625 C 6.195312 -8.800781 5.785156 -8.875 5.265625 -8.875 L 2.5625 -8.875 L 2.5625 -5.390625 L 5.265625 -5.390625 C 5.878906 -5.390625 6.375 -5.519531 6.75 -5.78125 C 7.132812 -6.039062 7.328125 -6.5 7.328125 -7.15625 Z M 7.328125 -7.15625 "/>
</g>
<g id="glyph-1-2">
<path d="M 0.9375 -7.328125 L 2.109375 -7.328125 L 2.109375 -6.0625 C 2.203125 -6.300781 2.4375 -6.597656 2.8125 -6.953125 C 3.1875 -7.304688 3.617188 -7.484375 4.109375 -7.484375 C 4.128906 -7.484375 4.164062 -7.476562 4.21875 -7.46875 C 4.269531 -7.46875 4.363281 -7.460938 4.5 -7.453125 L 4.5 -6.15625 C 4.425781 -6.164062 4.359375 -6.171875 4.296875 -6.171875 C 4.234375 -6.179688 4.164062 -6.1875 4.09375 -6.1875 C 3.476562 -6.1875 3.003906 -5.984375 2.671875 -5.578125 C 2.335938 -5.179688 2.171875 -4.726562 2.171875 -4.21875 L 2.171875 0 L 0.9375 0 Z M 0.9375 -7.328125 "/>
</g>
<g id="glyph-1-3">
<path d="M 3.953125 -7.484375 C 4.472656 -7.484375 4.972656 -7.359375 5.453125 -7.109375 C 5.941406 -6.867188 6.316406 -6.554688 6.578125 -6.171875 C 6.828125 -5.804688 6.988281 -5.375 7.0625 -4.875 C 7.132812 -4.539062 7.171875 -4.003906 7.171875 -3.265625 L 1.8125 -3.265625 C 1.832031 -2.523438 2.003906 -1.929688 2.328125 -1.484375 C 2.660156 -1.035156 3.171875 -0.8125 3.859375 -0.8125 C 4.503906 -0.8125 5.019531 -1.019531 5.40625 -1.4375 C 5.625 -1.6875 5.773438 -1.972656 5.859375 -2.296875 L 7.078125 -2.296875 C 7.046875 -2.023438 6.9375 -1.722656 6.75 -1.390625 C 6.570312 -1.066406 6.375 -0.800781 6.15625 -0.59375 C 5.78125 -0.226562 5.316406 0.0195312 4.765625 0.15625 C 4.472656 0.226562 4.140625 0.265625 3.765625 0.265625 C 2.847656 0.265625 2.070312 -0.0664062 1.4375 -0.734375 C 0.8125 -1.398438 0.5 -2.328125 0.5 -3.515625 C 0.5 -4.691406 0.816406 -5.644531 1.453125 -6.375 C 2.085938 -7.113281 2.921875 -7.484375 3.953125 -7.484375 Z M 5.90625 -4.25 C 5.863281 -4.78125 5.75 -5.207031 5.5625 -5.53125 C 5.226562 -6.113281 4.664062 -6.40625 3.875 -6.40625 C 3.3125 -6.40625 2.835938 -6.203125 2.453125 -5.796875 C 2.066406 -5.390625 1.863281 -4.875 1.84375 -4.25 Z M 3.828125 -7.5 Z M 3.828125 -7.5 "/>
</g>
<g id="glyph-1-4">
<path d="M 1.6875 -3.578125 C 1.6875 -2.796875 1.851562 -2.140625 2.1875 -1.609375 C 2.519531 -1.078125 3.050781 -0.8125 3.78125 -0.8125 C 4.351562 -0.8125 4.820312 -1.054688 5.1875 -1.546875 C 5.550781 -2.035156 5.734375 -2.738281 5.734375 -3.65625 C 5.734375 -4.582031 5.539062 -5.265625 5.15625 -5.703125 C 4.78125 -6.148438 4.316406 -6.375 3.765625 -6.375 C 3.148438 -6.375 2.648438 -6.132812 2.265625 -5.65625 C 1.878906 -5.1875 1.6875 -4.492188 1.6875 -3.578125 Z M 3.53125 -7.453125 C 4.09375 -7.453125 4.5625 -7.332031 4.9375 -7.09375 C 5.15625 -6.957031 5.40625 -6.71875 5.6875 -6.375 L 5.6875 -10.078125 L 6.875 -10.078125 L 6.875 0 L 5.765625 0 L 5.765625 -1.015625 C 5.472656 -0.566406 5.128906 -0.238281 4.734375 -0.03125 C 4.347656 0.164062 3.898438 0.265625 3.390625 0.265625 C 2.578125 0.265625 1.875 -0.078125 1.28125 -0.765625 C 0.6875 -1.453125 0.390625 -2.363281 0.390625 -3.5 C 0.390625 -4.570312 0.660156 -5.5 1.203125 -6.28125 C 1.742188 -7.0625 2.519531 -7.453125 3.53125 -7.453125 Z M 3.53125 -7.453125 "/>
</g>
<g id="glyph-1-5">
<path d="M 0.90625 -7.28125 L 2.15625 -7.28125 L 2.15625 0 L 0.90625 0 Z M 0.90625 -10.046875 L 2.15625 -10.046875 L 2.15625 -8.640625 L 0.90625 -8.640625 Z M 0.90625 -10.046875 "/>
</g>
<g id="glyph-1-6">
<path d="M 3.71875 -7.53125 C 4.550781 -7.53125 5.222656 -7.328125 5.734375 -6.921875 C 6.253906 -6.523438 6.566406 -5.835938 6.671875 -4.859375 L 5.46875 -4.859375 C 5.394531 -5.304688 5.226562 -5.679688 4.96875 -5.984375 C 4.71875 -6.285156 4.300781 -6.4375 3.71875 -6.4375 C 2.9375 -6.4375 2.378906 -6.050781 2.046875 -5.28125 C 1.828125 -4.789062 1.71875 -4.179688 1.71875 -3.453125 C 1.71875 -2.710938 1.867188 -2.09375 2.171875 -1.59375 C 2.484375 -1.09375 2.972656 -0.84375 3.640625 -0.84375 C 4.148438 -0.84375 4.554688 -1 4.859375 -1.3125 C 5.160156 -1.625 5.363281 -2.050781 5.46875 -2.59375 L 6.671875 -2.59375 C 6.535156 -1.625 6.191406 -0.910156 5.640625 -0.453125 C 5.097656 -0.00390625 4.398438 0.21875 3.546875 0.21875 C 2.585938 0.21875 1.820312 -0.128906 1.25 -0.828125 C 0.6875 -1.535156 0.40625 -2.410156 0.40625 -3.453125 C 0.40625 -4.742188 0.71875 -5.742188 1.34375 -6.453125 C 1.96875 -7.171875 2.757812 -7.53125 3.71875 -7.53125 Z M 3.53125 -7.5 Z M 3.53125 -7.5 "/>
</g>
<g id="glyph-1-7">
<path d="M 1.15625 -9.359375 L 2.390625 -9.359375 L 2.390625 -7.328125 L 3.5625 -7.328125 L 3.5625 -6.3125 L 2.390625 -6.3125 L 2.390625 -1.53125 C 2.390625 -1.28125 2.476562 -1.113281 2.65625 -1.03125 C 2.75 -0.976562 2.90625 -0.953125 3.125 -0.953125 C 3.1875 -0.953125 3.25 -0.953125 3.3125 -0.953125 C 3.382812 -0.953125 3.46875 -0.957031 3.5625 -0.96875 L 3.5625 0 C 3.414062 0.0390625 3.265625 0.0664062 3.109375 0.078125 C 2.960938 0.0976562 2.800781 0.109375 2.625 0.109375 C 2.050781 0.109375 1.660156 -0.0351562 1.453125 -0.328125 C 1.253906 -0.617188 1.15625 -1 1.15625 -1.46875 L 1.15625 -6.3125 L 0.15625 -6.3125 L 0.15625 -7.328125 L 1.15625 -7.328125 Z M 1.15625 -9.359375 "/>
</g>
<g id="glyph-1-8">
<path d="M 3.8125 -0.796875 C 4.625 -0.796875 5.179688 -1.101562 5.484375 -1.71875 C 5.785156 -2.332031 5.9375 -3.019531 5.9375 -3.78125 C 5.9375 -4.46875 5.828125 -5.023438 5.609375 -5.453125 C 5.265625 -6.117188 4.671875 -6.453125 3.828125 -6.453125 C 3.066406 -6.453125 2.515625 -6.164062 2.171875 -5.59375 C 1.835938 -5.019531 1.671875 -4.328125 1.671875 -3.515625 C 1.671875 -2.742188 1.835938 -2.097656 2.171875 -1.578125 C 2.515625 -1.054688 3.0625 -0.796875 3.8125 -0.796875 Z M 3.859375 -7.53125 C 4.796875 -7.53125 5.585938 -7.210938 6.234375 -6.578125 C 6.890625 -5.953125 7.21875 -5.03125 7.21875 -3.8125 C 7.21875 -2.632812 6.929688 -1.660156 6.359375 -0.890625 C 5.785156 -0.117188 4.894531 0.265625 3.6875 0.265625 C 2.6875 0.265625 1.890625 -0.0703125 1.296875 -0.75 C 0.703125 -1.4375 0.40625 -2.351562 0.40625 -3.5 C 0.40625 -4.726562 0.71875 -5.707031 1.34375 -6.4375 C 1.96875 -7.164062 2.804688 -7.53125 3.859375 -7.53125 Z M 3.8125 -7.5 Z M 3.8125 -7.5 "/>
</g>
<g id="glyph-1-9">
<path d="M 0.203125 -7.328125 L 1.796875 -7.328125 L 3.484375 -4.75 L 5.1875 -7.328125 L 6.671875 -7.28125 L 4.21875 -3.75 L 6.78125 0 L 5.21875 0 L 3.390625 -2.75 L 1.640625 0 L 0.078125 0 L 2.65625 -3.75 Z M 0.203125 -7.328125 "/>
</g>
<g id="glyph-2-0">
<path d="M 0.703125 2.46875 L 0.703125 -9.875 L 7.703125 -9.875 L 7.703125 2.46875 Z M 1.484375 1.703125 L 6.921875 1.703125 L 6.921875 -9.078125 L 1.484375 -9.078125 Z M 1.484375 1.703125 "/>
</g>
<g id="glyph-2-1">
</g>
<g id="glyph-3-0">
<path d="M 0.875 3.09375 L 0.875 -12.34375 L 9.625 -12.34375 L 9.625 3.09375 Z M 1.859375 2.125 L 8.640625 2.125 L 8.640625 -11.359375 L 1.859375 -11.359375 Z M 1.859375 2.125 "/>
</g>
<g id="glyph-3-1">
<path d="M 5.421875 -13.28125 C 4.660156 -11.96875 4.09375 -10.671875 3.71875 -9.390625 C 3.351562 -8.109375 3.171875 -6.8125 3.171875 -5.5 C 3.171875 -4.175781 3.359375 -2.867188 3.734375 -1.578125 C 4.109375 -0.296875 4.671875 1 5.421875 2.3125 L 4.0625 2.3125 C 3.207031 0.96875 2.566406 -0.347656 2.140625 -1.640625 C 1.710938 -2.929688 1.5 -4.21875 1.5 -5.5 C 1.5 -6.769531 1.707031 -8.046875 2.125 -9.328125 C 2.550781 -10.617188 3.195312 -11.9375 4.0625 -13.28125 Z M 5.421875 -13.28125 "/>
</g>
<g id="glyph-3-2">
<path d="M 1.40625 -13.28125 L 2.765625 -13.28125 C 3.617188 -11.9375 4.257812 -10.617188 4.6875 -9.328125 C 5.113281 -8.046875 5.328125 -6.769531 5.328125 -5.5 C 5.328125 -4.21875 5.113281 -2.929688 4.6875 -1.640625 C 4.257812 -0.347656 3.617188 0.96875 2.765625 2.3125 L 1.40625 2.3125 C 2.15625 1 2.71875 -0.296875 3.09375 -1.578125 C 3.46875 -2.867188 3.65625 -4.175781 3.65625 -5.5 C 3.65625 -6.8125 3.46875 -8.109375 3.09375 -9.390625 C 2.71875 -10.671875 2.15625 -11.96875 1.40625 -13.28125 Z M 1.40625 -13.28125 "/>
</g>
<g id="glyph-4-0">
<path d="M 0 -0.453125 L -10.046875 -0.453125 L -10.046875 -8.421875 L 0 -8.421875 Z M -1.265625 -7.171875 L -8.78125 -7.171875 L -8.78125 -1.703125 L -1.265625 -1.703125 Z M -1.265625 -7.171875 "/>
</g>
<g id="glyph-4-1">
<path d="M -10.3125 -5.40625 C -10.3125 -7.175781 -9.742188 -8.488281 -8.609375 -9.34375 C -7.722656 -10.007812 -6.585938 -10.34375 -5.203125 -10.34375 C -3.703125 -10.34375 -2.453125 -9.957031 -1.453125 -9.1875 C -0.285156 -8.300781 0.296875 -7.03125 0.296875 -5.375 C 0.296875 -3.832031 -0.210938 -2.617188 -1.234375 -1.734375 C -2.222656 -0.941406 -3.46875 -0.546875 -4.96875 -0.546875 C -6.320312 -0.546875 -7.484375 -0.882812 -8.453125 -1.5625 C -9.691406 -2.425781 -10.3125 -3.707031 -10.3125 -5.40625 Z M -0.921875 -5.53125 C -0.921875 -6.726562 -1.347656 -7.59375 -2.203125 -8.125 C -3.066406 -8.664062 -4.054688 -8.9375 -5.171875 -8.9375 C -6.359375 -8.9375 -7.3125 -8.628906 -8.03125 -8.015625 C -8.75 -7.398438 -9.109375 -6.554688 -9.109375 -5.484375 C -9.109375 -4.441406 -8.75 -3.59375 -8.03125 -2.9375 C -7.320312 -2.28125 -6.269531 -1.953125 -4.875 -1.953125 C -3.769531 -1.953125 -2.832031 -2.234375 -2.0625 -2.796875 C -1.300781 -3.359375 -0.921875 -4.269531 -0.921875 -5.53125 Z M -10.3125 -5.4375 Z M -10.3125 -5.4375 "/>
</g>
<g id="glyph-4-2">
<path d="M -10.078125 -0.8125 L -10.078125 -2 L -6.4375 -2 C -6.78125 -2.269531 -7.046875 -2.59375 -7.234375 -2.96875 C -7.421875 -3.34375 -7.515625 -3.75 -7.515625 -4.1875 C -7.515625 -5.09375 -7.203125 -5.828125 -6.578125 -6.390625 C -5.953125 -6.960938 -5.023438 -7.25 -3.796875 -7.25 C -2.640625 -7.25 -1.675781 -6.96875 -0.90625 -6.40625 C -0.144531 -5.851562 0.234375 -5.078125 0.234375 -4.078125 C 0.234375 -3.523438 0.0976562 -3.054688 -0.171875 -2.671875 C -0.328125 -2.441406 -0.582031 -2.195312 -0.9375 -1.9375 L 0 -1.9375 L 0 -0.8125 Z M -0.859375 -4 C -0.859375 -4.664062 -1.117188 -5.164062 -1.640625 -5.5 C -2.171875 -5.832031 -2.867188 -6 -3.734375 -6 C -4.503906 -6 -5.140625 -5.832031 -5.640625 -5.5 C -6.148438 -5.164062 -6.40625 -4.679688 -6.40625 -4.046875 C -6.40625 -3.484375 -6.195312 -2.988281 -5.78125 -2.5625 C -5.375 -2.144531 -4.691406 -1.9375 -3.734375 -1.9375 C -3.046875 -1.9375 -2.488281 -2.019531 -2.0625 -2.1875 C -1.257812 -2.519531 -0.859375 -3.125 -0.859375 -4 Z M -0.859375 -4 "/>
</g>
<g id="glyph-4-3">
<path d="M -2.296875 -1.640625 C -1.890625 -1.671875 -1.578125 -1.769531 -1.359375 -1.9375 C -0.960938 -2.25 -0.765625 -2.789062 -0.765625 -3.5625 C -0.765625 -4.007812 -0.863281 -4.40625 -1.0625 -4.75 C -1.257812 -5.101562 -1.5625 -5.28125 -1.96875 -5.28125 C -2.289062 -5.28125 -2.53125 -5.140625 -2.6875 -4.859375 C -2.789062 -4.679688 -2.910156 -4.332031 -3.046875 -3.8125 L -3.28125 -2.828125 C -3.4375 -2.203125 -3.613281 -1.742188 -3.8125 -1.453125 C -4.144531 -0.921875 -4.601562 -0.65625 -5.1875 -0.65625 C -5.882812 -0.65625 -6.445312 -0.90625 -6.875 -1.40625 C -7.300781 -1.90625 -7.515625 -2.578125 -7.515625 -3.421875 C -7.515625 -4.523438 -7.191406 -5.316406 -6.546875 -5.796875 C -6.128906 -6.109375 -5.6875 -6.257812 -5.21875 -6.25 L -5.21875 -5.09375 C -5.5 -5.0625 -5.75 -4.960938 -5.96875 -4.796875 C -6.289062 -4.515625 -6.453125 -4.023438 -6.453125 -3.328125 C -6.453125 -2.859375 -6.363281 -2.503906 -6.1875 -2.265625 C -6.007812 -2.023438 -5.773438 -1.90625 -5.484375 -1.90625 C -5.171875 -1.90625 -4.914062 -2.0625 -4.71875 -2.375 C -4.601562 -2.5625 -4.503906 -2.832031 -4.421875 -3.1875 L -4.21875 -4 C -4.007812 -4.882812 -3.804688 -5.476562 -3.609375 -5.78125 C -3.285156 -6.257812 -2.789062 -6.5 -2.125 -6.5 C -1.46875 -6.5 -0.898438 -6.25 -0.421875 -5.75 C 0.0429688 -5.257812 0.28125 -4.507812 0.28125 -3.5 C 0.28125 -2.40625 0.0351562 -1.628906 -0.453125 -1.171875 C -0.953125 -0.722656 -1.566406 -0.484375 -2.296875 -0.453125 Z M -7.5 -3.453125 Z M -7.5 -3.453125 "/>
</g>
<g id="glyph-4-4">
<path d="M -7.484375 -3.953125 C -7.484375 -4.472656 -7.359375 -4.972656 -7.109375 -5.453125 C -6.867188 -5.941406 -6.554688 -6.316406 -6.171875 -6.578125 C -5.804688 -6.828125 -5.375 -6.988281 -4.875 -7.0625 C -4.539062 -7.132812 -4.003906 -7.171875 -3.265625 -7.171875 L -3.265625 -1.8125 C -2.523438 -1.832031 -1.929688 -2.003906 -1.484375 -2.328125 C -1.035156 -2.660156 -0.8125 -3.171875 -0.8125 -3.859375 C -0.8125 -4.503906 -1.019531 -5.019531 -1.4375 -5.40625 C -1.6875 -5.625 -1.972656 -5.773438 -2.296875 -5.859375 L -2.296875 -7.078125 C -2.023438 -7.046875 -1.722656 -6.9375 -1.390625 -6.75 C -1.066406 -6.570312 -0.800781 -6.375 -0.59375 -6.15625 C -0.226562 -5.78125 0.0195312 -5.316406 0.15625 -4.765625 C 0.226562 -4.472656 0.265625 -4.140625 0.265625 -3.765625 C 0.265625 -2.847656 -0.0664062 -2.070312 -0.734375 -1.4375 C -1.398438 -0.8125 -2.328125 -0.5 -3.515625 -0.5 C -4.691406 -0.5 -5.644531 -0.816406 -6.375 -1.453125 C -7.113281 -2.085938 -7.484375 -2.921875 -7.484375 -3.953125 Z M -4.25 -5.90625 C -4.78125 -5.863281 -5.207031 -5.75 -5.53125 -5.5625 C -6.113281 -5.226562 -6.40625 -4.664062 -6.40625 -3.875 C -6.40625 -3.3125 -6.203125 -2.835938 -5.796875 -2.453125 C -5.390625 -2.066406 -4.875 -1.863281 -4.25 -1.84375 Z M -7.5 -3.828125 Z M -7.5 -3.828125 "/>
</g>
<g id="glyph-4-5">
<path d="M -7.328125 -0.9375 L -7.328125 -2.109375 L -6.0625 -2.109375 C -6.300781 -2.203125 -6.597656 -2.4375 -6.953125 -2.8125 C -7.304688 -3.1875 -7.484375 -3.617188 -7.484375 -4.109375 C -7.484375 -4.128906 -7.476562 -4.164062 -7.46875 -4.21875 C -7.46875 -4.269531 -7.460938 -4.363281 -7.453125 -4.5 L -6.15625 -4.5 C -6.164062 -4.425781 -6.171875 -4.359375 -6.171875 -4.296875 C -6.179688 -4.234375 -6.1875 -4.164062 -6.1875 -4.09375 C -6.1875 -3.476562 -5.984375 -3.003906 -5.578125 -2.671875 C -5.179688 -2.335938 -4.726562 -2.171875 -4.21875 -2.171875 L 0 -2.171875 L 0 -0.9375 Z M -7.328125 -0.9375 "/>
</g>
<g id="glyph-4-6">
<path d="M -7.328125 -1.5 L -1.359375 -3.453125 L -7.328125 -5.5 L -7.328125 -6.84375 L 0 -4.09375 L 0 -2.78125 L -7.328125 -0.078125 Z M -7.328125 -1.5 "/>
</g>
<g id="glyph-4-7">
<path d="M -3.578125 -1.6875 C -2.796875 -1.6875 -2.140625 -1.851562 -1.609375 -2.1875 C -1.078125 -2.519531 -0.8125 -3.050781 -0.8125 -3.78125 C -0.8125 -4.351562 -1.054688 -4.820312 -1.546875 -5.1875 C -2.035156 -5.550781 -2.738281 -5.734375 -3.65625 -5.734375 C -4.582031 -5.734375 -5.265625 -5.539062 -5.703125 -5.15625 C -6.148438 -4.78125 -6.375 -4.316406 -6.375 -3.765625 C -6.375 -3.148438 -6.132812 -2.648438 -5.65625 -2.265625 C -5.1875 -1.878906 -4.492188 -1.6875 -3.578125 -1.6875 Z M -7.453125 -3.53125 C -7.453125 -4.09375 -7.332031 -4.5625 -7.09375 -4.9375 C -6.957031 -5.15625 -6.71875 -5.40625 -6.375 -5.6875 L -10.078125 -5.6875 L -10.078125 -6.875 L 0 -6.875 L 0 -5.765625 L -1.015625 -5.765625 C -0.566406 -5.472656 -0.238281 -5.128906 -0.03125 -4.734375 C 0.164062 -4.347656 0.265625 -3.898438 0.265625 -3.390625 C 0.265625 -2.578125 -0.078125 -1.875 -0.765625 -1.28125 C -1.453125 -0.6875 -2.363281 -0.390625 -3.5 -0.390625 C -4.570312 -0.390625 -5.5 -0.660156 -6.28125 -1.203125 C -7.0625 -1.742188 -7.453125 -2.519531 -7.453125 -3.53125 Z M -7.453125 -3.53125 "/>
</g>
<g id="glyph-4-8">
<path d="M -10.3125 -5.296875 C -10.3125 -6.566406 -9.976562 -7.550781 -9.3125 -8.25 C -8.644531 -8.957031 -7.882812 -9.347656 -7.03125 -9.421875 L -7.03125 -8.09375 C -7.675781 -7.945312 -8.1875 -7.648438 -8.5625 -7.203125 C -8.945312 -6.753906 -9.140625 -6.125 -9.140625 -5.3125 C -9.140625 -4.320312 -8.789062 -3.519531 -8.09375 -2.90625 C -7.394531 -2.300781 -6.328125 -2 -4.890625 -2 C -3.710938 -2 -2.757812 -2.273438 -2.03125 -2.828125 C -1.300781 -3.378906 -0.9375 -4.195312 -0.9375 -5.28125 C -0.9375 -6.28125 -1.320312 -7.046875 -2.09375 -7.578125 C -2.5 -7.847656 -3.03125 -8.054688 -3.6875 -8.203125 L -3.6875 -9.515625 C -2.632812 -9.398438 -1.75 -9.007812 -1.03125 -8.34375 C -0.164062 -7.550781 0.265625 -6.476562 0.265625 -5.125 C 0.265625 -3.957031 -0.0859375 -2.976562 -0.796875 -2.1875 C -1.734375 -1.132812 -3.175781 -0.609375 -5.125 -0.609375 C -6.601562 -0.609375 -7.816406 -1.003906 -8.765625 -1.796875 C -9.796875 -2.640625 -10.3125 -3.804688 -10.3125 -5.296875 Z M -10.3125 -5.03125 Z M -10.3125 -5.03125 "/>
</g>
<g id="glyph-4-9">
<path d="M -0.796875 -3.8125 C -0.796875 -4.625 -1.101562 -5.179688 -1.71875 -5.484375 C -2.332031 -5.785156 -3.019531 -5.9375 -3.78125 -5.9375 C -4.46875 -5.9375 -5.023438 -5.828125 -5.453125 -5.609375 C -6.117188 -5.265625 -6.453125 -4.671875 -6.453125 -3.828125 C -6.453125 -3.066406 -6.164062 -2.515625 -5.59375 -2.171875 C -5.019531 -1.835938 -4.328125 -1.671875 -3.515625 -1.671875 C -2.742188 -1.671875 -2.097656 -1.835938 -1.578125 -2.171875 C -1.054688 -2.515625 -0.796875 -3.0625 -0.796875 -3.8125 Z M -7.53125 -3.859375 C -7.53125 -4.796875 -7.210938 -5.585938 -6.578125 -6.234375 C -5.953125 -6.890625 -5.03125 -7.21875 -3.8125 -7.21875 C -2.632812 -7.21875 -1.660156 -6.929688 -0.890625 -6.359375 C -0.117188 -5.785156 0.265625 -4.894531 0.265625 -3.6875 C 0.265625 -2.6875 -0.0703125 -1.890625 -0.75 -1.296875 C -1.4375 -0.703125 -2.351562 -0.40625 -3.5 -0.40625 C -4.726562 -0.40625 -5.707031 -0.71875 -6.4375 -1.34375 C -7.164062 -1.96875 -7.53125 -2.804688 -7.53125 -3.859375 Z M -7.5 -3.8125 Z M -7.5 -3.8125 "/>
</g>
<g id="glyph-4-10">
<path d="M -7.328125 -2.140625 L -2.46875 -2.140625 C -2.09375 -2.140625 -1.785156 -2.195312 -1.546875 -2.3125 C -1.109375 -2.53125 -0.890625 -2.9375 -0.890625 -3.53125 C -0.890625 -4.382812 -1.269531 -4.96875 -2.03125 -5.28125 C -2.445312 -5.445312 -3.007812 -5.53125 -3.71875 -5.53125 L -7.328125 -5.53125 L -7.328125 -6.765625 L 0 -6.765625 L 0 -5.609375 L -1.078125 -5.625 C -0.796875 -5.457031 -0.5625 -5.257812 -0.375 -5.03125 C 0.0078125 -4.5625 0.203125 -3.988281 0.203125 -3.3125 C 0.203125 -2.269531 -0.144531 -1.5625 -0.84375 -1.1875 C -1.21875 -0.976562 -1.71875 -0.875 -2.34375 -0.875 L -7.328125 -0.875 Z M -7.5 -3.828125 Z M -7.5 -3.828125 "/>
</g>
<g id="glyph-4-11">
<path d="M -7.328125 -0.90625 L -7.328125 -2.078125 L -6.28125 -2.078125 C -6.707031 -2.421875 -7.015625 -2.785156 -7.203125 -3.171875 C -7.390625 -3.554688 -7.484375 -3.988281 -7.484375 -4.46875 C -7.484375 -5.5 -7.125 -6.195312 -6.40625 -6.5625 C -6 -6.769531 -5.429688 -6.875 -4.703125 -6.875 L 0 -6.875 L 0 -5.625 L -4.609375 -5.625 C -5.054688 -5.625 -5.414062 -5.554688 -5.6875 -5.421875 C -6.144531 -5.203125 -6.375 -4.804688 -6.375 -4.234375 C -6.375 -3.941406 -6.347656 -3.703125 -6.296875 -3.515625 C -6.191406 -3.179688 -5.988281 -2.882812 -5.6875 -2.625 C -5.445312 -2.414062 -5.195312 -2.28125 -4.9375 -2.21875 C -4.675781 -2.164062 -4.304688 -2.140625 -3.828125 -2.140625 L 0 -2.140625 L 0 -0.90625 Z M -7.5 -3.796875 Z M -7.5 -3.796875 "/>
</g>
<g id="glyph-4-12">
<path d="M -9.359375 -1.15625 L -9.359375 -2.390625 L -7.328125 -2.390625 L -7.328125 -3.5625 L -6.3125 -3.5625 L -6.3125 -2.390625 L -1.53125 -2.390625 C -1.28125 -2.390625 -1.113281 -2.476562 -1.03125 -2.65625 C -0.976562 -2.75 -0.953125 -2.90625 -0.953125 -3.125 C -0.953125 -3.1875 -0.953125 -3.25 -0.953125 -3.3125 C -0.953125 -3.382812 -0.957031 -3.46875 -0.96875 -3.5625 L 0 -3.5625 C 0.0390625 -3.414062 0.0664062 -3.265625 0.078125 -3.109375 C 0.0976562 -2.960938 0.109375 -2.800781 0.109375 -2.625 C 0.109375 -2.050781 -0.0351562 -1.660156 -0.328125 -1.453125 C -0.617188 -1.253906 -1 -1.15625 -1.46875 -1.15625 L -6.3125 -1.15625 L -6.3125 -0.15625 L -7.328125 -0.15625 L -7.328125 -1.15625 Z M -9.359375 -1.15625 "/>
</g>
<g id="glyph-4-13">
<path d="M -7.328125 -5.46875 L -7.328125 -6.84375 C -6.859375 -6.664062 -5.785156 -6.28125 -4.109375 -5.6875 C -2.847656 -5.238281 -1.820312 -4.863281 -1.03125 -4.5625 C 0.832031 -3.851562 1.96875 -3.351562 2.375 -3.0625 C 2.789062 -2.769531 3 -2.265625 3 -1.546875 C 3 -1.378906 2.988281 -1.25 2.96875 -1.15625 C 2.957031 -1.0625 2.9375 -0.945312 2.90625 -0.8125 L 1.78125 -0.8125 C 1.84375 -1.019531 1.878906 -1.171875 1.890625 -1.265625 C 1.910156 -1.367188 1.921875 -1.457031 1.921875 -1.53125 C 1.921875 -1.75 1.878906 -1.910156 1.796875 -2.015625 C 1.722656 -2.128906 1.632812 -2.222656 1.53125 -2.296875 C 1.488281 -2.316406 1.296875 -2.394531 0.953125 -2.53125 C 0.617188 -2.675781 0.375 -2.78125 0.21875 -2.84375 L -7.328125 -0.140625 L -7.328125 -1.53125 L -1.359375 -3.5 Z M -7.5 -3.5 Z M -7.5 -3.5 "/>
</g>
<g id="glyph-5-0">
<path d="M 2.46875 -0.703125 L -9.875 -0.703125 L -9.875 -7.703125 L 2.46875 -7.703125 Z M 1.703125 -1.484375 L 1.703125 -6.921875 L -9.078125 -6.921875 L -9.078125 -1.484375 Z M 1.703125 -1.484375 "/>
</g>
<g id="glyph-5-1">
</g>
<g id="glyph-6-0">
<path d="M 3.09375 -0.875 L -12.34375 -0.875 L -12.34375 -9.625 L 3.09375 -9.625 Z M 2.125 -1.859375 L 2.125 -8.640625 L -11.359375 -8.640625 L -11.359375 -1.859375 Z M 2.125 -1.859375 "/>
</g>
<g id="glyph-6-1">
<path d="M -13.28125 -5.421875 C -11.96875 -4.660156 -10.671875 -4.09375 -9.390625 -3.71875 C -8.109375 -3.351562 -6.8125 -3.171875 -5.5 -3.171875 C -4.175781 -3.171875 -2.867188 -3.359375 -1.578125 -3.734375 C -0.296875 -4.109375 1 -4.671875 2.3125 -5.421875 L 2.3125 -4.0625 C 0.96875 -3.207031 -0.347656 -2.566406 -1.640625 -2.140625 C -2.929688 -1.710938 -4.21875 -1.5 -5.5 -1.5 C -6.769531 -1.5 -8.046875 -1.707031 -9.328125 -2.125 C -10.617188 -2.550781 -11.9375 -3.195312 -13.28125 -4.0625 Z M -13.28125 -5.421875 "/>
</g>
<g id="glyph-6-2">
<path d="M -13.28125 -1.40625 L -13.28125 -2.765625 C -11.9375 -3.617188 -10.617188 -4.257812 -9.328125 -4.6875 C -8.046875 -5.113281 -6.769531 -5.328125 -5.5 -5.328125 C -4.21875 -5.328125 -2.929688 -5.113281 -1.640625 -4.6875 C -0.347656 -4.257812 0.96875 -3.617188 2.3125 -2.765625 L 2.3125 -1.40625 C 1 -2.15625 -0.296875 -2.71875 -1.578125 -3.09375 C -2.867188 -3.46875 -4.175781 -3.65625 -5.5 -3.65625 C -6.8125 -3.65625 -8.109375 -3.46875 -9.390625 -3.09375 C -10.671875 -2.71875 -11.96875 -2.15625 -13.28125 -1.40625 Z M -13.28125 -1.40625 "/>
</g>
</g>
<clipPath id="clip-0">
<path clip-rule="nonzero" d="M 50.738281 364 L 425.027344 364 L 425.027344 366 L 50.738281 366 Z M 50.738281 364 "/>
</clipPath>
<clipPath id="clip-1">
<path clip-rule="nonzero" d="M 50.738281 296 L 425.027344 296 L 425.027344 298 L 50.738281 298 Z M 50.738281 296 "/>
</clipPath>
<clipPath id="clip-2">
<path clip-rule="nonzero" d="M 50.738281 228 L 425.027344 228 L 425.027344 230 L 50.738281 230 Z M 50.738281 228 "/>
</clipPath>
<clipPath id="clip-3">
<path clip-rule="nonzero" d="M 50.738281 159 L 425.027344 159 L 425.027344 162 L 50.738281 162 Z M 50.738281 159 "/>
</clipPath>
<clipPath id="clip-4">
<path clip-rule="nonzero" d="M 50.738281 91 L 425.027344 91 L 425.027344 93 L 50.738281 93 Z M 50.738281 91 "/>
</clipPath>
<clipPath id="clip-5">
<path clip-rule="nonzero" d="M 50.738281 23 L 425.027344 23 L 425.027344 25 L 50.738281 25 Z M 50.738281 23 "/>
</clipPath>
<clipPath id="clip-6">
<path clip-rule="nonzero" d="M 66 6.972656 L 69 6.972656 L 69 382.261719 L 66 382.261719 Z M 66 6.972656 "/>
</clipPath>
<clipPath id="clip-7">
<path clip-rule="nonzero" d="M 135 6.972656 L 138 6.972656 L 138 382.261719 L 135 382.261719 Z M 135 6.972656 "/>
</clipPath>
<clipPath id="clip-8">
<path clip-rule="nonzero" d="M 204 6.972656 L 207 6.972656 L 207 382.261719 L 204 382.261719 Z M 204 6.972656 "/>
</clipPath>
<clipPath id="clip-9">
<path clip-rule="nonzero" d="M 273 6.972656 L 275 6.972656 L 275 382.261719 L 273 382.261719 Z M 273 6.972656 "/>
</clipPath>
<clipPath id="clip-10">
<path clip-rule="nonzero" d="M 342 6.972656 L 344 6.972656 L 344 382.261719 L 342 382.261719 Z M 342 6.972656 "/>
</clipPath>
<clipPath id="clip-11">
<path clip-rule="nonzero" d="M 411 6.972656 L 413 6.972656 L 413 382.261719 L 411 382.261719 Z M 411 6.972656 "/>
</clipPath>
</defs>
<rect x="-43.2" y="-43.2" width="518.4" height="518.4" fill="rgb(100%, 100%, 100%)" fill-opacity="1"/>
<rect x="-43.2" y="-43.2" width="518.4" height="518.4" fill="rgb(100%, 100%, 100%)" fill-opacity="1"/>
<g clip-path="url(#clip-0)">
<path fill="none" stroke-width="1.357972" stroke-linecap="butt" stroke-linejoin="round" stroke="rgb(92.156863%, 92.156863%, 92.156863%)" stroke-opacity="1" stroke-miterlimit="10" d="M 50.738281 365.203125 L 425.027344 365.203125 "/>
</g>
<g clip-path="url(#clip-1)">
<path fill="none" stroke-width="1.357972" stroke-linecap="butt" stroke-linejoin="round" stroke="rgb(92.156863%, 92.156863%, 92.156863%)" stroke-opacity="1" stroke-miterlimit="10" d="M 50.738281 296.96875 L 425.027344 296.96875 "/>
</g>
<g clip-path="url(#clip-2)">
<path fill="none" stroke-width="1.357972" stroke-linecap="butt" stroke-linejoin="round" stroke="rgb(92.156863%, 92.156863%, 92.156863%)" stroke-opacity="1" stroke-miterlimit="10" d="M 50.738281 228.734375 L 425.027344 228.734375 "/>
</g>
<g clip-path="url(#clip-3)">
<path fill="none" stroke-width="1.357972" stroke-linecap="butt" stroke-linejoin="round" stroke="rgb(92.156863%, 92.156863%, 92.156863%)" stroke-opacity="1" stroke-miterlimit="10" d="M 50.738281 160.5 L 425.027344 160.5 "/>
</g>
<g clip-path="url(#clip-4)">
<path fill="none" stroke-width="1.357972" stroke-linecap="butt" stroke-linejoin="round" stroke="rgb(92.156863%, 92.156863%, 92.156863%)" stroke-opacity="1" stroke-miterlimit="10" d="M 50.738281 92.265625 L 425.027344 92.265625 "/>
</g>
<g clip-path="url(#clip-5)">
<path fill="none" stroke-width="1.357972" stroke-linecap="butt" stroke-linejoin="round" stroke="rgb(92.156863%, 92.156863%, 92.156863%)" stroke-opacity="1" stroke-miterlimit="10" d="M 50.738281 24.03125 L 425.027344 24.03125 "/>
</g>
<g clip-path="url(#clip-6)">
<path fill="none" stroke-width="1.357972" stroke-linecap="butt" stroke-linejoin="round" stroke="rgb(92.156863%, 92.156863%, 92.156863%)" stroke-opacity="1" stroke-miterlimit="10" d="M 67.667969 382.261719 L 67.667969 6.972656 "/>
</g>
<g clip-path="url(#clip-7)">
<path fill="none" stroke-width="1.357972" stroke-linecap="butt" stroke-linejoin="round" stroke="rgb(92.156863%, 92.156863%, 92.156863%)" stroke-opacity="1" stroke-miterlimit="10" d="M 136.5 382.261719 L 136.5 6.972656 "/>
</g>
<g clip-path="url(#clip-8)">
<path fill="none" stroke-width="1.357972" stroke-linecap="butt" stroke-linejoin="round" stroke="rgb(92.156863%, 92.156863%, 92.156863%)" stroke-opacity="1" stroke-miterlimit="10" d="M 205.335938 382.261719 L 205.335938 6.972656 "/>
</g>
<g clip-path="url(#clip-9)">
<path fill="none" stroke-width="1.357972" stroke-linecap="butt" stroke-linejoin="round" stroke="rgb(92.156863%, 92.156863%, 92.156863%)" stroke-opacity="1" stroke-miterlimit="10" d="M 274.167969 382.261719 L 274.167969 6.972656 "/>
</g>
<g clip-path="url(#clip-10)">
<path fill="none" stroke-width="1.357972" stroke-linecap="butt" stroke-linejoin="round" stroke="rgb(92.156863%, 92.156863%, 92.156863%)" stroke-opacity="1" stroke-miterlimit="10" d="M 343.003906 382.261719 L 343.003906 6.972656 "/>
</g>
<g clip-path="url(#clip-11)">
<path fill="none" stroke-width="1.357972" stroke-linecap="butt" stroke-linejoin="round" stroke="rgb(92.156863%, 92.156863%, 92.156863%)" stroke-opacity="1" stroke-miterlimit="10" d="M 411.835938 382.261719 L 411.835938 6.972656 "/>
</g>
<path fill-rule="nonzero" fill="rgb(17.254902%, 24.313725%, 31.372549%)" fill-opacity="0.8" stroke-width="0.901933" stroke-linecap="round" stroke-linejoin="round" stroke="rgb(17.254902%, 24.313725%, 31.372549%)" stroke-opacity="0.8" stroke-miterlimit="10" d="M 385.632812 351.558594 C 385.632812 355.714844 379.398438 355.714844 379.398438 351.558594 C 379.398438 347.398438 385.632812 347.398438 385.632812 351.558594 "/>
<path fill-rule="nonzero" fill="rgb(17.254902%, 24.313725%, 31.372549%)" fill-opacity="0.8" stroke-width="0.901933" stroke-linecap="round" stroke-linejoin="round" stroke="rgb(17.254902%, 24.313725%, 31.372549%)" stroke-opacity="0.8" stroke-miterlimit="10" d="M 393.296875 365.203125 C 393.296875 369.363281 387.0625 369.363281 387.0625 365.203125 C 387.0625 361.046875 393.296875 361.046875 393.296875 365.203125 "/>
<path fill-rule="nonzero" fill="rgb(17.254902%, 24.313725%, 31.372549%)" fill-opacity="0.8" stroke-width="0.901933" stroke-linecap="round" stroke-linejoin="round" stroke="rgb(17.254902%, 24.313725%, 31.372549%)" stroke-opacity="0.8" stroke-miterlimit="10" d="M 169.265625 283.324219 C 169.265625 287.480469 163.03125 287.480469 163.03125 283.324219 C 163.03125 279.164062 169.265625 279.164062 169.265625 283.324219 "/>
<path fill-rule="nonzero" fill="rgb(17.254902%, 24.313725%, 31.372549%)" fill-opacity="0.8" stroke-width="0.901933" stroke-linecap="round" stroke-linejoin="round" stroke="rgb(17.254902%, 24.313725%, 31.372549%)" stroke-opacity="0.8" stroke-miterlimit="10" d="M 356.601562 351.558594 C 356.601562 355.714844 350.363281 355.714844 350.363281 351.558594 C 350.363281 347.398438 356.601562 347.398438 356.601562 351.558594 "/>
<path fill-rule="nonzero" fill="rgb(17.254902%, 24.313725%, 31.372549%)" fill-opacity="0.8" stroke-width="0.901933" stroke-linecap="round" stroke-linejoin="round" stroke="rgb(17.254902%, 24.313725%, 31.372549%)" stroke-opacity="0.8" stroke-miterlimit="10" d="M 291.65625 283.324219 C 291.65625 287.480469 285.417969 287.480469 285.417969 283.324219 C 285.417969 279.164062 291.65625 279.164062 291.65625 283.324219 "/>
<path fill-rule="nonzero" fill="rgb(17.254902%, 24.313725%, 31.372549%)" fill-opacity="0.8" stroke-width="0.901933" stroke-linecap="round" stroke-linejoin="round" stroke="rgb(17.254902%, 24.313725%, 31.372549%)" stroke-opacity="0.8" stroke-miterlimit="10" d="M 249.441406 256.027344 C 249.441406 260.1875 243.207031 260.1875 243.207031 256.027344 C 243.207031 251.871094 249.441406 251.871094 249.441406 256.027344 "/>
<path fill-rule="nonzero" fill="rgb(17.254902%, 24.313725%, 31.372549%)" fill-opacity="0.8" stroke-width="0.901933" stroke-linecap="round" stroke-linejoin="round" stroke="rgb(17.254902%, 24.313725%, 31.372549%)" stroke-opacity="0.8" stroke-miterlimit="10" d="M 324.296875 324.261719 C 324.296875 328.421875 318.058594 328.421875 318.058594 324.261719 C 318.058594 320.105469 324.296875 320.105469 324.296875 324.261719 "/>
<path fill-rule="nonzero" fill="rgb(17.254902%, 24.313725%, 31.372549%)" fill-opacity="0.8" stroke-width="0.901933" stroke-linecap="round" stroke-linejoin="round" stroke="rgb(17.254902%, 24.313725%, 31.372549%)" stroke-opacity="0.8" stroke-miterlimit="10" d="M 117.132812 160.5 C 117.132812 164.660156 110.898438 164.660156 110.898438 160.5 C 110.898438 156.34375 117.132812 156.34375 117.132812 160.5 "/>
<path fill-rule="nonzero" fill="rgb(17.254902%, 24.313725%, 31.372549%)" fill-opacity="0.8" stroke-width="0.901933" stroke-linecap="round" stroke-linejoin="round" stroke="rgb(17.254902%, 24.313725%, 31.372549%)" stroke-opacity="0.8" stroke-miterlimit="10" d="M 296.902344 365.203125 C 296.902344 369.363281 290.664062 369.363281 290.664062 365.203125 C 290.664062 361.046875 296.902344 361.046875 296.902344 365.203125 "/>
<path fill-rule="nonzero" fill="rgb(17.254902%, 24.313725%, 31.372549%)" fill-opacity="0.8" stroke-width="0.901933" stroke-linecap="round" stroke-linejoin="round" stroke="rgb(17.254902%, 24.313725%, 31.372549%)" stroke-opacity="0.8" stroke-miterlimit="10" d="M 313.449219 324.261719 C 313.449219 328.421875 307.210938 328.421875 307.210938 324.261719 C 307.210938 320.105469 313.449219 320.105469 313.449219 324.261719 "/>
<path fill-rule="nonzero" fill="rgb(17.254902%, 24.313725%, 31.372549%)" fill-opacity="0.8" stroke-width="0.901933" stroke-linecap="round" stroke-linejoin="round" stroke="rgb(17.254902%, 24.313725%, 31.372549%)" stroke-opacity="0.8" stroke-miterlimit="10" d="M 228.328125 269.675781 C 228.328125 273.832031 222.089844 273.832031 222.089844 269.675781 C 222.089844 265.519531 228.328125 265.519531 228.328125 269.675781 "/>
<path fill-rule="nonzero" fill="rgb(17.254902%, 24.313725%, 31.372549%)" fill-opacity="0.8" stroke-width="0.901933" stroke-linecap="round" stroke-linejoin="round" stroke="rgb(17.254902%, 24.313725%, 31.372549%)" stroke-opacity="0.8" stroke-miterlimit="10" d="M 318.28125 324.261719 C 318.28125 328.421875 312.046875 328.421875 312.046875 324.261719 C 312.046875 320.105469 318.28125 320.105469 318.28125 324.261719 "/>
<path fill-rule="nonzero" fill="rgb(17.254902%, 24.313725%, 31.372549%)" fill-opacity="0.8" stroke-width="0.901933" stroke-linecap="round" stroke-linejoin="round" stroke="rgb(17.254902%, 24.313725%, 31.372549%)" stroke-opacity="0.8" stroke-miterlimit="10" d="M 392.472656 351.558594 C 392.472656 355.714844 386.234375 355.714844 386.234375 351.558594 C 386.234375 347.398438 392.472656 347.398438 392.472656 351.558594 "/>
<path fill-rule="nonzero" fill="rgb(17.254902%, 24.313725%, 31.372549%)" fill-opacity="0.8" stroke-width="0.901933" stroke-linecap="round" stroke-linejoin="round" stroke="rgb(17.254902%, 24.313725%, 31.372549%)" stroke-opacity="0.8" stroke-miterlimit="10" d="M 158.695312 242.382812 C 158.695312 246.539062 152.460938 246.539062 152.460938 242.382812 C 152.460938 238.222656 158.695312 238.222656 158.695312 242.382812 "/>
<path fill-rule="nonzero" fill="rgb(17.254902%, 24.313725%, 31.372549%)" fill-opacity="0.8" stroke-width="0.901933" stroke-linecap="round" stroke-linejoin="round" stroke="rgb(17.254902%, 24.313725%, 31.372549%)" stroke-opacity="0.8" stroke-miterlimit="10" d="M 229.894531 296.96875 C 229.894531 301.128906 223.65625 301.128906 223.65625 296.96875 C 223.65625 292.8125 229.894531 292.8125 229.894531 296.96875 "/>
<path fill-rule="nonzero" fill="rgb(17.254902%, 24.313725%, 31.372549%)" fill-opacity="0.8" stroke-width="0.901933" stroke-linecap="round" stroke-linejoin="round" stroke="rgb(17.254902%, 24.313725%, 31.372549%)" stroke-opacity="0.8" stroke-miterlimit="10" d="M 394.308594 365.203125 C 394.308594 369.363281 388.074219 369.363281 388.074219 365.203125 C 388.074219 361.046875 394.308594 361.046875 394.308594 365.203125 "/>
<path fill-rule="nonzero" fill="rgb(17.254902%, 24.313725%, 31.372549%)" fill-opacity="0.8" stroke-width="0.901933" stroke-linecap="round" stroke-linejoin="round" stroke="rgb(17.254902%, 24.313725%, 31.372549%)" stroke-opacity="0.8" stroke-miterlimit="10" d="M 407.460938 351.558594 C 407.460938 355.714844 401.222656 355.714844 401.222656 351.558594 C 401.222656 347.398438 407.460938 347.398438 407.460938 351.558594 "/>
<path fill-rule="nonzero" fill="rgb(17.254902%, 24.313725%, 31.372549%)" fill-opacity="0.8" stroke-width="0.901933" stroke-linecap="round" stroke-linejoin="round" stroke="rgb(17.254902%, 24.313725%, 31.372549%)" stroke-opacity="0.8" stroke-miterlimit="10" d="M 111.222656 160.5 C 111.222656 164.660156 104.984375 164.660156 104.984375 160.5 C 104.984375 156.34375 111.222656 156.34375 111.222656 160.5 "/>
<path fill-rule="nonzero" fill="rgb(17.254902%, 24.313725%, 31.372549%)" fill-opacity="0.8" stroke-width="0.901933" stroke-linecap="round" stroke-linejoin="round" stroke="rgb(17.254902%, 24.313725%, 31.372549%)" stroke-opacity="0.8" stroke-miterlimit="10" d="M 234.265625 310.617188 C 234.265625 314.773438 228.027344 314.773438 228.027344 310.617188 C 228.027344 306.457031 234.265625 306.457031 234.265625 310.617188 "/>
<path fill-rule="nonzero" fill="rgb(17.254902%, 24.313725%, 31.372549%)" fill-opacity="0.8" stroke-width="0.901933" stroke-linecap="round" stroke-linejoin="round" stroke="rgb(17.254902%, 24.313725%, 31.372549%)" stroke-opacity="0.8" stroke-miterlimit="10" d="M 263.636719 324.261719 C 263.636719 328.421875 257.398438 328.421875 257.398438 324.261719 C 257.398438 320.105469 263.636719 320.105469 263.636719 324.261719 "/>
<path fill-rule="nonzero" fill="rgb(17.254902%, 24.313725%, 31.372549%)" fill-opacity="0.8" stroke-width="0.901933" stroke-linecap="round" stroke-linejoin="round" stroke="rgb(17.254902%, 24.313725%, 31.372549%)" stroke-opacity="0.8" stroke-miterlimit="10" d="M 381.925781 351.558594 C 381.925781 355.714844 375.6875 355.714844 375.6875 351.558594 C 375.6875 347.398438 381.925781 347.398438 381.925781 351.558594 "/>
<path fill-rule="nonzero" fill="rgb(17.254902%, 24.313725%, 31.372549%)" fill-opacity="0.8" stroke-width="0.901933" stroke-linecap="round" stroke-linejoin="round" stroke="rgb(17.254902%, 24.313725%, 31.372549%)" stroke-opacity="0.8" stroke-miterlimit="10" d="M 118.527344 174.148438 C 118.527344 178.304688 112.289062 178.304688 112.289062 174.148438 C 112.289062 169.988281 118.527344 169.988281 118.527344 174.148438 "/>
<path fill-rule="nonzero" fill="rgb(17.254902%, 24.313725%, 31.372549%)" fill-opacity="0.8" stroke-width="0.901933" stroke-linecap="round" stroke-linejoin="round" stroke="rgb(17.254902%, 24.313725%, 31.372549%)" stroke-opacity="0.8" stroke-miterlimit="10" d="M 411.132812 351.558594 C 411.132812 355.714844 404.894531 355.714844 404.894531 351.558594 C 404.894531 347.398438 411.132812 347.398438 411.132812 351.558594 "/>
<path fill-rule="nonzero" fill="rgb(17.254902%, 24.313725%, 31.372549%)" fill-opacity="0.8" stroke-width="0.901933" stroke-linecap="round" stroke-linejoin="round" stroke="rgb(17.254902%, 24.313725%, 31.372549%)" stroke-opacity="0.8" stroke-miterlimit="10" d="M 396.597656 324.261719 C 396.597656 328.421875 390.363281 328.421875 390.363281 324.261719 C 390.363281 320.105469 396.597656 320.105469 396.597656 324.261719 "/>
<path fill-rule="nonzero" fill="rgb(17.254902%, 24.313725%, 31.372549%)" fill-opacity="0.8" stroke-width="0.901933" stroke-linecap="round" stroke-linejoin="round" stroke="rgb(17.254902%, 24.313725%, 31.372549%)" stroke-opacity="0.8" stroke-miterlimit="10" d="M 99.160156 64.972656 C 99.160156 69.132812 92.921875 69.132812 92.921875 64.972656 C 92.921875 60.816406 99.160156 60.816406 99.160156 64.972656 "/>
<path fill-rule="nonzero" fill="rgb(17.254902%, 24.313725%, 31.372549%)" fill-opacity="0.8" stroke-width="0.901933" stroke-linecap="round" stroke-linejoin="round" stroke="rgb(17.254902%, 24.313725%, 31.372549%)" stroke-opacity="0.8" stroke-miterlimit="10" d="M 247.761719 296.96875 C 247.761719 301.128906 241.523438 301.128906 241.523438 296.96875 C 241.523438 292.8125 247.761719 292.8125 247.761719 296.96875 "/>
<path fill-rule="nonzero" fill="rgb(17.254902%, 24.313725%, 31.372549%)" fill-opacity="0.8" stroke-width="0.901933" stroke-linecap="round" stroke-linejoin="round" stroke="rgb(17.254902%, 24.313725%, 31.372549%)" stroke-opacity="0.8" stroke-miterlimit="10" d="M 205.082031 228.734375 C 205.082031 232.894531 198.84375 232.894531 198.84375 228.734375 C 198.84375 224.578125 205.082031 224.578125 205.082031 228.734375 "/>
<path fill-rule="nonzero" fill="rgb(17.254902%, 24.313725%, 31.372549%)" fill-opacity="0.8" stroke-width="0.901933" stroke-linecap="round" stroke-linejoin="round" stroke="rgb(17.254902%, 24.313725%, 31.372549%)" stroke-opacity="0.8" stroke-miterlimit="10" d="M 382.511719 351.558594 C 382.511719 355.714844 376.277344 355.714844 376.277344 351.558594 C 376.277344 347.398438 382.511719 347.398438 382.511719 351.558594 "/>
<path fill-rule="nonzero" fill="rgb(17.254902%, 24.313725%, 31.372549%)" fill-opacity="0.8" stroke-width="0.901933" stroke-linecap="round" stroke-linejoin="round" stroke="rgb(17.254902%, 24.313725%, 31.372549%)" stroke-opacity="0.8" stroke-miterlimit="10" d="M 224.621094 283.324219 C 224.621094 287.480469 218.382812 287.480469 218.382812 283.324219 C 218.382812 279.164062 224.621094 279.164062 224.621094 283.324219 "/>
<path fill-rule="nonzero" fill="rgb(17.254902%, 24.313725%, 31.372549%)" fill-opacity="0.8" stroke-width="0.901933" stroke-linecap="round" stroke-linejoin="round" stroke="rgb(17.254902%, 24.313725%, 31.372549%)" stroke-opacity="0.8" stroke-miterlimit="10" d="M 358.511719 310.617188 C 358.511719 314.773438 352.277344 314.773438 352.277344 310.617188 C 352.277344 306.457031 358.511719 306.457031 358.511719 310.617188 "/>
<path fill-rule="nonzero" fill="rgb(17.254902%, 24.313725%, 31.372549%)" fill-opacity="0.8" stroke-width="0.901933" stroke-linecap="round" stroke-linejoin="round" stroke="rgb(17.254902%, 24.313725%, 31.372549%)" stroke-opacity="0.8" stroke-miterlimit="10" d="M 324.644531 310.617188 C 324.644531 314.773438 318.40625 314.773438 318.40625 310.617188 C 318.40625 306.457031 324.644531 306.457031 324.644531 310.617188 "/>
<path fill-rule="nonzero" fill="rgb(17.254902%, 24.313725%, 31.372549%)" fill-opacity="0.8" stroke-width="0.901933" stroke-linecap="round" stroke-linejoin="round" stroke="rgb(17.254902%, 24.313725%, 31.372549%)" stroke-opacity="0.8" stroke-miterlimit="10" d="M 349.925781 337.910156 C 349.925781 342.066406 343.6875 342.066406 343.6875 337.910156 C 343.6875 333.753906 349.925781 333.753906 349.925781 337.910156 "/>
<path fill-rule="nonzero" fill="rgb(17.254902%, 24.313725%, 31.372549%)" fill-opacity="0.8" stroke-width="0.901933" stroke-linecap="round" stroke-linejoin="round" stroke="rgb(17.254902%, 24.313725%, 31.372549%)" stroke-opacity="0.8" stroke-miterlimit="10" d="M 204.359375 242.382812 C 204.359375 246.539062 198.125 246.539062 198.125 242.382812 C 198.125 238.222656 204.359375 238.222656 204.359375 242.382812 "/>
<path fill-rule="nonzero" fill="rgb(17.254902%, 24.313725%, 31.372549%)" fill-opacity="0.8" stroke-width="0.901933" stroke-linecap="round" stroke-linejoin="round" stroke="rgb(17.254902%, 24.313725%, 31.372549%)" stroke-opacity="0.8" stroke-miterlimit="10" d="M 306.601562 351.558594 C 306.601562 355.714844 300.363281 355.714844 300.363281 351.558594 C 300.363281 347.398438 306.601562 347.398438 306.601562 351.558594 "/>
<path fill-rule="nonzero" fill="rgb(17.254902%, 24.313725%, 31.372549%)" fill-opacity="0.8" stroke-width="0.901933" stroke-linecap="round" stroke-linejoin="round" stroke="rgb(17.254902%, 24.313725%, 31.372549%)" stroke-opacity="0.8" stroke-miterlimit="10" d="M 72.144531 51.328125 C 72.144531 55.484375 65.910156 55.484375 65.910156 51.328125 C 65.910156 47.167969 72.144531 47.167969 72.144531 51.328125 "/>
<path fill-rule="nonzero" fill="rgb(17.254902%, 24.313725%, 31.372549%)" fill-opacity="0.8" stroke-width="0.901933" stroke-linecap="round" stroke-linejoin="round" stroke="rgb(17.254902%, 24.313725%, 31.372549%)" stroke-opacity="0.8" stroke-miterlimit="10" d="M 357.449219 365.203125 C 357.449219 369.363281 351.210938 369.363281 351.210938 365.203125 C 351.210938 361.046875 357.449219 361.046875 357.449219 365.203125 "/>
<path fill-rule="nonzero" fill="rgb(17.254902%, 24.313725%, 31.372549%)" fill-opacity="0.8" stroke-width="0.901933" stroke-linecap="round" stroke-linejoin="round" stroke="rgb(17.254902%, 24.313725%, 31.372549%)" stroke-opacity="0.8" stroke-miterlimit="10" d="M 73.3125 187.792969 C 73.3125 191.953125 67.074219 191.953125 67.074219 187.792969 C 67.074219 183.636719 73.3125 183.636719 73.3125 187.792969 "/>
<path fill-rule="nonzero" fill="rgb(17.254902%, 24.313725%, 31.372549%)" fill-opacity="0.8" stroke-width="0.901933" stroke-linecap="round" stroke-linejoin="round" stroke="rgb(17.254902%, 24.313725%, 31.372549%)" stroke-opacity="0.8" stroke-miterlimit="10" d="M 142.257812 201.441406 C 142.257812 205.601562 136.019531 205.601562 136.019531 201.441406 C 136.019531 197.285156 142.257812 197.285156 142.257812 201.441406 "/>
<path fill-rule="nonzero" fill="rgb(17.254902%, 24.313725%, 31.372549%)" fill-opacity="0.8" stroke-width="0.901933" stroke-linecap="round" stroke-linejoin="round" stroke="rgb(17.254902%, 24.313725%, 31.372549%)" stroke-opacity="0.8" stroke-miterlimit="10" d="M 382.808594 365.203125 C 382.808594 369.363281 376.574219 369.363281 376.574219 365.203125 C 376.574219 361.046875 382.808594 361.046875 382.808594 365.203125 "/>
<path fill-rule="nonzero" fill="rgb(17.254902%, 24.313725%, 31.372549%)" fill-opacity="0.8" stroke-width="0.901933" stroke-linecap="round" stroke-linejoin="round" stroke="rgb(17.254902%, 24.313725%, 31.372549%)" stroke-opacity="0.8" stroke-miterlimit="10" d="M 281.339844 283.324219 C 281.339844 287.480469 275.105469 287.480469 275.105469 283.324219 C 275.105469 279.164062 281.339844 279.164062 281.339844 283.324219 "/>
<path fill-rule="nonzero" fill="rgb(17.254902%, 24.313725%, 31.372549%)" fill-opacity="0.8" stroke-width="0.901933" stroke-linecap="round" stroke-linejoin="round" stroke="rgb(17.254902%, 24.313725%, 31.372549%)" stroke-opacity="0.8" stroke-miterlimit="10" d="M 201.417969 296.96875 C 201.417969 301.128906 195.183594 301.128906 195.183594 296.96875 C 195.183594 292.8125 201.417969 292.8125 201.417969 296.96875 "/>
<path fill-rule="nonzero" fill="rgb(17.254902%, 24.313725%, 31.372549%)" fill-opacity="0.8" stroke-width="0.901933" stroke-linecap="round" stroke-linejoin="round" stroke="rgb(17.254902%, 24.313725%, 31.372549%)" stroke-opacity="0.8" stroke-miterlimit="10" d="M 220.765625 324.261719 C 220.765625 328.421875 214.527344 328.421875 214.527344 324.261719 C 214.527344 320.105469 220.765625 320.105469 220.765625 324.261719 "/>
<path fill-rule="nonzero" fill="rgb(17.254902%, 24.313725%, 31.372549%)" fill-opacity="0.8" stroke-width="0.901933" stroke-linecap="round" stroke-linejoin="round" stroke="rgb(17.254902%, 24.313725%, 31.372549%)" stroke-opacity="0.8" stroke-miterlimit="10" d="M 83.667969 92.265625 C 83.667969 96.425781 77.433594 96.425781 77.433594 92.265625 C 77.433594 88.109375 83.667969 88.109375 83.667969 92.265625 "/>
<path fill-rule="nonzero" fill="rgb(17.254902%, 24.313725%, 31.372549%)" fill-opacity="0.8" stroke-width="0.901933" stroke-linecap="round" stroke-linejoin="round" stroke="rgb(17.254902%, 24.313725%, 31.372549%)" stroke-opacity="0.8" stroke-miterlimit="10" d="M 405.847656 337.910156 C 405.847656 342.066406 399.609375 342.066406 399.609375 337.910156 C 399.609375 333.753906 405.847656 333.753906 405.847656 337.910156 "/>
<path fill-rule="nonzero" fill="rgb(17.254902%, 24.313725%, 31.372549%)" fill-opacity="0.8" stroke-width="0.901933" stroke-linecap="round" stroke-linejoin="round" stroke="rgb(17.254902%, 24.313725%, 31.372549%)" stroke-opacity="0.8" stroke-miterlimit="10" d="M 219.382812 296.96875 C 219.382812 301.128906 213.144531 301.128906 213.144531 296.96875 C 213.144531 292.8125 219.382812 292.8125 219.382812 296.96875 "/>
<path fill-rule="nonzero" fill="rgb(17.254902%, 24.313725%, 31.372549%)" fill-opacity="0.8" stroke-width="0.901933" stroke-linecap="round" stroke-linejoin="round" stroke="rgb(17.254902%, 24.313725%, 31.372549%)" stroke-opacity="0.8" stroke-miterlimit="10" d="M 400.355469 351.558594 C 400.355469 355.714844 394.117188 355.714844 394.117188 351.558594 C 394.117188 347.398438 400.355469 347.398438 400.355469 351.558594 "/>
<path fill-rule="nonzero" fill="rgb(17.254902%, 24.313725%, 31.372549%)" fill-opacity="0.8" stroke-width="0.901933" stroke-linecap="round" stroke-linejoin="round" stroke="rgb(17.254902%, 24.313725%, 31.372549%)" stroke-opacity="0.8" stroke-miterlimit="10" d="M 376.324219 337.910156 C 376.324219 342.066406 370.085938 342.066406 370.085938 337.910156 C 370.085938 333.753906 376.324219 333.753906 376.324219 337.910156 "/>
<path fill-rule="nonzero" fill="rgb(17.254902%, 24.313725%, 31.372549%)" fill-opacity="0.8" stroke-width="0.901933" stroke-linecap="round" stroke-linejoin="round" stroke="rgb(17.254902%, 24.313725%, 31.372549%)" stroke-opacity="0.8" stroke-miterlimit="10" d="M 291.046875 351.558594 C 291.046875 355.714844 284.808594 355.714844 284.808594 351.558594 C 284.808594 347.398438 291.046875 347.398438 291.046875 351.558594 "/>
<path fill-rule="nonzero" fill="rgb(17.254902%, 24.313725%, 31.372549%)" fill-opacity="0.8" stroke-width="0.901933" stroke-linecap="round" stroke-linejoin="round" stroke="rgb(17.254902%, 24.313725%, 31.372549%)" stroke-opacity="0.8" stroke-miterlimit="10" d="M 404.960938 365.203125 C 404.960938 369.363281 398.726562 369.363281 398.726562 365.203125 C 398.726562 361.046875 404.960938 361.046875 404.960938 365.203125 "/>
<path fill-rule="nonzero" fill="rgb(17.254902%, 24.313725%, 31.372549%)" fill-opacity="0.8" stroke-width="0.901933" stroke-linecap="round" stroke-linejoin="round" stroke="rgb(17.254902%, 24.313725%, 31.372549%)" stroke-opacity="0.8" stroke-miterlimit="10" d="M 283.769531 351.558594 C 283.769531 355.714844 277.535156 355.714844 277.535156 351.558594 C 277.535156 347.398438 283.769531 347.398438 283.769531 351.558594 "/>
<path fill-rule="nonzero" fill="rgb(17.254902%, 24.313725%, 31.372549%)" fill-opacity="0.8" stroke-width="0.901933" stroke-linecap="round" stroke-linejoin="round" stroke="rgb(17.254902%, 24.313725%, 31.372549%)" stroke-opacity="0.8" stroke-miterlimit="10" d="M 185.542969 242.382812 C 185.542969 246.539062 179.304688 246.539062 179.304688 242.382812 C 179.304688 238.222656 185.542969 238.222656 185.542969 242.382812 "/>
<path fill-rule="nonzero" fill="rgb(17.254902%, 24.313725%, 31.372549%)" fill-opacity="0.8" stroke-width="0.901933" stroke-linecap="round" stroke-linejoin="round" stroke="rgb(17.254902%, 24.313725%, 31.372549%)" stroke-opacity="0.8" stroke-miterlimit="10" d="M 190.125 215.089844 C 190.125 219.246094 183.890625 219.246094 183.890625 215.089844 C 183.890625 210.929688 190.125 210.929688 190.125 215.089844 "/>
<path fill-rule="nonzero" fill="rgb(17.254902%, 24.313725%, 31.372549%)" fill-opacity="0.8" stroke-width="0.901933" stroke-linecap="round" stroke-linejoin="round" stroke="rgb(17.254902%, 24.313725%, 31.372549%)" stroke-opacity="0.8" stroke-miterlimit="10" d="M 207.933594 283.324219 C 207.933594 287.480469 201.695312 287.480469 201.695312 283.324219 C 201.695312 279.164062 207.933594 279.164062 207.933594 283.324219 "/>
<path fill-rule="nonzero" fill="rgb(17.254902%, 24.313725%, 31.372549%)" fill-opacity="0.8" stroke-width="0.901933" stroke-linecap="round" stroke-linejoin="round" stroke="rgb(17.254902%, 24.313725%, 31.372549%)" stroke-opacity="0.8" stroke-miterlimit="10" d="M 340.851562 337.910156 C 340.851562 342.066406 334.617188 342.066406 334.617188 337.910156 C 334.617188 333.753906 340.851562 333.753906 340.851562 337.910156 "/>
<path fill-rule="nonzero" fill="rgb(17.254902%, 24.313725%, 31.372549%)" fill-opacity="0.8" stroke-width="0.901933" stroke-linecap="round" stroke-linejoin="round" stroke="rgb(17.254902%, 24.313725%, 31.372549%)" stroke-opacity="0.8" stroke-miterlimit="10" d="M 84.1875 174.148438 C 84.1875 178.304688 77.949219 178.304688 77.949219 174.148438 C 77.949219 169.988281 84.1875 169.988281 84.1875 174.148438 "/>
<path fill-rule="nonzero" fill="rgb(17.254902%, 24.313725%, 31.372549%)" fill-opacity="0.8" stroke-width="0.901933" stroke-linecap="round" stroke-linejoin="round" stroke="rgb(17.254902%, 24.313725%, 31.372549%)" stroke-opacity="0.8" stroke-miterlimit="10" d="M 328.496094 337.910156 C 328.496094 342.066406 322.261719 342.066406 322.261719 337.910156 C 322.261719 333.753906 328.496094 333.753906 328.496094 337.910156 "/>
<path fill-rule="nonzero" fill="rgb(17.254902%, 24.313725%, 31.372549%)" fill-opacity="0.8" stroke-width="0.901933" stroke-linecap="round" stroke-linejoin="round" stroke="rgb(17.254902%, 24.313725%, 31.372549%)" stroke-opacity="0.8" stroke-miterlimit="10" d="M 303.882812 337.910156 C 303.882812 342.066406 297.648438 342.066406 297.648438 337.910156 C 297.648438 333.753906 303.882812 333.753906 303.882812 337.910156 "/>
<path fill-rule="nonzero" fill="rgb(17.254902%, 24.313725%, 31.372549%)" fill-opacity="0.8" stroke-width="0.901933" stroke-linecap="round" stroke-linejoin="round" stroke="rgb(17.254902%, 24.313725%, 31.372549%)" stroke-opacity="0.8" stroke-miterlimit="10" d="M 129.730469 269.675781 C 129.730469 273.832031 123.492188 273.832031 123.492188 269.675781 C 123.492188 265.519531 129.730469 265.519531 129.730469 269.675781 "/>
<path fill-rule="nonzero" fill="rgb(17.254902%, 24.313725%, 31.372549%)" fill-opacity="0.8" stroke-width="0.901933" stroke-linecap="round" stroke-linejoin="round" stroke="rgb(17.254902%, 24.313725%, 31.372549%)" stroke-opacity="0.8" stroke-miterlimit="10" d="M 160.644531 256.027344 C 160.644531 260.1875 154.40625 260.1875 154.40625 256.027344 C 154.40625 251.871094 160.644531 251.871094 160.644531 256.027344 "/>
<path fill-rule="nonzero" fill="rgb(17.254902%, 24.313725%, 31.372549%)" fill-opacity="0.8" stroke-width="0.901933" stroke-linecap="round" stroke-linejoin="round" stroke="rgb(17.254902%, 24.313725%, 31.372549%)" stroke-opacity="0.8" stroke-miterlimit="10" d="M 247.832031 310.617188 C 247.832031 314.773438 241.59375 314.773438 241.59375 310.617188 C 241.59375 306.457031 247.832031 306.457031 247.832031 310.617188 "/>
<path fill-rule="nonzero" fill="rgb(17.254902%, 24.313725%, 31.372549%)" fill-opacity="0.8" stroke-width="0.901933" stroke-linecap="round" stroke-linejoin="round" stroke="rgb(17.254902%, 24.313725%, 31.372549%)" stroke-opacity="0.8" stroke-miterlimit="10" d="M 303.308594 337.910156 C 303.308594 342.066406 297.070312 342.066406 297.070312 337.910156 C 297.070312 333.753906 303.308594 333.753906 303.308594 337.910156 "/>
<path fill-rule="nonzero" fill="rgb(17.254902%, 24.313725%, 31.372549%)" fill-opacity="0.8" stroke-width="0.901933" stroke-linecap="round" stroke-linejoin="round" stroke="rgb(17.254902%, 24.313725%, 31.372549%)" stroke-opacity="0.8" stroke-miterlimit="10" d="M 409.039062 351.558594 C 409.039062 355.714844 402.804688 355.714844 402.804688 351.558594 C 402.804688 347.398438 409.039062 347.398438 409.039062 351.558594 "/>
<path fill-rule="nonzero" fill="rgb(17.254902%, 24.313725%, 31.372549%)" fill-opacity="0.8" stroke-width="0.901933" stroke-linecap="round" stroke-linejoin="round" stroke="rgb(17.254902%, 24.313725%, 31.372549%)" stroke-opacity="0.8" stroke-miterlimit="10" d="M 332.199219 351.558594 C 332.199219 355.714844 325.960938 355.714844 325.960938 351.558594 C 325.960938 347.398438 332.199219 347.398438 332.199219 351.558594 "/>
<path fill-rule="nonzero" fill="rgb(17.254902%, 24.313725%, 31.372549%)" fill-opacity="0.8" stroke-width="0.901933" stroke-linecap="round" stroke-linejoin="round" stroke="rgb(17.254902%, 24.313725%, 31.372549%)" stroke-opacity="0.8" stroke-miterlimit="10" d="M 265.753906 296.96875 C 265.753906 301.128906 259.515625 301.128906 259.515625 296.96875 C 259.515625 292.8125 265.753906 292.8125 265.753906 296.96875 "/>
<path fill-rule="nonzero" fill="rgb(17.254902%, 24.313725%, 31.372549%)" fill-opacity="0.8" stroke-width="0.901933" stroke-linecap="round" stroke-linejoin="round" stroke="rgb(17.254902%, 24.313725%, 31.372549%)" stroke-opacity="0.8" stroke-miterlimit="10" d="M 363.222656 337.910156 C 363.222656 342.066406 356.984375 342.066406 356.984375 337.910156 C 356.984375 333.753906 363.222656 333.753906 363.222656 337.910156 "/>
<path fill-rule="nonzero" fill="rgb(17.254902%, 24.313725%, 31.372549%)" fill-opacity="0.8" stroke-width="0.901933" stroke-linecap="round" stroke-linejoin="round" stroke="rgb(17.254902%, 24.313725%, 31.372549%)" stroke-opacity="0.8" stroke-miterlimit="10" d="M 135.996094 174.148438 C 135.996094 178.304688 129.761719 178.304688 129.761719 174.148438 C 129.761719 169.988281 135.996094 169.988281 135.996094 174.148438 "/>
<path fill-rule="nonzero" fill="rgb(17.254902%, 24.313725%, 31.372549%)" fill-opacity="0.8" stroke-width="0.901933" stroke-linecap="round" stroke-linejoin="round" stroke="rgb(17.254902%, 24.313725%, 31.372549%)" stroke-opacity="0.8" stroke-miterlimit="10" d="M 164.15625 187.792969 C 164.15625 191.953125 157.917969 191.953125 157.917969 187.792969 C 157.917969 183.636719 164.15625 183.636719 164.15625 187.792969 "/>
<path fill-rule="nonzero" fill="rgb(17.254902%, 24.313725%, 31.372549%)" fill-opacity="0.8" stroke-width="0.901933" stroke-linecap="round" stroke-linejoin="round" stroke="rgb(17.254902%, 24.313725%, 31.372549%)" stroke-opacity="0.8" stroke-miterlimit="10" d="M 355.8125 324.261719 C 355.8125 328.421875 349.574219 328.421875 349.574219 324.261719 C 349.574219 320.105469 355.8125 320.105469 355.8125 324.261719 "/>
<path fill-rule="nonzero" fill="rgb(17.254902%, 24.313725%, 31.372549%)" fill-opacity="0.8" stroke-width="0.901933" stroke-linecap="round" stroke-linejoin="round" stroke="rgb(17.254902%, 24.313725%, 31.372549%)" stroke-opacity="0.8" stroke-miterlimit="10" d="M 309.367188 337.910156 C 309.367188 342.066406 303.128906 342.066406 303.128906 337.910156 C 303.128906 333.753906 309.367188 333.753906 309.367188 337.910156 "/>
<path fill-rule="nonzero" fill="rgb(17.254902%, 24.313725%, 31.372549%)" fill-opacity="0.8" stroke-width="0.901933" stroke-linecap="round" stroke-linejoin="round" stroke="rgb(17.254902%, 24.313725%, 31.372549%)" stroke-opacity="0.8" stroke-miterlimit="10" d="M 153.574219 256.027344 C 153.574219 260.1875 147.335938 260.1875 147.335938 256.027344 C 147.335938 251.871094 153.574219 251.871094 153.574219 256.027344 "/>
<path fill-rule="nonzero" fill="rgb(17.254902%, 24.313725%, 31.372549%)" fill-opacity="0.8" stroke-width="0.901933" stroke-linecap="round" stroke-linejoin="round" stroke="rgb(17.254902%, 24.313725%, 31.372549%)" stroke-opacity="0.8" stroke-miterlimit="10" d="M 85.582031 92.265625 C 85.582031 96.425781 79.34375 96.425781 79.34375 92.265625 C 79.34375 88.109375 85.582031 88.109375 85.582031 92.265625 "/>
<path fill-rule="nonzero" fill="rgb(17.254902%, 24.313725%, 31.372549%)" fill-opacity="0.8" stroke-width="0.901933" stroke-linecap="round" stroke-linejoin="round" stroke="rgb(17.254902%, 24.313725%, 31.372549%)" stroke-opacity="0.8" stroke-miterlimit="10" d="M 119.136719 119.558594 C 119.136719 123.71875 112.898438 123.71875 112.898438 119.558594 C 112.898438 115.402344 119.136719 115.402344 119.136719 119.558594 "/>
<path fill-rule="nonzero" fill="rgb(17.254902%, 24.313725%, 31.372549%)" fill-opacity="0.8" stroke-width="0.901933" stroke-linecap="round" stroke-linejoin="round" stroke="rgb(17.254902%, 24.313725%, 31.372549%)" stroke-opacity="0.8" stroke-miterlimit="10" d="M 145.257812 283.324219 C 145.257812 287.480469 139.023438 287.480469 139.023438 283.324219 C 139.023438 279.164062 145.257812 279.164062 145.257812 283.324219 "/>
<path fill-rule="nonzero" fill="rgb(17.254902%, 24.313725%, 31.372549%)" fill-opacity="0.8" stroke-width="0.901933" stroke-linecap="round" stroke-linejoin="round" stroke="rgb(17.254902%, 24.313725%, 31.372549%)" stroke-opacity="0.8" stroke-miterlimit="10" d="M 235.78125 283.324219 C 235.78125 287.480469 229.542969 287.480469 229.542969 283.324219 C 229.542969 279.164062 235.78125 279.164062 235.78125 283.324219 "/>
<path fill-rule="nonzero" fill="rgb(17.254902%, 24.313725%, 31.372549%)" fill-opacity="0.8" stroke-width="0.901933" stroke-linecap="round" stroke-linejoin="round" stroke="rgb(17.254902%, 24.313725%, 31.372549%)" stroke-opacity="0.8" stroke-miterlimit="10" d="M 138.730469 269.675781 C 138.730469 273.832031 132.492188 273.832031 132.492188 269.675781 C 132.492188 265.519531 138.730469 265.519531 138.730469 269.675781 "/>
<path fill-rule="nonzero" fill="rgb(17.254902%, 24.313725%, 31.372549%)" fill-opacity="0.8" stroke-width="0.901933" stroke-linecap="round" stroke-linejoin="round" stroke="rgb(17.254902%, 24.313725%, 31.372549%)" stroke-opacity="0.8" stroke-miterlimit="10" d="M 318.367188 365.203125 C 318.367188 369.363281 312.128906 369.363281 312.128906 365.203125 C 312.128906 361.046875 318.367188 361.046875 318.367188 365.203125 "/>
<path fill-rule="nonzero" fill="rgb(17.254902%, 24.313725%, 31.372549%)" fill-opacity="0.8" stroke-width="0.901933" stroke-linecap="round" stroke-linejoin="round" stroke="rgb(17.254902%, 24.313725%, 31.372549%)" stroke-opacity="0.8" stroke-miterlimit="10" d="M 73.5 105.914062 C 73.5 110.070312 67.261719 110.070312 67.261719 105.914062 C 67.261719 101.753906 73.5 101.753906 73.5 105.914062 "/>
<path fill-rule="nonzero" fill="rgb(17.254902%, 24.313725%, 31.372549%)" fill-opacity="0.8" stroke-width="0.901933" stroke-linecap="round" stroke-linejoin="round" stroke="rgb(17.254902%, 24.313725%, 31.372549%)" stroke-opacity="0.8" stroke-miterlimit="10" d="M 200.019531 256.027344 C 200.019531 260.1875 193.78125 260.1875 193.78125 256.027344 C 193.78125 251.871094 200.019531 251.871094 200.019531 256.027344 "/>
<path fill-rule="nonzero" fill="rgb(17.254902%, 24.313725%, 31.372549%)" fill-opacity="0.8" stroke-width="0.901933" stroke-linecap="round" stroke-linejoin="round" stroke="rgb(17.254902%, 24.313725%, 31.372549%)" stroke-opacity="0.8" stroke-miterlimit="10" d="M 247.828125 296.96875 C 247.828125 301.128906 241.59375 301.128906 241.59375 296.96875 C 241.59375 292.8125 247.828125 292.8125 247.828125 296.96875 "/>
<path fill-rule="nonzero" fill="rgb(17.254902%, 24.313725%, 31.372549%)" fill-opacity="0.8" stroke-width="0.901933" stroke-linecap="round" stroke-linejoin="round" stroke="rgb(17.254902%, 24.313725%, 31.372549%)" stroke-opacity="0.8" stroke-miterlimit="10" d="M 71.328125 24.03125 C 71.328125 28.191406 65.089844 28.191406 65.089844 24.03125 C 65.089844 19.875 71.328125 19.875 71.328125 24.03125 "/>
<path fill-rule="nonzero" fill="rgb(17.254902%, 24.313725%, 31.372549%)" fill-opacity="0.8" stroke-width="0.901933" stroke-linecap="round" stroke-linejoin="round" stroke="rgb(17.254902%, 24.313725%, 31.372549%)" stroke-opacity="0.8" stroke-miterlimit="10" d="M 270.957031 296.96875 C 270.957031 301.128906 264.71875 301.128906 264.71875 296.96875 C 264.71875 292.8125 270.957031 292.8125 270.957031 296.96875 "/>
<path fill-rule="nonzero" fill="rgb(17.254902%, 24.313725%, 31.372549%)" fill-opacity="0.8" stroke-width="0.901933" stroke-linecap="round" stroke-linejoin="round" stroke="rgb(17.254902%, 24.313725%, 31.372549%)" stroke-opacity="0.8" stroke-miterlimit="10" d="M 125.132812 215.089844 C 125.132812 219.246094 118.894531 219.246094 118.894531 215.089844 C 118.894531 210.929688 125.132812 210.929688 125.132812 215.089844 "/>
<path fill-rule="nonzero" fill="rgb(17.254902%, 24.313725%, 31.372549%)" fill-opacity="0.8" stroke-width="0.901933" stroke-linecap="round" stroke-linejoin="round" stroke="rgb(17.254902%, 24.313725%, 31.372549%)" stroke-opacity="0.8" stroke-miterlimit="10" d="M 194.351562 283.324219 C 194.351562 287.480469 188.117188 287.480469 188.117188 283.324219 C 188.117188 279.164062 194.351562 279.164062 194.351562 283.324219 "/>
<path fill-rule="nonzero" fill="rgb(17.254902%, 24.313725%, 31.372549%)" fill-opacity="0.8" stroke-width="0.901933" stroke-linecap="round" stroke-linejoin="round" stroke="rgb(17.254902%, 24.313725%, 31.372549%)" stroke-opacity="0.8" stroke-miterlimit="10" d="M 292.992188 283.324219 C 292.992188 287.480469 286.753906 287.480469 286.753906 283.324219 C 286.753906 279.164062 292.992188 279.164062 292.992188 283.324219 "/>
<path fill-rule="nonzero" fill="rgb(17.254902%, 24.313725%, 31.372549%)" fill-opacity="0.8" stroke-width="0.901933" stroke-linecap="round" stroke-linejoin="round" stroke="rgb(17.254902%, 24.313725%, 31.372549%)" stroke-opacity="0.8" stroke-miterlimit="10" d="M 337.800781 337.910156 C 337.800781 342.066406 331.5625 342.066406 331.5625 337.910156 C 331.5625 333.753906 337.800781 333.753906 337.800781 337.910156 "/>
<path fill-rule="nonzero" fill="rgb(17.254902%, 24.313725%, 31.372549%)" fill-opacity="0.8" stroke-width="0.901933" stroke-linecap="round" stroke-linejoin="round" stroke="rgb(17.254902%, 24.313725%, 31.372549%)" stroke-opacity="0.8" stroke-miterlimit="10" d="M 264.777344 337.910156 C 264.777344 342.066406 258.539062 342.066406 258.539062 337.910156 C 258.539062 333.753906 264.777344 333.753906 264.777344 337.910156 "/>
<path fill-rule="nonzero" fill="rgb(17.254902%, 24.313725%, 31.372549%)" fill-opacity="0.8" stroke-width="0.901933" stroke-linecap="round" stroke-linejoin="round" stroke="rgb(17.254902%, 24.313725%, 31.372549%)" stroke-opacity="0.8" stroke-miterlimit="10" d="M 151.21875 256.027344 C 151.21875 260.1875 144.984375 260.1875 144.984375 256.027344 C 144.984375 251.871094 151.21875 251.871094 151.21875 256.027344 "/>
<path fill-rule="nonzero" fill="rgb(17.254902%, 24.313725%, 31.372549%)" fill-opacity="0.8" stroke-width="0.901933" stroke-linecap="round" stroke-linejoin="round" stroke="rgb(17.254902%, 24.313725%, 31.372549%)" stroke-opacity="0.8" stroke-miterlimit="10" d="M 101.753906 160.5 C 101.753906 164.660156 95.519531 164.660156 95.519531 160.5 C 95.519531 156.34375 101.753906 156.34375 101.753906 160.5 "/>
<path fill-rule="nonzero" fill="rgb(17.254902%, 24.313725%, 31.372549%)" fill-opacity="0.8" stroke-width="0.901933" stroke-linecap="round" stroke-linejoin="round" stroke="rgb(17.254902%, 24.313725%, 31.372549%)" stroke-opacity="0.8" stroke-miterlimit="10" d="M 100.25 187.792969 C 100.25 191.953125 94.015625 191.953125 94.015625 187.792969 C 94.015625 183.636719 100.25 183.636719 100.25 187.792969 "/>
<path fill-rule="nonzero" fill="rgb(17.254902%, 24.313725%, 31.372549%)" fill-opacity="0.8" stroke-width="0.901933" stroke-linecap="round" stroke-linejoin="round" stroke="rgb(17.254902%, 24.313725%, 31.372549%)" stroke-opacity="0.8" stroke-miterlimit="10" d="M 175.832031 215.089844 C 175.832031 219.246094 169.597656 219.246094 169.597656 215.089844 C 169.597656 210.929688 175.832031 210.929688 175.832031 215.089844 "/>
<path fill-rule="nonzero" fill="rgb(17.254902%, 24.313725%, 31.372549%)" fill-opacity="0.8" stroke-width="0.901933" stroke-linecap="round" stroke-linejoin="round" stroke="rgb(17.254902%, 24.313725%, 31.372549%)" stroke-opacity="0.8" stroke-miterlimit="10" d="M 300.492188 324.261719 C 300.492188 328.421875 294.257812 328.421875 294.257812 324.261719 C 294.257812 320.105469 300.492188 320.105469 300.492188 324.261719 "/>
<path fill-rule="nonzero" fill="rgb(17.254902%, 24.313725%, 31.372549%)" fill-opacity="0.8" stroke-width="0.901933" stroke-linecap="round" stroke-linejoin="round" stroke="rgb(17.254902%, 24.313725%, 31.372549%)" stroke-opacity="0.8" stroke-miterlimit="10" d="M 70.867188 119.558594 C 70.867188 123.71875 64.632812 123.71875 64.632812 119.558594 C 64.632812 115.402344 70.867188 115.402344 70.867188 119.558594 "/>
<path fill-rule="nonzero" fill="rgb(17.254902%, 24.313725%, 31.372549%)" fill-opacity="0.8" stroke-width="0.901933" stroke-linecap="round" stroke-linejoin="round" stroke="rgb(17.254902%, 24.313725%, 31.372549%)" stroke-opacity="0.8" stroke-miterlimit="10" d="M 142.570312 174.148438 C 142.570312 178.304688 136.332031 178.304688 136.332031 174.148438 C 136.332031 169.988281 142.570312 169.988281 142.570312 174.148438 "/>
<path fill-rule="nonzero" fill="rgb(17.254902%, 24.313725%, 31.372549%)" fill-opacity="0.8" stroke-width="0.901933" stroke-linecap="round" stroke-linejoin="round" stroke="rgb(17.254902%, 24.313725%, 31.372549%)" stroke-opacity="0.8" stroke-miterlimit="10" d="M 391.90625 365.203125 C 391.90625 369.363281 385.671875 369.363281 385.671875 365.203125 C 385.671875 361.046875 391.90625 361.046875 391.90625 365.203125 "/>
<path fill-rule="nonzero" fill="rgb(17.254902%, 24.313725%, 31.372549%)" fill-opacity="0.8" stroke-width="0.901933" stroke-linecap="round" stroke-linejoin="round" stroke="rgb(17.254902%, 24.313725%, 31.372549%)" stroke-opacity="0.8" stroke-miterlimit="10" d="M 389.363281 351.558594 C 389.363281 355.714844 383.128906 355.714844 383.128906 351.558594 C 383.128906 347.398438 389.363281 347.398438 389.363281 351.558594 "/>
<path fill-rule="nonzero" fill="rgb(17.254902%, 24.313725%, 31.372549%)" fill-opacity="0.8" stroke-width="0.901933" stroke-linecap="round" stroke-linejoin="round" stroke="rgb(17.254902%, 24.313725%, 31.372549%)" stroke-opacity="0.8" stroke-miterlimit="10" d="M 323.4375 296.96875 C 323.4375 301.128906 317.203125 301.128906 317.203125 296.96875 C 317.203125 292.8125 323.4375 292.8125 323.4375 296.96875 "/>
<path fill-rule="nonzero" fill="rgb(17.254902%, 24.313725%, 31.372549%)" fill-opacity="0.8" stroke-width="0.901933" stroke-linecap="round" stroke-linejoin="round" stroke="rgb(17.254902%, 24.313725%, 31.372549%)" stroke-opacity="0.8" stroke-miterlimit="10" d="M 185.417969 283.324219 C 185.417969 287.480469 179.183594 287.480469 179.183594 283.324219 C 179.183594 279.164062 185.417969 279.164062 185.417969 283.324219 "/>
<path fill-rule="nonzero" fill="rgb(17.254902%, 24.313725%, 31.372549%)" fill-opacity="0.8" stroke-width="0.901933" stroke-linecap="round" stroke-linejoin="round" stroke="rgb(17.254902%, 24.313725%, 31.372549%)" stroke-opacity="0.8" stroke-miterlimit="10" d="M 248.054688 283.324219 C 248.054688 287.480469 241.816406 287.480469 241.816406 283.324219 C 241.816406 279.164062 248.054688 279.164062 248.054688 283.324219 "/>
<path fill-rule="nonzero" fill="rgb(17.254902%, 24.313725%, 31.372549%)" fill-opacity="0.8" stroke-width="0.901933" stroke-linecap="round" stroke-linejoin="round" stroke="rgb(17.254902%, 24.313725%, 31.372549%)" stroke-opacity="0.8" stroke-miterlimit="10" d="M 326.839844 351.558594 C 326.839844 355.714844 320.601562 355.714844 320.601562 351.558594 C 320.601562 347.398438 326.839844 347.398438 326.839844 351.558594 "/>
<path fill-rule="nonzero" fill="rgb(17.254902%, 24.313725%, 31.372549%)" fill-opacity="0.8" stroke-width="0.901933" stroke-linecap="round" stroke-linejoin="round" stroke="rgb(17.254902%, 24.313725%, 31.372549%)" stroke-opacity="0.8" stroke-miterlimit="10" d="M 283.882812 337.910156 C 283.882812 342.066406 277.644531 342.066406 277.644531 337.910156 C 277.644531 333.753906 283.882812 333.753906 283.882812 337.910156 "/>
<path fill="none" stroke-width="2.560748" stroke-linecap="butt" stroke-linejoin="round" stroke="rgb(90.588235%, 29.803922%, 23.529412%)" stroke-opacity="1" stroke-miterlimit="10" d="M 67.75 91.296875 L 71.152344 99.300781 L 74.554688 107.070312 L 77.957031 114.613281 L 81.359375 121.9375 L 84.761719 129.046875 L 88.167969 135.949219 L 91.570312 142.648438 L 94.972656 149.152344 L 98.375 155.464844 L 101.777344 161.597656 L 105.179688 167.546875 L 108.582031 173.324219 L 111.984375 178.929688 L 115.386719 184.375 L 118.789062 189.660156 L 122.191406 194.789062 L 125.59375 199.769531 L 128.996094 204.601562 L 132.398438 209.296875 L 135.804688 213.851562 L 139.207031 218.277344 L 142.609375 222.570312 L 146.011719 226.738281 L 149.414062 230.785156 L 152.816406 234.714844 L 156.21875 238.527344 L 159.621094 242.230469 L 163.023438 245.824219 L 166.425781 249.3125 L 169.828125 252.699219 L 173.230469 255.984375 L 176.632812 259.179688 L 180.035156 262.277344 L 183.441406 265.285156 L 186.84375 268.203125 L 190.246094 271.039062 L 193.648438 273.792969 L 197.050781 276.460938 L 200.453125 279.054688 L 203.855469 281.574219 L 207.257812 284.015625 L 210.660156 286.390625 L 214.0625 288.695312 L 217.464844 290.929688 L 220.867188 293.101562 L 224.269531 295.207031 L 227.671875 297.253906 L 231.078125 299.238281 L 234.480469 301.167969 L 237.882812 303.039062 L 241.285156 304.855469 L 244.6875 306.617188 L 248.089844 308.332031 L 251.492188 309.992188 L 254.894531 311.605469 L 258.296875 313.171875 L 261.699219 314.691406 L 265.101562 316.167969 L 268.503906 317.601562 L 271.90625 318.992188 L 275.3125 320.34375 L 278.714844 321.65625 L 282.117188 322.925781 L 285.519531 324.164062 L 288.921875 325.363281 L 292.324219 326.527344 L 295.726562 327.65625 L 299.128906 328.753906 L 302.53125 329.820312 L 305.933594 330.851562 L 309.335938 331.855469 L 312.738281 332.832031 L 316.140625 333.777344 L 319.542969 334.695312 L 322.949219 335.585938 L 326.351562 336.453125 L 329.753906 337.292969 L 333.15625 338.109375 L 336.558594 338.902344 L 339.960938 339.667969 L 343.363281 340.414062 L 346.765625 341.140625 L 350.167969 341.84375 L 353.570312 342.527344 L 356.972656 343.1875 L 360.375 343.832031 L 363.777344 344.457031 L 367.179688 345.0625 L 370.585938 345.652344 L 373.988281 346.222656 L 377.390625 346.777344 L 380.792969 347.316406 L 384.195312 347.839844 L 387.597656 348.347656 L 391 348.839844 L 394.402344 349.316406 L 397.804688 349.78125 L 401.207031 350.234375 L 404.609375 350.671875 L 408.011719 351.09375 "/>
<g fill="rgb(30.196078%, 30.196078%, 30.196078%)" fill-opacity="1">
<use xlink:href="#glyph-0-1" x="38.460938" y="369.327148"/>
</g>
<g fill="rgb(30.196078%, 30.196078%, 30.196078%)" fill-opacity="1">
<use xlink:href="#glyph-0-2" x="38.460938" y="301.092773"/>
</g>
<g fill="rgb(30.196078%, 30.196078%, 30.196078%)" fill-opacity="1">
<use xlink:href="#glyph-0-3" x="32.460938" y="232.858398"/>
<use xlink:href="#glyph-0-1" x="38.460938" y="232.858398"/>
</g>
<g fill="rgb(30.196078%, 30.196078%, 30.196078%)" fill-opacity="1">
<use xlink:href="#glyph-0-3" x="32.460938" y="164.624023"/>
<use xlink:href="#glyph-0-2" x="38.460938" y="164.624023"/>
</g>
<g fill="rgb(30.196078%, 30.196078%, 30.196078%)" fill-opacity="1">
<use xlink:href="#glyph-0-4" x="32.460938" y="96.389648"/>
<use xlink:href="#glyph-0-1" x="38.460938" y="96.389648"/>
</g>
<g fill="rgb(30.196078%, 30.196078%, 30.196078%)" fill-opacity="1">
<use xlink:href="#glyph-0-4" x="32.460938" y="28.155273"/>
<use xlink:href="#glyph-0-2" x="38.460938" y="28.155273"/>
</g>
<g fill="rgb(30.196078%, 30.196078%, 30.196078%)" fill-opacity="1">
<use xlink:href="#glyph-0-1" x="64.667969" y="397.163086"/>
</g>
<g fill="rgb(30.196078%, 30.196078%, 30.196078%)" fill-opacity="1">
<use xlink:href="#glyph-0-3" x="133.5" y="397.163086"/>
</g>
<g fill="rgb(30.196078%, 30.196078%, 30.196078%)" fill-opacity="1">
<use xlink:href="#glyph-0-4" x="202.335938" y="397.163086"/>
</g>
<g fill="rgb(30.196078%, 30.196078%, 30.196078%)" fill-opacity="1">
<use xlink:href="#glyph-0-5" x="271.167969" y="397.163086"/>
</g>
<g fill="rgb(30.196078%, 30.196078%, 30.196078%)" fill-opacity="1">
<use xlink:href="#glyph-0-6" x="340.003906" y="397.163086"/>
</g>
<g fill="rgb(30.196078%, 30.196078%, 30.196078%)" fill-opacity="1">
<use xlink:href="#glyph-0-2" x="408.835938" y="397.163086"/>
</g>
<g fill="rgb(0%, 0%, 0%)" fill-opacity="1">
<use xlink:href="#glyph-1-1" x="196.882812" y="417.807617"/>
</g>
<g fill="rgb(0%, 0%, 0%)" fill-opacity="1">
<use xlink:href="#glyph-1-2" x="205.882812" y="417.807617"/>
</g>
<g fill="rgb(0%, 0%, 0%)" fill-opacity="1">
<use xlink:href="#glyph-1-3" x="210.882812" y="417.807617"/>
</g>
<g fill="rgb(0%, 0%, 0%)" fill-opacity="1">
<use xlink:href="#glyph-1-4" x="218.882812" y="417.807617"/>
</g>
<g fill="rgb(0%, 0%, 0%)" fill-opacity="1">
<use xlink:href="#glyph-1-5" x="226.882812" y="417.807617"/>
</g>
<g fill="rgb(0%, 0%, 0%)" fill-opacity="1">
<use xlink:href="#glyph-1-6" x="229.882812" y="417.807617"/>
</g>
<g fill="rgb(0%, 0%, 0%)" fill-opacity="1">
<use xlink:href="#glyph-1-7" x="236.882812" y="417.807617"/>
</g>
<g fill="rgb(0%, 0%, 0%)" fill-opacity="1">
<use xlink:href="#glyph-1-8" x="240.882812" y="417.807617"/>
</g>
<g fill="rgb(0%, 0%, 0%)" fill-opacity="1">
<use xlink:href="#glyph-1-2" x="248.882812" y="417.807617"/>
</g>
<g fill="rgb(0%, 0%, 0%)" fill-opacity="1">
<use xlink:href="#glyph-2-1" x="253.882812" y="418.022461"/>
</g>
<g fill="rgb(0%, 0%, 0%)" fill-opacity="1">
<use xlink:href="#glyph-3-1" x="257.882812" y="417.271484"/>
</g>
<g fill="rgb(0%, 0%, 0%)" fill-opacity="1">
<use xlink:href="#glyph-1-9" x="264.882812" y="417.807617"/>
</g>
<g fill="rgb(0%, 0%, 0%)" fill-opacity="1">
<use xlink:href="#glyph-3-2" x="271.882812" y="417.271484"/>
</g>
<g fill="rgb(0%, 0%, 0%)" fill-opacity="1">
<use xlink:href="#glyph-4-1" x="20.75293" y="262.617188"/>
</g>
<g fill="rgb(0%, 0%, 0%)" fill-opacity="1">
<use xlink:href="#glyph-4-2" x="20.75293" y="251.617188"/>
</g>
<g fill="rgb(0%, 0%, 0%)" fill-opacity="1">
<use xlink:href="#glyph-4-3" x="20.75293" y="243.617188"/>
</g>
<g fill="rgb(0%, 0%, 0%)" fill-opacity="1">
<use xlink:href="#glyph-4-4" x="20.75293" y="236.617188"/>
</g>
<g fill="rgb(0%, 0%, 0%)" fill-opacity="1">
<use xlink:href="#glyph-4-5" x="20.75293" y="228.617188"/>
</g>
<g fill="rgb(0%, 0%, 0%)" fill-opacity="1">
<use xlink:href="#glyph-4-6" x="20.75293" y="223.617188"/>
</g>
<g fill="rgb(0%, 0%, 0%)" fill-opacity="1">
<use xlink:href="#glyph-4-4" x="20.75293" y="216.617188"/>
</g>
<g fill="rgb(0%, 0%, 0%)" fill-opacity="1">
<use xlink:href="#glyph-4-7" x="20.75293" y="208.617188"/>
</g>
<g fill="rgb(0%, 0%, 0%)" fill-opacity="1">
<use xlink:href="#glyph-5-1" x="20.967773" y="200.617188"/>
</g>
<g fill="rgb(0%, 0%, 0%)" fill-opacity="1">
<use xlink:href="#glyph-4-8" x="20.75293" y="196.617188"/>
</g>
<g fill="rgb(0%, 0%, 0%)" fill-opacity="1">
<use xlink:href="#glyph-4-9" x="20.75293" y="186.617188"/>
</g>
<g fill="rgb(0%, 0%, 0%)" fill-opacity="1">
<use xlink:href="#glyph-4-10" x="20.75293" y="178.617188"/>
</g>
<g fill="rgb(0%, 0%, 0%)" fill-opacity="1">
<use xlink:href="#glyph-4-11" x="20.75293" y="170.617188"/>
</g>
<g fill="rgb(0%, 0%, 0%)" fill-opacity="1">
<use xlink:href="#glyph-4-12" x="20.75293" y="162.617188"/>
</g>
<g fill="rgb(0%, 0%, 0%)" fill-opacity="1">
<use xlink:href="#glyph-4-3" x="20.75293" y="158.617188"/>
</g>
<g fill="rgb(0%, 0%, 0%)" fill-opacity="1">
<use xlink:href="#glyph-5-1" x="20.967773" y="151.617188"/>
</g>
<g fill="rgb(0%, 0%, 0%)" fill-opacity="1">
<use xlink:href="#glyph-6-1" x="20.216797" y="147.617188"/>
</g>
<g fill="rgb(0%, 0%, 0%)" fill-opacity="1">
<use xlink:href="#glyph-4-13" x="20.75293" y="140.617188"/>
</g>
<g fill="rgb(0%, 0%, 0%)" fill-opacity="1">
<use xlink:href="#glyph-6-2" x="20.216797" y="133.617188"/>
</g>
</svg>
