<?xml version="1.0" encoding="UTF-8"?>
<svg xmlns="http://www.w3.org/2000/svg" xmlns:xlink="http://www.w3.org/1999/xlink" width="432" height="432" viewBox="0 0 432 432">
<defs>
<g>
<g id="glyph-0-0">
<path d="M 0 -0.359375 L -7.890625 -0.359375 L -7.890625 -6.625 L 0 -6.625 Z M -0.984375 -5.625 L -6.90625 -5.625 L -6.90625 -1.34375 L -0.984375 -1.34375 Z M -0.984375 -5.625 "/>
</g>
<g id="glyph-0-1">
<path d="M -7.890625 -0.8125 L -7.890625 -2.34375 L -1.21875 -4.609375 L -7.890625 -6.859375 L -7.890625 -8.375 L 0 -8.375 L 0 -7.359375 L -4.65625 -7.359375 C -4.820312 -7.359375 -5.085938 -7.359375 -5.453125 -7.359375 C -5.828125 -7.367188 -6.226562 -7.375 -6.65625 -7.375 L 0 -5.125 L 0 -4.078125 L -6.65625 -1.8125 L -6.40625 -1.8125 C -6.21875 -1.8125 -5.925781 -1.8125 -5.53125 -1.8125 C -5.132812 -1.820312 -4.84375 -1.828125 -4.65625 -1.828125 L 0 -1.828125 L 0 -0.8125 Z M -7.890625 -0.8125 "/>
</g>
<g id="glyph-0-2">
<path d="M -1.53125 -1.453125 C -1.25 -1.453125 -1.023438 -1.550781 -0.859375 -1.75 C -0.703125 -1.957031 -0.625 -2.203125 -0.625 -2.484375 C -0.625 -2.816406 -0.703125 -3.144531 -0.859375 -3.46875 C -1.117188 -4.007812 -1.550781 -4.28125 -2.15625 -4.28125 L -2.921875 -4.28125 C -2.847656 -4.15625 -2.785156 -4 -2.734375 -3.8125 C -2.691406 -3.632812 -2.65625 -3.453125 -2.625 -3.265625 L -2.5625 -2.6875 C -2.507812 -2.332031 -2.4375 -2.066406 -2.34375 -1.890625 C -2.164062 -1.597656 -1.894531 -1.453125 -1.53125 -1.453125 Z M -3.484375 -3.796875 C -3.515625 -4.015625 -3.609375 -4.160156 -3.765625 -4.234375 C -3.847656 -4.273438 -3.972656 -4.296875 -4.140625 -4.296875 C -4.460938 -4.296875 -4.695312 -4.175781 -4.84375 -3.9375 C -5 -3.707031 -5.078125 -3.375 -5.078125 -2.9375 C -5.078125 -2.4375 -4.941406 -2.082031 -4.671875 -1.875 C -4.515625 -1.75 -4.289062 -1.671875 -4 -1.640625 L -4 -0.734375 C -4.707031 -0.753906 -5.195312 -0.984375 -5.46875 -1.421875 C -5.75 -1.867188 -5.890625 -2.382812 -5.890625 -2.96875 C -5.890625 -3.644531 -5.757812 -4.191406 -5.5 -4.609375 C -5.25 -5.035156 -4.847656 -5.25 -4.296875 -5.25 L -0.984375 -5.25 C -0.890625 -5.25 -0.8125 -5.265625 -0.75 -5.296875 C -0.6875 -5.335938 -0.65625 -5.425781 -0.65625 -5.5625 C -0.65625 -5.601562 -0.65625 -5.648438 -0.65625 -5.703125 C -0.664062 -5.765625 -0.675781 -5.820312 -0.6875 -5.875 L 0.03125 -5.875 C 0.0703125 -5.726562 0.0976562 -5.613281 0.109375 -5.53125 C 0.117188 -5.457031 0.125 -5.351562 0.125 -5.21875 C 0.125 -4.882812 0.00390625 -4.640625 -0.234375 -4.484375 C -0.359375 -4.410156 -0.535156 -4.359375 -0.765625 -4.328125 C -0.503906 -4.128906 -0.28125 -3.84375 -0.09375 -3.46875 C 0.0898438 -3.101562 0.1875 -2.695312 0.1875 -2.25 C 0.1875 -1.71875 0.0234375 -1.28125 -0.296875 -0.9375 C -0.617188 -0.601562 -1.023438 -0.4375 -1.515625 -0.4375 C -2.046875 -0.4375 -2.457031 -0.601562 -2.75 -0.9375 C -3.039062 -1.269531 -3.222656 -1.707031 -3.296875 -2.25 Z M -5.890625 -2.984375 Z M -5.890625 -2.984375 "/>
</g>
<g id="glyph-0-3">
<path d="M -5.75 -0.15625 L -5.75 -1.40625 L -3.734375 -2.734375 L -5.75 -4.078125 L -5.71875 -5.25 L -2.953125 -3.3125 L 0 -5.328125 L 0 -4.09375 L -2.15625 -2.671875 L 0 -1.28125 L 0 -0.0625 L -2.953125 -2.078125 Z M -5.75 -0.15625 "/>
</g>
<g id="glyph-0-4">
</g>
<g id="glyph-0-5">
<path d="M -7.359375 -0.90625 L -7.359375 -1.875 L -5.75 -1.875 L -5.75 -2.796875 L -4.96875 -2.796875 L -4.96875 -1.875 L -1.203125 -1.875 C -1.003906 -1.875 -0.875 -1.941406 -0.8125 -2.078125 C -0.769531 -2.160156 -0.75 -2.285156 -0.75 -2.453125 C -0.75 -2.503906 -0.75 -2.554688 -0.75 -2.609375 C -0.75 -2.660156 -0.753906 -2.722656 -0.765625 -2.796875 L 0 -2.796875 C 0.03125 -2.679688 0.0507812 -2.5625 0.0625 -2.4375 C 0.0820312 -2.320312 0.09375 -2.195312 0.09375 -2.0625 C 0.09375 -1.613281 -0.0195312 -1.304688 -0.25 -1.140625 C -0.488281 -0.984375 -0.789062 -0.90625 -1.15625 -0.90625 L -4.96875 -0.90625 L -4.96875 -0.125 L -5.75 -0.125 L -5.75 -0.90625 Z M -7.359375 -0.90625 "/>
</g>
<g id="glyph-0-6">
<path d="M -7.6875 -2.96875 C -7.6875 -3.96875 -7.28125 -4.691406 -6.46875 -5.140625 C -5.832031 -5.484375 -4.960938 -5.65625 -3.859375 -5.65625 C -2.804688 -5.65625 -1.941406 -5.5 -1.265625 -5.1875 C -0.285156 -4.726562 0.203125 -3.988281 0.203125 -2.96875 C 0.203125 -2.039062 -0.195312 -1.351562 -1 -0.90625 C -1.664062 -0.53125 -2.5625 -0.34375 -3.6875 -0.34375 C -4.5625 -0.34375 -5.3125 -0.457031 -5.9375 -0.6875 C -7.101562 -1.101562 -7.6875 -1.863281 -7.6875 -2.96875 Z M -0.671875 -2.96875 C -0.671875 -3.46875 -0.890625 -3.863281 -1.328125 -4.15625 C -1.773438 -4.457031 -2.601562 -4.609375 -3.8125 -4.609375 C -4.6875 -4.609375 -5.40625 -4.5 -5.96875 -4.28125 C -6.539062 -4.070312 -6.828125 -3.65625 -6.828125 -3.03125 C -6.828125 -2.46875 -6.554688 -2.050781 -6.015625 -1.78125 C -5.484375 -1.519531 -4.695312 -1.390625 -3.65625 -1.390625 C -2.863281 -1.390625 -2.234375 -1.472656 -1.765625 -1.640625 C -1.035156 -1.898438 -0.671875 -2.34375 -0.671875 -2.96875 Z M -0.671875 -2.96875 "/>
</g>
<g id="glyph-0-7">
<path d="M -1.171875 -0.9375 L -1.171875 -2.0625 L 0 -2.0625 L 0 -0.9375 Z M -1.171875 -0.9375 "/>
</g>
<g id="glyph-0-8">
<path d="M -7.5625 -5.75 L -6.71875 -5.75 C -6.476562 -5.5 -6.0625 -5.171875 -5.46875 -4.765625 C -4.875 -4.359375 -4.234375 -3.992188 -3.546875 -3.671875 C -2.878906 -3.367188 -2.269531 -3.132812 -1.71875 -2.96875 C -1.363281 -2.863281 -0.789062 -2.726562 0 -2.5625 L 0 -1.5 C -1.46875 -1.738281 -2.929688 -2.273438 -4.390625 -3.109375 C -5.234375 -3.597656 -5.96875 -4.113281 -6.59375 -4.65625 L -6.59375 -0.40625 L -7.5625 -0.40625 Z M -7.5625 -5.75 "/>
</g>
<g id="glyph-0-9">
<path d="M -7.890625 -0.84375 L -7.890625 -1.90625 L -0.9375 -1.90625 L -0.9375 -5.90625 L 0 -5.90625 L 0 -0.84375 Z M -7.890625 -0.84375 "/>
</g>
<g id="glyph-0-10">
<path d="M -5.71875 -0.703125 L -5.71875 -1.6875 L 0 -1.6875 L 0 -0.703125 Z M -7.890625 -0.703125 L -7.890625 -1.6875 L -6.796875 -1.6875 L -6.796875 -0.703125 Z M -7.890625 -0.703125 "/>
</g>
<g id="glyph-0-11">
<path d="M -7.890625 -0.6875 L -7.890625 -1.609375 L -3.3125 -1.609375 L -5.75 -4.09375 L -5.75 -5.328125 L -3.59375 -3.125 L 0 -5.453125 L 0 -4.21875 L -2.90625 -2.421875 L -2.15625 -1.609375 L 0 -1.609375 L 0 -0.6875 Z M -7.890625 -0.6875 "/>
</g>
<g id="glyph-0-12">
<path d="M -5.875 -3.109375 C -5.875 -3.515625 -5.78125 -3.90625 -5.59375 -4.28125 C -5.40625 -4.664062 -5.15625 -4.960938 -4.84375 -5.171875 C -4.5625 -5.359375 -4.222656 -5.484375 -3.828125 -5.546875 C -3.566406 -5.609375 -3.144531 -5.640625 -2.5625 -5.640625 L -2.5625 -1.421875 C -1.976562 -1.441406 -1.507812 -1.578125 -1.15625 -1.828125 C -0.8125 -2.085938 -0.640625 -2.488281 -0.640625 -3.03125 C -0.640625 -3.539062 -0.804688 -3.945312 -1.140625 -4.25 C -1.328125 -4.414062 -1.550781 -4.535156 -1.8125 -4.609375 L -1.8125 -5.5625 C -1.59375 -5.53125 -1.351562 -5.441406 -1.09375 -5.296875 C -0.832031 -5.160156 -0.625 -5.003906 -0.46875 -4.828125 C -0.175781 -4.535156 0.0195312 -4.175781 0.125 -3.75 C 0.175781 -3.507812 0.203125 -3.242188 0.203125 -2.953125 C 0.203125 -2.234375 -0.0546875 -1.625 -0.578125 -1.125 C -1.097656 -0.632812 -1.828125 -0.390625 -2.765625 -0.390625 C -3.691406 -0.390625 -4.441406 -0.640625 -5.015625 -1.140625 C -5.585938 -1.640625 -5.875 -2.296875 -5.875 -3.109375 Z M -3.328125 -4.640625 C -3.753906 -4.609375 -4.09375 -4.519531 -4.34375 -4.375 C -4.800781 -4.101562 -5.03125 -3.660156 -5.03125 -3.046875 C -5.03125 -2.597656 -4.867188 -2.222656 -4.546875 -1.921875 C -4.234375 -1.628906 -3.828125 -1.472656 -3.328125 -1.453125 Z M -5.890625 -3.015625 Z M -5.890625 -3.015625 "/>
</g>
<g id="glyph-0-13">
<path d="M -7.890625 -0.734375 L -7.890625 -1.703125 L 0 -1.703125 L 0 -0.734375 Z M -7.890625 -0.734375 "/>
</g>
<g id="glyph-0-14">
<path d="M -7.921875 -0.703125 L -7.921875 -1.671875 L -4.96875 -1.671875 C -5.257812 -1.898438 -5.46875 -2.109375 -5.59375 -2.296875 C -5.789062 -2.609375 -5.890625 -2.992188 -5.890625 -3.453125 C -5.890625 -4.285156 -5.597656 -4.851562 -5.015625 -5.15625 C -4.691406 -5.3125 -4.25 -5.390625 -3.6875 -5.390625 L 0 -5.390625 L 0 -4.40625 L -3.625 -4.40625 C -4.050781 -4.40625 -4.363281 -4.351562 -4.5625 -4.25 C -4.875 -4.070312 -5.03125 -3.738281 -5.03125 -3.25 C -5.03125 -2.851562 -4.890625 -2.488281 -4.609375 -2.15625 C -4.335938 -1.832031 -3.816406 -1.671875 -3.046875 -1.671875 L 0 -1.671875 L 0 -0.703125 Z M -7.921875 -0.703125 "/>
</g>
<g id="glyph-0-15">
<path d="M -0.625 -2.984375 C -0.625 -3.628906 -0.863281 -4.070312 -1.34375 -4.3125 C -1.832031 -4.550781 -2.375 -4.671875 -2.96875 -4.671875 C -3.507812 -4.671875 -3.945312 -4.582031 -4.28125 -4.40625 C -4.8125 -4.132812 -5.078125 -3.664062 -5.078125 -3 C -5.078125 -2.40625 -4.847656 -1.972656 -4.390625 -1.703125 C -3.941406 -1.441406 -3.398438 -1.3125 -2.765625 -1.3125 C -2.148438 -1.3125 -1.640625 -1.441406 -1.234375 -1.703125 C -0.828125 -1.972656 -0.625 -2.398438 -0.625 -2.984375 Z M -5.921875 -3.03125 C -5.921875 -3.769531 -5.671875 -4.394531 -5.171875 -4.90625 C -4.679688 -5.414062 -3.957031 -5.671875 -3 -5.671875 C -2.070312 -5.671875 -1.304688 -5.445312 -0.703125 -5 C -0.0976562 -4.550781 0.203125 -3.851562 0.203125 -2.90625 C 0.203125 -2.113281 -0.0625 -1.484375 -0.59375 -1.015625 C -1.125 -0.546875 -1.84375 -0.3125 -2.75 -0.3125 C -3.71875 -0.3125 -4.488281 -0.554688 -5.0625 -1.046875 C -5.632812 -1.535156 -5.921875 -2.195312 -5.921875 -3.03125 Z M -5.890625 -3 Z M -5.890625 -3 "/>
</g>
<g id="glyph-0-16">
<path d="M -2.8125 -1.328125 C -2.195312 -1.328125 -1.679688 -1.457031 -1.265625 -1.71875 C -0.847656 -1.976562 -0.640625 -2.394531 -0.640625 -2.96875 C -0.640625 -3.414062 -0.832031 -3.78125 -1.21875 -4.0625 C -1.601562 -4.351562 -2.15625 -4.5 -2.875 -4.5 C -3.601562 -4.5 -4.140625 -4.347656 -4.484375 -4.046875 C -4.835938 -3.753906 -5.015625 -3.390625 -5.015625 -2.953125 C -5.015625 -2.472656 -4.828125 -2.082031 -4.453125 -1.78125 C -4.078125 -1.476562 -3.53125 -1.328125 -2.8125 -1.328125 Z M -5.859375 -2.78125 C -5.859375 -3.21875 -5.765625 -3.585938 -5.578125 -3.890625 C -5.472656 -4.054688 -5.285156 -4.25 -5.015625 -4.46875 L -7.921875 -4.46875 L -7.921875 -5.390625 L 0 -5.390625 L 0 -4.53125 L -0.796875 -4.53125 C -0.441406 -4.300781 -0.1875 -4.03125 -0.03125 -3.71875 C 0.121094 -3.414062 0.203125 -3.066406 0.203125 -2.671875 C 0.203125 -2.023438 -0.0625 -1.46875 -0.59375 -1 C -1.132812 -0.53125 -1.851562 -0.296875 -2.75 -0.296875 C -3.59375 -0.296875 -4.320312 -0.507812 -4.9375 -0.9375 C -5.550781 -1.363281 -5.859375 -1.976562 -5.859375 -2.78125 Z M -5.859375 -2.78125 "/>
</g>
<g id="glyph-1-0">
<path d="M 0.28125 0 L 0.28125 -6.3125 L 5.296875 -6.3125 L 5.296875 0 Z M 4.5 -0.796875 L 4.5 -5.515625 L 1.078125 -5.515625 L 1.078125 -0.796875 Z M 4.5 -0.796875 "/>
</g>
<g id="glyph-1-1">
<path d="M 2.375 -6.15625 C 3.175781 -6.15625 3.753906 -5.828125 4.109375 -5.171875 C 4.378906 -4.660156 4.515625 -3.960938 4.515625 -3.078125 C 4.515625 -2.242188 4.390625 -1.554688 4.140625 -1.015625 C 3.785156 -0.222656 3.195312 0.171875 2.375 0.171875 C 1.632812 0.171875 1.082031 -0.148438 0.71875 -0.796875 C 0.425781 -1.328125 0.28125 -2.046875 0.28125 -2.953125 C 0.28125 -3.648438 0.367188 -4.25 0.546875 -4.75 C 0.878906 -5.6875 1.488281 -6.15625 2.375 -6.15625 Z M 2.375 -0.53125 C 2.769531 -0.53125 3.085938 -0.707031 3.328125 -1.0625 C 3.566406 -1.425781 3.6875 -2.085938 3.6875 -3.046875 C 3.6875 -3.753906 3.597656 -4.332031 3.421875 -4.78125 C 3.253906 -5.226562 2.921875 -5.453125 2.421875 -5.453125 C 1.972656 -5.453125 1.640625 -5.238281 1.421875 -4.8125 C 1.210938 -4.382812 1.109375 -3.753906 1.109375 -2.921875 C 1.109375 -2.296875 1.175781 -1.789062 1.3125 -1.40625 C 1.519531 -0.820312 1.875 -0.53125 2.375 -0.53125 Z M 2.375 -0.53125 "/>
</g>
<g id="glyph-1-2">
<path d="M 0.75 -0.9375 L 1.65625 -0.9375 L 1.65625 0 L 0.75 0 Z M 0.75 -0.9375 "/>
</g>
<g id="glyph-1-3">
<path d="M 0.84375 -4.359375 L 0.84375 -4.953125 C 1.394531 -5.003906 1.78125 -5.09375 2 -5.21875 C 2.226562 -5.34375 2.394531 -5.644531 2.5 -6.125 L 3.109375 -6.125 L 3.109375 0 L 2.296875 0 L 2.296875 -4.359375 Z M 0.84375 -4.359375 "/>
</g>
<g id="glyph-1-4">
<path d="M 0.28125 0 C 0.300781 -0.53125 0.40625 -0.988281 0.59375 -1.375 C 0.789062 -1.769531 1.164062 -2.128906 1.71875 -2.453125 L 2.546875 -2.921875 C 2.910156 -3.140625 3.164062 -3.328125 3.3125 -3.484375 C 3.550781 -3.710938 3.671875 -3.984375 3.671875 -4.296875 C 3.671875 -4.648438 3.5625 -4.929688 3.34375 -5.140625 C 3.132812 -5.359375 2.847656 -5.46875 2.484375 -5.46875 C 1.960938 -5.46875 1.597656 -5.265625 1.390625 -4.859375 C 1.285156 -4.648438 1.226562 -4.351562 1.21875 -3.96875 L 0.421875 -3.96875 C 0.429688 -4.5 0.53125 -4.9375 0.71875 -5.28125 C 1.050781 -5.875 1.644531 -6.171875 2.5 -6.171875 C 3.195312 -6.171875 3.707031 -5.976562 4.03125 -5.59375 C 4.363281 -5.21875 4.53125 -4.796875 4.53125 -4.328125 C 4.53125 -3.835938 4.351562 -3.414062 4 -3.0625 C 3.800781 -2.863281 3.441406 -2.617188 2.921875 -2.328125 L 2.34375 -2 C 2.0625 -1.84375 1.835938 -1.695312 1.671875 -1.5625 C 1.390625 -1.3125 1.210938 -1.035156 1.140625 -0.734375 L 4.5 -0.734375 L 4.5 0 Z M 0.28125 0 "/>
</g>
<g id="glyph-1-5">
<path d="M 1.09375 -1.5625 C 1.132812 -1.125 1.335938 -0.820312 1.703125 -0.65625 C 1.878906 -0.570312 2.09375 -0.53125 2.34375 -0.53125 C 2.800781 -0.53125 3.140625 -0.675781 3.359375 -0.96875 C 3.578125 -1.257812 3.6875 -1.582031 3.6875 -1.9375 C 3.6875 -2.363281 3.554688 -2.691406 3.296875 -2.921875 C 3.035156 -3.160156 2.71875 -3.28125 2.34375 -3.28125 C 2.082031 -3.28125 1.851562 -3.226562 1.65625 -3.125 C 1.46875 -3.019531 1.304688 -2.878906 1.171875 -2.703125 L 0.5 -2.734375 L 0.96875 -6.046875 L 4.171875 -6.046875 L 4.171875 -5.296875 L 1.5625 -5.296875 L 1.296875 -3.59375 C 1.429688 -3.695312 1.566406 -3.773438 1.703125 -3.828125 C 1.929688 -3.929688 2.195312 -3.984375 2.5 -3.984375 C 3.0625 -3.984375 3.535156 -3.800781 3.921875 -3.4375 C 4.316406 -3.070312 4.515625 -2.609375 4.515625 -2.046875 C 4.515625 -1.460938 4.332031 -0.945312 3.96875 -0.5 C 3.613281 -0.0625 3.046875 0.15625 2.265625 0.15625 C 1.753906 0.15625 1.304688 0.0117188 0.921875 -0.265625 C 0.546875 -0.546875 0.332031 -0.976562 0.28125 -1.5625 Z M 1.09375 -1.5625 "/>
</g>
<g id="glyph-1-6">
<path d="M 4.59375 -6.046875 L 4.59375 -5.375 C 4.394531 -5.175781 4.128906 -4.835938 3.796875 -4.359375 C 3.472656 -3.890625 3.1875 -3.378906 2.9375 -2.828125 C 2.6875 -2.296875 2.5 -1.8125 2.375 -1.375 C 2.289062 -1.082031 2.179688 -0.625 2.046875 0 L 1.203125 0 C 1.390625 -1.175781 1.816406 -2.34375 2.484375 -3.5 C 2.878906 -4.1875 3.289062 -4.773438 3.71875 -5.265625 L 0.328125 -5.265625 L 0.328125 -6.046875 Z M 4.59375 -6.046875 "/>
</g>
<g id="glyph-2-0">
<path d="M 0.359375 0 L 0.359375 -7.890625 L 6.625 -7.890625 L 6.625 0 Z M 5.625 -0.984375 L 5.625 -6.90625 L 1.34375 -6.90625 L 1.34375 -0.984375 Z M 5.625 -0.984375 "/>
</g>
<g id="glyph-2-1">
<path d="M 0.9375 -7.890625 L 4.484375 -7.890625 C 5.191406 -7.890625 5.757812 -7.691406 6.1875 -7.296875 C 6.613281 -6.898438 6.828125 -6.34375 6.828125 -5.625 C 6.828125 -5.007812 6.632812 -4.472656 6.25 -4.015625 C 5.875 -3.554688 5.285156 -3.328125 4.484375 -3.328125 L 2.015625 -3.328125 L 2.015625 0 L 0.9375 0 Z M 5.75 -5.625 C 5.75 -6.207031 5.535156 -6.601562 5.109375 -6.8125 C 4.867188 -6.914062 4.546875 -6.96875 4.140625 -6.96875 L 2.015625 -6.96875 L 2.015625 -4.234375 L 4.140625 -4.234375 C 4.617188 -4.234375 5.003906 -4.332031 5.296875 -4.53125 C 5.597656 -4.738281 5.75 -5.101562 5.75 -5.625 Z M 5.75 -5.625 "/>
</g>
<g id="glyph-2-2">
<path d="M 1.453125 -1.53125 C 1.453125 -1.25 1.550781 -1.023438 1.75 -0.859375 C 1.957031 -0.703125 2.203125 -0.625 2.484375 -0.625 C 2.816406 -0.625 3.144531 -0.703125 3.46875 -0.859375 C 4.007812 -1.117188 4.28125 -1.550781 4.28125 -2.15625 L 4.28125 -2.921875 C 4.15625 -2.847656 4 -2.785156 3.8125 -2.734375 C 3.632812 -2.691406 3.453125 -2.65625 3.265625 -2.625 L 2.6875 -2.5625 C 2.332031 -2.507812 2.066406 -2.4375 1.890625 -2.34375 C 1.597656 -2.164062 1.453125 -1.894531 1.453125 -1.53125 Z M 3.796875 -3.484375 C 4.015625 -3.515625 4.160156 -3.609375 4.234375 -3.765625 C 4.273438 -3.847656 4.296875 -3.972656 4.296875 -4.140625 C 4.296875 -4.460938 4.175781 -4.695312 3.9375 -4.84375 C 3.707031 -5 3.375 -5.078125 2.9375 -5.078125 C 2.4375 -5.078125 2.082031 -4.941406 1.875 -4.671875 C 1.75 -4.515625 1.671875 -4.289062 1.640625 -4 L 0.734375 -4 C 0.753906 -4.707031 0.984375 -5.195312 1.421875 -5.46875 C 1.867188 -5.75 2.382812 -5.890625 2.96875 -5.890625 C 3.644531 -5.890625 4.191406 -5.757812 4.609375 -5.5 C 5.035156 -5.25 5.25 -4.847656 5.25 -4.296875 L 5.25 -0.984375 C 5.25 -0.890625 5.265625 -0.8125 5.296875 -0.75 C 5.335938 -0.6875 5.425781 -0.65625 5.5625 -0.65625 C 5.601562 -0.65625 5.648438 -0.65625 5.703125 -0.65625 C 5.765625 -0.664062 5.820312 -0.675781 5.875 -0.6875 L 5.875 0.03125 C 5.726562 0.0703125 5.613281 0.0976562 5.53125 0.109375 C 5.457031 0.117188 5.351562 0.125 5.21875 0.125 C 4.882812 0.125 4.640625 0.00390625 4.484375 -0.234375 C 4.410156 -0.359375 4.359375 -0.535156 4.328125 -0.765625 C 4.128906 -0.503906 3.84375 -0.28125 3.46875 -0.09375 C 3.101562 0.0898438 2.695312 0.1875 2.25 0.1875 C 1.71875 0.1875 1.28125 0.0234375 0.9375 -0.296875 C 0.601562 -0.617188 0.4375 -1.023438 0.4375 -1.515625 C 0.4375 -2.046875 0.601562 -2.457031 0.9375 -2.75 C 1.269531 -3.039062 1.707031 -3.222656 2.25 -3.296875 Z M 2.984375 -5.890625 Z M 2.984375 -5.890625 "/>
</g>
<g id="glyph-2-3">
<path d="M 0.734375 -5.75 L 1.65625 -5.75 L 1.65625 -4.765625 C 1.726562 -4.953125 1.910156 -5.179688 2.203125 -5.453125 C 2.492188 -5.734375 2.832031 -5.875 3.21875 -5.875 C 3.238281 -5.875 3.269531 -5.875 3.3125 -5.875 C 3.351562 -5.875 3.425781 -5.867188 3.53125 -5.859375 L 3.53125 -4.828125 C 3.476562 -4.835938 3.425781 -4.84375 3.375 -4.84375 C 3.320312 -4.851562 3.269531 -4.859375 3.21875 -4.859375 C 2.726562 -4.859375 2.351562 -4.703125 2.09375 -4.390625 C 1.832031 -4.078125 1.703125 -3.71875 1.703125 -3.3125 L 1.703125 0 L 0.734375 0 Z M 0.734375 -5.75 "/>
</g>
<g id="glyph-2-4">
<path d="M 0.703125 -5.75 L 1.671875 -5.75 L 1.671875 -4.9375 C 1.898438 -5.21875 2.101562 -5.421875 2.28125 -5.546875 C 2.601562 -5.765625 2.96875 -5.875 3.375 -5.875 C 3.832031 -5.875 4.203125 -5.765625 4.484375 -5.546875 C 4.640625 -5.410156 4.78125 -5.21875 4.90625 -4.96875 C 5.125 -5.28125 5.378906 -5.507812 5.671875 -5.65625 C 5.960938 -5.800781 6.285156 -5.875 6.640625 -5.875 C 7.410156 -5.875 7.9375 -5.597656 8.21875 -5.046875 C 8.375 -4.742188 8.453125 -4.335938 8.453125 -3.828125 L 8.453125 0 L 7.4375 0 L 7.4375 -4 C 7.4375 -4.382812 7.34375 -4.644531 7.15625 -4.78125 C 6.96875 -4.925781 6.734375 -5 6.453125 -5 C 6.078125 -5 5.75 -4.867188 5.46875 -4.609375 C 5.195312 -4.359375 5.0625 -3.9375 5.0625 -3.34375 L 5.0625 0 L 4.078125 0 L 4.078125 -3.75 C 4.078125 -4.144531 4.03125 -4.429688 3.9375 -4.609375 C 3.789062 -4.878906 3.519531 -5.015625 3.125 -5.015625 C 2.757812 -5.015625 2.425781 -4.867188 2.125 -4.578125 C 1.820312 -4.296875 1.671875 -3.785156 1.671875 -3.046875 L 1.671875 0 L 0.703125 0 Z M 0.703125 -5.75 "/>
</g>
<g id="glyph-2-5">
<path d="M 3.109375 -5.875 C 3.515625 -5.875 3.90625 -5.78125 4.28125 -5.59375 C 4.664062 -5.40625 4.960938 -5.15625 5.171875 -4.84375 C 5.359375 -4.5625 5.484375 -4.222656 5.546875 -3.828125 C 5.609375 -3.566406 5.640625 -3.144531 5.640625 -2.5625 L 1.421875 -2.5625 C 1.441406 -1.976562 1.578125 -1.507812 1.828125 -1.15625 C 2.085938 -0.8125 2.488281 -0.640625 3.03125 -0.640625 C 3.539062 -0.640625 3.945312 -0.804688 4.25 -1.140625 C 4.414062 -1.328125 4.535156 -1.550781 4.609375 -1.8125 L 5.5625 -1.8125 C 5.53125 -1.59375 5.441406 -1.351562 5.296875 -1.09375 C 5.160156 -0.832031 5.003906 -0.625 4.828125 -0.46875 C 4.535156 -0.175781 4.175781 0.0195312 3.75 0.125 C 3.507812 0.175781 3.242188 0.203125 2.953125 0.203125 C 2.234375 0.203125 1.625 -0.0546875 1.125 -0.578125 C 0.632812 -1.097656 0.390625 -1.828125 0.390625 -2.765625 C 0.390625 -3.691406 0.640625 -4.441406 1.140625 -5.015625 C 1.640625 -5.585938 2.296875 -5.875 3.109375 -5.875 Z M 4.640625 -3.328125 C 4.609375 -3.753906 4.519531 -4.09375 4.375 -4.34375 C 4.101562 -4.800781 3.660156 -5.03125 3.046875 -5.03125 C 2.597656 -5.03125 2.222656 -4.867188 1.921875 -4.546875 C 1.628906 -4.234375 1.472656 -3.828125 1.453125 -3.328125 Z M 3.015625 -5.890625 Z M 3.015625 -5.890625 "/>
</g>
<g id="glyph-2-6">
<path d="M 0.90625 -7.359375 L 1.875 -7.359375 L 1.875 -5.75 L 2.796875 -5.75 L 2.796875 -4.96875 L 1.875 -4.96875 L 1.875 -1.203125 C 1.875 -1.003906 1.941406 -0.875 2.078125 -0.8125 C 2.160156 -0.769531 2.285156 -0.75 2.453125 -0.75 C 2.503906 -0.75 2.554688 -0.75 2.609375 -0.75 C 2.660156 -0.75 2.722656 -0.753906 2.796875 -0.765625 L 2.796875 0 C 2.679688 0.03125 2.5625 0.0507812 2.4375 0.0625 C 2.320312 0.0820312 2.195312 0.09375 2.0625 0.09375 C 1.613281 0.09375 1.304688 -0.0195312 1.140625 -0.25 C 0.984375 -0.488281 0.90625 -0.789062 0.90625 -1.15625 L 0.90625 -4.96875 L 0.125 -4.96875 L 0.125 -5.75 L 0.90625 -5.75 Z M 0.90625 -7.359375 "/>
</g>
<g id="glyph-2-7">
</g>
<g id="glyph-3-0">
<path d="M 1.375 0 L 1.375 -8.25 L 9.625 -8.25 L 9.625 0 Z M 2.0625 -0.6875 L 8.9375 -0.6875 L 8.9375 -7.5625 L 2.0625 -7.5625 Z M 2.0625 -0.6875 "/>
</g>
<g id="glyph-3-1">
<path d="M 6.125 -4.125 C 6.125 -3.445312 6.082031 -2.878906 6 -2.421875 C 5.914062 -1.972656 5.8125 -1.597656 5.6875 -1.296875 C 5.476562 -0.804688 5.1875 -0.4375 4.8125 -0.1875 C 4.4375 0.0507812 3.976562 0.171875 3.4375 0.171875 C 2.882812 0.171875 2.421875 0.0507812 2.046875 -0.1875 C 1.671875 -0.4375 1.378906 -0.804688 1.171875 -1.296875 C 1.046875 -1.597656 0.941406 -1.972656 0.859375 -2.421875 C 0.773438 -2.878906 0.734375 -3.445312 0.734375 -4.125 C 0.734375 -4.75 0.773438 -5.296875 0.859375 -5.765625 C 0.941406 -6.234375 1.050781 -6.617188 1.1875 -6.921875 C 1.382812 -7.378906 1.671875 -7.734375 2.046875 -7.984375 C 2.429688 -8.234375 2.894531 -8.359375 3.4375 -8.359375 C 3.976562 -8.359375 4.4375 -8.234375 4.8125 -7.984375 C 5.1875 -7.734375 5.476562 -7.378906 5.6875 -6.921875 C 5.8125 -6.617188 5.914062 -6.234375 6 -5.765625 C 6.082031 -5.296875 6.125 -4.75 6.125 -4.125 Z M 5.109375 -4.609375 C 5.097656 -5.117188 5.046875 -5.566406 4.953125 -5.953125 C 4.867188 -6.335938 4.769531 -6.625 4.65625 -6.8125 C 4.507812 -7.0625 4.335938 -7.238281 4.140625 -7.34375 C 3.953125 -7.445312 3.71875 -7.5 3.4375 -7.5 C 3.15625 -7.5 2.914062 -7.445312 2.71875 -7.34375 C 2.519531 -7.238281 2.347656 -7.0625 2.203125 -6.8125 C 2.085938 -6.613281 1.984375 -6.320312 1.890625 -5.9375 C 1.804688 -5.5625 1.757812 -5.117188 1.75 -4.609375 Z M 5.109375 -3.75 L 1.75 -3.75 C 1.75 -3.238281 1.789062 -2.773438 1.875 -2.359375 C 1.957031 -1.941406 2.0625 -1.617188 2.1875 -1.390625 C 2.332031 -1.148438 2.503906 -0.972656 2.703125 -0.859375 C 2.910156 -0.742188 3.15625 -0.6875 3.4375 -0.6875 C 3.71875 -0.6875 3.957031 -0.742188 4.15625 -0.859375 C 4.351562 -0.972656 4.523438 -1.148438 4.671875 -1.390625 C 4.796875 -1.617188 4.898438 -1.941406 4.984375 -2.359375 C 5.066406 -2.773438 5.109375 -3.238281 5.109375 -3.75 Z M 5.109375 -3.75 "/>
</g>
<g id="glyph-4-0">
<path d="M 2.4375 -0.6875 L -9.6875 -0.6875 L -9.6875 -7.5625 L 2.4375 -7.5625 Z M 1.671875 -1.453125 L 1.671875 -6.796875 L -8.921875 -6.796875 L -8.921875 -1.453125 Z M 1.671875 -1.453125 "/>
</g>
<g id="glyph-4-1">
<path d="M -10.4375 -4.265625 C -9.40625 -3.660156 -8.382812 -3.210938 -7.375 -2.921875 C -6.375 -2.628906 -5.351562 -2.484375 -4.3125 -2.484375 C -3.28125 -2.484375 -2.253906 -2.628906 -1.234375 -2.921875 C -0.222656 -3.222656 0.789062 -3.671875 1.8125 -4.265625 L 1.8125 -3.1875 C 0.757812 -2.519531 -0.269531 -2.019531 -1.28125 -1.6875 C -2.300781 -1.351562 -3.3125 -1.1875 -4.3125 -1.1875 C -5.3125 -1.1875 -6.316406 -1.347656 -7.328125 -1.671875 C -8.335938 -2.003906 -9.375 -2.507812 -10.4375 -3.1875 Z M -10.4375 -4.265625 "/>
</g>
<g id="glyph-4-2">
<path d="M -10.4375 -1.09375 L -10.4375 -2.171875 C -9.375 -2.847656 -8.335938 -3.351562 -7.328125 -3.6875 C -6.316406 -4.019531 -5.3125 -4.1875 -4.3125 -4.1875 C -3.3125 -4.1875 -2.300781 -4.019531 -1.28125 -3.6875 C -0.269531 -3.351562 0.757812 -2.847656 1.8125 -2.171875 L 1.8125 -1.09375 C 0.789062 -1.695312 -0.222656 -2.144531 -1.234375 -2.4375 C -2.253906 -2.726562 -3.28125 -2.875 -4.3125 -2.875 C -5.351562 -2.875 -6.375 -2.726562 -7.375 -2.4375 C -8.382812 -2.144531 -9.40625 -1.695312 -10.4375 -1.09375 Z M -10.4375 -1.09375 "/>
</g>
<g id="glyph-5-0">
<path d="M 0 -1.375 L -8.25 -1.375 L -8.25 -9.625 L 0 -9.625 Z M -0.6875 -2.0625 L -0.6875 -8.9375 L -7.5625 -8.9375 L -7.5625 -2.0625 Z M -0.6875 -2.0625 "/>
</g>
<g id="glyph-5-1">
<path d="M -4.125 -6.125 C -3.445312 -6.125 -2.878906 -6.082031 -2.421875 -6 C -1.972656 -5.914062 -1.597656 -5.8125 -1.296875 -5.6875 C -0.804688 -5.476562 -0.4375 -5.1875 -0.1875 -4.8125 C 0.0507812 -4.4375 0.171875 -3.976562 0.171875 -3.4375 C 0.171875 -2.882812 0.0507812 -2.421875 -0.1875 -2.046875 C -0.4375 -1.671875 -0.804688 -1.378906 -1.296875 -1.171875 C -1.597656 -1.046875 -1.972656 -0.941406 -2.421875 -0.859375 C -2.878906 -0.773438 -3.445312 -0.734375 -4.125 -0.734375 C -4.75 -0.734375 -5.296875 -0.773438 -5.765625 -0.859375 C -6.234375 -0.941406 -6.617188 -1.050781 -6.921875 -1.1875 C -7.378906 -1.382812 -7.734375 -1.671875 -7.984375 -2.046875 C -8.234375 -2.429688 -8.359375 -2.894531 -8.359375 -3.4375 C -8.359375 -3.976562 -8.234375 -4.4375 -7.984375 -4.8125 C -7.734375 -5.1875 -7.378906 -5.476562 -6.921875 -5.6875 C -6.617188 -5.8125 -6.234375 -5.914062 -5.765625 -6 C -5.296875 -6.082031 -4.75 -6.125 -4.125 -6.125 Z M -4.609375 -5.109375 C -5.117188 -5.097656 -5.566406 -5.046875 -5.953125 -4.953125 C -6.335938 -4.867188 -6.625 -4.769531 -6.8125 -4.65625 C -7.0625 -4.507812 -7.238281 -4.335938 -7.34375 -4.140625 C -7.445312 -3.953125 -7.5 -3.71875 -7.5 -3.4375 C -7.5 -3.15625 -7.445312 -2.914062 -7.34375 -2.71875 C -7.238281 -2.519531 -7.0625 -2.347656 -6.8125 -2.203125 C -6.613281 -2.085938 -6.320312 -1.984375 -5.9375 -1.890625 C -5.5625 -1.804688 -5.117188 -1.757812 -4.609375 -1.75 Z M -3.75 -5.109375 L -3.75 -1.75 C -3.238281 -1.75 -2.773438 -1.789062 -2.359375 -1.875 C -1.941406 -1.957031 -1.617188 -2.0625 -1.390625 -2.1875 C -1.148438 -2.332031 -0.972656 -2.503906 -0.859375 -2.703125 C -0.742188 -2.910156 -0.6875 -3.15625 -0.6875 -3.4375 C -0.6875 -3.71875 -0.742188 -3.957031 -0.859375 -4.15625 C -0.972656 -4.351562 -1.148438 -4.523438 -1.390625 -4.671875 C -1.617188 -4.796875 -1.941406 -4.898438 -2.359375 -4.984375 C -2.773438 -5.066406 -3.238281 -5.109375 -3.75 -5.109375 Z M -3.75 -5.109375 "/>
</g>
<g id="glyph-6-0">
<path d="M 0.421875 0 L 0.421875 -9.46875 L 7.9375 -9.46875 L 7.9375 0 Z M 6.75 -1.1875 L 6.75 -8.28125 L 1.609375 -8.28125 L 1.609375 -1.1875 Z M 6.75 -1.1875 "/>
</g>
<g id="glyph-6-1">
<path d="M 1 -9.46875 L 2.28125 -9.46875 L 2.28125 -1.125 L 7.078125 -1.125 L 7.078125 0 L 1 0 Z M 1 -9.46875 "/>
</g>
<g id="glyph-6-2">
<path d="M 0.84375 -6.875 L 2.03125 -6.875 L 2.03125 0 L 0.84375 0 Z M 0.84375 -9.46875 L 2.03125 -9.46875 L 2.03125 -8.15625 L 0.84375 -8.15625 Z M 0.84375 -9.46875 "/>
</g>
<g id="glyph-6-3">
<path d="M 0.828125 -9.46875 L 1.9375 -9.46875 L 1.9375 -3.96875 L 4.921875 -6.90625 L 6.40625 -6.90625 L 3.765625 -4.3125 L 6.546875 0 L 5.0625 0 L 2.90625 -3.484375 L 1.9375 -2.59375 L 1.9375 0 L 0.828125 0 Z M 0.828125 -9.46875 "/>
</g>
<g id="glyph-6-4">
<path d="M 3.71875 -7.0625 C 4.21875 -7.0625 4.695312 -6.945312 5.15625 -6.71875 C 5.613281 -6.488281 5.960938 -6.191406 6.203125 -5.828125 C 6.429688 -5.472656 6.585938 -5.066406 6.671875 -4.609375 C 6.734375 -4.285156 6.765625 -3.773438 6.765625 -3.078125 L 1.703125 -3.078125 C 1.722656 -2.378906 1.890625 -1.816406 2.203125 -1.390625 C 2.515625 -0.972656 2.992188 -0.765625 3.640625 -0.765625 C 4.242188 -0.765625 4.726562 -0.960938 5.09375 -1.359375 C 5.300781 -1.585938 5.445312 -1.859375 5.53125 -2.171875 L 6.671875 -2.171875 C 6.640625 -1.910156 6.539062 -1.625 6.375 -1.3125 C 6.207031 -1 6.015625 -0.742188 5.796875 -0.546875 C 5.453125 -0.203125 5.019531 0.0234375 4.5 0.140625 C 4.21875 0.210938 3.898438 0.25 3.546875 0.25 C 2.679688 0.25 1.953125 -0.0625 1.359375 -0.6875 C 0.765625 -1.3125 0.46875 -2.1875 0.46875 -3.3125 C 0.46875 -4.425781 0.765625 -5.328125 1.359375 -6.015625 C 1.960938 -6.710938 2.75 -7.0625 3.71875 -7.0625 Z M 5.578125 -4 C 5.523438 -4.5 5.414062 -4.898438 5.25 -5.203125 C 4.925781 -5.765625 4.394531 -6.046875 3.65625 -6.046875 C 3.125 -6.046875 2.675781 -5.851562 2.3125 -5.46875 C 1.945312 -5.082031 1.753906 -4.59375 1.734375 -4 Z M 3.609375 -7.078125 Z M 3.609375 -7.078125 "/>
</g>
<g id="glyph-6-5">
<path d="M 0.890625 -9.46875 L 2.046875 -9.46875 L 2.046875 0 L 0.890625 0 Z M 0.890625 -9.46875 "/>
</g>
<g id="glyph-6-6">
<path d="M 0.84375 -9.5 L 2.015625 -9.5 L 2.015625 -5.96875 C 2.285156 -6.3125 2.53125 -6.554688 2.75 -6.703125 C 3.125 -6.953125 3.59375 -7.078125 4.15625 -7.078125 C 5.15625 -7.078125 5.832031 -6.722656 6.1875 -6.015625 C 6.382812 -5.640625 6.484375 -5.109375 6.484375 -4.421875 L 6.484375 0 L 5.28125 0 L 5.28125 -4.359375 C 5.28125 -4.859375 5.21875 -5.226562 5.09375 -5.46875 C 4.882812 -5.84375 4.488281 -6.03125 3.90625 -6.03125 C 3.425781 -6.03125 2.988281 -5.863281 2.59375 -5.53125 C 2.207031 -5.207031 2.015625 -4.582031 2.015625 -3.65625 L 2.015625 0 L 0.84375 0 Z M 0.84375 -9.5 "/>
</g>
<g id="glyph-6-7">
<path d="M 3.59375 -0.75 C 4.363281 -0.75 4.890625 -1.039062 5.171875 -1.625 C 5.460938 -2.207031 5.609375 -2.851562 5.609375 -3.5625 C 5.609375 -4.207031 5.503906 -4.734375 5.296875 -5.140625 C 4.960938 -5.773438 4.398438 -6.09375 3.609375 -6.09375 C 2.898438 -6.09375 2.382812 -5.820312 2.0625 -5.28125 C 1.738281 -4.738281 1.578125 -4.082031 1.578125 -3.3125 C 1.578125 -2.582031 1.738281 -1.972656 2.0625 -1.484375 C 2.382812 -0.992188 2.894531 -0.75 3.59375 -0.75 Z M 3.640625 -7.109375 C 4.523438 -7.109375 5.273438 -6.8125 5.890625 -6.21875 C 6.503906 -5.625 6.8125 -4.75 6.8125 -3.59375 C 6.8125 -2.476562 6.539062 -1.554688 6 -0.828125 C 5.457031 -0.109375 4.617188 0.25 3.484375 0.25 C 2.535156 0.25 1.78125 -0.0664062 1.21875 -0.703125 C 0.65625 -1.347656 0.375 -2.210938 0.375 -3.296875 C 0.375 -4.460938 0.664062 -5.390625 1.25 -6.078125 C 1.84375 -6.765625 2.640625 -7.109375 3.640625 -7.109375 Z M 3.59375 -7.078125 Z M 3.59375 -7.078125 "/>
</g>
<g id="glyph-6-8">
<path d="M 1.578125 -3.375 C 1.578125 -2.632812 1.734375 -2.015625 2.046875 -1.515625 C 2.367188 -1.015625 2.875 -0.765625 3.5625 -0.765625 C 4.101562 -0.765625 4.546875 -0.992188 4.890625 -1.453125 C 5.234375 -1.921875 5.40625 -2.585938 5.40625 -3.453125 C 5.40625 -4.316406 5.226562 -4.957031 4.875 -5.375 C 4.519531 -5.800781 4.078125 -6.015625 3.546875 -6.015625 C 2.960938 -6.015625 2.488281 -5.789062 2.125 -5.34375 C 1.757812 -4.894531 1.578125 -4.238281 1.578125 -3.375 Z M 3.328125 -7.03125 C 3.859375 -7.03125 4.300781 -6.914062 4.65625 -6.6875 C 4.863281 -6.5625 5.097656 -6.335938 5.359375 -6.015625 L 5.359375 -9.5 L 6.484375 -9.5 L 6.484375 0 L 5.4375 0 L 5.4375 -0.953125 C 5.164062 -0.535156 4.84375 -0.226562 4.46875 -0.03125 C 4.101562 0.15625 3.679688 0.25 3.203125 0.25 C 2.429688 0.25 1.765625 -0.0703125 1.203125 -0.71875 C 0.640625 -1.375 0.359375 -2.238281 0.359375 -3.3125 C 0.359375 -4.3125 0.613281 -5.179688 1.125 -5.921875 C 1.644531 -6.660156 2.378906 -7.03125 3.328125 -7.03125 Z M 3.328125 -7.03125 "/>
</g>
<g id="glyph-6-9">
</g>
<g id="glyph-6-10">
<path d="M 1.140625 -7.953125 C 1.160156 -8.429688 1.242188 -8.785156 1.390625 -9.015625 C 1.660156 -9.410156 2.179688 -9.609375 2.953125 -9.609375 C 3.023438 -9.609375 3.097656 -9.601562 3.171875 -9.59375 C 3.253906 -9.59375 3.347656 -9.585938 3.453125 -9.578125 L 3.453125 -8.515625 C 3.328125 -8.523438 3.238281 -8.53125 3.1875 -8.53125 C 3.132812 -8.539062 3.082031 -8.546875 3.03125 -8.546875 C 2.6875 -8.546875 2.476562 -8.453125 2.40625 -8.265625 C 2.332031 -8.085938 2.296875 -7.625 2.296875 -6.875 L 3.453125 -6.875 L 3.453125 -5.953125 L 2.28125 -5.953125 L 2.28125 0 L 1.140625 0 L 1.140625 -5.953125 L 0.1875 -5.953125 L 0.1875 -6.875 L 1.140625 -6.875 Z M 1.140625 -7.953125 "/>
</g>
<g id="glyph-6-11">
<path d="M 0.890625 -6.90625 L 1.984375 -6.90625 L 1.984375 -5.71875 C 2.078125 -5.945312 2.296875 -6.226562 2.640625 -6.5625 C 2.992188 -6.894531 3.40625 -7.0625 3.875 -7.0625 C 3.894531 -7.0625 3.929688 -7.054688 3.984375 -7.046875 C 4.035156 -7.046875 4.117188 -7.039062 4.234375 -7.03125 L 4.234375 -5.796875 C 4.171875 -5.816406 4.109375 -5.828125 4.046875 -5.828125 C 3.992188 -5.828125 3.929688 -5.828125 3.859375 -5.828125 C 3.273438 -5.828125 2.828125 -5.640625 2.515625 -5.265625 C 2.203125 -4.890625 2.046875 -4.457031 2.046875 -3.96875 L 2.046875 0 L 0.890625 0 Z M 0.890625 -6.90625 "/>
</g>
<g id="glyph-6-12">
<path d="M 0.84375 -6.90625 L 1.953125 -6.90625 L 1.953125 -5.921875 C 2.273438 -6.328125 2.617188 -6.617188 2.984375 -6.796875 C 3.359375 -6.972656 3.765625 -7.0625 4.203125 -7.0625 C 5.179688 -7.0625 5.847656 -6.71875 6.203125 -6.03125 C 6.390625 -5.65625 6.484375 -5.117188 6.484375 -4.421875 L 6.484375 0 L 5.296875 0 L 5.296875 -4.359375 C 5.296875 -4.773438 5.234375 -5.113281 5.109375 -5.375 C 4.898438 -5.800781 4.523438 -6.015625 3.984375 -6.015625 C 3.710938 -6.015625 3.488281 -5.988281 3.3125 -5.9375 C 3 -5.84375 2.71875 -5.648438 2.46875 -5.359375 C 2.28125 -5.128906 2.15625 -4.894531 2.09375 -4.65625 C 2.039062 -4.414062 2.015625 -4.066406 2.015625 -3.609375 L 2.015625 0 L 0.84375 0 Z M 3.578125 -7.078125 Z M 3.578125 -7.078125 "/>
</g>
<g id="glyph-6-13">
<path d="M 1.265625 -6.53125 L 1.265625 -7.421875 C 2.097656 -7.503906 2.679688 -7.640625 3.015625 -7.828125 C 3.347656 -8.023438 3.597656 -8.476562 3.765625 -9.1875 L 4.671875 -9.1875 L 4.671875 0 L 3.4375 0 L 3.4375 -6.53125 Z M 1.265625 -6.53125 "/>
</g>
<g id="glyph-6-14">
<path d="M 3.578125 -9.234375 C 4.765625 -9.234375 5.625 -8.738281 6.15625 -7.75 C 6.570312 -6.988281 6.78125 -5.945312 6.78125 -4.625 C 6.78125 -3.375 6.59375 -2.335938 6.21875 -1.515625 C 5.675781 -0.335938 4.789062 0.25 3.5625 0.25 C 2.457031 0.25 1.632812 -0.226562 1.09375 -1.1875 C 0.632812 -1.988281 0.40625 -3.066406 0.40625 -4.421875 C 0.40625 -5.472656 0.539062 -6.375 0.8125 -7.125 C 1.320312 -8.53125 2.242188 -9.234375 3.578125 -9.234375 Z M 3.5625 -0.8125 C 4.164062 -0.8125 4.644531 -1.078125 5 -1.609375 C 5.351562 -2.140625 5.53125 -3.128906 5.53125 -4.578125 C 5.53125 -5.628906 5.398438 -6.492188 5.140625 -7.171875 C 4.878906 -7.847656 4.378906 -8.1875 3.640625 -8.1875 C 2.960938 -8.1875 2.460938 -7.863281 2.140625 -7.21875 C 1.828125 -6.582031 1.671875 -5.640625 1.671875 -4.390625 C 1.671875 -3.441406 1.769531 -2.679688 1.96875 -2.109375 C 2.28125 -1.242188 2.8125 -0.8125 3.5625 -0.8125 Z M 3.5625 -0.8125 "/>
</g>
<g id="glyph-6-15">
<path d="M 6.90625 -9.078125 L 6.90625 -8.0625 C 6.601562 -7.78125 6.207031 -7.28125 5.71875 -6.5625 C 5.226562 -5.851562 4.796875 -5.082031 4.421875 -4.25 C 4.046875 -3.445312 3.757812 -2.71875 3.5625 -2.0625 C 3.4375 -1.632812 3.273438 -0.945312 3.078125 0 L 1.796875 0 C 2.085938 -1.757812 2.734375 -3.515625 3.734375 -5.265625 C 4.316406 -6.285156 4.9375 -7.164062 5.59375 -7.90625 L 0.484375 -7.90625 L 0.484375 -9.078125 Z M 6.90625 -9.078125 "/>
</g>
<g id="glyph-7-0">
<path d="M 0.828125 2.921875 L 0.828125 -11.640625 L 9.078125 -11.640625 L 9.078125 2.921875 Z M 1.75 2 L 8.15625 2 L 8.15625 -10.703125 L 1.75 -10.703125 Z M 1.75 2 "/>
</g>
<g id="glyph-7-1">
<path d="M 5.109375 -12.515625 C 4.390625 -11.285156 3.851562 -10.066406 3.5 -8.859375 C 3.15625 -7.648438 2.984375 -6.425781 2.984375 -5.1875 C 2.984375 -3.9375 3.160156 -2.703125 3.515625 -1.484375 C 3.867188 -0.273438 4.398438 0.941406 5.109375 2.171875 L 3.828125 2.171875 C 3.023438 0.910156 2.421875 -0.328125 2.015625 -1.546875 C 1.617188 -2.765625 1.421875 -3.976562 1.421875 -5.1875 C 1.421875 -6.382812 1.617188 -7.585938 2.015625 -8.796875 C 2.410156 -10.015625 3.015625 -11.253906 3.828125 -12.515625 Z M 5.109375 -12.515625 "/>
</g>
<g id="glyph-7-2">
<path d="M 1.328125 -12.515625 L 2.609375 -12.515625 C 3.410156 -11.253906 4.007812 -10.015625 4.40625 -8.796875 C 4.8125 -7.585938 5.015625 -6.382812 5.015625 -5.1875 C 5.015625 -3.976562 4.8125 -2.765625 4.40625 -1.546875 C 4.007812 -0.328125 3.410156 0.910156 2.609375 2.171875 L 1.328125 2.171875 C 2.035156 0.941406 2.566406 -0.273438 2.921875 -1.484375 C 3.273438 -2.703125 3.453125 -3.9375 3.453125 -5.1875 C 3.453125 -6.425781 3.273438 -7.648438 2.921875 -8.859375 C 2.566406 -10.066406 2.035156 -11.285156 1.328125 -12.515625 Z M 1.328125 -12.515625 "/>
</g>
<g id="glyph-8-0">
<path d="M 1.65625 0 L 1.65625 -9.90625 L 11.546875 -9.90625 L 11.546875 0 Z M 2.46875 -0.828125 L 10.734375 -0.828125 L 10.734375 -9.078125 L 2.46875 -9.078125 Z M 2.46875 -0.828125 "/>
</g>
<g id="glyph-8-1">
<path d="M 7.359375 -4.953125 C 7.359375 -4.128906 7.304688 -3.445312 7.203125 -2.90625 C 7.109375 -2.363281 6.984375 -1.910156 6.828125 -1.546875 C 6.578125 -0.972656 6.222656 -0.535156 5.765625 -0.234375 C 5.316406 0.0546875 4.769531 0.203125 4.125 0.203125 C 3.46875 0.203125 2.910156 0.0546875 2.453125 -0.234375 C 2.003906 -0.535156 1.65625 -0.972656 1.40625 -1.546875 C 1.25 -1.910156 1.125 -2.363281 1.03125 -2.90625 C 0.9375 -3.445312 0.890625 -4.128906 0.890625 -4.953125 C 0.890625 -5.703125 0.9375 -6.359375 1.03125 -6.921875 C 1.125 -7.484375 1.253906 -7.941406 1.421875 -8.296875 C 1.660156 -8.859375 2.003906 -9.285156 2.453125 -9.578125 C 2.910156 -9.878906 3.46875 -10.03125 4.125 -10.03125 C 4.769531 -10.03125 5.316406 -9.878906 5.765625 -9.578125 C 6.222656 -9.285156 6.578125 -8.859375 6.828125 -8.296875 C 6.984375 -7.941406 7.109375 -7.484375 7.203125 -6.921875 C 7.304688 -6.359375 7.359375 -5.703125 7.359375 -4.953125 Z M 6.140625 -5.53125 C 6.117188 -6.144531 6.054688 -6.679688 5.953125 -7.140625 C 5.847656 -7.597656 5.726562 -7.945312 5.59375 -8.1875 C 5.414062 -8.476562 5.207031 -8.6875 4.96875 -8.8125 C 4.738281 -8.9375 4.457031 -9 4.125 -9 C 3.78125 -9 3.488281 -8.9375 3.25 -8.8125 C 3.019531 -8.6875 2.820312 -8.476562 2.65625 -8.1875 C 2.507812 -7.945312 2.382812 -7.597656 2.28125 -7.140625 C 2.175781 -6.679688 2.117188 -6.144531 2.109375 -5.53125 Z M 6.140625 -4.5 L 2.109375 -4.5 C 2.109375 -3.882812 2.15625 -3.328125 2.25 -2.828125 C 2.34375 -2.328125 2.46875 -1.941406 2.625 -1.671875 C 2.800781 -1.378906 3.007812 -1.164062 3.25 -1.03125 C 3.488281 -0.894531 3.78125 -0.828125 4.125 -0.828125 C 4.457031 -0.828125 4.742188 -0.894531 4.984375 -1.03125 C 5.222656 -1.164062 5.429688 -1.378906 5.609375 -1.671875 C 5.765625 -1.941406 5.890625 -2.328125 5.984375 -2.828125 C 6.085938 -3.328125 6.140625 -3.882812 6.140625 -4.5 Z M 6.140625 -4.5 "/>
</g>
<g id="glyph-9-0">
<path d="M 0.65625 2.328125 L 0.65625 -9.3125 L 7.265625 -9.3125 L 7.265625 2.328125 Z M 1.40625 1.59375 L 6.53125 1.59375 L 6.53125 -8.5625 L 1.40625 -8.5625 Z M 1.40625 1.59375 "/>
</g>
<g id="glyph-9-1">
<path d="M 1.40625 -6 L 9.65625 -6 L 9.65625 -4.90625 L 1.40625 -4.90625 Z M 1.40625 -3.359375 L 9.65625 -3.359375 L 9.65625 -2.265625 L 1.40625 -2.265625 Z M 1.40625 -3.359375 "/>
</g>
<g id="glyph-9-2">
<path d="M 1.546875 -1.640625 L 2.90625 -1.640625 L 2.90625 -0.53125 L 1.84375 1.53125 L 1.015625 1.53125 L 1.546875 -0.53125 Z M 1.546875 -1.640625 "/>
</g>
<g id="glyph-9-3">
</g>
</g>
<clipPath id="clip-0">
<path clip-rule="nonzero" d="M 41.152344 317 L 426.523438 317 L 426.523438 318 L 41.152344 318 Z M 41.152344 317 "/>
</clipPath>
<clipPath id="clip-1">
<path clip-rule="nonzero" d="M 41.152344 192 L 426.523438 192 L 426.523438 193 L 41.152344 193 Z M 41.152344 192 "/>
</clipPath>
<clipPath id="clip-2">
<path clip-rule="nonzero" d="M 41.152344 67 L 426.523438 67 L 426.523438 68 L 41.152344 68 Z M 41.152344 67 "/>
</clipPath>
<clipPath id="clip-3">
<path clip-rule="nonzero" d="M 102 29.957031 L 103 29.957031 L 103 396.847656 L 102 396.847656 Z M 102 29.957031 "/>
</clipPath>
<clipPath id="clip-4">
<path clip-rule="nonzero" d="M 189 29.957031 L 191 29.957031 L 191 396.847656 L 189 396.847656 Z M 189 29.957031 "/>
</clipPath>
<clipPath id="clip-5">
<path clip-rule="nonzero" d="M 277 29.957031 L 278 29.957031 L 278 396.847656 L 277 396.847656 Z M 277 29.957031 "/>
</clipPath>
<clipPath id="clip-6">
<path clip-rule="nonzero" d="M 364 29.957031 L 366 29.957031 L 366 396.847656 L 364 396.847656 Z M 364 29.957031 "/>
</clipPath>
<clipPath id="clip-7">
<path clip-rule="nonzero" d="M 41.152344 379 L 426.523438 379 L 426.523438 381 L 41.152344 381 Z M 41.152344 379 "/>
</clipPath>
<clipPath id="clip-8">
<path clip-rule="nonzero" d="M 41.152344 254 L 426.523438 254 L 426.523438 256 L 41.152344 256 Z M 41.152344 254 "/>
</clipPath>
<clipPath id="clip-9">
<path clip-rule="nonzero" d="M 41.152344 129 L 426.523438 129 L 426.523438 131 L 41.152344 131 Z M 41.152344 129 "/>
</clipPath>
<clipPath id="clip-10">
<path clip-rule="nonzero" d="M 58 29.957031 L 60 29.957031 L 60 396.847656 L 58 396.847656 Z M 58 29.957031 "/>
</clipPath>
<clipPath id="clip-11">
<path clip-rule="nonzero" d="M 145 29.957031 L 147 29.957031 L 147 396.847656 L 145 396.847656 Z M 145 29.957031 "/>
</clipPath>
<clipPath id="clip-12">
<path clip-rule="nonzero" d="M 233 29.957031 L 235 29.957031 L 235 396.847656 L 233 396.847656 Z M 233 29.957031 "/>
</clipPath>
<clipPath id="clip-13">
<path clip-rule="nonzero" d="M 320 29.957031 L 322 29.957031 L 322 396.847656 L 320 396.847656 Z M 320 29.957031 "/>
</clipPath>
<clipPath id="clip-14">
<path clip-rule="nonzero" d="M 408 29.957031 L 410 29.957031 L 410 396.847656 L 408 396.847656 Z M 408 29.957031 "/>
</clipPath>
<clipPath id="clip-15">
<path clip-rule="nonzero" d="M 303 29.957031 L 305 29.957031 L 305 396.847656 L 303 396.847656 Z M 303 29.957031 "/>
</clipPath>
</defs>
<rect x="-43.2" y="-43.2" width="518.4" height="518.4" fill="rgb(100%, 100%, 100%)" fill-opacity="1"/>
<rect x="-43.2" y="-43.2" width="518.4" height="518.4" fill="rgb(100%, 100%, 100%)" fill-opacity="1"/>
<g clip-path="url(#clip-0)">
<path fill="none" stroke-width="0.533489" stroke-linecap="butt" stroke-linejoin="round" stroke="rgb(92.156863%, 92.156863%, 92.156863%)" stroke-opacity="1" stroke-miterlimit="10" d="M 41.152344 317.667969 L 426.519531 317.667969 "/>
</g>
<g clip-path="url(#clip-1)">
<path fill="none" stroke-width="0.533489" stroke-linecap="butt" stroke-linejoin="round" stroke="rgb(92.156863%, 92.156863%, 92.156863%)" stroke-opacity="1" stroke-miterlimit="10" d="M 41.152344 192.660156 L 426.519531 192.660156 "/>
</g>
<g clip-path="url(#clip-2)">
<path fill="none" stroke-width="0.533489" stroke-linecap="butt" stroke-linejoin="round" stroke="rgb(92.156863%, 92.156863%, 92.156863%)" stroke-opacity="1" stroke-miterlimit="10" d="M 41.152344 67.652344 L 426.519531 67.652344 "/>
</g>
<g clip-path="url(#clip-3)">
<path fill="none" stroke-width="0.533489" stroke-linecap="butt" stroke-linejoin="round" stroke="rgb(92.156863%, 92.156863%, 92.156863%)" stroke-opacity="1" stroke-miterlimit="10" d="M 102.460938 396.847656 L 102.460938 29.957031 "/>
</g>
<g clip-path="url(#clip-4)">
<path fill="none" stroke-width="0.533489" stroke-linecap="butt" stroke-linejoin="round" stroke="rgb(92.156863%, 92.156863%, 92.156863%)" stroke-opacity="1" stroke-miterlimit="10" d="M 190.042969 396.847656 L 190.042969 29.957031 "/>
</g>
<g clip-path="url(#clip-5)">
<path fill="none" stroke-width="0.533489" stroke-linecap="butt" stroke-linejoin="round" stroke="rgb(92.156863%, 92.156863%, 92.156863%)" stroke-opacity="1" stroke-miterlimit="10" d="M 277.628906 396.847656 L 277.628906 29.957031 "/>
</g>
<g clip-path="url(#clip-6)">
<path fill="none" stroke-width="0.533489" stroke-linecap="butt" stroke-linejoin="round" stroke="rgb(92.156863%, 92.156863%, 92.156863%)" stroke-opacity="1" stroke-miterlimit="10" d="M 365.210938 396.847656 L 365.210938 29.957031 "/>
</g>
<g clip-path="url(#clip-7)">
<path fill="none" stroke-width="1.066978" stroke-linecap="butt" stroke-linejoin="round" stroke="rgb(92.156863%, 92.156863%, 92.156863%)" stroke-opacity="1" stroke-miterlimit="10" d="M 41.152344 380.171875 L 426.519531 380.171875 "/>
</g>
<g clip-path="url(#clip-8)">
<path fill="none" stroke-width="1.066978" stroke-linecap="butt" stroke-linejoin="round" stroke="rgb(92.156863%, 92.156863%, 92.156863%)" stroke-opacity="1" stroke-miterlimit="10" d="M 41.152344 255.164062 L 426.519531 255.164062 "/>
</g>
<g clip-path="url(#clip-9)">
<path fill="none" stroke-width="1.066978" stroke-linecap="butt" stroke-linejoin="round" stroke="rgb(92.156863%, 92.156863%, 92.156863%)" stroke-opacity="1" stroke-miterlimit="10" d="M 41.152344 130.15625 L 426.519531 130.15625 "/>
</g>
<g clip-path="url(#clip-10)">
<path fill="none" stroke-width="1.066978" stroke-linecap="butt" stroke-linejoin="round" stroke="rgb(92.156863%, 92.156863%, 92.156863%)" stroke-opacity="1" stroke-miterlimit="10" d="M 58.667969 396.847656 L 58.667969 29.957031 "/>
</g>
<g clip-path="url(#clip-11)">
<path fill="none" stroke-width="1.066978" stroke-linecap="butt" stroke-linejoin="round" stroke="rgb(92.156863%, 92.156863%, 92.156863%)" stroke-opacity="1" stroke-miterlimit="10" d="M 146.25 396.847656 L 146.25 29.957031 "/>
</g>
<g clip-path="url(#clip-12)">
<path fill="none" stroke-width="1.066978" stroke-linecap="butt" stroke-linejoin="round" stroke="rgb(92.156863%, 92.156863%, 92.156863%)" stroke-opacity="1" stroke-miterlimit="10" d="M 233.835938 396.847656 L 233.835938 29.957031 "/>
</g>
<g clip-path="url(#clip-13)">
<path fill="none" stroke-width="1.066978" stroke-linecap="butt" stroke-linejoin="round" stroke="rgb(92.156863%, 92.156863%, 92.156863%)" stroke-opacity="1" stroke-miterlimit="10" d="M 321.417969 396.847656 L 321.417969 29.957031 "/>
</g>
<g clip-path="url(#clip-14)">
<path fill="none" stroke-width="1.066978" stroke-linecap="butt" stroke-linejoin="round" stroke="rgb(92.156863%, 92.156863%, 92.156863%)" stroke-opacity="1" stroke-miterlimit="10" d="M 409.003906 396.847656 L 409.003906 29.957031 "/>
</g>
<path fill="none" stroke-width="2.560748" stroke-linecap="butt" stroke-linejoin="round" stroke="rgb(0%, 0%, 54.509804%)" stroke-opacity="1" stroke-miterlimit="10" d="M 58.667969 380.171875 L 86.835938 380.171875 L 88.597656 380.167969 L 90.355469 380.167969 L 93.878906 380.160156 L 95.636719 380.15625 L 97.398438 380.152344 L 99.160156 380.144531 L 100.917969 380.132812 L 104.441406 380.109375 L 106.199219 380.089844 L 107.960938 380.070312 L 109.722656 380.042969 L 111.480469 380.011719 L 113.242188 379.972656 L 115.003906 379.925781 L 116.761719 379.871094 L 118.523438 379.808594 L 120.285156 379.734375 L 122.042969 379.648438 L 123.804688 379.550781 L 125.566406 379.4375 L 127.328125 379.308594 L 129.085938 379.15625 L 130.847656 378.988281 L 132.609375 378.796875 L 134.367188 378.582031 L 136.128906 378.339844 L 137.890625 378.070312 L 139.648438 377.769531 L 141.410156 377.433594 L 143.171875 377.058594 L 144.929688 376.648438 L 146.691406 376.191406 L 148.453125 375.691406 L 150.210938 375.140625 L 151.972656 374.542969 L 153.734375 373.886719 L 155.492188 373.171875 L 157.253906 372.394531 L 159.015625 371.550781 L 160.777344 370.640625 L 162.535156 369.65625 L 164.296875 368.59375 L 166.058594 367.449219 L 167.816406 366.226562 L 169.578125 364.910156 L 171.339844 363.507812 L 173.097656 362.003906 L 174.859375 360.40625 L 176.621094 358.703125 L 178.378906 356.894531 L 180.140625 354.976562 L 181.902344 352.941406 L 183.660156 350.792969 L 185.421875 348.527344 L 187.183594 346.136719 L 188.941406 343.617188 L 190.703125 340.972656 L 192.464844 338.195312 L 194.226562 335.289062 L 195.984375 332.242188 L 197.746094 329.0625 L 199.507812 325.738281 L 201.265625 322.277344 L 203.027344 318.675781 L 204.789062 314.933594 L 206.546875 311.046875 L 208.308594 307.019531 L 210.070312 302.847656 L 211.828125 298.539062 L 213.589844 294.085938 L 215.351562 289.496094 L 217.109375 284.769531 L 218.871094 279.90625 L 220.632812 274.914062 L 222.390625 269.792969 L 224.152344 264.546875 L 225.914062 259.183594 L 227.675781 253.699219 L 229.433594 248.105469 L 231.195312 242.410156 L 232.957031 236.613281 L 234.714844 230.722656 L 236.476562 224.75 L 238.238281 218.699219 L 239.996094 212.578125 L 241.757812 206.394531 L 243.519531 200.164062 L 245.277344 193.886719 L 247.039062 187.582031 L 248.800781 181.253906 L 250.558594 174.914062 L 252.320312 168.578125 L 254.082031 162.253906 L 255.839844 155.953125 L 257.601562 149.695312 L 259.363281 143.484375 L 261.125 137.339844 L 262.882812 131.273438 L 264.644531 125.296875 L 266.40625 119.429688 L 268.164062 113.679688 L 269.925781 108.066406 L 271.6875 102.605469 L 273.445312 97.308594 L 275.207031 92.191406 L 276.96875 87.269531 L 278.726562 82.558594 L 280.488281 78.074219 L 282.25 73.828125 L 284.007812 69.835938 L 285.769531 66.117188 L 287.53125 62.675781 L 289.289062 59.535156 L 291.050781 56.707031 L 292.8125 54.199219 L 294.574219 52.03125 L 296.332031 50.210938 L 298.09375 48.75 L 299.855469 47.660156 L 301.613281 46.953125 L 303.375 46.636719 L 305.136719 46.714844 L 306.894531 47.203125 L 308.65625 48.101562 L 310.417969 49.421875 L 312.175781 51.160156 L 313.9375 53.324219 L 315.699219 55.917969 L 317.457031 58.941406 L 319.21875 62.390625 L 320.980469 66.265625 L 322.738281 70.5625 L 324.5 75.277344 L 326.261719 80.40625 L 328.023438 85.933594 L 329.78125 91.855469 L 331.542969 98.160156 L 333.304688 104.835938 L 335.0625 111.867188 L 336.824219 119.234375 L 338.585938 126.925781 L 340.34375 134.917969 L 342.105469 143.1875 L 343.867188 151.71875 L 345.625 160.484375 L 347.386719 169.457031 L 349.148438 178.609375 L 350.90625 187.914062 L 352.667969 197.339844 L 354.429688 206.855469 L 356.1875 216.429688 L 357.949219 226.03125 L 359.710938 235.617188 L 361.46875 245.160156 L 363.230469 254.617188 L 364.992188 263.960938 L 366.753906 273.148438 L 368.511719 282.144531 L 370.273438 290.910156 L 372.035156 299.414062 L 373.792969 307.621094 L 375.554688 315.496094 L 377.316406 323.003906 L 379.074219 330.121094 L 380.835938 336.8125 L 382.597656 343.054688 L 384.355469 348.828125 L 386.117188 354.109375 L 387.878906 358.890625 L 389.636719 363.15625 L 391.398438 366.902344 L 393.160156 370.136719 L 394.917969 372.859375 L 396.679688 375.089844 L 398.441406 376.855469 L 400.203125 378.179688 L 401.960938 379.117188 L 403.722656 379.710938 L 405.484375 380.03125 L 407.242188 380.152344 L 409.003906 380.171875 "/>
<g clip-path="url(#clip-15)">
<path fill="none" stroke-width="1.066978" stroke-linecap="butt" stroke-linejoin="round" stroke="rgb(100%, 0%, 0%)" stroke-opacity="1" stroke-dasharray="4.267913 4.267913" stroke-miterlimit="10" d="M 303.902344 396.847656 L 303.902344 29.957031 "/>
</g>
<g fill="rgb(100%, 0%, 0%)" fill-opacity="1">
<use xlink:href="#glyph-0-1" x="299.373047" y="322.289062"/>
<use xlink:href="#glyph-0-2" x="299.373047" y="313.289062"/>
<use xlink:href="#glyph-0-3" x="299.373047" y="307.289062"/>
<use xlink:href="#glyph-0-4" x="299.373047" y="301.289062"/>
<use xlink:href="#glyph-0-2" x="299.373047" y="298.289062"/>
<use xlink:href="#glyph-0-5" x="299.373047" y="292.289062"/>
<use xlink:href="#glyph-0-4" x="299.373047" y="289.289062"/>
<use xlink:href="#glyph-0-6" x="299.373047" y="286.289062"/>
<use xlink:href="#glyph-0-7" x="299.373047" y="280.289062"/>
<use xlink:href="#glyph-0-8" x="299.373047" y="277.289062"/>
</g>
<g fill="rgb(30.196078%, 30.196078%, 30.196078%)" fill-opacity="1">
<use xlink:href="#glyph-1-1" x="24.21875" y="383.448242"/>
<use xlink:href="#glyph-1-2" x="29.21875" y="383.448242"/>
<use xlink:href="#glyph-1-1" x="31.21875" y="383.448242"/>
</g>
<g fill="rgb(30.196078%, 30.196078%, 30.196078%)" fill-opacity="1">
<use xlink:href="#glyph-1-1" x="24.21875" y="258.44043"/>
<use xlink:href="#glyph-1-2" x="29.21875" y="258.44043"/>
<use xlink:href="#glyph-1-3" x="31.21875" y="258.44043"/>
</g>
<g fill="rgb(30.196078%, 30.196078%, 30.196078%)" fill-opacity="1">
<use xlink:href="#glyph-1-1" x="24.21875" y="133.432617"/>
<use xlink:href="#glyph-1-2" x="29.21875" y="133.432617"/>
<use xlink:href="#glyph-1-4" x="31.21875" y="133.432617"/>
</g>
<g fill="rgb(30.196078%, 30.196078%, 30.196078%)" fill-opacity="1">
<use xlink:href="#glyph-1-1" x="50.167969" y="408.557617"/>
<use xlink:href="#glyph-1-2" x="55.167969" y="408.557617"/>
<use xlink:href="#glyph-1-1" x="57.167969" y="408.557617"/>
<use xlink:href="#glyph-1-1" x="62.167969" y="408.557617"/>
</g>
<g fill="rgb(30.196078%, 30.196078%, 30.196078%)" fill-opacity="1">
<use xlink:href="#glyph-1-1" x="137.75" y="408.557617"/>
<use xlink:href="#glyph-1-2" x="142.75" y="408.557617"/>
<use xlink:href="#glyph-1-4" x="144.75" y="408.557617"/>
<use xlink:href="#glyph-1-5" x="149.75" y="408.557617"/>
</g>
<g fill="rgb(30.196078%, 30.196078%, 30.196078%)" fill-opacity="1">
<use xlink:href="#glyph-1-1" x="225.335938" y="408.557617"/>
<use xlink:href="#glyph-1-2" x="230.335938" y="408.557617"/>
<use xlink:href="#glyph-1-5" x="232.335938" y="408.557617"/>
<use xlink:href="#glyph-1-1" x="237.335938" y="408.557617"/>
</g>
<g fill="rgb(30.196078%, 30.196078%, 30.196078%)" fill-opacity="1">
<use xlink:href="#glyph-1-1" x="312.917969" y="408.557617"/>
<use xlink:href="#glyph-1-2" x="317.917969" y="408.557617"/>
<use xlink:href="#glyph-1-6" x="319.917969" y="408.557617"/>
<use xlink:href="#glyph-1-5" x="324.917969" y="408.557617"/>
</g>
<g fill="rgb(30.196078%, 30.196078%, 30.196078%)" fill-opacity="1">
<use xlink:href="#glyph-1-3" x="400.503906" y="408.557617"/>
<use xlink:href="#glyph-1-2" x="405.503906" y="408.557617"/>
<use xlink:href="#glyph-1-1" x="407.503906" y="408.557617"/>
<use xlink:href="#glyph-1-1" x="412.503906" y="408.557617"/>
</g>
<g fill="rgb(0%, 0%, 0%)" fill-opacity="1">
<use xlink:href="#glyph-2-1" x="203.335938" y="421.990234"/>
<use xlink:href="#glyph-2-2" x="210.335938" y="421.990234"/>
<use xlink:href="#glyph-2-3" x="216.335938" y="421.990234"/>
<use xlink:href="#glyph-2-2" x="220.335938" y="421.990234"/>
<use xlink:href="#glyph-2-4" x="226.335938" y="421.990234"/>
<use xlink:href="#glyph-2-5" x="235.335938" y="421.990234"/>
<use xlink:href="#glyph-2-6" x="241.335938" y="421.990234"/>
<use xlink:href="#glyph-2-5" x="244.335938" y="421.990234"/>
<use xlink:href="#glyph-2-3" x="250.335938" y="421.990234"/>
<use xlink:href="#glyph-2-7" x="254.335938" y="421.990234"/>
</g>
<g fill="rgb(0%, 0%, 0%)" fill-opacity="1">
<use xlink:href="#glyph-3-1" x="257.335938" y="421.579102"/>
</g>
<g fill="rgb(0%, 0%, 0%)" fill-opacity="1">
<use xlink:href="#glyph-0-9" x="15.951172" y="250.402344"/>
<use xlink:href="#glyph-0-10" x="15.951172" y="244.402344"/>
<use xlink:href="#glyph-0-11" x="15.951172" y="242.402344"/>
<use xlink:href="#glyph-0-12" x="15.951172" y="236.402344"/>
<use xlink:href="#glyph-0-13" x="15.951172" y="230.402344"/>
<use xlink:href="#glyph-0-10" x="15.951172" y="228.402344"/>
<use xlink:href="#glyph-0-14" x="15.951172" y="226.402344"/>
<use xlink:href="#glyph-0-15" x="15.951172" y="220.402344"/>
<use xlink:href="#glyph-0-15" x="15.951172" y="214.402344"/>
<use xlink:href="#glyph-0-16" x="15.951172" y="208.402344"/>
<use xlink:href="#glyph-0-4" x="15.951172" y="202.402344"/>
</g>
<g fill="rgb(0%, 0%, 0%)" fill-opacity="1">
<use xlink:href="#glyph-0-9" x="15.951172" y="199.402344"/>
</g>
<g fill="rgb(0%, 0%, 0%)" fill-opacity="1">
<use xlink:href="#glyph-4-1" x="16.243164" y="193.402344"/>
</g>
<g fill="rgb(0%, 0%, 0%)" fill-opacity="1">
<use xlink:href="#glyph-5-1" x="15.540039" y="188.402344"/>
</g>
<g fill="rgb(0%, 0%, 0%)" fill-opacity="1">
<use xlink:href="#glyph-4-2" x="16.243164" y="181.402344"/>
</g>
<g fill="rgb(0%, 0%, 0%)" fill-opacity="1">
<use xlink:href="#glyph-6-1" x="41.152344" y="17.644531"/>
<use xlink:href="#glyph-6-2" x="48.152344" y="17.644531"/>
<use xlink:href="#glyph-6-3" x="51.152344" y="17.644531"/>
<use xlink:href="#glyph-6-4" x="58.152344" y="17.644531"/>
<use xlink:href="#glyph-6-5" x="65.152344" y="17.644531"/>
<use xlink:href="#glyph-6-2" x="68.152344" y="17.644531"/>
<use xlink:href="#glyph-6-6" x="71.152344" y="17.644531"/>
<use xlink:href="#glyph-6-7" x="78.152344" y="17.644531"/>
<use xlink:href="#glyph-6-7" x="85.152344" y="17.644531"/>
<use xlink:href="#glyph-6-8" x="92.152344" y="17.644531"/>
<use xlink:href="#glyph-6-9" x="99.152344" y="17.644531"/>
</g>
<g fill="rgb(0%, 0%, 0%)" fill-opacity="1">
<use xlink:href="#glyph-6-1" x="103.152344" y="17.644531"/>
</g>
<g fill="rgb(0%, 0%, 0%)" fill-opacity="1">
<use xlink:href="#glyph-7-1" x="110.152344" y="17.795898"/>
</g>
<g fill="rgb(0%, 0%, 0%)" fill-opacity="1">
<use xlink:href="#glyph-8-1" x="116.152344" y="17.750977"/>
</g>
<g fill="rgb(0%, 0%, 0%)" fill-opacity="1">
<use xlink:href="#glyph-7-2" x="124.152344" y="17.795898"/>
</g>
<g fill="rgb(0%, 0%, 0%)" fill-opacity="1">
<use xlink:href="#glyph-6-9" x="130.152344" y="17.644531"/>
<use xlink:href="#glyph-6-10" x="134.152344" y="17.644531"/>
<use xlink:href="#glyph-6-7" x="138.152344" y="17.644531"/>
<use xlink:href="#glyph-6-11" x="145.152344" y="17.644531"/>
<use xlink:href="#glyph-6-9" x="149.152344" y="17.644531"/>
</g>
<g fill="rgb(0%, 0%, 0%)" fill-opacity="1">
<use xlink:href="#glyph-6-12" x="153.152344" y="17.644531"/>
</g>
<g fill="rgb(0%, 0%, 0%)" fill-opacity="1">
<use xlink:href="#glyph-9-1" x="163.207031" y="17.732422"/>
</g>
<g fill="rgb(0%, 0%, 0%)" fill-opacity="1">
<use xlink:href="#glyph-6-13" x="177.261719" y="17.644531"/>
<use xlink:href="#glyph-6-14" x="184.261719" y="17.644531"/>
</g>
<g fill="rgb(0%, 0%, 0%)" fill-opacity="1">
<use xlink:href="#glyph-9-2" x="191.261719" y="17.732422"/>
</g>
<g fill="rgb(0%, 0%, 0%)" fill-opacity="1">
<use xlink:href="#glyph-9-3" x="195.261719" y="17.732422"/>
</g>
<g fill="rgb(0%, 0%, 0%)" fill-opacity="1">
<use xlink:href="#glyph-6-3" x="199.261719" y="17.644531"/>
</g>
<g fill="rgb(0%, 0%, 0%)" fill-opacity="1">
<use xlink:href="#glyph-9-1" x="209.316406" y="17.732422"/>
</g>
<g fill="rgb(0%, 0%, 0%)" fill-opacity="1">
<use xlink:href="#glyph-6-15" x="223.371094" y="17.644531"/>
</g>
</svg>
